<?xml version="1.0" encoding="utf-8"?>
<!-- Generator: Adobe Illustrator 16.0.0, SVG Export Plug-In . SVG Version: 6.00 Build 0)  -->
<!DOCTYPE svg PUBLIC "-//W3C//DTD SVG 1.1//EN" "http://www.w3.org/Graphics/SVG/1.1/DTD/svg11.dtd">
<svg version="1.1"
	 id="Layer_1" xmlns:ev="http://www.w3.org/2001/xml-events" xmlns:v="http://schemas.microsoft.com/visio/2003/SVGExtensions/"
	 xmlns="http://www.w3.org/2000/svg" xmlns:xlink="http://www.w3.org/1999/xlink" x="0px" y="0px" width="425.645px"
	 height="248.838px" viewBox="0 0 425.645 248.838" enable-background="new 0 0 425.645 248.838" xml:space="preserve">
<v:documentProperties  v:viewMarkup="false" v:metric="true" v:langID="1031"></v:documentProperties>
<g>
	<title>Zeichenblatt-1</title>
	
		<v:pageProperties  v:shadowOffsetY="-8.50394" v:shadowOffsetX="8.50394" v:drawingUnits="24" v:pageScale="0.0393701" v:drawingScale="0.0393701">
		</v:pageProperties>
	<g id="group800-1" transform="translate(300.146,-21.0634)">
		<title>Tabelle.800</title>
		<g id="group801-2">
			<title>Zeichenblatt-1</title>
			<g id="group802-3" transform="translate(0,-9.27286)">
				<v:userDefs>
					<v:ud  v:val="VT0(0):5" v:prompt="" v:nameU="CTypeTopLeftSnip"></v:ud>
					<v:ud  v:val="VT0(0):5" v:prompt="" v:nameU="CTypeTopRightSnip"></v:ud>
					<v:ud  v:val="VT0(0):5" v:prompt="" v:nameU="CTypeBotLeftSnip"></v:ud>
					<v:ud  v:val="VT0(0):5" v:prompt="" v:nameU="CTypeBotRightSnip"></v:ud>
					<v:ud  v:val="VT0(1):5" v:prompt="" v:nameU="CornerLockHoriz"></v:ud>
					<v:ud  v:val="VT0(1):5" v:prompt="" v:nameU="CornerLockVert"></v:ud>
					<v:ud  v:val="VT0(0):5" v:prompt="" v:nameU="CornerLockDiag"></v:ud>
					<v:ud  v:val="VT0(0):26" v:prompt="" v:nameU="TopLeftOffset"></v:ud>
					<v:ud  v:val="VT0(0):26" v:prompt="" v:nameU="TopRightOffset"></v:ud>
					<v:ud  v:val="VT0(0):26" v:prompt="" v:nameU="BotLeftOffset"></v:ud>
					<v:ud  v:val="VT0(0):26" v:prompt="" v:nameU="BotRightOffset"></v:ud>
					<v:ud  v:val="VT0(15):26" v:prompt="" v:nameU="visVersion"></v:ud>
				</v:userDefs>
				<title>Abgerundetes Rechteck</title>
				<g id="shape803-4">
					<title>Tabelle.803</title>
					<path d="M121.64,248.839H3.11c-1.72,0-3.11-1.399-3.11-3.119v-66.35c0-1.721,1.391-3.11,3.11-3.11h118.53
						c1.72,0,3.109,1.39,3.109,3.11v66.35C124.75,247.44,123.36,248.839,121.64,248.839z M6.23,242.611h112.29V182.48H6.23V242.611z
						"/>
				</g>
			</g>
			<g id="group804-6" transform="translate(57.8531,-0.838254)">
				<v:userDefs>
					<v:ud  v:val="VT0(15):26" v:nameU="visVersion"></v:ud>
				</v:userDefs>
				<title>Rechteck</title>
				<g id="group805-7">
					<title>Tabelle.805</title>
					<g id="shape806-8" transform="translate(0.0747073,-0.0747073)">
						<title>Tabelle.806</title>
						<rect x="0" y="235.602" width="6.177" height="13.235"/>
					</g>
					<g id="shape807-10">
						<title>Tabelle.807</title>
						<path d="M6.25,248.84H0.07c-0.04,0-0.07-0.04-0.07-0.08v-13.23c0-0.039,0.03-0.08,0.07-0.08h6.18c0.04,0,0.08,0.041,0.08,0.08
							v13.23C6.33,248.8,6.29,248.84,6.25,248.84z M0.15,248.69h6.03V235.6H0.15V248.69z"/>
					</g>
				</g>
			</g>
			<g id="group808-12" transform="translate(33.8086,2.84217E-014)">
				<v:userDefs>
					<v:ud  v:val="VT0(15):26" v:nameU="visVersion"></v:ud>
				</v:userDefs>
				<title>Rechteck.71</title>
				<g id="group809-13">
					<title>Tabelle.809</title>
					<g id="shape810-14" transform="translate(0.0747073,-0.0747073)">
						<title>Tabelle.810</title>
						<rect x="0" y="245.75" width="55.501" height="3.088"/>
					</g>
					<g id="shape811-16">
						<title>Tabelle.811</title>
						<path d="M55.58,248.84H0.07c-0.04,0-0.07-0.039-0.07-0.08v-3.08c0-0.05,0.03-0.08,0.07-0.08h55.51c0.04,0,0.07,0.03,0.07,0.08
							v3.08C55.65,248.801,55.62,248.84,55.58,248.84z M0.15,248.689H55.5v-2.939H0.15V248.689z"/>
					</g>
				</g>
			</g>
		</g>
	</g>
	<g id="group791-18" transform="translate(0.611241,-26.5247)">
		<title>Tabelle.791</title>
		<g id="group792-19">
			<title>Zeichenblatt-1</title>
			<g id="group793-20" transform="translate(13.1991,-13.7491)">
				<title>Tabelle.74</title>
				<g id="shape794-21">
					<title>Tabelle.794</title>
					<path d="M98.241,248.839H1.76c-0.97,0-1.76-0.789-1.76-1.76V192.68c0-0.97,0.79-1.761,1.76-1.761h96.48
						c0.97,0,1.76,0.791,1.76,1.761v54.399C100,248.05,99.21,248.839,98.241,248.839z M5.6,243.23h88.79v-46.699H5.6V243.23z"/>
				</g>
			</g>
			<g id="group795-23" transform="translate(1.89586,-1.7557)">
				<title>Tabelle.75</title>
				<g id="shape796-24">
					<title>Tabelle.796</title>
					<path d="M122.5,248.84L111.63,238H10.87L0,248.84H122.5z"/>
				</g>
			</g>
			<g id="group797-26">
				<title>Tabelle.76</title>
				<g id="shape798-27">
					<title>Tabelle.798</title>
					<path d="M124.401,248.84H1.901c-0.71,0-1.36-0.43-1.631-1.09c-0.27-0.65-0.119-1.41,0.381-1.91L11.531,235
						c0.33-0.33,0.77-0.521,1.239-0.521h100.75c0.471,0,0.91,0.19,1.24,0.521l10.88,10.84c0.5,0.5,0.65,1.26,0.38,1.91
						C125.75,248.41,125.111,248.84,124.401,248.84z M6.14,245.321h114.011L112.8,238h-99.31L6.14,245.321z"/>
				</g>
			</g>
		</g>
		<g id="shape799-29" transform="translate(18.8041,-19.3538)">
			<title>Tabelle.799</title>
			<rect x="0" y="202.133" fill="#4F4F4F" width="88.79" height="46.705"/>
		</g>
	</g>
	<g id="shape643-31" transform="translate(108.347,-63.0193)">
		<title>Tabelle.643</title>
		
			<path fill="none" stroke="#000000" stroke-width="0.75" stroke-linecap="round" stroke-linejoin="round" stroke-miterlimit="3" d="
			M0,248.841H45.27"/>
	</g>
	<g id="group688-34" transform="translate(94.862,7.7293) rotate(-15)">
		<title>Tabelle.688</title>
		<g id="group689-35">
			<title>Tabelle.689</title>
			<g id="shape690-36">
				<title>Tabelle.690</title>
				<path d="M0,189.351c0-1.12,0-2.25,0-3.371c0.141-0.89,0.24-1.79,0.41-2.67c2.25-11.46,11.85-18.889,22.24-19.31
					c0.73-0.029,0.98-0.33,1.19-0.969c2.45-7.721,7.51-12.971,15.11-15.67c1.95-0.691,4.05-0.91,6.09-1.351
					c1.12,0.001,2.25,0,3.37,0.001c0.18,0.049,0.36,0.119,0.54,0.139c5.1,0.471,9.569,2.41,13.4,5.801
					c0.55,0.49,0.89,0.38,1.42,0.021c4.99-3.401,10.51-4.831,16.5-4.051c6.05,0.79,11.129,3.55,15.09,8.201
					c3.34,3.93,5.259,8.5,5.58,13.68c0.05,0.749,0.48,0.81,0.98,0.95c8.33,2.23,13.989,7.4,16.85,15.53
					c0.66,1.88,0.89,3.92,1.32,5.89c0,1.19-0.001,2.381,0,3.56c-0.05,0.181-0.13,0.35-0.15,0.53c-0.439,4.76-2.24,8.96-5.27,12.641
					c-0.381,0.469-0.41,0.81-0.191,1.33c2.041,4.759,2.41,9.689,1.29,14.729c-2.99,13.4-17.29,21.59-30.339,17.36
					c-1.471-0.48-2.871-1.13-4.33-1.719c-0.12,0.13-0.25,0.269-0.38,0.4c-3.199,3.44-7.05,5.819-11.6,7.02
					c-1.37,0.369-2.79,0.55-4.19,0.819c-1.19,0-2.38,0-3.57,0c-0.181-0.049-0.351-0.129-0.53-0.149
					c-5.75-0.57-10.66-2.931-14.66-7.091c-1.17-1.219-2.18-2.61-3.28-3.95c-4.6,1.79-9.33,2.151-14.19,1.061
					c-13.251-2.96-21.42-16.84-17.551-29.871c0.181-0.61,0.1-0.909-0.439-1.27c-4.6-3.06-7.8-7.24-9.491-12.499
					C0.62,193.23,0.4,191.259,0,189.351z M24.411,169.87c0-0.04-0.001-0.08-0.01-0.12c-1.18,0.1-2.37,0.12-3.54,0.32
					c-7.79,1.32-13.69,7.31-14.779,15.35c-1.05,7.749,3.019,14.849,9.64,18.27c2.399,1.24,2.86,2.47,1.78,4.93
					c-1.4,3.22-1.74,6.58-1.12,10c2.161,11.93,15.14,18.32,25.93,12.8c2.28-1.16,3.74-0.7,4.9,1.57c6.17,12.1,22.42,13.4,30.44,2.44
					c1.56-2.12,2.881-2.37,5.07-0.91c3.75,2.51,7.87,3.459,12.31,2.829c12.35-1.74,19.21-15.31,13.33-26.29
					c-1.11-2.08-0.96-3.04,0.71-4.739c2.83-2.89,4.53-6.341,4.99-10.35c1.141-10.03-6.1-18.94-16.13-19.94
					c-1.689-0.17-2.77-1.36-2.809-3.05c-0.02-1.279-0.02-2.569-0.17-3.831C93.71,158.46,82.671,151.27,72.3,154.34
					c-2.8,0.84-5.24,2.29-7.409,4.239c-1.491,1.341-3.1,1.221-4.471-0.229c-0.17-0.18-0.33-0.369-0.5-0.55
					c-8.921-9.76-24.95-6.88-29.88,5.391c-0.47,1.169-0.75,2.44-0.95,3.689c-0.32,2.07-1.47,3.1-3.55,3
					C25.16,169.861,24.791,169.871,24.411,169.87z"/>
			</g>
			<g id="shape691-38" transform="translate(0,-0.000375296)">
				<title>Tabelle.691</title>
				<path fill="#FFFFFF" d="M0,189.35c0.4,1.91,0.621,3.88,1.22,5.721c1.691,5.259,4.891,9.439,9.49,12.499
					c0.54,0.36,0.621,0.66,0.44,1.27c-3.87,13.03,4.3,26.91,17.551,29.87c4.859,1.09,9.59,0.731,14.189-1.06
					c1.1,1.34,2.11,2.73,3.28,3.95c4,4.159,8.91,6.519,14.661,7.09c0.18,0.02,0.349,0.1,0.53,0.15c-20.441,0-40.87-0.001-61.36,0
					C0,229.01,0.001,209.18,0,189.35z"/>
			</g>
			<g id="shape692-40" transform="translate(48.4132,-56.6697)">
				<title>Tabelle.692</title>
				<path fill="#FFFFFF" d="M71.68,248.84c-0.43-1.969-0.661-4.009-1.331-5.889c-2.859-8.13-8.52-13.301-16.839-15.53
					c-0.51-0.141-0.94-0.2-0.98-0.95c-0.33-5.18-2.24-9.75-5.59-13.681c-3.96-4.66-9.03-7.41-15.08-8.2
					c-5.99-0.78-11.51,0.651-16.51,4.05c-0.53,0.359-0.87,0.47-1.42-0.021c-3.819-3.389-8.3-5.33-13.4-5.8
					c-0.179-0.021-0.35-0.091-0.529-0.141c23.89,0.001,47.789,0.001,71.68,0.001C71.68,218.06,71.68,233.45,71.68,248.84z"/>
			</g>
			<g id="shape693-42" transform="translate(0,-62.8622)">
				<title>Tabelle.693</title>
				<path fill="#FFFFFF" d="M45.041,208.87c-2.04,0.44-4.14,0.66-6.09,1.351c-7.6,2.709-12.66,7.959-15.111,15.67
					c-0.209,0.65-0.459,0.941-1.189,0.969c-10.391,0.421-19.99,7.85-22.241,19.31c-0.169,0.881-0.27,1.78-0.409,2.671
					C0,235.53,0,222.22,0,208.871C15.01,208.87,30.02,208.87,45.041,208.87z"/>
			</g>
			<g id="shape694-44" transform="translate(64.9262,-0.000187648)">
				<title>Tabelle.694</title>
				<path fill="#FFFFFF" d="M0,248.84c1.4-0.27,2.82-0.45,4.19-0.82c4.549-1.199,8.41-3.58,11.61-7.02
					c0.12-0.13,0.25-0.271,0.37-0.4c1.46,0.589,2.87,1.24,4.33,1.72c13.05,4.23,27.35-3.961,30.339-17.36
					c1.13-5.04,0.75-9.97-1.28-14.73c-0.23-0.521-0.199-0.86,0.181-1.331c3.03-3.679,4.83-7.88,5.269-12.64
					c0.021-0.179,0.111-0.349,0.16-0.53c0,17.691,0,35.38,0,53.11C36.78,248.84,18.391,248.84,0,248.84z"/>
			</g>
			<g id="shape695-46" transform="translate(5.02953,-2.44562)">
				<title>Tabelle.695</title>
				<path fill="#FFFFFF" d="M19.38,172.319c0.38,0.001,0.75-0.019,1.13,0.001c2.081,0.11,3.229-0.929,3.55-2.99
					c0.199-1.25,0.48-2.52,0.95-3.689c4.93-12.281,20.959-15.16,29.88-5.401c0.17,0.19,0.33,0.381,0.5,0.56
					c1.37,1.441,2.98,1.561,4.47,0.23c2.17-1.949,4.61-3.41,7.42-4.24c10.36-3.081,21.4,4.12,22.65,14.799
					c0.141,1.271,0.14,2.561,0.171,3.831c0.03,1.7,1.11,2.89,2.8,3.059c10.03,1.001,17.27,9.911,16.13,19.94
					c-0.46,4-2.16,7.461-4.99,10.34c-1.67,1.7-1.82,2.661-0.71,4.75c5.88,10.98-0.981,24.54-13.331,26.291
					c-4.439,0.629-8.559-0.32-12.31-2.831c-2.19-1.459-3.51-1.22-5.069,0.91c-8.02,10.96-24.27,9.651-30.44-2.45
					c-1.16-2.26-2.62-2.73-4.9-1.56C26.491,239.39,13.51,233,11.35,221.06c-0.619-3.419-0.279-6.78,1.121-9.99
					c1.08-2.461,0.63-3.69-1.781-4.93c-6.62-3.421-10.689-10.521-9.64-18.27c1.091-8.04,6.99-14.04,14.791-15.351
					c1.159-0.199,2.35-0.22,3.54-0.319C19.38,172.24,19.381,172.28,19.38,172.319z"/>
			</g>
		</g>
	</g>
	<g id="group696-48" transform="translate(71.9321,-3.62129)">
		<title>Layer_2.696</title>
		<g id="group697-49" transform="translate(0,-17.407)">
			<title>Tabelle.697</title>
			<g id="shape698-50" transform="translate(1.25333,-1.25315)">
				<title>Tabelle.698</title>
				<ellipse fill="#FFFFFF" cx="25.313" cy="223.525" rx="25.313" ry="25.313"/>
			</g>
			<g id="shape699-52">
				<title>Tabelle.699</title>
				<path fill="#808285" d="M26.57,248.84c-14.649,0-26.569-11.92-26.569-26.57c0-14.649,11.92-26.56,26.569-26.56
					c14.641,0,26.561,11.91,26.561,26.56C53.131,236.92,41.211,248.84,26.57,248.84z M26.57,198.21c-13.27,0-24.06,10.8-24.06,24.06
					c0,13.271,10.79,24.061,24.06,24.061c13.26,0,24.05-10.79,24.05-24.061C50.62,209.01,39.83,198.21,26.57,198.21z"/>
			</g>
		</g>
		<g id="shape700-54" transform="translate(221.417,397.19) rotate(135)">
			<title>Tabelle.700</title>
			<rect x="0" y="215.548" fill="#808285" width="5.745" height="33.29"/>
		</g>
	</g>
	<g id="shape765-56" transform="translate(171.317,-55.0738)">
		<title>Tabelle.765</title>
		<desc>Internet</desc>
		<v:textBlock  v:tabSpace="42.5197" v:margins="rect(4,4,4,4)"></v:textBlock>
		<v:textRect  width="65.29" height="21.7621" cy="237.957" cx="32.6432"></v:textRect>
		<rect x="0.001" y="227.077" fill="none" width="65.286" height="21.762"/>
		<text transform="matrix(1 0 0 1 12.38 241.5591)" enable-background="new    " font-family="'Roboto-Light'" font-size="12.0001">Internet<v:paragraph  v:horizAlign="1"></v:paragraph><v:tabList></v:tabList></text>
	</g>
	<g id="shape768-59" transform="translate(21.1541,-99.9244)">
		<title>Tabelle.768</title>
		<desc>Schule</desc>
		<v:textBlock  v:tabSpace="42.5197" v:margins="rect(4,4,4,4)"></v:textBlock>
		<v:textRect  width="85.21" height="18.2839" cy="239.696" cx="42.6021"></v:textRect>
		<rect x="0" y="230.554" fill="none" width="85.204" height="18.283"/>
		
			<text transform="matrix(1 0 0 1 24.9199 243.2994)" enable-background="new    " font-family="'Roboto-Light'" font-size="12.0001">Schule<v:paragraph  v:horizAlign="1"></v:paragraph><v:tabList></v:tabList></text>
	</g>
	<g id="shape769-62" transform="translate(325.099,-103.521)">
		<title>Tabelle.769</title>
		<desc>Home</desc>
		<v:textBlock  v:tabSpace="42.5197" v:margins="rect(4,4,4,4)"></v:textBlock>
		<v:textRect  width="69.13" height="21.7621" cy="237.957" cx="34.563"></v:textRect>
		<rect x="0" y="227.076" fill="none" width="69.126" height="21.762"/>
		
			<text transform="matrix(1 0 0 1 18.5399 241.5591)" enable-background="new    " font-family="'Roboto-Light'" font-size="12.0001">Home<v:paragraph  v:horizAlign="1"></v:paragraph><v:tabList></v:tabList></text>
	</g>
	<g id="group770-65" transform="translate(87.9734,-33.6881)">
		<title>Tabelle.770</title>
		<g id="group771-66">
			<title>Zeichenblatt-1</title>
			<g id="group772-67">
				<title>Tabelle.42</title>
				<g id="shape773-68">
					<title>Tabelle.773</title>
					<path d="M20.77,248.839H0.81c-0.45,0-0.81-0.369-0.81-0.819v-26.58c0-0.45,0.359-0.81,0.81-0.81h15.971
						c0.26,0,0.5,0.119,0.649,0.319l3.99,5.32c0.1,0.14,0.16,0.31,0.16,0.489v21.261C21.581,248.47,21.22,248.839,20.77,248.839z
						 M1.63,247.211h18.32V227.03l-3.58-4.771H1.63V247.211z"/>
				</g>
			</g>
		</g>
	</g>
	<g id="shape789-70" transform="translate(258.571,-63.0193)">
		<title>Tabelle.789</title>
		
			<path fill="none" stroke="#000000" stroke-width="0.75" stroke-linecap="round" stroke-linejoin="round" stroke-miterlimit="3" d="
			M0.001,248.841H45.16"/>
	</g>
	<g id="group812-73" transform="translate(294.937,-37.0707)">
		<title>Layer_2.812</title>
		<g id="group813-74" transform="translate(0,-17.407)">
			<title>Tabelle.813</title>
			<g id="shape814-75" transform="translate(1.25333,-1.25315)">
				<title>Tabelle.814</title>
				<ellipse fill="#FFFFFF" cx="25.313" cy="223.525" rx="25.313" ry="25.313"/>
			</g>
			<g id="shape815-77">
				<title>Tabelle.815</title>
				<path fill="#808285" d="M26.57,248.84c-14.65,0-26.569-11.92-26.569-26.57s11.919-26.56,26.569-26.56
					c14.64,0,26.56,11.909,26.56,26.56S41.21,248.84,26.57,248.84z M26.57,198.21c-13.27,0-24.06,10.8-24.06,24.06
					c0,13.271,10.79,24.061,24.06,24.061c13.26,0,24.05-10.79,24.05-24.061C50.62,209.01,39.83,198.21,26.57,198.21z"/>
			</g>
		</g>
		<g id="shape816-79" transform="translate(221.417,397.19) rotate(135)">
			<title>Tabelle.816</title>
			<rect x="0" y="215.548" fill="#808285" width="5.745" height="33.29"/>
		</g>
	</g>
	<g id="group817-81" transform="translate(310.978,-67.1375)">
		<title>Tabelle.817</title>
		<g id="group818-82">
			<title>Zeichenblatt-1</title>
			<g id="group819-83">
				<title>Tabelle.42</title>
				<g id="shape820-84">
					<title>Tabelle.820</title>
					<path d="M20.77,248.84H0.81c-0.45,0-0.811-0.369-0.811-0.82v-26.58c0-0.449,0.36-0.809,0.811-0.809h15.97
						c0.26,0,0.5,0.119,0.65,0.319l3.989,5.319c0.101,0.141,0.16,0.311,0.16,0.49v21.26C21.58,248.471,21.22,248.84,20.77,248.84z
						 M1.63,247.211h18.32V227.03l-3.58-4.771H1.63V247.211z"/>
				</g>
			</g>
		</g>
	</g>
	<g id="group823-86" transform="translate(174.498,-151.58)">
		<title>Tabelle.823</title>
		<g id="group824-87">
			<title>Zeichenblatt-1</title>
			<g id="group825-88" transform="translate(2.51397,-2.38985)">
				<title>Tabelle.10</title>
				<g id="shape826-89">
					<title>Tabelle.826</title>
					<path d="M0,170.05v78.79h67.98v-78.79H0z"/>
				</g>
			</g>
			<g id="group827-91" transform="translate(0.124117,2.84217E-014)">
				<title>Tabelle.11</title>
				<g id="shape828-92">
					<title>Tabelle.828</title>
					<path d="M70.37,248.84H2.39c-1.319,0-2.39-1.07-2.39-2.39v-78.79c0-1.32,1.07-2.39,2.39-2.39h67.98c1.32,0,2.39,1.07,2.39,2.39
						v78.79C72.76,247.77,71.691,248.84,70.37,248.84z M4.78,244.06h63.2v-74.01H4.78V244.06z"/>
				</g>
			</g>
			<g id="group829-94" transform="translate(1.69565,-81.4908)">
				<title>Tabelle.12</title>
				<g id="shape830-95">
					<title>Tabelle.830</title>
					<path d="M0,248.84l13.49-13.45h42.53l13.47,13.45H0z"/>
				</g>
			</g>
			<g id="group831-97" transform="translate(0,-79.9168)">
				<title>Tabelle.13</title>
				<g id="shape832-98">
					<title>Tabelle.832</title>
					<path d="M71.21,248.84c-0.01,0-0.01,0-0.02,0H1.7c-0.641,0-1.21-0.39-1.46-0.98c-0.24-0.58-0.11-1.26,0.35-1.71l13.48-13.44
						c0.3-0.3,0.689-0.46,1.109-0.46h42.53c0.42,0,0.82,0.16,1.11,0.46l13.34,13.3c0.38,0.29,0.62,0.74,0.62,1.25
						C72.781,248.13,72.08,248.84,71.21,248.84z M5.5,245.69h61.89l-10.33-10.3H15.83L5.5,245.69z"/>
				</g>
			</g>
			<g id="group833-100" transform="translate(5.40957,-67.2287)">
				<title>Tabelle.14</title>
				<g id="shape834-101">
					<title>Tabelle.834</title>
					<path fill="#FFFFFF" d="M0,239.66v9.18h61.69v-9.18H0z"/>
				</g>
			</g>
			<g id="group835-103" transform="translate(4.90622,-66.7254)">
				<title>Tabelle.15</title>
				<g id="shape836-104">
					<title>Tabelle.836</title>
					<path fill="#FFFFFF" d="M62.191,248.84H0.5c-0.27,0-0.5-0.23-0.5-0.51v-9.17c0-0.28,0.23-0.5,0.5-0.5h61.69
						c0.279,0,0.51,0.22,0.51,0.5v9.17C62.7,248.61,62.47,248.84,62.191,248.84z M1.01,247.83h60.681v-8.17H1.01V247.83z"/>
				</g>
			</g>
			<g id="group837-106" transform="translate(60.4258,-69.6163)">
				<title>Tabelle.16</title>
				<g id="shape838-107">
					<title>Tabelle.838</title>
					<path d="M0,246.95c0-1.03,0.85-1.88,1.89-1.88c1.061,0,1.891,0.85,1.891,1.88c0,1.06-0.83,1.89-1.891,1.89
						C0.85,248.84,0,248.01,0,246.95z"/>
				</g>
			</g>
			<g id="group839-109" transform="translate(5.03189,-20.7357)">
				<title>Tabelle.17</title>
				<g id="shape840-110">
					<title>Tabelle.840</title>
					<path fill="#FFFFFF" d="M0.001,239.66v9.18H61.69v-9.18H0.001z"/>
				</g>
			</g>
			<g id="group841-112" transform="translate(4.52854,-20.2334)">
				<title>Tabelle.18</title>
				<g id="shape842-113">
					<title>Tabelle.842</title>
					<path fill="#FFFFFF" d="M62.19,248.84H0.5c-0.27,0-0.5-0.23-0.5-0.5v-9.18c0-0.28,0.23-0.5,0.5-0.5h61.69
						c0.28,0,0.51,0.22,0.51,0.5v9.18C62.7,248.61,62.471,248.84,62.19,248.84z M1.01,247.83H61.69v-8.17H1.01V247.83z"/>
				</g>
			</g>
			<g id="group843-115" transform="translate(59.9212,-22.9976)">
				<title>Tabelle.19</title>
				<g id="shape844-116">
					<title>Tabelle.844</title>
					<path d="M0,246.95c0-1.03,0.851-1.88,1.891-1.88c1.06,0,1.89,0.85,1.89,1.88c0,1.06-0.83,1.89-1.89,1.89
						C0.851,248.84,0,248.01,0,246.95z"/>
				</g>
			</g>
			<g id="group845-118" transform="translate(5.03189,-5.02865)">
				<title>Tabelle.20</title>
				<g id="shape846-119">
					<title>Tabelle.846</title>
					<path fill="#FFFFFF" d="M0.001,239.66v9.18H61.69v-9.18H0.001z"/>
				</g>
			</g>
			<g id="group847-121" transform="translate(4.52854,-4.52635)">
				<title>Tabelle.21</title>
				<g id="shape848-122">
					<title>Tabelle.848</title>
					<path fill="#FFFFFF" d="M62.19,248.84H0.5c-0.27,0-0.5-0.23-0.5-0.5v-9.18c0-0.28,0.23-0.5,0.5-0.5h61.69
						c0.28,0,0.51,0.22,0.51,0.5v9.18C62.7,248.61,62.471,248.84,62.19,248.84z M1.01,247.83H61.69v-8.17H1.01V247.83z"/>
				</g>
			</g>
			<g id="group849-124" transform="translate(59.9212,-7.41612)">
				<title>Tabelle.22</title>
				<g id="shape850-125">
					<title>Tabelle.850</title>
					<path d="M0,246.95c0-1.03,0.851-1.88,1.891-1.88c1.06,0,1.89,0.85,1.89,1.88c0,1.06-0.83,1.89-1.89,1.89
						C0.851,248.84,0,248.01,0,246.95z"/>
				</g>
			</g>
			<g id="group851-127" transform="translate(5.03189,-36.4428)">
				<title>Tabelle.23</title>
				<g id="shape852-128">
					<title>Tabelle.852</title>
					<path fill="#FFFFFF" d="M0.001,224.71v24.13H61.69v-24.13H0.001z"/>
				</g>
			</g>
			<g id="group853-130" transform="translate(4.52854,-35.9405)">
				<title>Tabelle.24</title>
				<g id="shape854-131">
					<title>Tabelle.854</title>
					<path fill="#FFFFFF" d="M62.19,248.84H0.5c-0.27,0-0.5-0.23-0.5-0.5v-24.13c0-0.28,0.23-0.51,0.5-0.51h61.69
						c0.28,0,0.51,0.23,0.51,0.51v24.13C62.7,248.61,62.471,248.84,62.19,248.84z M1.01,247.83H61.69v-23.12H1.01V247.83z"/>
				</g>
			</g>
			<g id="group855-133" transform="translate(8.55695,-53.7835)">
				<title>Tabelle.25</title>
				<g id="shape856-134">
					<title>Tabelle.856</title>
					<path d="M0,246.95c0-1.03,0.851-1.88,1.891-1.88c1.06,0,1.89,0.85,1.89,1.88c0,1.06-0.83,1.89-1.89,1.89
						C0.851,248.84,0,248.01,0,246.95z"/>
				</g>
			</g>
			<g id="group857-136" transform="translate(8.55695,-45.3645)">
				<title>Tabelle.26</title>
				<g id="shape858-137">
					<title>Tabelle.858</title>
					<path d="M0,246.95c0-1.03,0.851-1.88,1.891-1.88c1.06,0,1.89,0.85,1.89,1.88c0,1.06-0.83,1.89-1.89,1.89
						C0.851,248.84,0,248.01,0,246.95z"/>
				</g>
			</g>
		</g>
	</g>
	<g id="group859-139" transform="translate(95.7753,-181.274)">
		<title>Tabelle.859</title>
		<g id="group860-140" transform="translate(1.06926,-0.934044)">
			<title>Tabelle.860</title>
			<g id="shape861-141" transform="translate(0.0129945,2.84217E-014)">
				<title>Tabelle.861</title>
				<path fill="#010101" d="M0.04,239.18c2.63,1.67,5.53,2.31,8.49,2.75c3.09,0.46,6.2,0.56,9.32,0.37
					c3.279-0.21,6.51-0.67,9.609-1.85c0.86-0.32,1.67-0.73,2.44-1.26c0.1,0.14,0.05,0.28,0.05,0.4c0.01,1.56-0.02,3.12,0.02,4.68
					c0.021,0.62-0.229,1.03-0.68,1.39c-0.81,0.63-1.729,1.05-2.68,1.4c-2.271,0.82-4.63,1.24-7.021,1.48
					c-2.42,0.24-4.84,0.3-7.26,0.15c-3.18-0.2-6.32-0.62-9.32-1.78c-0.81-0.31-1.59-0.69-2.27-1.23c-0.48-0.37-0.74-0.79-0.72-1.45
					c0.05-1.54,0.02-3.09,0.02-4.64C0.04,239.47,0.04,239.35,0.04,239.18z"/>
			</g>
			<g id="shape862-143" transform="translate(0,-26.4993)">
				<title>Tabelle.862</title>
				<path fill="#010101" d="M14.73,248.84c-3.369-0.04-6.97-0.35-10.47-1.42c-1.06-0.33-2.1-0.73-3.04-1.34
					c-0.37-0.23-0.71-0.49-0.979-0.84c-0.24-0.31-0.24-0.6,0.01-0.91c0.28-0.36,0.63-0.63,1.01-0.86c1.33-0.84,2.811-1.32,4.33-1.69
					c3.72-0.91,7.5-1.15,11.311-1c2.729,0.1,5.439,0.43,8.09,1.15c1.199,0.32,2.359,0.73,3.449,1.34
					c0.461,0.26,0.91,0.55,1.261,0.97c0.359,0.42,0.359,0.68-0.011,1.11c-0.35,0.41-0.789,0.7-1.26,0.96
					c-1.55,0.86-3.24,1.34-4.96,1.7C20.68,248.61,17.85,248.82,14.73,248.84z"/>
			</g>
			<g id="shape863-145" transform="translate(0.017524,-18.911)">
				<title>Tabelle.863</title>
				<path fill="#010101" d="M0.031,239.55c3.26,1.98,6.85,2.6,10.5,2.96c4.119,0.41,8.229,0.28,12.31-0.45
					c1.95-0.35,3.86-0.85,5.66-1.71c0.49-0.23,0.939-0.51,1.45-0.83c0,0.34,0,0.64,0,0.93c0,1.32-0.011,2.64,0.01,3.97
					c0.01,0.42-0.15,0.73-0.45,1.01c-0.72,0.68-1.6,1.1-2.52,1.46c-1.971,0.78-4.04,1.2-6.141,1.48c-2.83,0.37-5.67,0.47-8.51,0.3
					c-3.2-0.19-6.35-0.63-9.36-1.79c-0.81-0.31-1.58-0.69-2.27-1.23c-0.46-0.37-0.71-0.79-0.69-1.43
					C0.06,242.68,0.031,241.13,0.031,239.55z"/>
			</g>
			<g id="shape864-147" transform="translate(0.00319293,-13.3633)">
				<title>Tabelle.864</title>
				<path fill="#010101" d="M0.05,241.46c0.99,0.68,2.021,1.14,3.091,1.52c2.1,0.73,4.27,1.14,6.47,1.4
					c2.71,0.31,5.43,0.39,8.149,0.22c3.32-0.2,6.591-0.66,9.721-1.85c0.859-0.33,1.67-0.73,2.489-1.29c0,0.57,0,1.08,0,1.6
					c0,0.4-0.039,0.82,0.011,1.22c0.069,0.61-0.23,1.01-0.67,1.36c-0.811,0.65-1.74,1.07-2.71,1.42c-2.25,0.82-4.601,1.23-6.98,1.48
					c-2.42,0.25-4.86,0.3-7.3,0.15c-3.18-0.2-6.32-0.63-9.311-1.78c-0.829-0.32-1.609-0.71-2.3-1.26c-0.45-0.36-0.71-0.78-0.68-1.4
					C0.08,243.35,0.05,242.44,0.05,241.46z"/>
			</g>
			<g id="shape865-149" transform="translate(0.0223505,-7.8584)">
				<title>Tabelle.865</title>
				<path fill="#010101" d="M29.94,241.53c0,1.12,0.021,2.18-0.01,3.23c-0.02,0.39-0.36,0.64-0.649,0.88
					c-0.79,0.64-1.721,1.06-2.671,1.4c-2.06,0.75-4.189,1.16-6.359,1.41c-2.63,0.31-5.271,0.39-7.92,0.23
					c-3.2-0.2-6.351-0.62-9.36-1.79c-0.89-0.35-1.78-0.73-2.49-1.43c-0.31-0.31-0.479-0.65-0.46-1.11
					c0.03-0.92,0.011-1.83,0.011-2.75c0.029-0.01,0.06-0.02,0.069-0.02c1.931,1.27,4.101,1.9,6.32,2.35
					c3.99,0.81,8.02,0.98,12.07,0.68c2.92-0.21,5.8-0.66,8.569-1.64C28.06,242.61,29.01,242.16,29.94,241.53z"/>
			</g>
		</g>
		<g id="shape866-151" transform="translate(0.00497503,-4.90546)">
			<title>Tabelle.866</title>
			<rect x="0" y="222.259" fill="#FFFFFF" width="31.902" height="26.578"/>
		</g>
		<g id="shape867-153">
			<title>Tabelle.867</title>
			<ellipse fill="#FFFFFF" cx="15.949" cy="243.986" rx="15.948" ry="4.852"/>
		</g>
		<g id="shape868-155" transform="translate(0.00928177,-26.6213)">
			<title>Tabelle.868</title>
			<ellipse fill="#FFFFFF" cx="15.949" cy="243.986" rx="15.948" ry="4.852"/>
		</g>
		<g id="group869-157" transform="translate(0.995006,-0.785535)">
			<title>Tabelle.869</title>
			<g id="shape870-158" transform="translate(0.0129945,2.84217E-014)">
				<title>Tabelle.870</title>
				<path fill="#010101" d="M0.04,239.18c2.63,1.67,5.53,2.31,8.49,2.75c3.09,0.46,6.2,0.56,9.32,0.37
					c3.279-0.21,6.51-0.67,9.609-1.85c0.86-0.32,1.67-0.73,2.44-1.26c0.1,0.14,0.05,0.28,0.05,0.4c0.01,1.56-0.021,3.12,0.02,4.68
					c0.021,0.62-0.229,1.03-0.68,1.39c-0.81,0.63-1.729,1.05-2.68,1.4c-2.271,0.82-4.63,1.24-7.021,1.48
					c-2.42,0.25-4.84,0.3-7.26,0.15c-3.18-0.2-6.32-0.62-9.32-1.78c-0.81-0.31-1.59-0.69-2.27-1.23c-0.48-0.37-0.74-0.79-0.72-1.45
					c0.05-1.54,0.02-3.09,0.02-4.64C0.04,239.47,0.04,239.35,0.04,239.18z"/>
			</g>
			<g id="shape871-160" transform="translate(0,-26.4993)">
				<title>Tabelle.871</title>
				<path fill="#010101" d="M14.73,248.84c-3.369-0.04-6.97-0.35-10.47-1.42c-1.06-0.33-2.1-0.73-3.04-1.34
					c-0.37-0.23-0.71-0.49-0.979-0.84c-0.24-0.31-0.24-0.6,0.01-0.91c0.28-0.36,0.63-0.63,1.01-0.86c1.33-0.84,2.811-1.32,4.33-1.69
					c3.72-0.91,7.5-1.15,11.31-1c2.73,0.1,5.44,0.43,8.091,1.15c1.199,0.32,2.359,0.73,3.449,1.34c0.46,0.26,0.91,0.55,1.261,0.97
					c0.359,0.42,0.359,0.68-0.011,1.11c-0.35,0.41-0.79,0.7-1.26,0.96c-1.55,0.86-3.24,1.34-4.96,1.7
					C20.68,248.61,17.85,248.82,14.73,248.84z"/>
			</g>
			<g id="shape872-162" transform="translate(0.017524,-18.911)">
				<title>Tabelle.872</title>
				<path fill="#010101" d="M0.031,239.55c3.26,1.98,6.85,2.6,10.5,2.96c4.119,0.41,8.229,0.28,12.31-0.45
					c1.95-0.35,3.86-0.85,5.66-1.71c0.49-0.23,0.939-0.51,1.45-0.83c0,0.34,0,0.64,0,0.93c0,1.32-0.011,2.64,0.01,3.97
					c0.01,0.42-0.15,0.729-0.45,1.01c-0.72,0.68-1.6,1.1-2.52,1.46c-1.971,0.78-4.04,1.2-6.141,1.48c-2.83,0.37-5.67,0.47-8.51,0.3
					c-3.2-0.19-6.35-0.63-9.36-1.79c-0.81-0.31-1.58-0.69-2.27-1.23c-0.46-0.37-0.71-0.79-0.69-1.43
					C0.06,242.68,0.031,241.13,0.031,239.55z"/>
			</g>
			<g id="shape873-164" transform="translate(0.00319293,-13.3633)">
				<title>Tabelle.873</title>
				<path fill="#010101" d="M0.05,241.46c0.99,0.68,2.021,1.14,3.091,1.52c2.1,0.73,4.27,1.14,6.47,1.4
					c2.71,0.31,5.43,0.39,8.149,0.22c3.32-0.2,6.591-0.66,9.721-1.85c0.859-0.33,1.67-0.73,2.489-1.29c0,0.57,0,1.08,0,1.6
					c0,0.4-0.04,0.82,0.011,1.22c0.069,0.61-0.23,1.01-0.67,1.36c-0.811,0.65-1.74,1.07-2.71,1.42c-2.25,0.82-4.601,1.23-6.98,1.48
					c-2.42,0.25-4.86,0.3-7.3,0.15c-3.18-0.2-6.32-0.63-9.311-1.78c-0.83-0.32-1.609-0.71-2.3-1.26c-0.45-0.36-0.71-0.78-0.68-1.4
					C0.08,243.35,0.05,242.44,0.05,241.46z"/>
			</g>
			<g id="shape874-166" transform="translate(0.0223505,-7.85832)">
				<title>Tabelle.874</title>
				<path fill="#010101" d="M29.94,241.53c0,1.12,0.021,2.18-0.01,3.23c-0.02,0.39-0.36,0.64-0.65,0.88
					c-0.789,0.64-1.72,1.06-2.67,1.4c-2.06,0.75-4.189,1.16-6.359,1.41c-2.63,0.31-5.271,0.39-7.92,0.23
					c-3.2-0.2-6.351-0.62-9.36-1.79c-0.89-0.35-1.78-0.73-2.49-1.43c-0.31-0.31-0.479-0.65-0.46-1.11c0.03-0.92,0.01-1.83,0.01-2.75
					c0.03-0.01,0.061-0.02,0.07-0.02c1.93,1.27,4.101,1.9,6.32,2.35c3.99,0.81,8.02,0.98,12.07,0.68c2.92-0.21,5.8-0.66,8.569-1.64
					C28.06,242.61,29.01,242.16,29.94,241.53z"/>
			</g>
		</g>
	</g>
	<g id="group875-168" transform="translate(78.4042,-169.936)">
		<title>Tabelle.875</title>
		<g id="group876-169" transform="translate(1.06926,-0.934044)">
			<title>Tabelle.876</title>
			<g id="shape877-170" transform="translate(0.0129945,2.84217E-014)">
				<title>Tabelle.877</title>
				<path fill="#010101" d="M0.04,239.18c2.63,1.67,5.53,2.31,8.49,2.75c3.09,0.46,6.2,0.56,9.32,0.37
					c3.279-0.21,6.51-0.67,9.609-1.85c0.86-0.32,1.67-0.73,2.44-1.26c0.1,0.14,0.05,0.28,0.05,0.4c0.01,1.56-0.02,3.12,0.02,4.68
					c0.021,0.62-0.229,1.03-0.68,1.39c-0.81,0.63-1.729,1.05-2.68,1.4c-2.271,0.82-4.63,1.24-7.021,1.48
					c-2.42,0.24-4.84,0.3-7.26,0.15c-3.18-0.2-6.32-0.62-9.32-1.78c-0.81-0.31-1.59-0.69-2.27-1.23c-0.48-0.37-0.74-0.79-0.72-1.45
					c0.05-1.54,0.02-3.09,0.02-4.64C0.04,239.47,0.04,239.35,0.04,239.18z"/>
			</g>
			<g id="shape878-172" transform="translate(0,-26.4993)">
				<title>Tabelle.878</title>
				<path fill="#010101" d="M14.73,248.84c-3.369-0.04-6.97-0.35-10.47-1.42c-1.06-0.33-2.1-0.73-3.04-1.34
					c-0.37-0.23-0.71-0.49-0.979-0.84c-0.24-0.31-0.24-0.6,0.01-0.91c0.28-0.36,0.63-0.63,1.01-0.86c1.33-0.84,2.811-1.32,4.33-1.69
					c3.72-0.91,7.5-1.15,11.311-1c2.729,0.1,5.439,0.43,8.09,1.15c1.199,0.32,2.359,0.73,3.449,1.34
					c0.461,0.26,0.91,0.55,1.261,0.97c0.359,0.42,0.359,0.68-0.011,1.11c-0.35,0.41-0.789,0.7-1.26,0.96
					c-1.55,0.86-3.24,1.34-4.96,1.7C20.68,248.61,17.85,248.82,14.73,248.84z"/>
			</g>
			<g id="shape879-174" transform="translate(0.017524,-18.911)">
				<title>Tabelle.879</title>
				<path fill="#010101" d="M0.031,239.55c3.26,1.98,6.85,2.6,10.5,2.96c4.119,0.41,8.229,0.28,12.31-0.45
					c1.95-0.35,3.86-0.85,5.66-1.71c0.49-0.23,0.939-0.51,1.45-0.83c0,0.34,0,0.64,0,0.93c0,1.32-0.011,2.64,0.01,3.97
					c0.01,0.42-0.15,0.729-0.45,1.01c-0.72,0.68-1.6,1.1-2.52,1.46c-1.971,0.78-4.04,1.2-6.141,1.48c-2.83,0.37-5.67,0.47-8.51,0.3
					c-3.2-0.19-6.35-0.63-9.36-1.79c-0.81-0.31-1.58-0.69-2.27-1.23c-0.46-0.37-0.71-0.79-0.69-1.43
					C0.06,242.68,0.031,241.13,0.031,239.55z"/>
			</g>
			<g id="shape880-176" transform="translate(0.00319293,-13.3633)">
				<title>Tabelle.880</title>
				<path fill="#010101" d="M0.05,241.46c0.99,0.68,2.021,1.14,3.091,1.52c2.1,0.73,4.27,1.14,6.47,1.4
					c2.71,0.31,5.43,0.39,8.149,0.22c3.32-0.2,6.591-0.66,9.721-1.85c0.859-0.33,1.67-0.73,2.489-1.29c0,0.57,0,1.08,0,1.6
					c0,0.4-0.039,0.82,0.011,1.22c0.069,0.61-0.23,1.01-0.67,1.36c-0.811,0.65-1.74,1.07-2.71,1.42c-2.25,0.82-4.601,1.23-6.98,1.48
					c-2.42,0.25-4.86,0.3-7.3,0.15c-3.18-0.2-6.32-0.63-9.311-1.78c-0.829-0.32-1.609-0.71-2.3-1.26c-0.45-0.36-0.71-0.78-0.68-1.4
					C0.08,243.35,0.05,242.44,0.05,241.46z"/>
			</g>
			<g id="shape881-178" transform="translate(0.0223505,-7.8584)">
				<title>Tabelle.881</title>
				<path fill="#010101" d="M29.94,241.53c0,1.12,0.021,2.18-0.01,3.23c-0.02,0.39-0.36,0.64-0.649,0.88
					c-0.79,0.64-1.721,1.06-2.671,1.4c-2.06,0.75-4.189,1.16-6.359,1.41c-2.63,0.31-5.271,0.39-7.92,0.23
					c-3.2-0.2-6.351-0.62-9.36-1.79c-0.89-0.35-1.78-0.73-2.49-1.43c-0.31-0.31-0.479-0.65-0.46-1.11
					c0.03-0.92,0.011-1.83,0.011-2.75c0.029-0.01,0.06-0.02,0.069-0.02c1.931,1.27,4.101,1.9,6.32,2.35
					c3.99,0.81,8.02,0.98,12.07,0.68c2.92-0.21,5.8-0.66,8.569-1.64C28.06,242.61,29.01,242.16,29.94,241.53z"/>
			</g>
		</g>
		<g id="shape882-180" transform="translate(0.00497503,-4.90546)">
			<title>Tabelle.882</title>
			<rect x="0" y="222.259" fill="#FFFFFF" width="31.902" height="26.579"/>
		</g>
		<g id="shape883-182">
			<title>Tabelle.883</title>
			<ellipse fill="#FFFFFF" cx="15.949" cy="243.986" rx="15.948" ry="4.852"/>
		</g>
		<g id="shape884-184" transform="translate(0.00928177,-26.6213)">
			<title>Tabelle.884</title>
			<ellipse fill="#FFFFFF" cx="15.949" cy="243.986" rx="15.948" ry="4.852"/>
		</g>
		<g id="group885-186" transform="translate(0.995006,-0.785535)">
			<title>Tabelle.885</title>
			<g id="shape886-187" transform="translate(0.0129945,2.84217E-014)">
				<title>Tabelle.886</title>
				<path fill="#010101" d="M0.04,239.18c2.63,1.67,5.53,2.31,8.49,2.75c3.09,0.46,6.2,0.56,9.32,0.37
					c3.279-0.21,6.51-0.67,9.609-1.85c0.86-0.32,1.67-0.73,2.44-1.26c0.1,0.14,0.05,0.28,0.05,0.4c0.01,1.56-0.021,3.12,0.02,4.68
					c0.021,0.62-0.229,1.03-0.68,1.39c-0.81,0.63-1.729,1.05-2.68,1.4c-2.271,0.82-4.63,1.24-7.021,1.48
					c-2.42,0.25-4.84,0.3-7.26,0.15c-3.18-0.2-6.32-0.62-9.32-1.78c-0.81-0.31-1.59-0.69-2.27-1.23c-0.48-0.37-0.74-0.79-0.72-1.45
					c0.05-1.54,0.02-3.09,0.02-4.64C0.04,239.47,0.04,239.35,0.04,239.18z"/>
			</g>
			<g id="shape887-189" transform="translate(0,-26.4993)">
				<title>Tabelle.887</title>
				<path fill="#010101" d="M14.73,248.84c-3.369-0.04-6.97-0.35-10.47-1.42c-1.06-0.33-2.1-0.73-3.04-1.34
					c-0.37-0.229-0.71-0.49-0.979-0.84c-0.24-0.31-0.24-0.6,0.01-0.91c0.28-0.36,0.63-0.63,1.01-0.86
					c1.33-0.84,2.811-1.32,4.33-1.69c3.72-0.91,7.5-1.15,11.31-1c2.73,0.1,5.44,0.43,8.091,1.15c1.199,0.32,2.359,0.73,3.449,1.34
					c0.46,0.26,0.91,0.55,1.261,0.97c0.359,0.42,0.359,0.68-0.011,1.11c-0.35,0.41-0.79,0.7-1.26,0.96
					c-1.55,0.86-3.24,1.34-4.96,1.7C20.68,248.61,17.85,248.82,14.73,248.84z"/>
			</g>
			<g id="shape888-191" transform="translate(0.017524,-18.911)">
				<title>Tabelle.888</title>
				<path fill="#010101" d="M0.031,239.55c3.26,1.98,6.85,2.6,10.5,2.96c4.119,0.41,8.229,0.28,12.31-0.45
					c1.95-0.35,3.86-0.85,5.66-1.71c0.49-0.23,0.939-0.51,1.45-0.83c0,0.34,0,0.64,0,0.93c0,1.32-0.011,2.64,0.01,3.97
					c0.01,0.42-0.15,0.73-0.45,1.01c-0.72,0.68-1.6,1.1-2.52,1.46c-1.971,0.78-4.04,1.2-6.141,1.48c-2.83,0.37-5.67,0.47-8.51,0.3
					c-3.2-0.19-6.35-0.63-9.36-1.79c-0.81-0.31-1.58-0.69-2.27-1.23c-0.46-0.37-0.71-0.79-0.69-1.43
					C0.06,242.68,0.031,241.13,0.031,239.55z"/>
			</g>
			<g id="shape889-193" transform="translate(0.00319293,-13.3633)">
				<title>Tabelle.889</title>
				<path fill="#010101" d="M0.05,241.46c0.99,0.68,2.021,1.14,3.091,1.52c2.1,0.73,4.27,1.14,6.47,1.4
					c2.71,0.31,5.43,0.39,8.149,0.22c3.32-0.2,6.591-0.66,9.721-1.85c0.859-0.33,1.67-0.73,2.489-1.29c0,0.57,0,1.08,0,1.6
					c0,0.4-0.04,0.82,0.011,1.22c0.069,0.61-0.23,1.01-0.67,1.36c-0.811,0.65-1.74,1.07-2.71,1.42c-2.25,0.82-4.601,1.23-6.98,1.48
					c-2.42,0.25-4.86,0.3-7.3,0.15c-3.18-0.2-6.32-0.63-9.311-1.78c-0.83-0.32-1.609-0.71-2.3-1.26c-0.45-0.36-0.71-0.78-0.68-1.4
					C0.08,243.35,0.05,242.44,0.05,241.46z"/>
			</g>
			<g id="shape890-195" transform="translate(0.0223505,-7.85832)">
				<title>Tabelle.890</title>
				<path fill="#010101" d="M29.94,241.53c0,1.12,0.021,2.18-0.01,3.23c-0.02,0.39-0.36,0.64-0.65,0.88
					c-0.789,0.64-1.72,1.06-2.67,1.4c-2.06,0.75-4.189,1.16-6.359,1.41c-2.63,0.31-5.271,0.39-7.92,0.23
					c-3.2-0.2-6.351-0.62-9.36-1.79c-0.89-0.35-1.78-0.73-2.49-1.43c-0.31-0.311-0.479-0.65-0.46-1.11
					c0.03-0.92,0.01-1.83,0.01-2.75c0.03-0.01,0.061-0.02,0.07-0.02c1.93,1.27,4.101,1.9,6.32,2.35c3.99,0.81,8.02,0.98,12.07,0.68
					c2.92-0.21,5.8-0.66,8.569-1.64C28.06,242.61,29.01,242.16,29.94,241.53z"/>
			</g>
		</g>
	</g>
	<g id="group891-197" transform="translate(112.783,-169.936)">
		<title>Tabelle.891</title>
		<g id="group892-198" transform="translate(1.06926,-0.934044)">
			<title>Tabelle.892</title>
			<g id="shape893-199" transform="translate(0.0129945,2.84217E-014)">
				<title>Tabelle.893</title>
				<path fill="#010101" d="M0.04,239.18c2.63,1.67,5.53,2.31,8.49,2.75c3.09,0.46,6.2,0.56,9.32,0.37
					c3.279-0.21,6.51-0.67,9.609-1.85c0.86-0.32,1.67-0.73,2.44-1.26c0.1,0.14,0.05,0.28,0.05,0.4c0.01,1.56-0.021,3.12,0.02,4.68
					c0.021,0.62-0.229,1.03-0.68,1.39c-0.81,0.63-1.729,1.05-2.68,1.4c-2.271,0.82-4.63,1.24-7.021,1.48
					c-2.42,0.24-4.84,0.3-7.26,0.15c-3.18-0.2-6.32-0.62-9.32-1.78c-0.81-0.31-1.59-0.69-2.27-1.23c-0.48-0.37-0.74-0.79-0.72-1.45
					c0.05-1.54,0.02-3.09,0.02-4.64C0.04,239.47,0.04,239.35,0.04,239.18z"/>
			</g>
			<g id="shape894-201" transform="translate(0,-26.4993)">
				<title>Tabelle.894</title>
				<path fill="#010101" d="M14.73,248.84c-3.37-0.04-6.97-0.35-10.47-1.42c-1.06-0.33-2.1-0.73-3.04-1.34
					c-0.37-0.23-0.71-0.49-0.979-0.84c-0.24-0.31-0.24-0.6,0.01-0.91c0.28-0.36,0.63-0.63,1.01-0.86c1.33-0.84,2.81-1.32,4.33-1.69
					c3.72-0.91,7.5-1.15,11.31-1c2.73,0.1,5.44,0.43,8.091,1.15c1.199,0.32,2.359,0.73,3.449,1.34c0.46,0.26,0.91,0.55,1.261,0.97
					c0.359,0.42,0.359,0.68-0.011,1.11c-0.35,0.41-0.79,0.7-1.26,0.96c-1.55,0.86-3.24,1.34-4.96,1.7
					C20.68,248.61,17.85,248.82,14.73,248.84z"/>
			</g>
			<g id="shape895-203" transform="translate(0.017524,-18.911)">
				<title>Tabelle.895</title>
				<path fill="#010101" d="M0.03,239.55c3.261,1.98,6.851,2.6,10.5,2.96c4.12,0.41,8.23,0.28,12.311-0.45
					c1.95-0.35,3.86-0.85,5.66-1.71c0.49-0.23,0.939-0.51,1.45-0.83c0,0.34,0,0.64,0,0.93c0,1.32-0.011,2.64,0.01,3.97
					c0.01,0.42-0.15,0.729-0.45,1.01c-0.72,0.68-1.6,1.1-2.52,1.46c-1.971,0.78-4.04,1.2-6.141,1.48c-2.83,0.37-5.67,0.47-8.51,0.3
					c-3.2-0.19-6.35-0.63-9.36-1.79c-0.81-0.31-1.58-0.69-2.27-1.23c-0.46-0.37-0.71-0.79-0.69-1.43
					C0.06,242.68,0.03,241.13,0.03,239.55z"/>
			</g>
			<g id="shape896-205" transform="translate(0.00319293,-13.3633)">
				<title>Tabelle.896</title>
				<path fill="#010101" d="M0.05,241.46c0.99,0.68,2.021,1.14,3.09,1.52c2.101,0.73,4.271,1.14,6.471,1.4
					c2.71,0.31,5.43,0.39,8.149,0.22c3.32-0.2,6.59-0.66,9.721-1.85c0.859-0.33,1.67-0.73,2.489-1.29c0,0.57,0,1.08,0,1.6
					c0,0.4-0.04,0.82,0.011,1.22c0.069,0.61-0.23,1.01-0.67,1.36c-0.811,0.65-1.74,1.07-2.711,1.42c-2.25,0.82-4.6,1.23-6.979,1.48
					c-2.42,0.25-4.86,0.3-7.3,0.15c-3.181-0.2-6.32-0.63-9.311-1.78c-0.83-0.32-1.609-0.71-2.3-1.26c-0.45-0.36-0.71-0.78-0.68-1.4
					C0.08,243.35,0.05,242.44,0.05,241.46z"/>
			</g>
			<g id="shape897-207" transform="translate(0.0223505,-7.8584)">
				<title>Tabelle.897</title>
				<path fill="#010101" d="M29.94,241.53c0,1.12,0.021,2.18-0.01,3.23c-0.02,0.39-0.36,0.64-0.65,0.88
					c-0.79,0.64-1.72,1.06-2.67,1.4c-2.06,0.75-4.189,1.16-6.359,1.41c-2.63,0.31-5.271,0.39-7.92,0.23
					c-3.2-0.2-6.351-0.62-9.36-1.79c-0.89-0.35-1.78-0.73-2.49-1.43c-0.31-0.31-0.479-0.65-0.46-1.11c0.03-0.92,0.01-1.83,0.01-2.75
					c0.03-0.01,0.061-0.02,0.07-0.02c1.93,1.27,4.1,1.9,6.32,2.35c3.99,0.81,8.02,0.98,12.069,0.68c2.921-0.21,5.801-0.66,8.57-1.64
					C28.06,242.61,29.01,242.16,29.94,241.53z"/>
			</g>
		</g>
		<g id="shape898-209" transform="translate(0.00497503,-4.90546)">
			<title>Tabelle.898</title>
			<rect x="0" y="222.259" fill="#FFFFFF" width="31.902" height="26.579"/>
		</g>
		<g id="shape899-211">
			<title>Tabelle.899</title>
			<ellipse fill="#FFFFFF" cx="15.949" cy="243.986" rx="15.948" ry="4.852"/>
		</g>
		<g id="shape900-213" transform="translate(0.00928177,-26.6213)">
			<title>Tabelle.900</title>
			<ellipse fill="#FFFFFF" cx="15.949" cy="243.986" rx="15.948" ry="4.852"/>
		</g>
		<g id="group901-215" transform="translate(0.995006,-0.785535)">
			<title>Tabelle.901</title>
			<g id="shape902-216" transform="translate(0.0129945,2.84217E-014)">
				<title>Tabelle.902</title>
				<path fill="#010101" d="M0.04,239.18c2.63,1.67,5.53,2.31,8.49,2.75c3.09,0.46,6.2,0.56,9.319,0.37
					c3.28-0.21,6.511-0.67,9.61-1.85c0.86-0.32,1.67-0.73,2.44-1.26c0.1,0.14,0.05,0.28,0.05,0.4c0.01,1.56-0.021,3.12,0.02,4.68
					c0.021,0.62-0.229,1.03-0.68,1.39c-0.81,0.63-1.729,1.05-2.68,1.4c-2.271,0.82-4.63,1.24-7.021,1.48
					c-2.42,0.25-4.84,0.3-7.26,0.15c-3.18-0.2-6.32-0.62-9.32-1.78c-0.81-0.31-1.59-0.69-2.27-1.23c-0.48-0.37-0.74-0.79-0.72-1.45
					c0.05-1.54,0.02-3.09,0.02-4.64C0.04,239.47,0.04,239.35,0.04,239.18z"/>
			</g>
			<g id="shape903-218" transform="translate(0,-26.4993)">
				<title>Tabelle.903</title>
				<path fill="#010101" d="M14.73,248.84c-3.37-0.04-6.97-0.35-10.47-1.42c-1.06-0.33-2.1-0.73-3.04-1.34
					c-0.37-0.229-0.71-0.49-0.979-0.84c-0.24-0.31-0.24-0.6,0.01-0.91c0.279-0.36,0.63-0.63,1.01-0.86
					c1.33-0.84,2.81-1.32,4.33-1.69c3.72-0.91,7.5-1.15,11.31-1c2.73,0.1,5.44,0.43,8.091,1.15c1.199,0.32,2.359,0.73,3.449,1.34
					c0.46,0.26,0.91,0.55,1.261,0.97c0.359,0.42,0.359,0.68-0.011,1.11c-0.35,0.41-0.79,0.7-1.26,0.96
					c-1.55,0.86-3.24,1.34-4.96,1.7C20.68,248.61,17.85,248.82,14.73,248.84z"/>
			</g>
			<g id="shape904-220" transform="translate(0.017524,-18.911)">
				<title>Tabelle.904</title>
				<path fill="#010101" d="M0.03,239.55c3.261,1.98,6.851,2.6,10.5,2.96c4.12,0.41,8.23,0.28,12.311-0.45
					c1.95-0.35,3.86-0.85,5.66-1.71c0.489-0.23,0.939-0.51,1.45-0.83c0,0.34,0,0.64,0,0.93c0,1.32-0.011,2.64,0.01,3.97
					c0.01,0.42-0.15,0.73-0.45,1.01c-0.72,0.68-1.6,1.1-2.521,1.46c-1.97,0.78-4.039,1.2-6.14,1.48c-2.83,0.37-5.67,0.47-8.51,0.3
					c-3.2-0.19-6.351-0.63-9.36-1.79c-0.81-0.31-1.58-0.69-2.27-1.23c-0.46-0.37-0.71-0.79-0.69-1.43
					C0.06,242.68,0.03,241.13,0.03,239.55z"/>
			</g>
			<g id="shape905-222" transform="translate(0.00319293,-13.3633)">
				<title>Tabelle.905</title>
				<path fill="#010101" d="M0.05,241.46c0.99,0.68,2.021,1.14,3.09,1.52c2.101,0.73,4.271,1.14,6.471,1.4
					c2.71,0.31,5.43,0.39,8.149,0.22c3.32-0.2,6.59-0.66,9.721-1.85c0.859-0.33,1.67-0.73,2.489-1.29c0,0.57,0,1.08,0,1.6
					c0,0.4-0.04,0.82,0.011,1.22c0.069,0.61-0.23,1.01-0.671,1.36c-0.81,0.65-1.739,1.07-2.71,1.42c-2.25,0.82-4.6,1.23-6.979,1.48
					c-2.42,0.25-4.86,0.3-7.3,0.15c-3.181-0.2-6.32-0.63-9.311-1.78c-0.83-0.32-1.609-0.71-2.3-1.26c-0.45-0.36-0.71-0.78-0.68-1.4
					C0.08,243.35,0.05,242.44,0.05,241.46z"/>
			</g>
			<g id="shape906-224" transform="translate(0.0223505,-7.85832)">
				<title>Tabelle.906</title>
				<path fill="#010101" d="M29.94,241.53c0,1.12,0.021,2.18-0.01,3.23c-0.021,0.39-0.36,0.64-0.65,0.88
					c-0.79,0.64-1.72,1.06-2.67,1.4c-2.06,0.75-4.189,1.16-6.359,1.41c-2.63,0.31-5.271,0.39-7.92,0.23
					c-3.2-0.2-6.351-0.62-9.36-1.79c-0.89-0.35-1.78-0.73-2.49-1.43c-0.31-0.311-0.479-0.65-0.46-1.11
					c0.03-0.92,0.01-1.83,0.01-2.75c0.03-0.01,0.061-0.02,0.07-0.02c1.93,1.27,4.1,1.9,6.32,2.35c3.989,0.81,8.02,0.98,12.069,0.68
					c2.92-0.21,5.801-0.66,8.57-1.64C28.06,242.61,29.01,242.16,29.94,241.53z"/>
			</g>
		</g>
	</g>
	<g id="group907-226" transform="translate(95.4121,-160.014)">
		<title>Tabelle.907</title>
		<g id="group908-227" transform="translate(1.06926,-0.934044)">
			<title>Tabelle.908</title>
			<g id="shape909-228" transform="translate(0.0129945,2.84217E-014)">
				<title>Tabelle.909</title>
				<path fill="#010101" d="M0.04,239.18c2.63,1.67,5.53,2.31,8.49,2.75c3.09,0.46,6.2,0.56,9.32,0.37
					c3.279-0.21,6.51-0.67,9.609-1.85c0.86-0.32,1.67-0.73,2.44-1.26c0.1,0.14,0.05,0.28,0.05,0.4c0.01,1.56-0.02,3.12,0.021,4.68
					c0.02,0.62-0.23,1.03-0.681,1.39c-0.81,0.63-1.729,1.05-2.68,1.4c-2.271,0.82-4.63,1.24-7.021,1.48
					c-2.42,0.24-4.84,0.3-7.26,0.15c-3.18-0.2-6.319-0.62-9.319-1.78c-0.811-0.31-1.591-0.69-2.271-1.23
					c-0.479-0.37-0.74-0.79-0.72-1.45c0.05-1.54,0.02-3.09,0.02-4.64C0.04,239.47,0.04,239.35,0.04,239.18z"/>
			</g>
			<g id="shape910-230" transform="translate(0,-26.4993)">
				<title>Tabelle.910</title>
				<path fill="#010101" d="M14.731,248.84c-3.37-0.04-6.971-0.35-10.471-1.42c-1.06-0.33-2.1-0.73-3.04-1.34
					c-0.37-0.23-0.71-0.49-0.979-0.84c-0.24-0.31-0.24-0.6,0.01-0.91c0.28-0.36,0.63-0.63,1.01-0.86c1.33-0.84,2.811-1.32,4.33-1.69
					c3.72-0.91,7.5-1.15,11.311-1c2.729,0.1,5.439,0.43,8.09,1.15c1.2,0.32,2.359,0.73,3.45,1.34c0.46,0.26,0.909,0.55,1.26,0.97
					c0.359,0.42,0.359,0.68-0.01,1.11c-0.351,0.41-0.79,0.7-1.261,0.96c-1.55,0.86-3.239,1.34-4.96,1.7
					C20.68,248.61,17.85,248.82,14.731,248.84z"/>
			</g>
			<g id="shape911-232" transform="translate(0.017524,-18.911)">
				<title>Tabelle.911</title>
				<path fill="#010101" d="M0.031,239.55c3.26,1.98,6.85,2.6,10.5,2.96c4.12,0.41,8.229,0.28,12.31-0.45
					c1.95-0.35,3.86-0.85,5.66-1.71c0.49-0.23,0.94-0.51,1.45-0.83c0,0.34,0,0.64,0,0.93c0,1.32-0.01,2.64,0.01,3.97
					c0.01,0.42-0.15,0.73-0.45,1.01c-0.72,0.68-1.6,1.1-2.52,1.46c-1.971,0.78-4.04,1.2-6.141,1.48c-2.83,0.37-5.67,0.47-8.51,0.3
					c-3.2-0.19-6.35-0.63-9.36-1.79c-0.81-0.31-1.579-0.69-2.27-1.23c-0.46-0.37-0.71-0.79-0.69-1.43
					C0.06,242.68,0.031,241.13,0.031,239.55z"/>
			</g>
			<g id="shape912-234" transform="translate(0.00319293,-13.3633)">
				<title>Tabelle.912</title>
				<path fill="#010101" d="M0.05,241.46c0.99,0.68,2.021,1.14,3.091,1.52c2.1,0.73,4.27,1.14,6.47,1.4
					c2.71,0.31,5.43,0.39,8.15,0.22c3.319-0.2,6.59-0.66,9.72-1.85c0.859-0.33,1.67-0.73,2.49-1.29c0,0.57,0,1.08,0,1.6
					c0,0.4-0.04,0.82,0.01,1.22c0.069,0.61-0.23,1.01-0.67,1.36c-0.811,0.65-1.74,1.07-2.71,1.42c-2.25,0.82-4.601,1.23-6.98,1.48
					c-2.42,0.25-4.859,0.3-7.3,0.15c-3.18-0.2-6.32-0.63-9.31-1.78c-0.83-0.32-1.61-0.71-2.301-1.26c-0.449-0.36-0.71-0.78-0.68-1.4
					C0.08,243.35,0.05,242.44,0.05,241.46z"/>
			</g>
			<g id="shape913-236" transform="translate(0.0223505,-7.8584)">
				<title>Tabelle.913</title>
				<path fill="#010101" d="M29.94,241.53c0,1.12,0.021,2.18-0.01,3.23c-0.02,0.39-0.359,0.64-0.649,0.88
					c-0.79,0.64-1.721,1.06-2.67,1.4c-2.061,0.75-4.19,1.16-6.36,1.41c-2.63,0.31-5.271,0.39-7.92,0.23
					c-3.2-0.2-6.351-0.62-9.36-1.79c-0.89-0.35-1.78-0.73-2.49-1.43c-0.31-0.311-0.479-0.65-0.46-1.11
					c0.03-0.92,0.011-1.83,0.011-2.75c0.029-0.01,0.06-0.02,0.069-0.02c1.931,1.27,4.101,1.9,6.32,2.35
					c3.99,0.81,8.02,0.98,12.07,0.68c2.92-0.21,5.8-0.66,8.569-1.64C28.06,242.61,29.01,242.16,29.94,241.53z"/>
			</g>
		</g>
		<g id="shape914-238" transform="translate(0.00497503,-4.90546)">
			<title>Tabelle.914</title>
			<rect x="0" y="222.259" fill="#FFFFFF" width="31.902" height="26.579"/>
		</g>
		<g id="shape915-240">
			<title>Tabelle.915</title>
			<ellipse fill="#FFFFFF" cx="15.948" cy="243.986" rx="15.948" ry="4.852"/>
		</g>
		<g id="shape916-242" transform="translate(0.00928177,-26.6213)">
			<title>Tabelle.916</title>
			<ellipse fill="#FFFFFF" cx="15.949" cy="243.986" rx="15.948" ry="4.852"/>
		</g>
		<g id="group917-244" transform="translate(0.995006,-0.785535)">
			<title>Tabelle.917</title>
			<g id="shape918-245" transform="translate(0.0129945,2.84217E-014)">
				<title>Tabelle.918</title>
				<path fill="#010101" d="M0.04,239.18c2.63,1.67,5.53,2.31,8.49,2.75c3.09,0.46,6.2,0.56,9.32,0.37
					c3.279-0.21,6.51-0.67,9.609-1.85c0.86-0.32,1.67-0.73,2.44-1.26c0.1,0.14,0.05,0.28,0.05,0.4c0.01,1.56-0.02,3.12,0.021,4.68
					c0.02,0.62-0.23,1.03-0.681,1.39c-0.81,0.63-1.729,1.05-2.68,1.4c-2.271,0.82-4.63,1.24-7.021,1.48
					c-2.42,0.25-4.84,0.3-7.26,0.15c-3.18-0.2-6.319-0.62-9.319-1.78c-0.811-0.31-1.591-0.69-2.271-1.23
					c-0.479-0.37-0.74-0.79-0.72-1.45c0.05-1.54,0.02-3.09,0.02-4.64C0.04,239.47,0.04,239.35,0.04,239.18z"/>
			</g>
			<g id="shape919-247" transform="translate(0,-26.4993)">
				<title>Tabelle.919</title>
				<path fill="#010101" d="M14.73,248.84c-3.369-0.04-6.97-0.35-10.47-1.42c-1.06-0.33-2.1-0.73-3.04-1.34
					c-0.37-0.23-0.71-0.49-0.979-0.84c-0.24-0.31-0.24-0.6,0.01-0.91c0.28-0.36,0.63-0.63,1.01-0.86c1.33-0.84,2.811-1.32,4.33-1.69
					c3.72-0.91,7.5-1.15,11.311-1c2.729,0.1,5.439,0.43,8.09,1.15c1.2,0.32,2.359,0.729,3.45,1.34c0.46,0.26,0.909,0.55,1.26,0.97
					c0.359,0.42,0.359,0.68-0.01,1.11c-0.351,0.41-0.79,0.7-1.261,0.96c-1.55,0.86-3.239,1.34-4.96,1.7
					C20.68,248.61,17.85,248.82,14.73,248.84z"/>
			</g>
			<g id="shape920-249" transform="translate(0.017524,-18.911)">
				<title>Tabelle.920</title>
				<path fill="#010101" d="M0.031,239.55c3.26,1.98,6.85,2.6,10.5,2.96c4.12,0.41,8.229,0.28,12.31-0.45
					c1.95-0.35,3.86-0.85,5.66-1.71c0.49-0.229,0.939-0.51,1.45-0.83c0,0.34,0,0.64,0,0.93c0,1.32-0.011,2.64,0.01,3.97
					c0.01,0.42-0.15,0.73-0.45,1.01c-0.72,0.68-1.6,1.1-2.52,1.46c-1.971,0.78-4.04,1.2-6.141,1.48c-2.83,0.37-5.67,0.47-8.51,0.3
					c-3.2-0.19-6.35-0.63-9.36-1.79c-0.81-0.31-1.579-0.69-2.27-1.23c-0.46-0.37-0.71-0.79-0.69-1.43
					C0.06,242.68,0.031,241.13,0.031,239.55z"/>
			</g>
			<g id="shape921-251" transform="translate(0.00319293,-13.3633)">
				<title>Tabelle.921</title>
				<path fill="#010101" d="M0.05,241.46c0.99,0.68,2.021,1.14,3.091,1.52c2.1,0.73,4.27,1.14,6.47,1.4
					c2.71,0.31,5.43,0.39,8.149,0.22c3.32-0.2,6.591-0.66,9.721-1.85c0.859-0.33,1.67-0.73,2.49-1.29c0,0.57,0,1.08,0,1.6
					c0,0.4-0.04,0.82,0.01,1.22c0.069,0.61-0.23,1.01-0.67,1.36c-0.811,0.65-1.74,1.07-2.71,1.42c-2.25,0.82-4.601,1.23-6.98,1.48
					c-2.42,0.25-4.86,0.3-7.3,0.15c-3.18-0.2-6.32-0.63-9.311-1.78c-0.829-0.32-1.609-0.71-2.3-1.26c-0.45-0.36-0.71-0.78-0.68-1.4
					C0.08,243.35,0.05,242.44,0.05,241.46z"/>
			</g>
			<g id="shape922-253" transform="translate(0.0223505,-7.85832)">
				<title>Tabelle.922</title>
				<path fill="#010101" d="M29.94,241.53c0,1.12,0.021,2.18-0.01,3.23c-0.02,0.39-0.359,0.64-0.649,0.88
					c-0.79,0.64-1.721,1.06-2.671,1.4c-2.06,0.75-4.189,1.16-6.359,1.41c-2.63,0.31-5.271,0.39-7.92,0.23
					c-3.2-0.2-6.351-0.62-9.36-1.79c-0.89-0.35-1.78-0.73-2.49-1.43c-0.31-0.31-0.479-0.65-0.46-1.11
					c0.03-0.92,0.011-1.83,0.011-2.75c0.029-0.01,0.06-0.02,0.069-0.02c1.931,1.27,4.101,1.9,6.32,2.35
					c3.99,0.81,8.02,0.98,12.07,0.68c2.92-0.21,5.8-0.66,8.569-1.64C28.06,242.61,29.01,242.16,29.94,241.53z"/>
			</g>
		</g>
	</g>
	<g id="shape923-255" transform="translate(77.1661,-218.493)">
		<title>Tabelle.923</title>
		<desc>Datenbank</desc>
		<v:textBlock  v:tabSpace="42.5197" v:margins="rect(4,4,4,4)"></v:textBlock>
		<v:textRect  width="69.13" height="21.7621" cy="237.957" cx="34.563"></v:textRect>
		<rect x="0" y="227.076" fill="none" width="69.126" height="21.762"/>
		
			<text transform="matrix(1 0 0 1 6.3199 241.5593)" enable-background="new    " font-family="'Roboto-Light'" font-size="12.0001">Datenbank<v:paragraph  v:horizAlign="1"></v:paragraph><v:tabList></v:tabList></text>
	</g>
	<g id="group924-258" transform="translate(111.729,-112.696)">
		<title>Layer_2.924</title>
		<g id="group925-259" transform="translate(0,-18.3875)">
			<title>Tabelle.925</title>
			<g id="shape926-260" transform="translate(1.32393,-1.32374)">
				<title>Tabelle.926</title>
				<ellipse fill="#FFFFFF" cx="26.738" cy="222.1" rx="26.738" ry="26.738"/>
			</g>
			<g id="shape927-262">
				<title>Tabelle.927</title>
				<path fill="#808285" d="M28.06,248.84c-15.47,0-28.06-12.59-28.06-28.06c0-15.48,12.59-28.07,28.06-28.07
					c15.48,0,28.06,12.59,28.06,28.07C56.12,236.25,43.541,248.84,28.06,248.84z M28.06,195.36c-14.01,0-25.41,11.4-25.41,25.42
					c0,14.01,11.4,25.41,25.41,25.41c14.02,0,25.42-11.4,25.42-25.41C53.48,206.76,42.08,195.36,28.06,195.36z"/>
			</g>
		</g>
		<g id="shape928-264" transform="translate(223.978,395.635) rotate(135)">
			<title>Tabelle.928</title>
			<rect x="0" y="213.672" fill="#808285" width="6.069" height="35.165"/>
		</g>
	</g>
	<g id="group929-266" transform="translate(134.74,-151.58)">
		<title>Zeichenblatt-1.929</title>
		<g id="group930-267">
			<title>Tabelle.5</title>
			<g id="shape931-268">
				<title>Tabelle.931</title>
				<path d="M19.5,248.1v-4.42h-1.48v4.42H19.5z M19.5,242.2v-4.42h-1.48v4.42H19.5z M19.5,236.3v-4.43h-1.48v4.43H19.5z
					 M18.01,229.12l0.01,1.28h1.48v-1.51c0-0.16-0.05-0.32-0.141-0.45l-1.75-2.32L16.43,227L18.01,229.12z M14.81,224.82l0.73,1
					l1.189-0.88l-0.979-1.3c-0.141-0.19-0.36-0.3-0.59-0.3h-2.82v1.47L14.81,224.82z M10.86,223.34H6.43v1.47h4.43V223.34z
					 M4.951,224.81v-1.47l0,0h-4.21c-0.41,0-0.74,0.33-0.74,0.74v0.22v0.52L4.951,224.81z M0,225.78v4.43H1.48v-4.43H0z M0,231.68
					v4.42H1.48v-4.42H0z M0,237.58v4.43H1.48v-4.43H0z M0,243.49v4.42H1.48v-4.42H0z M1.781,248.84H6.18v-1.45H1.781V248.84z
					 M7.61,248.84h4.44v-1.47H7.61V248.84z M13.44,248.84h4.44v-1.44h-4.44V248.84z"/>
				<path fill="none" d="M19.5,248.1v-4.42h-1.48v4.42H19.5 M19.5,242.2v-4.42h-1.48v4.42H19.5 M19.5,236.3v-4.43h-1.48v4.43H19.5
					 M18.01,229.12l0.01,1.28h1.48v-1.51c0-0.16-0.05-0.32-0.141-0.45l-1.75-2.32L16.43,227 M14.81,224.82l0.73,1l1.189-0.88
					l-0.979-1.3c-0.141-0.19-0.36-0.3-0.59-0.3h-2.82v1.47 M10.86,223.34H6.43v1.47h4.43V223.34 M4.951,224.81v-1.47l0,0h-4.21
					c-0.41,0-0.74,0.33-0.74,0.74v0.22v0.52 M0,225.78v4.43H1.48v-4.43H0 M0,231.68v4.42H1.48v-4.42H0 M0,237.58v4.43H1.48v-4.43H0
					 M0,243.49v4.42H1.48v-4.42H0 M1.781,248.84H6.18v-1.45H1.781V248.84 M7.61,248.84h4.44v-1.47H7.61V248.84 M13.44,248.84h4.44
					v-1.44h-4.44V248.84"/>
			</g>
		</g>
	</g>
	<g id="group932-271" transform="translate(125.886,-141.64)">
		<title>Tabelle.932</title>
		<g id="group933-272">
			<title>Zeichenblatt-1</title>
			<g id="group934-273">
				<title>Tabelle.42</title>
				<g id="shape935-274">
					<title>Tabelle.935</title>
					<path d="M18.77,248.84H0.74c-0.41,0-0.74-0.33-0.74-0.74v-24.03c0-0.4,0.33-0.73,0.74-0.73h14.43c0.23,0,0.45,0.11,0.591,0.29
						l3.6,4.81c0.1,0.12,0.15,0.28,0.15,0.44v19.22C19.511,248.51,19.181,248.84,18.77,248.84z M1.471,247.36H18.04v-18.24
						l-3.239-4.31H1.471V247.36z"/>
				</g>
			</g>
		</g>
		<g id="shape936-276" transform="translate(1.47303,-1.47361)">
			<title>Tabelle.936</title>
			<path fill="#FFFFFF" d="M0.001,248.84h16.56V230.6l-3.229-4.32H0.001V248.84z"/>
		</g>
	</g>
	<g id="shape937-278" transform="translate(-37.8961,131.998) rotate(-90)">
		<title>Tabelle.937</title>
		
			<path fill="none" stroke="#000000" stroke-width="0.75" stroke-linecap="round" stroke-linejoin="round" stroke-miterlimit="3" d="
			M0,248.841h36.68"/>
	</g>
	<g id="shape938-281" transform="translate(141.209,-190.646)">
		<title>Tabelle.938</title>
		
			<path fill="none" stroke="#000000" stroke-width="0.75" stroke-linecap="round" stroke-linejoin="round" stroke-miterlimit="3" d="
			M0,248.84h33.41"/>
	</g>
	<g id="shape790-284" transform="translate(249.538,-141.007) rotate(21.7893)">
		<title>Tabelle.790</title>
		<path fill="none" d=""/>
		<path fill="#262626" d="M144.231,248.841"/>
	</g>
</g>
<g>
	<polygon fill="#FFFFFF" stroke="#000000" stroke-width="2" stroke-miterlimit="10" points="273.656,147.64 304.572,153.919 
		279.022,135.251 277.456,138.864 162.107,88.905 159.871,94.067 275.221,144.026 	"/>
</g>
</svg>
