<?xml version="1.0" encoding="utf-8"?>
<!-- Generator: Adobe Illustrator 16.0.0, SVG Export Plug-In . SVG Version: 6.00 Build 0)  -->
<!DOCTYPE svg PUBLIC "-//W3C//DTD SVG 1.1//EN" "http://www.w3.org/Graphics/SVG/1.1/DTD/svg11.dtd">
<svg version="1.1"
	 id="Layer_1" xmlns:ev="http://www.w3.org/2001/xml-events" xmlns:v="http://schemas.microsoft.com/visio/2003/SVGExtensions/"
	 xmlns="http://www.w3.org/2000/svg" xmlns:xlink="http://www.w3.org/1999/xlink" x="0px" y="0px" width="425.645px"
	 height="248.838px" viewBox="0 0 425.645 248.838" enable-background="new 0 0 425.645 248.838" xml:space="preserve">
<v:documentProperties  v:viewMarkup="false" v:metric="true" v:langID="1031"></v:documentProperties>
<g>
	<title>Zeichenblatt-1</title>
	
		<v:pageProperties  v:shadowOffsetY="-8.50394" v:shadowOffsetX="8.50394" v:drawingUnits="24" v:pageScale="0.0393701" v:drawingScale="0.0393701">
		</v:pageProperties>
	<g id="group1127-1" transform="translate(300.146,-21.0634)">
		<title>Tabelle.1127</title>
		<g id="group1128-2">
			<title>Zeichenblatt-1</title>
			<g id="group1129-3" transform="translate(0,-9.27286)">
				<v:userDefs>
					<v:ud  v:val="VT0(0):5" v:prompt="" v:nameU="CTypeTopLeftSnip"></v:ud>
					<v:ud  v:val="VT0(0):5" v:prompt="" v:nameU="CTypeTopRightSnip"></v:ud>
					<v:ud  v:val="VT0(0):5" v:prompt="" v:nameU="CTypeBotLeftSnip"></v:ud>
					<v:ud  v:val="VT0(0):5" v:prompt="" v:nameU="CTypeBotRightSnip"></v:ud>
					<v:ud  v:val="VT0(1):5" v:prompt="" v:nameU="CornerLockHoriz"></v:ud>
					<v:ud  v:val="VT0(1):5" v:prompt="" v:nameU="CornerLockVert"></v:ud>
					<v:ud  v:val="VT0(0):5" v:prompt="" v:nameU="CornerLockDiag"></v:ud>
					<v:ud  v:val="VT0(0):26" v:prompt="" v:nameU="TopLeftOffset"></v:ud>
					<v:ud  v:val="VT0(0):26" v:prompt="" v:nameU="TopRightOffset"></v:ud>
					<v:ud  v:val="VT0(0):26" v:prompt="" v:nameU="BotLeftOffset"></v:ud>
					<v:ud  v:val="VT0(0):26" v:prompt="" v:nameU="BotRightOffset"></v:ud>
					<v:ud  v:val="VT0(15):26" v:prompt="" v:nameU="visVersion"></v:ud>
				</v:userDefs>
				<title>Abgerundetes Rechteck</title>
				<g id="shape1130-4">
					<title>Tabelle.1130</title>
					<path d="M121.64,248.839H3.11c-1.72,0-3.11-1.399-3.11-3.119v-66.35c0-1.721,1.391-3.11,3.11-3.11h118.53
						c1.72,0,3.109,1.39,3.109,3.11v66.35C124.75,247.44,123.36,248.839,121.64,248.839z M6.23,242.611h112.29V182.48H6.23V242.611z
						"/>
				</g>
			</g>
			<g id="group1131-6" transform="translate(57.8531,-0.838254)">
				<v:userDefs>
					<v:ud  v:val="VT0(15):26" v:nameU="visVersion"></v:ud>
				</v:userDefs>
				<title>Rechteck</title>
				<g id="group1132-7">
					<title>Tabelle.1132</title>
					<g id="shape1133-8" transform="translate(0.0747073,-0.0747073)">
						<title>Tabelle.1133</title>
						<rect x="0" y="235.602" width="6.177" height="13.235"/>
					</g>
					<g id="shape1134-10">
						<title>Tabelle.1134</title>
						<path d="M6.25,248.84H0.07c-0.04,0-0.07-0.04-0.07-0.08v-13.23c0-0.039,0.03-0.08,0.07-0.08h6.18c0.04,0,0.08,0.041,0.08,0.08
							v13.23C6.33,248.8,6.29,248.84,6.25,248.84z M0.15,248.69h6.03V235.6H0.15V248.69z"/>
					</g>
				</g>
			</g>
			<g id="group1135-12" transform="translate(33.8086,2.84217E-014)">
				<v:userDefs>
					<v:ud  v:val="VT0(15):26" v:nameU="visVersion"></v:ud>
				</v:userDefs>
				<title>Rechteck.71</title>
				<g id="group1136-13">
					<title>Tabelle.1136</title>
					<g id="shape1137-14" transform="translate(0.0747073,-0.0747073)">
						<title>Tabelle.1137</title>
						<rect x="0" y="245.75" width="55.501" height="3.088"/>
					</g>
					<g id="shape1138-16">
						<title>Tabelle.1138</title>
						<path d="M55.58,248.84H0.07c-0.04,0-0.07-0.039-0.07-0.08v-3.08c0-0.05,0.03-0.08,0.07-0.08h55.51c0.04,0,0.07,0.03,0.07,0.08
							v3.08C55.65,248.801,55.62,248.84,55.58,248.84z M0.15,248.689H55.5v-2.939H0.15V248.689z"/>
					</g>
				</g>
			</g>
		</g>
	</g>
	<g id="group1139-18" transform="translate(0.611241,-26.5247)">
		<title>Tabelle.1139</title>
		<g id="group1140-19">
			<title>Zeichenblatt-1</title>
			<g id="group1141-20" transform="translate(13.1991,-13.7491)">
				<title>Tabelle.74</title>
				<g id="shape1142-21">
					<title>Tabelle.1142</title>
					<path d="M98.241,248.839H1.76c-0.97,0-1.76-0.789-1.76-1.76V192.68c0-0.97,0.79-1.761,1.76-1.761h96.48
						c0.97,0,1.76,0.791,1.76,1.761v54.399C100,248.05,99.21,248.839,98.241,248.839z M5.6,243.23h88.79v-46.699H5.6V243.23z"/>
				</g>
			</g>
			<g id="group1143-23" transform="translate(1.89586,-1.7557)">
				<title>Tabelle.75</title>
				<g id="shape1144-24">
					<title>Tabelle.1144</title>
					<path d="M122.5,248.84L111.63,238H10.87L0,248.84H122.5z"/>
				</g>
			</g>
			<g id="group1145-26">
				<title>Tabelle.76</title>
				<g id="shape1146-27">
					<title>Tabelle.1146</title>
					<path d="M124.401,248.84H1.901c-0.71,0-1.36-0.43-1.631-1.09c-0.27-0.65-0.119-1.41,0.381-1.91L11.531,235
						c0.33-0.33,0.77-0.521,1.239-0.521h100.75c0.471,0,0.91,0.19,1.24,0.521l10.88,10.84c0.5,0.5,0.65,1.26,0.38,1.91
						C125.75,248.41,125.111,248.84,124.401,248.84z M6.14,245.321h114.011L112.8,238h-99.31L6.14,245.321z"/>
				</g>
			</g>
		</g>
	</g>
	<g id="shape1147-29" transform="translate(108.347,-63.0193)">
		<title>Tabelle.1147</title>
		
			<path fill="none" stroke="#000000" stroke-width="0.75" stroke-linecap="round" stroke-linejoin="round" stroke-miterlimit="3" d="
			M0,248.841H45.27"/>
	</g>
	<g id="group1148-32" transform="translate(94.862,7.7293) rotate(-15)">
		<title>Tabelle.1148</title>
		<g id="group1149-33">
			<title>Tabelle.1149</title>
			<g id="shape1150-34">
				<title>Tabelle.1150</title>
				<path d="M0,189.351c0-1.12,0-2.25,0-3.371c0.141-0.89,0.24-1.79,0.41-2.67c2.25-11.46,11.85-18.889,22.24-19.31
					c0.73-0.029,0.98-0.33,1.19-0.969c2.45-7.721,7.51-12.971,15.11-15.67c1.95-0.691,4.05-0.91,6.09-1.351
					c1.12,0.001,2.25,0,3.37,0.001c0.18,0.049,0.36,0.119,0.54,0.139c5.1,0.471,9.569,2.41,13.4,5.801
					c0.55,0.49,0.89,0.38,1.42,0.021c4.99-3.401,10.51-4.831,16.5-4.051c6.05,0.79,11.129,3.55,15.09,8.201
					c3.34,3.93,5.259,8.5,5.58,13.68c0.05,0.749,0.48,0.81,0.98,0.95c8.33,2.23,13.989,7.4,16.85,15.53
					c0.66,1.88,0.89,3.92,1.32,5.89c0,1.19-0.001,2.381,0,3.56c-0.05,0.181-0.13,0.35-0.15,0.53c-0.439,4.76-2.24,8.96-5.27,12.641
					c-0.381,0.469-0.41,0.81-0.191,1.33c2.041,4.759,2.41,9.689,1.29,14.729c-2.99,13.4-17.29,21.59-30.339,17.36
					c-1.471-0.48-2.871-1.13-4.33-1.719c-0.12,0.13-0.25,0.269-0.38,0.4c-3.199,3.44-7.05,5.819-11.6,7.02
					c-1.37,0.369-2.79,0.55-4.19,0.819c-1.19,0-2.38,0-3.57,0c-0.181-0.049-0.351-0.129-0.53-0.149
					c-5.75-0.57-10.66-2.931-14.66-7.091c-1.17-1.219-2.18-2.61-3.28-3.95c-4.6,1.79-9.33,2.151-14.19,1.061
					c-13.251-2.96-21.42-16.84-17.551-29.871c0.181-0.61,0.1-0.909-0.439-1.27c-4.6-3.06-7.8-7.24-9.491-12.499
					C0.62,193.23,0.4,191.259,0,189.351z M24.411,169.87c0-0.04-0.001-0.08-0.01-0.12c-1.18,0.1-2.37,0.12-3.54,0.32
					c-7.79,1.32-13.69,7.31-14.779,15.35c-1.05,7.749,3.019,14.849,9.64,18.27c2.399,1.24,2.86,2.47,1.78,4.93
					c-1.4,3.22-1.74,6.58-1.12,10c2.161,11.93,15.14,18.32,25.93,12.8c2.28-1.16,3.74-0.7,4.9,1.57c6.17,12.1,22.42,13.4,30.44,2.44
					c1.56-2.12,2.881-2.37,5.07-0.91c3.75,2.51,7.87,3.459,12.31,2.829c12.35-1.74,19.21-15.31,13.33-26.29
					c-1.11-2.08-0.96-3.04,0.71-4.739c2.83-2.89,4.53-6.341,4.99-10.35c1.141-10.03-6.1-18.94-16.13-19.94
					c-1.689-0.17-2.77-1.36-2.809-3.05c-0.02-1.279-0.02-2.569-0.17-3.831C93.71,158.46,82.671,151.27,72.3,154.34
					c-2.8,0.84-5.24,2.29-7.409,4.239c-1.491,1.341-3.1,1.221-4.471-0.229c-0.17-0.18-0.33-0.369-0.5-0.55
					c-8.921-9.76-24.95-6.88-29.88,5.391c-0.47,1.169-0.75,2.44-0.95,3.689c-0.32,2.07-1.47,3.1-3.55,3
					C25.16,169.861,24.791,169.871,24.411,169.87z"/>
			</g>
			<g id="shape1151-36" transform="translate(0,-0.000375296)">
				<title>Tabelle.1151</title>
				<path fill="#FFFFFF" d="M0,189.35c0.4,1.91,0.621,3.88,1.22,5.721c1.691,5.259,4.891,9.439,9.49,12.499
					c0.54,0.36,0.621,0.66,0.44,1.27c-3.87,13.03,4.3,26.91,17.551,29.87c4.859,1.09,9.59,0.731,14.189-1.06
					c1.1,1.34,2.11,2.73,3.28,3.95c4,4.159,8.91,6.519,14.661,7.09c0.18,0.02,0.349,0.1,0.53,0.15c-20.441,0-40.87-0.001-61.36,0
					C0,229.01,0.001,209.18,0,189.35z"/>
			</g>
			<g id="shape1152-38" transform="translate(48.4132,-56.6697)">
				<title>Tabelle.1152</title>
				<path fill="#FFFFFF" d="M71.68,248.84c-0.43-1.969-0.661-4.009-1.331-5.889c-2.859-8.13-8.52-13.301-16.839-15.53
					c-0.51-0.141-0.94-0.2-0.98-0.95c-0.33-5.18-2.24-9.75-5.59-13.681c-3.96-4.66-9.03-7.41-15.08-8.2
					c-5.99-0.78-11.51,0.651-16.51,4.05c-0.53,0.359-0.87,0.47-1.42-0.021c-3.819-3.389-8.3-5.33-13.4-5.8
					c-0.179-0.021-0.35-0.091-0.529-0.141c23.89,0.001,47.789,0.001,71.68,0.001C71.68,218.06,71.68,233.45,71.68,248.84z"/>
			</g>
			<g id="shape1153-40" transform="translate(0,-62.8622)">
				<title>Tabelle.1153</title>
				<path fill="#FFFFFF" d="M45.041,208.87c-2.04,0.44-4.14,0.66-6.09,1.351c-7.6,2.709-12.66,7.959-15.111,15.67
					c-0.209,0.65-0.459,0.941-1.189,0.969c-10.391,0.421-19.99,7.85-22.241,19.31c-0.169,0.881-0.27,1.78-0.409,2.671
					C0,235.53,0,222.22,0,208.871C15.01,208.87,30.02,208.87,45.041,208.87z"/>
			</g>
			<g id="shape1154-42" transform="translate(64.9262,-0.000187648)">
				<title>Tabelle.1154</title>
				<path fill="#FFFFFF" d="M0,248.84c1.4-0.27,2.82-0.45,4.19-0.82c4.549-1.199,8.41-3.58,11.61-7.02
					c0.12-0.13,0.25-0.271,0.37-0.4c1.46,0.589,2.87,1.24,4.33,1.72c13.05,4.23,27.35-3.961,30.339-17.36
					c1.13-5.04,0.75-9.97-1.28-14.73c-0.23-0.521-0.199-0.86,0.181-1.331c3.03-3.679,4.83-7.88,5.269-12.64
					c0.021-0.179,0.111-0.349,0.16-0.53c0,17.691,0,35.38,0,53.11C36.78,248.84,18.391,248.84,0,248.84z"/>
			</g>
			<g id="shape1155-44" transform="translate(5.02953,-2.44562)">
				<title>Tabelle.1155</title>
				<path fill="#FFFFFF" d="M19.38,172.319c0.38,0.001,0.75-0.019,1.13,0.001c2.081,0.11,3.229-0.929,3.55-2.99
					c0.199-1.25,0.48-2.52,0.95-3.689c4.93-12.281,20.959-15.16,29.88-5.401c0.17,0.19,0.33,0.381,0.5,0.56
					c1.37,1.441,2.98,1.561,4.47,0.23c2.17-1.949,4.61-3.41,7.42-4.24c10.36-3.081,21.4,4.12,22.65,14.799
					c0.141,1.271,0.14,2.561,0.171,3.831c0.03,1.7,1.11,2.89,2.8,3.059c10.03,1.001,17.27,9.911,16.13,19.94
					c-0.46,4-2.16,7.461-4.99,10.34c-1.67,1.7-1.82,2.661-0.71,4.75c5.88,10.98-0.981,24.54-13.331,26.291
					c-4.439,0.629-8.559-0.32-12.31-2.831c-2.19-1.459-3.51-1.22-5.069,0.91c-8.02,10.96-24.27,9.651-30.44-2.45
					c-1.16-2.26-2.62-2.73-4.9-1.56C26.491,239.39,13.51,233,11.35,221.06c-0.619-3.419-0.279-6.78,1.121-9.99
					c1.08-2.461,0.63-3.69-1.781-4.93c-6.62-3.421-10.689-10.521-9.64-18.27c1.091-8.04,6.99-14.04,14.791-15.351
					c1.159-0.199,2.35-0.22,3.54-0.319C19.38,172.24,19.381,172.28,19.38,172.319z"/>
			</g>
		</g>
	</g>
	<g id="shape1161-46" transform="translate(171.317,-55.0738)">
		<title>Tabelle.1161</title>
		<desc>Internet</desc>
		<v:textBlock  v:tabSpace="42.5197" v:margins="rect(4,4,4,4)"></v:textBlock>
		<v:textRect  width="65.29" height="21.7621" cy="237.957" cx="32.6432"></v:textRect>
		<rect x="0.001" y="227.077" fill="none" width="65.286" height="21.762"/>
		<text transform="matrix(1 0 0 1 12.38 241.5591)" enable-background="new    " font-family="'Roboto-Light'" font-size="12.0001">Internet<v:paragraph  v:horizAlign="1"></v:paragraph><v:tabList></v:tabList></text>
	</g>
	<g id="shape1162-49" transform="translate(21.1541,-99.9244)">
		<title>Tabelle.1162</title>
		<desc>Schule</desc>
		<v:textBlock  v:tabSpace="42.5197" v:margins="rect(4,4,4,4)"></v:textBlock>
		<v:textRect  width="85.21" height="18.2839" cy="239.696" cx="42.6021"></v:textRect>
		<rect x="0" y="230.554" fill="none" width="85.204" height="18.283"/>
		
			<text transform="matrix(1 0 0 1 24.9199 243.2994)" enable-background="new    " font-family="'Roboto-Light'" font-size="12.0001">Schule<v:paragraph  v:horizAlign="1"></v:paragraph><v:tabList></v:tabList></text>
	</g>
	<g id="shape1163-52" transform="translate(325.099,-103.521)">
		<title>Tabelle.1163</title>
		<desc>Home</desc>
		<v:textBlock  v:tabSpace="42.5197" v:margins="rect(4,4,4,4)"></v:textBlock>
		<v:textRect  width="69.13" height="21.7621" cy="237.957" cx="34.563"></v:textRect>
		<rect x="0" y="227.076" fill="none" width="69.126" height="21.762"/>
		
			<text transform="matrix(1 0 0 1 18.5399 241.5591)" enable-background="new    " font-family="'Roboto-Light'" font-size="12.0001">Home<v:paragraph  v:horizAlign="1"></v:paragraph><v:tabList></v:tabList></text>
	</g>
	<g id="shape1164-55" transform="translate(258.571,-63.0193)">
		<title>Tabelle.1164</title>
		
			<path fill="none" stroke="#000000" stroke-width="0.75" stroke-linecap="round" stroke-linejoin="round" stroke-miterlimit="3" d="
			M0.001,248.841H45.16"/>
	</g>
	<g id="group1165-58" transform="translate(300.146,-7.14292)">
		<title>Layer_2.1165</title>
		<g id="group1166-59" transform="translate(0,-17.407)">
			<title>Tabelle.1166</title>
			<g id="shape1167-60" transform="translate(1.25333,-1.25315)">
				<title>Tabelle.1167</title>
				<ellipse fill="#FFFFFF" cx="25.313" cy="223.525" rx="25.313" ry="25.313"/>
			</g>
			<g id="shape1168-62">
				<title>Tabelle.1168</title>
				<path fill="#808285" d="M26.57,248.84C11.92,248.84,0,236.92,0,222.27s11.92-26.56,26.57-26.56
					c14.64,0,26.56,11.909,26.56,26.56S41.21,248.84,26.57,248.84z M26.57,198.21c-13.27,0-24.06,10.8-24.06,24.06
					c0,13.271,10.79,24.061,24.06,24.061c13.26,0,24.05-10.79,24.05-24.061C50.62,209.01,39.83,198.21,26.57,198.21z"/>
			</g>
		</g>
		<g id="shape1169-64" transform="translate(221.417,397.19) rotate(135)">
			<title>Tabelle.1169</title>
			<rect x="0" y="215.548" fill="#808285" width="5.745" height="33.29"/>
		</g>
	</g>
	<g id="group1170-66" transform="translate(316.055,-35.6268)">
		<title>Tabelle.1170</title>
		<g id="group1171-67">
			<title>Zeichenblatt-1</title>
			<g id="group1172-68">
				<title>Tabelle.42</title>
				<g id="shape1173-69">
					<title>Tabelle.1173</title>
					<path d="M20.77,248.841H0.81c-0.45,0-0.811-0.371-0.811-0.82v-26.58c0-0.45,0.36-0.811,0.811-0.811h15.97
						c0.26,0,0.5,0.12,0.649,0.32l3.99,5.32c0.101,0.14,0.16,0.31,0.16,0.49v21.26C21.58,248.47,21.22,248.841,20.77,248.841z
						 M1.63,247.21h18.32v-20.18l-3.58-4.77H1.63V247.21z"/>
				</g>
			</g>
		</g>
	</g>
	<g id="group1174-71" transform="translate(174.498,-151.58)">
		<title>Tabelle.1174</title>
		<g id="group1175-72">
			<title>Zeichenblatt-1</title>
			<g id="group1176-73" transform="translate(2.51397,-2.38985)">
				<title>Tabelle.10</title>
				<g id="shape1177-74">
					<title>Tabelle.1177</title>
					<path d="M0,170.05v78.79h67.98v-78.79H0z"/>
				</g>
			</g>
			<g id="group1178-76" transform="translate(0.124117,2.84217E-014)">
				<title>Tabelle.11</title>
				<g id="shape1179-77">
					<title>Tabelle.1179</title>
					<path d="M70.37,248.84H2.39c-1.319,0-2.39-1.07-2.39-2.39v-78.79c0-1.32,1.07-2.39,2.39-2.39h67.98c1.32,0,2.39,1.07,2.39,2.39
						v78.79C72.76,247.77,71.691,248.84,70.37,248.84z M4.78,244.06h63.2v-74.01H4.78V244.06z"/>
				</g>
			</g>
			<g id="group1180-79" transform="translate(1.69565,-81.4908)">
				<title>Tabelle.12</title>
				<g id="shape1181-80">
					<title>Tabelle.1181</title>
					<path d="M0,248.84l13.49-13.45h42.53l13.47,13.45H0z"/>
				</g>
			</g>
			<g id="group1182-82" transform="translate(0,-79.9168)">
				<title>Tabelle.13</title>
				<g id="shape1183-83">
					<title>Tabelle.1183</title>
					<path d="M71.21,248.84c-0.01,0-0.01,0-0.02,0H1.7c-0.641,0-1.21-0.39-1.46-0.98c-0.24-0.58-0.11-1.26,0.35-1.71l13.48-13.44
						c0.3-0.3,0.689-0.46,1.109-0.46h42.53c0.42,0,0.82,0.16,1.11,0.46l13.34,13.3c0.38,0.29,0.62,0.74,0.62,1.25
						C72.781,248.13,72.08,248.84,71.21,248.84z M5.5,245.69h61.89l-10.33-10.3H15.83L5.5,245.69z"/>
				</g>
			</g>
			<g id="group1184-85" transform="translate(5.40957,-67.2287)">
				<title>Tabelle.14</title>
				<g id="shape1185-86">
					<title>Tabelle.1185</title>
					<path fill="#FFFFFF" d="M0,239.66v9.18h61.69v-9.18H0z"/>
				</g>
			</g>
			<g id="group1186-88" transform="translate(4.90622,-66.7254)">
				<title>Tabelle.15</title>
				<g id="shape1187-89">
					<title>Tabelle.1187</title>
					<path fill="#FFFFFF" d="M62.191,248.84H0.5c-0.27,0-0.5-0.23-0.5-0.51v-9.17c0-0.28,0.23-0.5,0.5-0.5h61.69
						c0.279,0,0.51,0.22,0.51,0.5v9.17C62.7,248.61,62.47,248.84,62.191,248.84z M1.01,247.83h60.681v-8.17H1.01V247.83z"/>
				</g>
			</g>
			<g id="group1188-91" transform="translate(60.4258,-69.6163)">
				<title>Tabelle.16</title>
				<g id="shape1189-92">
					<title>Tabelle.1189</title>
					<path d="M0,246.95c0-1.03,0.85-1.88,1.89-1.88c1.061,0,1.891,0.85,1.891,1.88c0,1.06-0.83,1.89-1.891,1.89
						C0.85,248.84,0,248.01,0,246.95z"/>
				</g>
			</g>
			<g id="group1190-94" transform="translate(5.03189,-20.7357)">
				<title>Tabelle.17</title>
				<g id="shape1191-95">
					<title>Tabelle.1191</title>
					<path fill="#FFFFFF" d="M0.001,239.66v9.18H61.69v-9.18H0.001z"/>
				</g>
			</g>
			<g id="group1192-97" transform="translate(4.52854,-20.2334)">
				<title>Tabelle.18</title>
				<g id="shape1193-98">
					<title>Tabelle.1193</title>
					<path fill="#FFFFFF" d="M62.19,248.84H0.5c-0.27,0-0.5-0.23-0.5-0.5v-9.18c0-0.28,0.23-0.5,0.5-0.5h61.69
						c0.28,0,0.51,0.22,0.51,0.5v9.18C62.7,248.61,62.471,248.84,62.19,248.84z M1.01,247.83H61.69v-8.17H1.01V247.83z"/>
				</g>
			</g>
			<g id="group1194-100" transform="translate(59.9212,-22.9976)">
				<title>Tabelle.19</title>
				<g id="shape1195-101">
					<title>Tabelle.1195</title>
					<path d="M0,246.95c0-1.03,0.851-1.88,1.891-1.88c1.06,0,1.89,0.85,1.89,1.88c0,1.06-0.83,1.89-1.89,1.89
						C0.851,248.84,0,248.01,0,246.95z"/>
				</g>
			</g>
			<g id="group1196-103" transform="translate(5.03189,-5.02865)">
				<title>Tabelle.20</title>
				<g id="shape1197-104">
					<title>Tabelle.1197</title>
					<path fill="#FFFFFF" d="M0.001,239.66v9.18H61.69v-9.18H0.001z"/>
				</g>
			</g>
			<g id="group1198-106" transform="translate(4.52854,-4.52635)">
				<title>Tabelle.21</title>
				<g id="shape1199-107">
					<title>Tabelle.1199</title>
					<path fill="#FFFFFF" d="M62.19,248.84H0.5c-0.27,0-0.5-0.23-0.5-0.5v-9.18c0-0.28,0.23-0.5,0.5-0.5h61.69
						c0.28,0,0.51,0.22,0.51,0.5v9.18C62.7,248.61,62.471,248.84,62.19,248.84z M1.01,247.83H61.69v-8.17H1.01V247.83z"/>
				</g>
			</g>
			<g id="group1200-109" transform="translate(59.9212,-7.41612)">
				<title>Tabelle.22</title>
				<g id="shape1201-110">
					<title>Tabelle.1201</title>
					<path d="M0,246.95c0-1.03,0.851-1.88,1.891-1.88c1.06,0,1.89,0.85,1.89,1.88c0,1.06-0.83,1.89-1.89,1.89
						C0.851,248.84,0,248.01,0,246.95z"/>
				</g>
			</g>
			<g id="group1202-112" transform="translate(5.03189,-36.4428)">
				<title>Tabelle.23</title>
				<g id="shape1203-113">
					<title>Tabelle.1203</title>
					<path fill="#FFFFFF" d="M0.001,224.71v24.13H61.69v-24.13H0.001z"/>
				</g>
			</g>
			<g id="group1204-115" transform="translate(4.52854,-35.9405)">
				<title>Tabelle.24</title>
				<g id="shape1205-116">
					<title>Tabelle.1205</title>
					<path fill="#FFFFFF" d="M62.19,248.84H0.5c-0.27,0-0.5-0.23-0.5-0.5v-24.13c0-0.28,0.23-0.51,0.5-0.51h61.69
						c0.28,0,0.51,0.23,0.51,0.51v24.13C62.7,248.61,62.471,248.84,62.19,248.84z M1.01,247.83H61.69v-23.12H1.01V247.83z"/>
				</g>
			</g>
			<g id="group1206-118" transform="translate(8.55695,-53.7835)">
				<title>Tabelle.25</title>
				<g id="shape1207-119">
					<title>Tabelle.1207</title>
					<path d="M0,246.95c0-1.03,0.851-1.88,1.891-1.88c1.06,0,1.89,0.85,1.89,1.88c0,1.06-0.83,1.89-1.89,1.89
						C0.851,248.84,0,248.01,0,246.95z"/>
				</g>
			</g>
			<g id="group1208-121" transform="translate(8.55695,-45.3645)">
				<title>Tabelle.26</title>
				<g id="shape1209-122">
					<title>Tabelle.1209</title>
					<path d="M0,246.95c0-1.03,0.851-1.88,1.891-1.88c1.06,0,1.89,0.85,1.89,1.88c0,1.06-0.83,1.89-1.89,1.89
						C0.851,248.84,0,248.01,0,246.95z"/>
				</g>
			</g>
		</g>
	</g>
	<g id="group1210-124" transform="translate(95.7753,-181.274)">
		<title>Tabelle.1210</title>
		<g id="group1211-125" transform="translate(1.06926,-0.934044)">
			<title>Tabelle.1211</title>
			<g id="shape1212-126" transform="translate(0.0129945,2.84217E-014)">
				<title>Tabelle.1212</title>
				<path fill="#010101" d="M0.04,239.18c2.63,1.67,5.53,2.31,8.49,2.75c3.09,0.46,6.2,0.56,9.32,0.37
					c3.279-0.21,6.51-0.67,9.609-1.85c0.86-0.32,1.67-0.73,2.44-1.26c0.1,0.14,0.05,0.28,0.05,0.4c0.01,1.56-0.02,3.12,0.02,4.68
					c0.021,0.62-0.229,1.03-0.68,1.39c-0.81,0.63-1.729,1.05-2.68,1.4c-2.271,0.82-4.63,1.24-7.021,1.48
					c-2.42,0.24-4.84,0.3-7.26,0.15c-3.18-0.2-6.32-0.62-9.32-1.78c-0.81-0.31-1.59-0.69-2.27-1.23c-0.48-0.37-0.74-0.79-0.72-1.45
					c0.05-1.54,0.02-3.09,0.02-4.64C0.04,239.47,0.04,239.35,0.04,239.18z"/>
			</g>
			<g id="shape1213-128" transform="translate(0,-26.4993)">
				<title>Tabelle.1213</title>
				<path fill="#010101" d="M14.73,248.84c-3.369-0.04-6.97-0.35-10.47-1.42c-1.06-0.33-2.1-0.73-3.04-1.34
					c-0.37-0.23-0.71-0.49-0.979-0.84c-0.24-0.31-0.24-0.6,0.01-0.91c0.28-0.36,0.63-0.63,1.01-0.86c1.33-0.84,2.811-1.32,4.33-1.69
					c3.72-0.91,7.5-1.15,11.311-1c2.729,0.1,5.439,0.43,8.09,1.15c1.199,0.32,2.359,0.73,3.449,1.34
					c0.461,0.26,0.91,0.55,1.261,0.97c0.359,0.42,0.359,0.68-0.011,1.11c-0.35,0.41-0.789,0.7-1.26,0.96
					c-1.55,0.86-3.24,1.34-4.96,1.7C20.68,248.61,17.85,248.82,14.73,248.84z"/>
			</g>
			<g id="shape1214-130" transform="translate(0.017524,-18.911)">
				<title>Tabelle.1214</title>
				<path fill="#010101" d="M0.031,239.55c3.26,1.98,6.85,2.6,10.5,2.96c4.119,0.41,8.229,0.28,12.31-0.45
					c1.95-0.35,3.86-0.85,5.66-1.71c0.49-0.23,0.939-0.51,1.45-0.83c0,0.34,0,0.64,0,0.93c0,1.32-0.011,2.64,0.01,3.97
					c0.01,0.42-0.15,0.73-0.45,1.01c-0.72,0.68-1.6,1.1-2.52,1.46c-1.971,0.78-4.04,1.2-6.141,1.48c-2.83,0.37-5.67,0.47-8.51,0.3
					c-3.2-0.19-6.35-0.63-9.36-1.79c-0.81-0.31-1.58-0.69-2.27-1.23c-0.46-0.37-0.71-0.79-0.69-1.43
					C0.06,242.68,0.031,241.13,0.031,239.55z"/>
			</g>
			<g id="shape1215-132" transform="translate(0.00319293,-13.3633)">
				<title>Tabelle.1215</title>
				<path fill="#010101" d="M0.05,241.46c0.99,0.68,2.021,1.14,3.091,1.52c2.1,0.73,4.27,1.14,6.47,1.4
					c2.71,0.31,5.43,0.39,8.149,0.22c3.32-0.2,6.591-0.66,9.721-1.85c0.859-0.33,1.67-0.73,2.489-1.29c0,0.57,0,1.08,0,1.6
					c0,0.4-0.039,0.82,0.011,1.22c0.069,0.61-0.23,1.01-0.67,1.36c-0.811,0.65-1.74,1.07-2.71,1.42c-2.25,0.82-4.601,1.23-6.98,1.48
					c-2.42,0.25-4.86,0.3-7.3,0.15c-3.18-0.2-6.32-0.63-9.311-1.78c-0.829-0.32-1.609-0.71-2.3-1.26c-0.45-0.36-0.71-0.78-0.68-1.4
					C0.08,243.35,0.05,242.44,0.05,241.46z"/>
			</g>
			<g id="shape1216-134" transform="translate(0.0223505,-7.8584)">
				<title>Tabelle.1216</title>
				<path fill="#010101" d="M29.94,241.53c0,1.12,0.021,2.18-0.01,3.23c-0.02,0.39-0.36,0.64-0.649,0.88
					c-0.79,0.64-1.721,1.06-2.671,1.4c-2.06,0.75-4.189,1.16-6.359,1.41c-2.63,0.31-5.271,0.39-7.92,0.23
					c-3.2-0.2-6.351-0.62-9.36-1.79c-0.89-0.35-1.78-0.73-2.49-1.43c-0.31-0.31-0.479-0.65-0.46-1.11
					c0.03-0.92,0.011-1.83,0.011-2.75c0.029-0.01,0.06-0.02,0.069-0.02c1.931,1.27,4.101,1.9,6.32,2.35
					c3.99,0.81,8.02,0.98,12.07,0.68c2.92-0.21,5.8-0.66,8.569-1.64C28.06,242.61,29.01,242.16,29.94,241.53z"/>
			</g>
		</g>
		<g id="shape1217-136" transform="translate(0.00497503,-4.90546)">
			<title>Tabelle.1217</title>
			<rect x="0" y="222.259" fill="#FFFFFF" width="31.902" height="26.578"/>
		</g>
		<g id="shape1218-138">
			<title>Tabelle.1218</title>
			<ellipse fill="#FFFFFF" cx="15.949" cy="243.986" rx="15.948" ry="4.852"/>
		</g>
		<g id="shape1219-140" transform="translate(0.00928177,-26.6213)">
			<title>Tabelle.1219</title>
			<ellipse fill="#FFFFFF" cx="15.949" cy="243.986" rx="15.948" ry="4.852"/>
		</g>
		<g id="group1220-142" transform="translate(0.995006,-0.785535)">
			<title>Tabelle.1220</title>
			<g id="shape1221-143" transform="translate(0.0129945,2.84217E-014)">
				<title>Tabelle.1221</title>
				<path fill="#010101" d="M0.04,239.18c2.63,1.67,5.53,2.31,8.49,2.75c3.09,0.46,6.2,0.56,9.32,0.37
					c3.279-0.21,6.51-0.67,9.609-1.85c0.86-0.32,1.67-0.73,2.44-1.26c0.1,0.14,0.05,0.28,0.05,0.4c0.01,1.56-0.021,3.12,0.02,4.68
					c0.021,0.62-0.229,1.03-0.68,1.39c-0.81,0.63-1.729,1.05-2.68,1.4c-2.271,0.82-4.63,1.24-7.021,1.48
					c-2.42,0.25-4.84,0.3-7.26,0.15c-3.18-0.2-6.32-0.62-9.32-1.78c-0.81-0.31-1.59-0.69-2.27-1.23c-0.48-0.37-0.74-0.79-0.72-1.45
					c0.05-1.54,0.02-3.09,0.02-4.64C0.04,239.47,0.04,239.35,0.04,239.18z"/>
			</g>
			<g id="shape1222-145" transform="translate(0,-26.4993)">
				<title>Tabelle.1222</title>
				<path fill="#010101" d="M14.73,248.84c-3.369-0.04-6.97-0.35-10.47-1.42c-1.06-0.33-2.1-0.73-3.04-1.34
					c-0.37-0.23-0.71-0.49-0.979-0.84c-0.24-0.31-0.24-0.6,0.01-0.91c0.28-0.36,0.63-0.63,1.01-0.86c1.33-0.84,2.811-1.32,4.33-1.69
					c3.72-0.91,7.5-1.15,11.31-1c2.73,0.1,5.44,0.43,8.091,1.15c1.199,0.32,2.359,0.73,3.449,1.34c0.46,0.26,0.91,0.55,1.261,0.97
					c0.359,0.42,0.359,0.68-0.011,1.11c-0.35,0.41-0.79,0.7-1.26,0.96c-1.55,0.86-3.24,1.34-4.96,1.7
					C20.68,248.61,17.85,248.82,14.73,248.84z"/>
			</g>
			<g id="shape1223-147" transform="translate(0.017524,-18.911)">
				<title>Tabelle.1223</title>
				<path fill="#010101" d="M0.031,239.55c3.26,1.98,6.85,2.6,10.5,2.96c4.119,0.41,8.229,0.28,12.31-0.45
					c1.95-0.35,3.86-0.85,5.66-1.71c0.49-0.23,0.939-0.51,1.45-0.83c0,0.34,0,0.64,0,0.93c0,1.32-0.011,2.64,0.01,3.97
					c0.01,0.42-0.15,0.729-0.45,1.01c-0.72,0.68-1.6,1.1-2.52,1.46c-1.971,0.78-4.04,1.2-6.141,1.48c-2.83,0.37-5.67,0.47-8.51,0.3
					c-3.2-0.19-6.35-0.63-9.36-1.79c-0.81-0.31-1.58-0.69-2.27-1.23c-0.46-0.37-0.71-0.79-0.69-1.43
					C0.06,242.68,0.031,241.13,0.031,239.55z"/>
			</g>
			<g id="shape1224-149" transform="translate(0.00319293,-13.3633)">
				<title>Tabelle.1224</title>
				<path fill="#010101" d="M0.05,241.46c0.99,0.68,2.021,1.14,3.091,1.52c2.1,0.73,4.27,1.14,6.47,1.4
					c2.71,0.31,5.43,0.39,8.149,0.22c3.32-0.2,6.591-0.66,9.721-1.85c0.859-0.33,1.67-0.73,2.489-1.29c0,0.57,0,1.08,0,1.6
					c0,0.4-0.04,0.82,0.011,1.22c0.069,0.61-0.23,1.01-0.67,1.36c-0.811,0.65-1.74,1.07-2.71,1.42c-2.25,0.82-4.601,1.23-6.98,1.48
					c-2.42,0.25-4.86,0.3-7.3,0.15c-3.18-0.2-6.32-0.63-9.311-1.78c-0.83-0.32-1.609-0.71-2.3-1.26c-0.45-0.36-0.71-0.78-0.68-1.4
					C0.08,243.35,0.05,242.44,0.05,241.46z"/>
			</g>
			<g id="shape1225-151" transform="translate(0.0223505,-7.85832)">
				<title>Tabelle.1225</title>
				<path fill="#010101" d="M29.94,241.53c0,1.12,0.021,2.18-0.01,3.23c-0.02,0.39-0.36,0.64-0.65,0.88
					c-0.789,0.64-1.72,1.06-2.67,1.4c-2.06,0.75-4.189,1.16-6.359,1.41c-2.63,0.31-5.271,0.39-7.92,0.23
					c-3.2-0.2-6.351-0.62-9.36-1.79c-0.89-0.35-1.78-0.73-2.49-1.43c-0.31-0.31-0.479-0.65-0.46-1.11c0.03-0.92,0.01-1.83,0.01-2.75
					c0.03-0.01,0.061-0.02,0.07-0.02c1.93,1.27,4.101,1.9,6.32,2.35c3.99,0.81,8.02,0.98,12.07,0.68c2.92-0.21,5.8-0.66,8.569-1.64
					C28.06,242.61,29.01,242.16,29.94,241.53z"/>
			</g>
		</g>
	</g>
	<g id="group1226-153" transform="translate(78.4042,-169.936)">
		<title>Tabelle.1226</title>
		<g id="group1227-154" transform="translate(1.06926,-0.934044)">
			<title>Tabelle.1227</title>
			<g id="shape1228-155" transform="translate(0.0129945,2.84217E-014)">
				<title>Tabelle.1228</title>
				<path fill="#010101" d="M0.04,239.18c2.63,1.67,5.53,2.31,8.49,2.75c3.09,0.46,6.2,0.56,9.32,0.37
					c3.279-0.21,6.51-0.67,9.609-1.85c0.86-0.32,1.67-0.73,2.44-1.26c0.1,0.14,0.05,0.28,0.05,0.4c0.01,1.56-0.02,3.12,0.02,4.68
					c0.021,0.62-0.229,1.03-0.68,1.39c-0.81,0.63-1.729,1.05-2.68,1.4c-2.271,0.82-4.63,1.24-7.021,1.48
					c-2.42,0.24-4.84,0.3-7.26,0.15c-3.18-0.2-6.32-0.62-9.32-1.78c-0.81-0.31-1.59-0.69-2.27-1.23c-0.48-0.37-0.74-0.79-0.72-1.45
					c0.05-1.54,0.02-3.09,0.02-4.64C0.04,239.47,0.04,239.35,0.04,239.18z"/>
			</g>
			<g id="shape1229-157" transform="translate(0,-26.4993)">
				<title>Tabelle.1229</title>
				<path fill="#010101" d="M14.73,248.84c-3.369-0.04-6.97-0.35-10.47-1.42c-1.06-0.33-2.1-0.73-3.04-1.34
					c-0.37-0.23-0.71-0.49-0.979-0.84c-0.24-0.31-0.24-0.6,0.01-0.91c0.28-0.36,0.63-0.63,1.01-0.86c1.33-0.84,2.811-1.32,4.33-1.69
					c3.72-0.91,7.5-1.15,11.311-1c2.729,0.1,5.439,0.43,8.09,1.15c1.199,0.32,2.359,0.73,3.449,1.34
					c0.461,0.26,0.91,0.55,1.261,0.97c0.359,0.42,0.359,0.68-0.011,1.11c-0.35,0.41-0.789,0.7-1.26,0.96
					c-1.55,0.86-3.24,1.34-4.96,1.7C20.68,248.61,17.85,248.82,14.73,248.84z"/>
			</g>
			<g id="shape1230-159" transform="translate(0.017524,-18.911)">
				<title>Tabelle.1230</title>
				<path fill="#010101" d="M0.031,239.55c3.26,1.98,6.85,2.6,10.5,2.96c4.119,0.41,8.229,0.28,12.31-0.45
					c1.95-0.35,3.86-0.85,5.66-1.71c0.49-0.23,0.939-0.51,1.45-0.83c0,0.34,0,0.64,0,0.93c0,1.32-0.011,2.64,0.01,3.97
					c0.01,0.42-0.15,0.729-0.45,1.01c-0.72,0.68-1.6,1.1-2.52,1.46c-1.971,0.78-4.04,1.2-6.141,1.48c-2.83,0.37-5.67,0.47-8.51,0.3
					c-3.2-0.19-6.35-0.63-9.36-1.79c-0.81-0.31-1.58-0.69-2.27-1.23c-0.46-0.37-0.71-0.79-0.69-1.43
					C0.06,242.68,0.031,241.13,0.031,239.55z"/>
			</g>
			<g id="shape1231-161" transform="translate(0.00319293,-13.3633)">
				<title>Tabelle.1231</title>
				<path fill="#010101" d="M0.05,241.46c0.99,0.68,2.021,1.14,3.091,1.52c2.1,0.73,4.27,1.14,6.47,1.4
					c2.71,0.31,5.43,0.39,8.149,0.22c3.32-0.2,6.591-0.66,9.721-1.85c0.859-0.33,1.67-0.73,2.489-1.29c0,0.57,0,1.08,0,1.6
					c0,0.4-0.039,0.82,0.011,1.22c0.069,0.61-0.23,1.01-0.67,1.36c-0.811,0.65-1.74,1.07-2.71,1.42c-2.25,0.82-4.601,1.23-6.98,1.48
					c-2.42,0.25-4.86,0.3-7.3,0.15c-3.18-0.2-6.32-0.63-9.311-1.78c-0.829-0.32-1.609-0.71-2.3-1.26c-0.45-0.36-0.71-0.78-0.68-1.4
					C0.08,243.35,0.05,242.44,0.05,241.46z"/>
			</g>
			<g id="shape1232-163" transform="translate(0.0223505,-7.8584)">
				<title>Tabelle.1232</title>
				<path fill="#010101" d="M29.94,241.53c0,1.12,0.021,2.18-0.01,3.23c-0.02,0.39-0.36,0.64-0.649,0.88
					c-0.79,0.64-1.721,1.06-2.671,1.4c-2.06,0.75-4.189,1.16-6.359,1.41c-2.63,0.31-5.271,0.39-7.92,0.23
					c-3.2-0.2-6.351-0.62-9.36-1.79c-0.89-0.35-1.78-0.73-2.49-1.43c-0.31-0.31-0.479-0.65-0.46-1.11
					c0.03-0.92,0.011-1.83,0.011-2.75c0.029-0.01,0.06-0.02,0.069-0.02c1.931,1.27,4.101,1.9,6.32,2.35
					c3.99,0.81,8.02,0.98,12.07,0.68c2.92-0.21,5.8-0.66,8.569-1.64C28.06,242.61,29.01,242.16,29.94,241.53z"/>
			</g>
		</g>
		<g id="shape1233-165" transform="translate(0.00497503,-4.90546)">
			<title>Tabelle.1233</title>
			<rect x="0" y="222.259" fill="#FFFFFF" width="31.902" height="26.579"/>
		</g>
		<g id="shape1234-167">
			<title>Tabelle.1234</title>
			<ellipse fill="#FFFFFF" cx="15.949" cy="243.986" rx="15.948" ry="4.852"/>
		</g>
		<g id="shape1235-169" transform="translate(0.00928177,-26.6213)">
			<title>Tabelle.1235</title>
			<ellipse fill="#FFFFFF" cx="15.949" cy="243.986" rx="15.948" ry="4.852"/>
		</g>
		<g id="group1236-171" transform="translate(0.995006,-0.785535)">
			<title>Tabelle.1236</title>
			<g id="shape1237-172" transform="translate(0.0129945,2.84217E-014)">
				<title>Tabelle.1237</title>
				<path fill="#010101" d="M0.04,239.18c2.63,1.67,5.53,2.31,8.49,2.75c3.09,0.46,6.2,0.56,9.32,0.37
					c3.279-0.21,6.51-0.67,9.609-1.85c0.86-0.32,1.67-0.73,2.44-1.26c0.1,0.14,0.05,0.28,0.05,0.4c0.01,1.56-0.021,3.12,0.02,4.68
					c0.021,0.62-0.229,1.03-0.68,1.39c-0.81,0.63-1.729,1.05-2.68,1.4c-2.271,0.82-4.63,1.24-7.021,1.48
					c-2.42,0.25-4.84,0.3-7.26,0.15c-3.18-0.2-6.32-0.62-9.32-1.78c-0.81-0.31-1.59-0.69-2.27-1.23c-0.48-0.37-0.74-0.79-0.72-1.45
					c0.05-1.54,0.02-3.09,0.02-4.64C0.04,239.47,0.04,239.35,0.04,239.18z"/>
			</g>
			<g id="shape1238-174" transform="translate(0,-26.4993)">
				<title>Tabelle.1238</title>
				<path fill="#010101" d="M14.73,248.84c-3.369-0.04-6.97-0.35-10.47-1.42c-1.06-0.33-2.1-0.73-3.04-1.34
					c-0.37-0.229-0.71-0.49-0.979-0.84c-0.24-0.31-0.24-0.6,0.01-0.91c0.28-0.36,0.63-0.63,1.01-0.86
					c1.33-0.84,2.811-1.32,4.33-1.69c3.72-0.91,7.5-1.15,11.31-1c2.73,0.1,5.44,0.43,8.091,1.15c1.199,0.32,2.359,0.73,3.449,1.34
					c0.46,0.26,0.91,0.55,1.261,0.97c0.359,0.42,0.359,0.68-0.011,1.11c-0.35,0.41-0.79,0.7-1.26,0.96
					c-1.55,0.86-3.24,1.34-4.96,1.7C20.68,248.61,17.85,248.82,14.73,248.84z"/>
			</g>
			<g id="shape1239-176" transform="translate(0.017524,-18.911)">
				<title>Tabelle.1239</title>
				<path fill="#010101" d="M0.031,239.55c3.26,1.98,6.85,2.6,10.5,2.96c4.119,0.41,8.229,0.28,12.31-0.45
					c1.95-0.35,3.86-0.85,5.66-1.71c0.49-0.23,0.939-0.51,1.45-0.83c0,0.34,0,0.64,0,0.93c0,1.32-0.011,2.64,0.01,3.97
					c0.01,0.42-0.15,0.73-0.45,1.01c-0.72,0.68-1.6,1.1-2.52,1.46c-1.971,0.78-4.04,1.2-6.141,1.48c-2.83,0.37-5.67,0.47-8.51,0.3
					c-3.2-0.19-6.35-0.63-9.36-1.79c-0.81-0.31-1.58-0.69-2.27-1.23c-0.46-0.37-0.71-0.79-0.69-1.43
					C0.06,242.68,0.031,241.13,0.031,239.55z"/>
			</g>
			<g id="shape1240-178" transform="translate(0.00319293,-13.3633)">
				<title>Tabelle.1240</title>
				<path fill="#010101" d="M0.05,241.46c0.99,0.68,2.021,1.14,3.091,1.52c2.1,0.73,4.27,1.14,6.47,1.4
					c2.71,0.31,5.43,0.39,8.149,0.22c3.32-0.2,6.591-0.66,9.721-1.85c0.859-0.33,1.67-0.73,2.489-1.29c0,0.57,0,1.08,0,1.6
					c0,0.4-0.04,0.82,0.011,1.22c0.069,0.61-0.23,1.01-0.67,1.36c-0.811,0.65-1.74,1.07-2.71,1.42c-2.25,0.82-4.601,1.23-6.98,1.48
					c-2.42,0.25-4.86,0.3-7.3,0.15c-3.18-0.2-6.32-0.63-9.311-1.78c-0.83-0.32-1.609-0.71-2.3-1.26c-0.45-0.36-0.71-0.78-0.68-1.4
					C0.08,243.35,0.05,242.44,0.05,241.46z"/>
			</g>
			<g id="shape1241-180" transform="translate(0.0223505,-7.85832)">
				<title>Tabelle.1241</title>
				<path fill="#010101" d="M29.94,241.53c0,1.12,0.021,2.18-0.01,3.23c-0.02,0.39-0.36,0.64-0.65,0.88
					c-0.789,0.64-1.72,1.06-2.67,1.4c-2.06,0.75-4.189,1.16-6.359,1.41c-2.63,0.31-5.271,0.39-7.92,0.23
					c-3.2-0.2-6.351-0.62-9.36-1.79c-0.89-0.35-1.78-0.73-2.49-1.43c-0.31-0.311-0.479-0.65-0.46-1.11
					c0.03-0.92,0.01-1.83,0.01-2.75c0.03-0.01,0.061-0.02,0.07-0.02c1.93,1.27,4.101,1.9,6.32,2.35c3.99,0.81,8.02,0.98,12.07,0.68
					c2.92-0.21,5.8-0.66,8.569-1.64C28.06,242.61,29.01,242.16,29.94,241.53z"/>
			</g>
		</g>
	</g>
	<g id="group1242-182" transform="translate(112.783,-169.936)">
		<title>Tabelle.1242</title>
		<g id="group1243-183" transform="translate(1.06926,-0.934044)">
			<title>Tabelle.1243</title>
			<g id="shape1244-184" transform="translate(0.0129945,2.84217E-014)">
				<title>Tabelle.1244</title>
				<path fill="#010101" d="M0.04,239.18c2.63,1.67,5.53,2.31,8.49,2.75c3.09,0.46,6.2,0.56,9.32,0.37
					c3.279-0.21,6.51-0.67,9.609-1.85c0.86-0.32,1.67-0.73,2.44-1.26c0.1,0.14,0.05,0.28,0.05,0.4c0.01,1.56-0.021,3.12,0.02,4.68
					c0.021,0.62-0.229,1.03-0.68,1.39c-0.81,0.63-1.729,1.05-2.68,1.4c-2.271,0.82-4.63,1.24-7.021,1.48
					c-2.42,0.24-4.84,0.3-7.26,0.15c-3.18-0.2-6.32-0.62-9.32-1.78c-0.81-0.31-1.59-0.69-2.27-1.23c-0.48-0.37-0.74-0.79-0.72-1.45
					c0.05-1.54,0.02-3.09,0.02-4.64C0.04,239.47,0.04,239.35,0.04,239.18z"/>
			</g>
			<g id="shape1245-186" transform="translate(0,-26.4993)">
				<title>Tabelle.1245</title>
				<path fill="#010101" d="M14.73,248.84c-3.37-0.04-6.97-0.35-10.47-1.42c-1.06-0.33-2.1-0.73-3.04-1.34
					c-0.37-0.23-0.71-0.49-0.979-0.84c-0.24-0.31-0.24-0.6,0.01-0.91c0.28-0.36,0.63-0.63,1.01-0.86c1.33-0.84,2.81-1.32,4.33-1.69
					c3.72-0.91,7.5-1.15,11.31-1c2.73,0.1,5.44,0.43,8.091,1.15c1.199,0.32,2.359,0.73,3.449,1.34c0.46,0.26,0.91,0.55,1.261,0.97
					c0.359,0.42,0.359,0.68-0.011,1.11c-0.35,0.41-0.79,0.7-1.26,0.96c-1.55,0.86-3.24,1.34-4.96,1.7
					C20.68,248.61,17.85,248.82,14.73,248.84z"/>
			</g>
			<g id="shape1246-188" transform="translate(0.017524,-18.911)">
				<title>Tabelle.1246</title>
				<path fill="#010101" d="M0.03,239.55c3.261,1.98,6.851,2.6,10.5,2.96c4.12,0.41,8.23,0.28,12.311-0.45
					c1.95-0.35,3.86-0.85,5.66-1.71c0.49-0.23,0.939-0.51,1.45-0.83c0,0.34,0,0.64,0,0.93c0,1.32-0.011,2.64,0.01,3.97
					c0.01,0.42-0.15,0.729-0.45,1.01c-0.72,0.68-1.6,1.1-2.52,1.46c-1.971,0.78-4.04,1.2-6.141,1.48c-2.83,0.37-5.67,0.47-8.51,0.3
					c-3.2-0.19-6.35-0.63-9.36-1.79c-0.81-0.31-1.58-0.69-2.27-1.23c-0.46-0.37-0.71-0.79-0.69-1.43
					C0.06,242.68,0.03,241.13,0.03,239.55z"/>
			</g>
			<g id="shape1247-190" transform="translate(0.00319293,-13.3633)">
				<title>Tabelle.1247</title>
				<path fill="#010101" d="M0.05,241.46c0.99,0.68,2.021,1.14,3.09,1.52c2.101,0.73,4.271,1.14,6.471,1.4
					c2.71,0.31,5.43,0.39,8.149,0.22c3.32-0.2,6.59-0.66,9.721-1.85c0.859-0.33,1.67-0.73,2.489-1.29c0,0.57,0,1.08,0,1.6
					c0,0.4-0.04,0.82,0.011,1.22c0.069,0.61-0.23,1.01-0.67,1.36c-0.811,0.65-1.74,1.07-2.711,1.42c-2.25,0.82-4.6,1.23-6.979,1.48
					c-2.42,0.25-4.86,0.3-7.3,0.15c-3.181-0.2-6.32-0.63-9.311-1.78c-0.83-0.32-1.609-0.71-2.3-1.26c-0.45-0.36-0.71-0.78-0.68-1.4
					C0.08,243.35,0.05,242.44,0.05,241.46z"/>
			</g>
			<g id="shape1248-192" transform="translate(0.0223505,-7.8584)">
				<title>Tabelle.1248</title>
				<path fill="#010101" d="M29.94,241.53c0,1.12,0.021,2.18-0.01,3.23c-0.02,0.39-0.36,0.64-0.65,0.88
					c-0.79,0.64-1.72,1.06-2.67,1.4c-2.06,0.75-4.189,1.16-6.359,1.41c-2.63,0.31-5.271,0.39-7.92,0.23
					c-3.2-0.2-6.351-0.62-9.36-1.79c-0.89-0.35-1.78-0.73-2.49-1.43c-0.31-0.31-0.479-0.65-0.46-1.11c0.03-0.92,0.01-1.83,0.01-2.75
					c0.03-0.01,0.061-0.02,0.07-0.02c1.93,1.27,4.1,1.9,6.32,2.35c3.99,0.81,8.02,0.98,12.069,0.68c2.921-0.21,5.801-0.66,8.57-1.64
					C28.06,242.61,29.01,242.16,29.94,241.53z"/>
			</g>
		</g>
		<g id="shape1249-194" transform="translate(0.00497503,-4.90546)">
			<title>Tabelle.1249</title>
			<rect x="0" y="222.259" fill="#FFFFFF" width="31.902" height="26.579"/>
		</g>
		<g id="shape1250-196">
			<title>Tabelle.1250</title>
			<ellipse fill="#FFFFFF" cx="15.949" cy="243.986" rx="15.948" ry="4.852"/>
		</g>
		<g id="shape1251-198" transform="translate(0.00928177,-26.6213)">
			<title>Tabelle.1251</title>
			<ellipse fill="#FFFFFF" cx="15.949" cy="243.986" rx="15.948" ry="4.852"/>
		</g>
		<g id="group1252-200" transform="translate(0.995006,-0.785535)">
			<title>Tabelle.1252</title>
			<g id="shape1253-201" transform="translate(0.0129945,2.84217E-014)">
				<title>Tabelle.1253</title>
				<path fill="#010101" d="M0.04,239.18c2.63,1.67,5.53,2.31,8.49,2.75c3.09,0.46,6.2,0.56,9.319,0.37
					c3.28-0.21,6.511-0.67,9.61-1.85c0.86-0.32,1.67-0.73,2.44-1.26c0.1,0.14,0.05,0.28,0.05,0.4c0.01,1.56-0.021,3.12,0.02,4.68
					c0.021,0.62-0.229,1.03-0.68,1.39c-0.81,0.63-1.729,1.05-2.68,1.4c-2.271,0.82-4.63,1.24-7.021,1.48
					c-2.42,0.25-4.84,0.3-7.26,0.15c-3.18-0.2-6.32-0.62-9.32-1.78c-0.81-0.31-1.59-0.69-2.27-1.23c-0.48-0.37-0.74-0.79-0.72-1.45
					c0.05-1.54,0.02-3.09,0.02-4.64C0.04,239.47,0.04,239.35,0.04,239.18z"/>
			</g>
			<g id="shape1254-203" transform="translate(0,-26.4993)">
				<title>Tabelle.1254</title>
				<path fill="#010101" d="M14.73,248.84c-3.37-0.04-6.97-0.35-10.47-1.42c-1.06-0.33-2.1-0.73-3.04-1.34
					c-0.37-0.229-0.71-0.49-0.979-0.84c-0.24-0.31-0.24-0.6,0.01-0.91c0.279-0.36,0.63-0.63,1.01-0.86
					c1.33-0.84,2.81-1.32,4.33-1.69c3.72-0.91,7.5-1.15,11.31-1c2.73,0.1,5.44,0.43,8.091,1.15c1.199,0.32,2.359,0.73,3.449,1.34
					c0.46,0.26,0.91,0.55,1.261,0.97c0.359,0.42,0.359,0.68-0.011,1.11c-0.35,0.41-0.79,0.7-1.26,0.96
					c-1.55,0.86-3.24,1.34-4.96,1.7C20.68,248.61,17.85,248.82,14.73,248.84z"/>
			</g>
			<g id="shape1255-205" transform="translate(0.017524,-18.911)">
				<title>Tabelle.1255</title>
				<path fill="#010101" d="M0.03,239.55c3.261,1.98,6.851,2.6,10.5,2.96c4.12,0.41,8.23,0.28,12.311-0.45
					c1.95-0.35,3.86-0.85,5.66-1.71c0.489-0.23,0.939-0.51,1.45-0.83c0,0.34,0,0.64,0,0.93c0,1.32-0.011,2.64,0.01,3.97
					c0.01,0.42-0.15,0.73-0.45,1.01c-0.72,0.68-1.6,1.1-2.521,1.46c-1.97,0.78-4.039,1.2-6.14,1.48c-2.83,0.37-5.67,0.47-8.51,0.3
					c-3.2-0.19-6.351-0.63-9.36-1.79c-0.81-0.31-1.58-0.69-2.27-1.23c-0.46-0.37-0.71-0.79-0.69-1.43
					C0.06,242.68,0.03,241.13,0.03,239.55z"/>
			</g>
			<g id="shape1256-207" transform="translate(0.00319293,-13.3633)">
				<title>Tabelle.1256</title>
				<path fill="#010101" d="M0.05,241.46c0.99,0.68,2.021,1.14,3.09,1.52c2.101,0.73,4.271,1.14,6.471,1.4
					c2.71,0.31,5.43,0.39,8.149,0.22c3.32-0.2,6.59-0.66,9.721-1.85c0.859-0.33,1.67-0.73,2.489-1.29c0,0.57,0,1.08,0,1.6
					c0,0.4-0.04,0.82,0.011,1.22c0.069,0.61-0.23,1.01-0.671,1.36c-0.81,0.65-1.739,1.07-2.71,1.42c-2.25,0.82-4.6,1.23-6.979,1.48
					c-2.42,0.25-4.86,0.3-7.3,0.15c-3.181-0.2-6.32-0.63-9.311-1.78c-0.83-0.32-1.609-0.71-2.3-1.26c-0.45-0.36-0.71-0.78-0.68-1.4
					C0.08,243.35,0.05,242.44,0.05,241.46z"/>
			</g>
			<g id="shape1257-209" transform="translate(0.0223505,-7.85832)">
				<title>Tabelle.1257</title>
				<path fill="#010101" d="M29.94,241.53c0,1.12,0.021,2.18-0.01,3.23c-0.021,0.39-0.36,0.64-0.65,0.88
					c-0.79,0.64-1.72,1.06-2.67,1.4c-2.06,0.75-4.189,1.16-6.359,1.41c-2.63,0.31-5.271,0.39-7.92,0.23
					c-3.2-0.2-6.351-0.62-9.36-1.79c-0.89-0.35-1.78-0.73-2.49-1.43c-0.31-0.311-0.479-0.65-0.46-1.11
					c0.03-0.92,0.01-1.83,0.01-2.75c0.03-0.01,0.061-0.02,0.07-0.02c1.93,1.27,4.1,1.9,6.32,2.35c3.989,0.81,8.02,0.98,12.069,0.68
					c2.92-0.21,5.801-0.66,8.57-1.64C28.06,242.61,29.01,242.16,29.94,241.53z"/>
			</g>
		</g>
	</g>
	<g id="group1258-211" transform="translate(95.4121,-160.014)">
		<title>Tabelle.1258</title>
		<g id="group1259-212" transform="translate(1.06926,-0.934044)">
			<title>Tabelle.1259</title>
			<g id="shape1260-213" transform="translate(0.0129945,2.84217E-014)">
				<title>Tabelle.1260</title>
				<path fill="#010101" d="M0.04,239.18c2.63,1.67,5.53,2.31,8.49,2.75c3.09,0.46,6.2,0.56,9.32,0.37
					c3.279-0.21,6.51-0.67,9.609-1.85c0.86-0.32,1.67-0.73,2.44-1.26c0.1,0.14,0.05,0.28,0.05,0.4c0.01,1.56-0.02,3.12,0.021,4.68
					c0.02,0.62-0.23,1.03-0.681,1.39c-0.81,0.63-1.729,1.05-2.68,1.4c-2.271,0.82-4.63,1.24-7.021,1.48
					c-2.42,0.24-4.84,0.3-7.26,0.15c-3.18-0.2-6.319-0.62-9.319-1.78c-0.811-0.31-1.591-0.69-2.271-1.23
					c-0.479-0.37-0.74-0.79-0.72-1.45c0.05-1.54,0.02-3.09,0.02-4.64C0.04,239.47,0.04,239.35,0.04,239.18z"/>
			</g>
			<g id="shape1261-215" transform="translate(0,-26.4993)">
				<title>Tabelle.1261</title>
				<path fill="#010101" d="M14.731,248.84c-3.37-0.04-6.971-0.35-10.471-1.42c-1.06-0.33-2.1-0.73-3.04-1.34
					c-0.37-0.23-0.71-0.49-0.979-0.84c-0.24-0.31-0.24-0.6,0.01-0.91c0.28-0.36,0.63-0.63,1.01-0.86c1.33-0.84,2.811-1.32,4.33-1.69
					c3.72-0.91,7.5-1.15,11.311-1c2.729,0.1,5.439,0.43,8.09,1.15c1.2,0.32,2.359,0.73,3.45,1.34c0.46,0.26,0.909,0.55,1.26,0.97
					c0.359,0.42,0.359,0.68-0.01,1.11c-0.351,0.41-0.79,0.7-1.261,0.96c-1.55,0.86-3.239,1.34-4.96,1.7
					C20.68,248.61,17.85,248.82,14.731,248.84z"/>
			</g>
			<g id="shape1262-217" transform="translate(0.017524,-18.911)">
				<title>Tabelle.1262</title>
				<path fill="#010101" d="M0.031,239.55c3.26,1.98,6.85,2.6,10.5,2.96c4.12,0.41,8.229,0.28,12.31-0.45
					c1.95-0.35,3.86-0.85,5.66-1.71c0.49-0.23,0.94-0.51,1.45-0.83c0,0.34,0,0.64,0,0.93c0,1.32-0.01,2.64,0.01,3.97
					c0.01,0.42-0.15,0.73-0.45,1.01c-0.72,0.68-1.6,1.1-2.52,1.46c-1.971,0.78-4.04,1.2-6.141,1.48c-2.83,0.37-5.67,0.47-8.51,0.3
					c-3.2-0.19-6.35-0.63-9.36-1.79c-0.81-0.31-1.579-0.69-2.27-1.23c-0.46-0.37-0.71-0.79-0.69-1.43
					C0.06,242.68,0.031,241.13,0.031,239.55z"/>
			</g>
			<g id="shape1263-219" transform="translate(0.00319293,-13.3633)">
				<title>Tabelle.1263</title>
				<path fill="#010101" d="M0.05,241.46c0.99,0.68,2.021,1.14,3.091,1.52c2.1,0.73,4.27,1.14,6.47,1.4
					c2.71,0.31,5.43,0.39,8.15,0.22c3.319-0.2,6.59-0.66,9.72-1.85c0.859-0.33,1.67-0.73,2.49-1.29c0,0.57,0,1.08,0,1.6
					c0,0.4-0.04,0.82,0.01,1.22c0.069,0.61-0.23,1.01-0.67,1.36c-0.811,0.65-1.74,1.07-2.71,1.42c-2.25,0.82-4.601,1.23-6.98,1.48
					c-2.42,0.25-4.859,0.3-7.3,0.15c-3.18-0.2-6.32-0.63-9.31-1.78c-0.83-0.32-1.61-0.71-2.301-1.26c-0.449-0.36-0.71-0.78-0.68-1.4
					C0.08,243.35,0.05,242.44,0.05,241.46z"/>
			</g>
			<g id="shape1264-221" transform="translate(0.0223505,-7.8584)">
				<title>Tabelle.1264</title>
				<path fill="#010101" d="M29.94,241.53c0,1.12,0.021,2.18-0.01,3.23c-0.02,0.39-0.359,0.64-0.649,0.88
					c-0.79,0.64-1.721,1.06-2.67,1.4c-2.061,0.75-4.19,1.16-6.36,1.41c-2.63,0.31-5.271,0.39-7.92,0.23
					c-3.2-0.2-6.351-0.62-9.36-1.79c-0.89-0.35-1.78-0.73-2.49-1.43c-0.31-0.311-0.479-0.65-0.46-1.11
					c0.03-0.92,0.011-1.83,0.011-2.75c0.029-0.01,0.06-0.02,0.069-0.02c1.931,1.27,4.101,1.9,6.32,2.35
					c3.99,0.81,8.02,0.98,12.07,0.68c2.92-0.21,5.8-0.66,8.569-1.64C28.06,242.61,29.01,242.16,29.94,241.53z"/>
			</g>
		</g>
		<g id="shape1265-223" transform="translate(0.00497503,-4.90546)">
			<title>Tabelle.1265</title>
			<rect x="0" y="222.259" fill="#FFFFFF" width="31.902" height="26.579"/>
		</g>
		<g id="shape1266-225">
			<title>Tabelle.1266</title>
			<ellipse fill="#FFFFFF" cx="15.948" cy="243.986" rx="15.948" ry="4.852"/>
		</g>
		<g id="shape1267-227" transform="translate(0.00928177,-26.6213)">
			<title>Tabelle.1267</title>
			<ellipse fill="#FFFFFF" cx="15.949" cy="243.986" rx="15.948" ry="4.852"/>
		</g>
		<g id="group1268-229" transform="translate(0.995006,-0.785535)">
			<title>Tabelle.1268</title>
			<g id="shape1269-230" transform="translate(0.0129945,2.84217E-014)">
				<title>Tabelle.1269</title>
				<path fill="#010101" d="M0.04,239.18c2.63,1.67,5.53,2.31,8.49,2.75c3.09,0.46,6.2,0.56,9.32,0.37
					c3.279-0.21,6.51-0.67,9.609-1.85c0.86-0.32,1.67-0.73,2.44-1.26c0.1,0.14,0.05,0.28,0.05,0.4c0.01,1.56-0.02,3.12,0.021,4.68
					c0.02,0.62-0.23,1.03-0.681,1.39c-0.81,0.63-1.729,1.05-2.68,1.4c-2.271,0.82-4.63,1.24-7.021,1.48
					c-2.42,0.25-4.84,0.3-7.26,0.15c-3.18-0.2-6.319-0.62-9.319-1.78c-0.811-0.31-1.591-0.69-2.271-1.23
					c-0.479-0.37-0.74-0.79-0.72-1.45c0.05-1.54,0.02-3.09,0.02-4.64C0.04,239.47,0.04,239.35,0.04,239.18z"/>
			</g>
			<g id="shape1270-232" transform="translate(0,-26.4993)">
				<title>Tabelle.1270</title>
				<path fill="#010101" d="M14.73,248.84c-3.369-0.04-6.97-0.35-10.47-1.42c-1.06-0.33-2.1-0.73-3.04-1.34
					c-0.37-0.23-0.71-0.49-0.979-0.84c-0.24-0.31-0.24-0.6,0.01-0.91c0.28-0.36,0.63-0.63,1.01-0.86c1.33-0.84,2.811-1.32,4.33-1.69
					c3.72-0.91,7.5-1.15,11.311-1c2.729,0.1,5.439,0.43,8.09,1.15c1.2,0.32,2.359,0.729,3.45,1.34c0.46,0.26,0.909,0.55,1.26,0.97
					c0.359,0.42,0.359,0.68-0.01,1.11c-0.351,0.41-0.79,0.7-1.261,0.96c-1.55,0.86-3.239,1.34-4.96,1.7
					C20.68,248.61,17.85,248.82,14.73,248.84z"/>
			</g>
			<g id="shape1271-234" transform="translate(0.017524,-18.911)">
				<title>Tabelle.1271</title>
				<path fill="#010101" d="M0.031,239.55c3.26,1.98,6.85,2.6,10.5,2.96c4.12,0.41,8.229,0.28,12.31-0.45
					c1.95-0.35,3.86-0.85,5.66-1.71c0.49-0.229,0.939-0.51,1.45-0.83c0,0.34,0,0.64,0,0.93c0,1.32-0.011,2.64,0.01,3.97
					c0.01,0.42-0.15,0.73-0.45,1.01c-0.72,0.68-1.6,1.1-2.52,1.46c-1.971,0.78-4.04,1.2-6.141,1.48c-2.83,0.37-5.67,0.47-8.51,0.3
					c-3.2-0.19-6.35-0.63-9.36-1.79c-0.81-0.31-1.579-0.69-2.27-1.23c-0.46-0.37-0.71-0.79-0.69-1.43
					C0.06,242.68,0.031,241.13,0.031,239.55z"/>
			</g>
			<g id="shape1272-236" transform="translate(0.00319293,-13.3633)">
				<title>Tabelle.1272</title>
				<path fill="#010101" d="M0.05,241.46c0.99,0.68,2.021,1.14,3.091,1.52c2.1,0.73,4.27,1.14,6.47,1.4
					c2.71,0.31,5.43,0.39,8.149,0.22c3.32-0.2,6.591-0.66,9.721-1.85c0.859-0.33,1.67-0.73,2.49-1.29c0,0.57,0,1.08,0,1.6
					c0,0.4-0.04,0.82,0.01,1.22c0.069,0.61-0.23,1.01-0.67,1.36c-0.811,0.65-1.74,1.07-2.71,1.42c-2.25,0.82-4.601,1.23-6.98,1.48
					c-2.42,0.25-4.86,0.3-7.3,0.15c-3.18-0.2-6.32-0.63-9.311-1.78c-0.829-0.32-1.609-0.71-2.3-1.26c-0.45-0.36-0.71-0.78-0.68-1.4
					C0.08,243.35,0.05,242.44,0.05,241.46z"/>
			</g>
			<g id="shape1273-238" transform="translate(0.0223505,-7.85832)">
				<title>Tabelle.1273</title>
				<path fill="#010101" d="M29.94,241.53c0,1.12,0.021,2.18-0.01,3.23c-0.02,0.39-0.359,0.64-0.649,0.88
					c-0.79,0.64-1.721,1.06-2.671,1.4c-2.06,0.75-4.189,1.16-6.359,1.41c-2.63,0.31-5.271,0.39-7.92,0.23
					c-3.2-0.2-6.351-0.62-9.36-1.79c-0.89-0.35-1.78-0.73-2.49-1.43c-0.31-0.31-0.479-0.65-0.46-1.11
					c0.03-0.92,0.011-1.83,0.011-2.75c0.029-0.01,0.06-0.02,0.069-0.02c1.931,1.27,4.101,1.9,6.32,2.35
					c3.99,0.81,8.02,0.98,12.07,0.68c2.92-0.21,5.8-0.66,8.569-1.64C28.06,242.61,29.01,242.16,29.94,241.53z"/>
			</g>
		</g>
	</g>
	<g id="shape1274-240" transform="translate(77.1661,-218.493)">
		<title>Tabelle.1274</title>
		<desc>Datenbank</desc>
		<v:textBlock  v:tabSpace="42.5197" v:margins="rect(4,4,4,4)"></v:textBlock>
		<v:textRect  width="69.13" height="21.7621" cy="237.957" cx="34.563"></v:textRect>
		<rect x="0" y="227.076" fill="none" width="69.126" height="21.762"/>
		
			<text transform="matrix(1 0 0 1 6.3199 241.5593)" enable-background="new    " font-family="'Roboto-Light'" font-size="12.0001">Datenbank<v:paragraph  v:horizAlign="1"></v:paragraph><v:tabList></v:tabList></text>
	</g>
	<g id="shape1280-243" transform="translate(-37.8961,131.998) rotate(-90)">
		<title>Tabelle.1280</title>
		
			<path fill="none" stroke="#000000" stroke-width="0.75" stroke-linecap="round" stroke-linejoin="round" stroke-miterlimit="3" d="
			M0,248.841h36.68"/>
	</g>
	<g id="shape1281-246" transform="translate(141.209,-190.646)">
		<title>Tabelle.1281</title>
		
			<path fill="none" stroke="#000000" stroke-width="0.75" stroke-linecap="round" stroke-linejoin="round" stroke-miterlimit="3" d="
			M0,248.84h33.41"/>
	</g>
	<g id="group1308-249" transform="translate(68.5422,-3.49741)">
		<title>Layer_2.1308</title>
		<g id="group1309-250" transform="translate(0,-18.3875)">
			<title>Tabelle.1309</title>
			<g id="shape1310-251" transform="translate(1.32393,-1.32374)">
				<title>Tabelle.1310</title>
				<ellipse fill="#FFFFFF" cx="26.739" cy="222.1" rx="26.738" ry="26.738"/>
			</g>
			<g id="shape1311-253">
				<title>Tabelle.1311</title>
				<path fill="#808285" d="M28.061,248.84C12.59,248.84,0,236.25,0,220.78c0-15.48,12.59-28.07,28.061-28.07
					c15.479,0,28.06,12.59,28.06,28.07C56.12,236.25,43.54,248.84,28.061,248.84z M28.061,195.36c-14.01,0-25.41,11.399-25.41,25.42
					c0,14.01,11.4,25.41,25.41,25.41c14.02,0,25.42-11.4,25.42-25.41C53.48,206.76,42.08,195.36,28.061,195.36z"/>
			</g>
		</g>
		<g id="shape1312-255" transform="translate(223.978,395.635) rotate(135)">
			<title>Tabelle.1312</title>
			<rect x="0" y="213.672" fill="#808285" width="6.07" height="35.166"/>
		</g>
	</g>
	<g id="group1313-257" transform="translate(86.3483,-36.6956)">
		<title>Tabelle.1313</title>
		<g id="group1314-258">
			<title>Zeichenblatt-1</title>
			<g id="group1315-259">
				<title>Tabelle.42</title>
				<g id="shape1316-260">
					<title>Tabelle.1316</title>
					<path d="M20.77,248.84H0.81c-0.45,0-0.81-0.37-0.81-0.82v-26.579c0-0.451,0.359-0.811,0.81-0.811h15.97
						c0.261,0,0.5,0.119,0.65,0.32l3.99,5.319c0.1,0.14,0.16,0.31,0.16,0.49v21.26C21.581,248.47,21.22,248.84,20.77,248.84z
						 M1.63,247.21h18.32v-20.18l-3.58-4.771H1.63V247.21z"/>
				</g>
			</g>
		</g>
	</g>
	<g id="group1295-262" transform="translate(114.016,-113.77)">
		<title>Layer_2.1295</title>
		<g id="group1296-263" transform="translate(0,-17.407)">
			<title>Tabelle.1296</title>
			<g id="shape1297-264" transform="translate(1.25333,-1.25315)">
				<title>Tabelle.1297</title>
				<ellipse fill="#FFFFFF" cx="25.313" cy="223.525" rx="25.312" ry="25.312"/>
			</g>
			<g id="shape1298-266">
				<title>Tabelle.1298</title>
				<path fill="#808285" d="M26.57,248.84C11.921,248.84,0,236.92,0,222.27c0-14.65,11.921-26.56,26.57-26.56
					c14.641,0,26.561,11.91,26.561,26.56C53.131,236.92,41.211,248.84,26.57,248.84z M26.57,198.21c-13.27,0-24.06,10.8-24.06,24.06
					c0,13.27,10.79,24.06,24.06,24.06c13.26,0,24.05-10.79,24.05-24.06C50.62,209.01,39.83,198.21,26.57,198.21z"/>
			</g>
		</g>
		<g id="shape1299-268" transform="translate(221.417,397.19) rotate(135)">
			<title>Tabelle.1299</title>
			<rect x="0" y="215.548" fill="#808285" width="5.745" height="33.29"/>
		</g>
	</g>
	<g id="group1300-270" transform="translate(135.206,-150.789)">
		<title>Zeichenblatt-1.1300</title>
		<g id="group1301-271">
			<title>Tabelle.5</title>
			<g id="shape1302-272">
				<title>Tabelle.1302</title>
				<path d="M19.5,248.1v-4.42h-1.479v4.42H19.5z M19.5,242.2v-4.42h-1.479v4.42H19.5z M19.5,236.3v-4.43h-1.479v4.43H19.5z
					 M18.01,229.12l0.011,1.28H19.5v-1.51c0-0.16-0.05-0.32-0.14-0.45l-1.75-2.32L16.43,227L18.01,229.12z M14.81,224.82l0.73,1
					l1.19-0.88l-0.98-1.3c-0.14-0.19-0.36-0.3-0.59-0.3h-2.82v1.47L14.81,224.82z M10.861,223.34H6.43v1.47h4.431V223.34z
					 M4.95,224.81v-1.47l0,0H0.74c-0.41,0-0.74,0.33-0.74,0.74v0.22v0.52L4.95,224.81z M0,225.78v4.43h1.48v-4.43H0z M0,231.68v4.42
					h1.48v-4.42H0z M0,237.58v4.43h1.48v-4.43H0z M0,243.49v4.42h1.48v-4.42H0z M1.781,248.84H6.18v-1.45H1.781V248.84z
					 M7.611,248.84h4.439v-1.47H7.611V248.84z M13.441,248.84h4.439v-1.44h-4.439V248.84z"/>
				<path fill="none" d="M19.5,248.1v-4.42h-1.479v4.42H19.5 M19.5,242.2v-4.42h-1.479v4.42H19.5 M19.5,236.3v-4.43h-1.479v4.43
					H19.5 M18.01,229.12l0.011,1.28H19.5v-1.51c0-0.16-0.05-0.32-0.14-0.45l-1.75-2.32L16.43,227 M14.81,224.82l0.73,1l1.19-0.88
					l-0.98-1.3c-0.14-0.19-0.36-0.3-0.59-0.3h-2.82v1.47 M10.861,223.34H6.43v1.47h4.431V223.34 M4.95,224.81v-1.47l0,0H0.74
					c-0.41,0-0.74,0.33-0.74,0.74v0.22v0.52 M0,225.78v4.43h1.48v-4.43H0 M0,231.68v4.42h1.48v-4.42H0 M0,237.58v4.43h1.48v-4.43H0
					 M0,243.49v4.42h1.48v-4.42H0 M1.781,248.84H6.18v-1.45H1.781V248.84 M7.611,248.84h4.439v-1.47H7.611V248.84 M13.441,248.84
					h4.439v-1.44h-4.439V248.84"/>
			</g>
		</g>
	</g>
	<g id="group1303-275" transform="translate(126.352,-140.849)">
		<title>Tabelle.1303</title>
		<g id="group1304-276">
			<title>Zeichenblatt-1</title>
			<g id="group1305-277">
				<title>Tabelle.42</title>
				<g id="shape1306-278">
					<title>Tabelle.1306</title>
					<path d="M18.77,248.84H0.74c-0.41,0-0.739-0.33-0.739-0.74v-24.03c0-0.4,0.329-0.73,0.739-0.73h14.431
						c0.229,0,0.449,0.11,0.59,0.29l3.6,4.81c0.101,0.12,0.15,0.28,0.15,0.44v19.22C19.51,248.51,19.18,248.84,18.77,248.84z
						 M1.47,247.36H18.04v-18.24l-3.239-4.31H1.47V247.36z"/>
				</g>
			</g>
		</g>
		<g id="shape1307-280" transform="translate(1.47303,-1.47361)">
			<title>Tabelle.1307</title>
			<path fill="#FFFFFF" d="M0,248.84h16.56V230.6l-3.229-4.32H0V248.84z"/>
		</g>
	</g>
</g>
<g>
	<polygon fill="#FFFFFF" stroke="#636363" stroke-width="3" stroke-miterlimit="10" points="275.285,173.929 308.322,185.919 
		282.242,162.359 280.213,165.733 161.772,94.509 158.873,99.329 277.315,170.554 	"/>
</g>
</svg>
