<?xml version="1.0" encoding="utf-8"?>
<!-- Generator: Adobe Illustrator 16.0.0, SVG Export Plug-In . SVG Version: 6.00 Build 0)  -->
<!DOCTYPE svg PUBLIC "-//W3C//DTD SVG 1.1//EN" "http://www.w3.org/Graphics/SVG/1.1/DTD/svg11.dtd">
<svg version="1.1"
	 id="Layer_1" xmlns:ev="http://www.w3.org/2001/xml-events" xmlns:v="http://schemas.microsoft.com/visio/2003/SVGExtensions/"
	 xmlns="http://www.w3.org/2000/svg" xmlns:xlink="http://www.w3.org/1999/xlink" x="0px" y="0px" width="425.645px"
	 height="271.14px" viewBox="0 0 425.645 271.14" enable-background="new 0 0 425.645 271.14" xml:space="preserve">
<v:documentProperties  v:viewMarkup="false" v:metric="true" v:langID="1031"></v:documentProperties>
<g>
	<title>Zeichenblatt-1</title>
	
		<v:pageProperties  v:shadowOffsetY="-8.50394" v:shadowOffsetX="8.50394" v:drawingUnits="24" v:pageScale="0.0393701" v:drawingScale="0.0393701">
		</v:pageProperties>
	<g id="group610-1" transform="translate(300.146,-21.6692)">
		<title>Tabelle.610</title>
		<g id="group611-2">
			<title>Zeichenblatt-1</title>
			<g id="group612-3" transform="translate(0,-9.27286)">
				<v:userDefs>
					<v:ud  v:val="VT0(0):5" v:prompt="" v:nameU="CTypeTopLeftSnip"></v:ud>
					<v:ud  v:val="VT0(0):5" v:prompt="" v:nameU="CTypeTopRightSnip"></v:ud>
					<v:ud  v:val="VT0(0):5" v:prompt="" v:nameU="CTypeBotLeftSnip"></v:ud>
					<v:ud  v:val="VT0(0):5" v:prompt="" v:nameU="CTypeBotRightSnip"></v:ud>
					<v:ud  v:val="VT0(1):5" v:prompt="" v:nameU="CornerLockHoriz"></v:ud>
					<v:ud  v:val="VT0(1):5" v:prompt="" v:nameU="CornerLockVert"></v:ud>
					<v:ud  v:val="VT0(0):5" v:prompt="" v:nameU="CornerLockDiag"></v:ud>
					<v:ud  v:val="VT0(0):26" v:prompt="" v:nameU="TopLeftOffset"></v:ud>
					<v:ud  v:val="VT0(0):26" v:prompt="" v:nameU="TopRightOffset"></v:ud>
					<v:ud  v:val="VT0(0):26" v:prompt="" v:nameU="BotLeftOffset"></v:ud>
					<v:ud  v:val="VT0(0):26" v:prompt="" v:nameU="BotRightOffset"></v:ud>
					<v:ud  v:val="VT0(15):26" v:prompt="" v:nameU="visVersion"></v:ud>
				</v:userDefs>
				<title>Abgerundetes Rechteck</title>
				<g id="shape613-4">
					<title>Tabelle.613</title>
					<path d="M121.64,271.14H3.11c-1.72,0-3.11-1.39-3.11-3.11V201.67c0-1.71,1.391-3.11,3.11-3.11h118.53
						c1.72,0,3.109,1.4,3.109,3.11v66.359C124.75,269.75,123.36,271.14,121.64,271.14z M6.23,264.91h112.29v-60.12H6.23V264.91z"/>
				</g>
			</g>
			<g id="group614-6" transform="translate(57.8531,-0.838254)">
				<v:userDefs>
					<v:ud  v:val="VT0(15):26" v:nameU="visVersion"></v:ud>
				</v:userDefs>
				<title>Rechteck</title>
				<g id="group615-7">
					<title>Tabelle.615</title>
					<g id="shape616-8" transform="translate(0.0747073,-0.0747073)">
						<title>Tabelle.616</title>
						<rect x="0" y="257.904" width="6.177" height="13.236"/>
					</g>
					<g id="shape617-10">
						<title>Tabelle.617</title>
						<path d="M6.25,271.14H0.07c-0.04,0-0.07-0.029-0.07-0.07V257.83c0-0.04,0.03-0.08,0.07-0.08h6.18c0.04,0,0.08,0.04,0.08,0.08
							v13.239C6.33,271.11,6.29,271.14,6.25,271.14z M0.15,270.989h6.03V257.9H0.15V270.989z"/>
					</g>
				</g>
			</g>
			<g id="group618-12" transform="translate(33.8086,0)">
				<v:userDefs>
					<v:ud  v:val="VT0(15):26" v:nameU="visVersion"></v:ud>
				</v:userDefs>
				<title>Rechteck.71</title>
				<g id="group619-13">
					<title>Tabelle.619</title>
					<g id="shape620-14" transform="translate(0.0747073,-0.0747073)">
						<title>Tabelle.620</title>
						<rect x="0" y="268.052" width="55.501" height="3.088"/>
					</g>
					<g id="shape621-16">
						<title>Tabelle.621</title>
						<path d="M55.58,271.139H0.07c-0.04,0-0.07-0.029-0.07-0.069v-3.09c0-0.04,0.03-0.08,0.07-0.08h55.51
							c0.04,0,0.07,0.04,0.07,0.08v3.09C55.65,271.11,55.62,271.139,55.58,271.139z M0.15,270.99H55.5v-2.94H0.15V270.99z"/>
					</g>
				</g>
			</g>
		</g>
		<g id="shape622-18" transform="translate(6.13596,-15.498)">
			<title>Tabelle.622</title>
			<rect x="0.001" y="211.038" fill="#4F4F4F" width="112.387" height="60.103"/>
		</g>
	</g>
	<g id="shape598-20" transform="translate(106.918,-63.0193)">
		<title>Tabelle.598</title>
		
			<path fill="none" stroke="#000000" stroke-width="0.75" stroke-linecap="round" stroke-linejoin="round" stroke-miterlimit="3" d="
			M0,271.14h45.271"/>
	</g>
	<g id="group196-23" transform="translate(0.611223,-26.525)">
		<title>Tabelle.196</title>
		<g id="group197-24">
			<title>Zeichenblatt-1</title>
			<g id="group198-25" transform="translate(13.1991,-13.749)">
				<title>Tabelle.74</title>
				<g id="shape199-26">
					<title>Tabelle.199</title>
					<path d="M98.241,271.14H1.76c-0.97,0-1.76-0.79-1.76-1.76v-54.399c0-0.971,0.79-1.75,1.76-1.75h96.48
						c0.97,0,1.76,0.779,1.76,1.75v54.399C100,270.35,99.21,271.14,98.241,271.14z M5.6,265.54h88.79v-46.71H5.6V265.54z"/>
				</g>
			</g>
			<g id="group200-28" transform="translate(1.89585,-1.75569)">
				<title>Tabelle.75</title>
				<g id="shape201-29">
					<title>Tabelle.201</title>
					<path d="M122.5,271.14l-10.87-10.84H10.87L0,271.14H122.5z"/>
				</g>
			</g>
			<g id="group202-31">
				<title>Tabelle.76</title>
				<g id="shape203-32">
					<title>Tabelle.203</title>
					<path d="M124.401,271.14H1.901c-0.71,0-1.36-0.43-1.631-1.09c-0.27-0.65-0.119-1.41,0.381-1.91l10.88-10.84
						c0.33-0.33,0.77-0.51,1.239-0.51h100.75c0.471,0,0.91,0.18,1.24,0.51l10.88,10.84c0.5,0.5,0.65,1.26,0.38,1.91
						C125.75,270.71,125.111,271.14,124.401,271.14z M6.14,267.63h114.011l-7.351-7.33h-99.31L6.14,267.63z"/>
				</g>
			</g>
		</g>
	</g>
	<g id="group204-34" transform="translate(172.521,-153.744)">
		<title>Tabelle.204</title>
		<g id="group205-35">
			<title>Zeichenblatt-1</title>
			<g id="group206-36" transform="translate(2.51397,-2.38985)">
				<title>Tabelle.10</title>
				<g id="shape207-37">
					<title>Tabelle.207</title>
					<path d="M0,192.36v78.78H67.98v-78.78H0z"/>
				</g>
			</g>
			<g id="group208-39" transform="translate(0.124117,0)">
				<title>Tabelle.11</title>
				<g id="shape209-40">
					<title>Tabelle.209</title>
					<path d="M70.371,271.14H2.39c-1.32,0-2.39-1.07-2.39-2.39v-78.78c0-1.32,1.069-2.39,2.39-2.39h67.98
						c1.319,0,2.39,1.07,2.39,2.39v78.78C72.76,270.07,71.69,271.14,70.371,271.14z M4.78,266.36h63.2v-74H4.78V266.36z"/>
				</g>
			</g>
			<g id="group210-42" transform="translate(1.69565,-81.4908)">
				<title>Tabelle.12</title>
				<g id="shape211-43">
					<title>Tabelle.211</title>
					<path d="M0,271.14l13.49-13.44H56.02l13.471,13.44H0z"/>
				</g>
			</g>
			<g id="group212-45" transform="translate(0,-79.9168)">
				<title>Tabelle.13</title>
				<g id="shape213-46">
					<title>Tabelle.213</title>
					<path d="M71.211,271.14c-0.011,0-0.011,0-0.021,0H1.7c-0.64,0-1.21-0.38-1.46-0.97c-0.239-0.59-0.109-1.27,0.351-1.72
						l13.479-13.44c0.3-0.29,0.69-0.46,1.11-0.46h42.53c0.42,0,0.819,0.17,1.109,0.46l13.34,13.3c0.381,0.29,0.62,0.74,0.62,1.26
						C72.78,270.43,72.08,271.14,71.211,271.14z M5.501,267.99h61.89l-10.33-10.3H15.83L5.501,267.99z"/>
				</g>
			</g>
			<g id="group214-48" transform="translate(5.40957,-67.2287)">
				<title>Tabelle.14</title>
				<g id="shape215-49">
					<title>Tabelle.215</title>
					<path fill="#FFFFFF" d="M0,261.96v9.18h61.69v-9.18H0z"/>
				</g>
			</g>
			<g id="group216-51" transform="translate(4.90622,-66.7254)">
				<title>Tabelle.15</title>
				<g id="shape217-52">
					<title>Tabelle.217</title>
					<path fill="#FFFFFF" d="M62.19,271.14H0.501c-0.271,0-0.5-0.23-0.5-0.5v-9.18c0-0.28,0.229-0.5,0.5-0.5H62.19
						c0.28,0,0.51,0.22,0.51,0.5v9.18C62.7,270.92,62.47,271.14,62.19,271.14z M1.011,270.13h60.68v-8.17H1.011V270.13z"/>
				</g>
			</g>
			<g id="group218-54" transform="translate(60.4258,-69.6163)">
				<title>Tabelle.16</title>
				<g id="shape219-55">
					<title>Tabelle.219</title>
					<path d="M0.001,269.25c0-1.03,0.85-1.87,1.89-1.87c1.06,0,1.89,0.84,1.89,1.87c0,1.06-0.83,1.89-1.89,1.89
						C0.85,271.14,0.001,270.31,0.001,269.25z"/>
				</g>
			</g>
			<g id="group220-57" transform="translate(5.03189,-20.7357)">
				<title>Tabelle.17</title>
				<g id="shape221-58">
					<title>Tabelle.221</title>
					<path fill="#FFFFFF" d="M0,261.96v9.18h61.69v-9.18H0z"/>
				</g>
			</g>
			<g id="group222-60" transform="translate(4.52854,-20.2334)">
				<title>Tabelle.18</title>
				<g id="shape223-61">
					<title>Tabelle.223</title>
					<path fill="#FFFFFF" d="M62.19,271.14H0.501c-0.271,0-0.5-0.23-0.5-0.5v-9.18c0-0.28,0.229-0.5,0.5-0.5H62.19
						c0.28,0,0.511,0.23,0.511,0.5v9.18C62.701,270.92,62.47,271.14,62.19,271.14z M1.01,270.13h60.68v-8.17H1.01V270.13z"/>
				</g>
			</g>
			<g id="group224-63" transform="translate(59.9212,-22.9976)">
				<title>Tabelle.19</title>
				<g id="shape225-64">
					<title>Tabelle.225</title>
					<path d="M0,269.25c0-1.02,0.85-1.87,1.89-1.87c1.061,0,1.891,0.85,1.891,1.87c0,1.06-0.83,1.89-1.891,1.89
						C0.85,271.14,0,270.31,0,269.25z"/>
				</g>
			</g>
			<g id="group226-66" transform="translate(5.03189,-5.02865)">
				<title>Tabelle.20</title>
				<g id="shape227-67">
					<title>Tabelle.227</title>
					<path fill="#FFFFFF" d="M0,261.96v9.18h61.69v-9.18H0z"/>
				</g>
			</g>
			<g id="group228-69" transform="translate(4.52854,-4.52635)">
				<title>Tabelle.21</title>
				<g id="shape229-70">
					<title>Tabelle.229</title>
					<path fill="#FFFFFF" d="M62.19,271.14H0.501c-0.271,0-0.5-0.23-0.5-0.5v-9.18c0-0.28,0.229-0.5,0.5-0.5H62.19
						c0.28,0,0.511,0.23,0.511,0.5v9.18C62.701,270.92,62.47,271.14,62.19,271.14z M1.01,270.13h60.68v-8.17H1.01V270.13z"/>
				</g>
			</g>
			<g id="group230-72" transform="translate(59.9212,-7.41612)">
				<title>Tabelle.22</title>
				<g id="shape231-73">
					<title>Tabelle.231</title>
					<path d="M0,269.25c0-1.03,0.85-1.87,1.89-1.87c1.061,0,1.891,0.84,1.891,1.87c0,1.06-0.83,1.89-1.891,1.89
						C0.85,271.14,0,270.31,0,269.25z"/>
				</g>
			</g>
			<g id="group232-75" transform="translate(5.03189,-36.4428)">
				<title>Tabelle.23</title>
				<g id="shape233-76">
					<title>Tabelle.233</title>
					<path fill="#FFFFFF" d="M0,247.01v24.13h61.69v-24.13H0z"/>
				</g>
			</g>
			<g id="group234-78" transform="translate(4.52854,-35.9405)">
				<title>Tabelle.24</title>
				<g id="shape235-79">
					<title>Tabelle.235</title>
					<path fill="#FFFFFF" d="M62.19,271.14H0.501c-0.271,0-0.5-0.23-0.5-0.5v-24.13c0-0.28,0.229-0.5,0.5-0.5H62.19
						c0.28,0,0.511,0.22,0.511,0.5v24.13C62.701,270.92,62.47,271.14,62.19,271.14z M1.01,270.13h60.68v-23.12H1.01V270.13z"/>
				</g>
			</g>
			<g id="group236-81" transform="translate(8.55695,-53.7835)">
				<title>Tabelle.25</title>
				<g id="shape237-82">
					<title>Tabelle.237</title>
					<path d="M0,269.25c0-1.03,0.85-1.87,1.89-1.87c1.061,0,1.891,0.84,1.891,1.87c0,1.06-0.83,1.89-1.891,1.89
						C0.85,271.14,0,270.31,0,269.25z"/>
				</g>
			</g>
			<g id="group238-84" transform="translate(8.55695,-45.3645)">
				<title>Tabelle.26</title>
				<g id="shape239-85">
					<title>Tabelle.239</title>
					<path d="M0,269.25c0-1.03,0.85-1.87,1.89-1.87c1.061,0,1.891,0.84,1.891,1.87c0,1.06-0.83,1.89-1.891,1.89
						C0.85,271.14,0,270.31,0,269.25z"/>
				</g>
			</g>
		</g>
	</g>
	<g id="group240-87" transform="translate(89.0898,8.48923) rotate(-15)">
		<title>Tabelle.240</title>
		<g id="group241-88">
			<title>Tabelle.241</title>
			<g id="shape242-89">
				<title>Tabelle.242</title>
				<path d="M0,211.66c0.001-1.13,0-2.26,0.001-3.38c0.139-0.89,0.24-1.79,0.41-2.669c2.25-11.461,11.85-18.891,22.24-19.31
					c0.73-0.031,0.98-0.321,1.189-0.971c2.45-7.71,7.51-12.959,15.111-15.67c1.95-0.689,4.05-0.91,6.09-1.35c1.12,0,2.249,0,3.37,0
					c0.18,0.05,0.36,0.131,0.54,0.141c5.1,0.47,9.571,2.41,13.401,5.8c0.549,0.49,0.89,0.38,1.419,0.019
					c4.99-3.399,10.51-4.829,16.5-4.049c6.05,0.79,11.13,3.55,15.09,8.2c3.34,3.939,5.261,8.5,5.58,13.68
					c0.05,0.75,0.48,0.82,0.98,0.95c8.33,2.24,13.991,7.41,16.85,15.53c0.661,1.88,0.891,3.921,1.32,5.89c0.001,1.19,0,2.38,0,3.57
					c-0.049,0.17-0.13,0.34-0.149,0.52c-0.44,4.76-2.241,8.97-5.27,12.64c-0.38,0.47-0.41,0.81-0.19,1.33
					c2.04,4.771,2.41,9.69,1.29,14.73c-2.99,13.4-17.29,21.59-30.34,17.36c-1.47-0.471-2.87-1.131-4.33-1.71
					c-0.12,0.12-0.25,0.261-0.38,0.4c-3.2,3.44-7.051,5.821-11.6,7.02c-1.371,0.361-2.791,0.54-4.19,0.81c-1.19,0-2.38-0.001-3.57,0
					c-0.18-0.05-0.35-0.13-0.53-0.15c-5.75-0.57-10.66-2.92-14.66-7.081c-1.17-1.229-2.18-2.619-3.28-3.949
					c-4.6,1.779-9.33,2.14-14.189,1.06c-13.25-2.97-21.42-16.851-17.551-29.87c0.18-0.62,0.101-0.92-0.439-1.28
					c-4.6-3.06-7.8-7.239-9.49-12.49C0.62,215.53,0.4,213.571,0,211.66z M24.411,192.18c-0.001-0.04,0-0.08-0.01-0.12
					c-1.18,0.099-2.37,0.12-3.54,0.31c-7.791,1.32-13.69,7.309-14.78,15.36c-1.051,7.74,3.02,14.84,9.64,18.27
					c2.4,1.24,2.86,2.47,1.78,4.919c-1.4,3.22-1.74,6.581-1.12,10c2.16,11.93,15.14,18.33,25.929,12.81
					c2.281-1.169,3.741-0.709,4.9,1.561c6.17,12.1,22.421,13.4,30.44,2.449c1.56-2.13,2.88-2.38,5.07-0.909
					c3.75,2.5,7.87,3.45,12.31,2.83c12.349-1.75,19.21-15.311,13.33-26.301c-1.11-2.08-0.96-3.04,0.71-4.74
					c2.831-2.889,4.53-6.339,4.99-10.35c1.14-10.019-6.1-18.939-16.13-19.929c-1.69-0.171-2.77-1.37-2.811-3.06
					c-0.02-1.28-0.02-2.56-0.17-3.83c-1.24-10.691-12.28-17.88-22.65-14.8c-2.799,0.83-5.239,2.28-7.41,4.23
					c-1.49,1.34-3.1,1.22-4.469-0.231c-0.17-0.179-0.331-0.37-0.501-0.55c-8.92-9.759-24.949-6.88-29.88,5.391
					c-0.469,1.17-0.75,2.44-0.949,3.69c-0.32,2.071-1.471,3.1-3.551,3.001C25.16,192.16,24.791,192.18,24.411,192.18z"/>
			</g>
			<g id="shape243-91" transform="translate(0,-0.000375296)">
				<title>Tabelle.243</title>
				<path fill="#FFFFFF" d="M0,211.66c0.4,1.91,0.62,3.87,1.22,5.72c1.69,5.25,4.89,9.431,9.49,12.49
					c0.539,0.36,0.62,0.66,0.44,1.279c-3.87,13.02,4.3,26.901,17.551,29.871c4.86,1.08,9.59,0.719,14.19-1.061
					c1.1,1.33,2.11,2.721,3.28,3.95c4,4.16,8.911,6.51,14.66,7.081c0.18,0.02,0.35,0.1,0.53,0.15c-20.44,0-40.87,0-61.36,0
					C0,251.31,0,231.48,0,211.66z"/>
			</g>
			<g id="shape244-93" transform="translate(48.4132,-56.6697)">
				<title>Tabelle.244</title>
				<path fill="#FFFFFF" d="M71.68,271.141c-0.43-1.97-0.659-4.01-1.329-5.89c-2.86-8.12-8.521-13.29-16.84-15.53
					c-0.51-0.13-0.939-0.199-0.98-0.95c-0.33-5.18-2.239-9.75-5.59-13.68c-3.96-4.65-9.03-7.41-15.08-8.2
					c-5.99-0.78-11.51,0.65-16.509,4.05c-0.53,0.36-0.87,0.471-1.42-0.02c-3.82-3.39-8.3-5.33-13.4-5.8
					c-0.18-0.01-0.35-0.09-0.531-0.14c23.89,0,47.791,0,71.681,0C71.68,240.369,71.681,255.75,71.68,271.141z"/>
			</g>
			<g id="shape245-95" transform="translate(0,-62.8622)">
				<title>Tabelle.245</title>
				<path fill="#FFFFFF" d="M45.04,231.17c-2.04,0.44-4.14,0.67-6.09,1.36c-7.6,2.7-12.66,7.95-15.11,15.67
					c-0.211,0.64-0.461,0.93-1.19,0.96c-10.39,0.42-19.99,7.85-22.24,19.31c-0.17,0.88-0.27,1.781-0.41,2.67
					c0-13.31,0-26.621,0-39.97C15.01,231.17,30.02,231.17,45.04,231.17z"/>
			</g>
			<g id="shape246-97" transform="translate(64.9262,-0.000187648)">
				<title>Tabelle.246</title>
				<path fill="#FFFFFF" d="M0,271.139c1.401-0.27,2.82-0.45,4.19-0.809c4.551-1.2,8.41-3.58,11.61-7.02
					c0.12-0.14,0.25-0.28,0.37-0.399c1.46,0.58,2.87,1.239,4.33,1.709c13.05,4.231,27.35-3.959,30.34-17.36
					c1.13-5.039,0.75-9.96-1.28-14.73c-0.231-0.52-0.2-0.86,0.179-1.33c3.031-3.67,4.83-7.88,5.27-12.64
					c0.02-0.181,0.11-0.351,0.16-0.52c0,17.68,0,35.37,0,53.1C36.78,271.14,18.39,271.14,0,271.139z"/>
			</g>
			<g id="shape247-99" transform="translate(5.02953,-2.44562)">
				<title>Tabelle.247</title>
				<path fill="#FFFFFF" d="M19.38,194.621c0.38,0,0.75-0.021,1.129-0.001c2.08,0.111,3.23-0.92,3.55-2.99
					c0.201-1.25,0.48-2.52,0.95-3.69c4.93-12.27,20.96-15.15,29.88-5.4c0.171,0.189,0.331,0.38,0.5,0.56
					c1.371,1.45,2.98,1.57,4.471,0.23c2.17-1.95,4.609-3.4,7.419-4.24c10.36-3.08,21.4,4.12,22.65,14.8
					c0.14,1.269,0.14,2.559,0.17,3.839c0.029,1.69,1.11,2.88,2.8,3.051c10.03,0.999,17.27,9.909,16.13,19.939
					c-0.461,4.011-2.161,7.46-4.991,10.34c-1.669,1.71-1.819,2.67-0.71,4.751c5.88,10.98-0.98,24.55-13.33,26.29
					c-4.44,0.63-8.56-0.32-12.31-2.829c-2.19-1.46-3.51-1.22-5.07,0.909c-8.02,10.961-24.27,9.65-30.44-2.44
					c-1.16-2.269-2.62-2.739-4.9-1.57c-10.789,5.52-23.769-0.87-25.929-12.81c-0.62-3.421-0.28-6.77,1.12-9.99
					c1.08-2.46,0.63-3.69-1.78-4.93C4.07,225.02,0,217.92,1.051,210.17c1.09-8.04,6.99-14.04,14.789-15.35
					c1.161-0.201,2.35-0.221,3.54-0.32C19.381,194.54,19.38,194.58,19.38,194.621z"/>
			</g>
		</g>
	</g>
	<g id="group253-101" transform="translate(71.9321,-3.62129)">
		<title>Layer_2.253</title>
		<g id="group254-102" transform="translate(0,-17.407)">
			<title>Tabelle.254</title>
			<g id="shape255-103" transform="translate(1.25333,-1.25315)">
				<title>Tabelle.255</title>
				<ellipse fill="#FFFFFF" cx="25.313" cy="245.828" rx="25.313" ry="25.313"/>
			</g>
			<g id="shape256-105">
				<title>Tabelle.256</title>
				<path fill="#808285" d="M26.57,271.14c-14.649,0-26.569-11.92-26.569-26.57c0-14.64,11.92-26.56,26.569-26.56
					c14.641,0,26.561,11.92,26.561,26.56C53.131,259.22,41.211,271.14,26.57,271.14z M26.57,220.52
					c-13.27,0-24.06,10.79-24.06,24.05c0,13.271,10.79,24.06,24.06,24.06c13.26,0,24.05-10.789,24.05-24.06
					C50.62,231.31,39.83,220.52,26.57,220.52z"/>
			</g>
		</g>
		<g id="shape257-107" transform="translate(237.187,435.262) rotate(135)">
			<title>Tabelle.257</title>
			<rect x="0" y="237.85" fill="#808285" width="5.745" height="33.291"/>
		</g>
	</g>
	<g id="group328-109" transform="translate(93.7985,-183.437)">
		<title>Tabelle.328</title>
		<g id="group329-110" transform="translate(1.06926,-0.934044)">
			<title>Tabelle.329</title>
			<g id="shape330-111" transform="translate(0.0129945,0)">
				<title>Tabelle.330</title>
				<path fill="#010101" d="M0.04,261.48c2.63,1.68,5.53,2.31,8.49,2.75c3.09,0.46,6.199,0.56,9.319,0.37
					c3.28-0.21,6.511-0.67,9.61-1.84c0.86-0.33,1.67-0.73,2.44-1.27c0.1,0.14,0.05,0.28,0.05,0.4c0.01,1.56-0.021,3.12,0.02,4.68
					c0.021,0.62-0.229,1.03-0.68,1.39c-0.811,0.64-1.73,1.05-2.68,1.4c-2.271,0.83-4.631,1.24-7.021,1.48
					c-2.42,0.25-4.84,0.3-7.26,0.15c-3.18-0.19-6.32-0.62-9.32-1.77c-0.81-0.32-1.59-0.7-2.27-1.24c-0.48-0.37-0.74-0.79-0.721-1.45
					c0.051-1.54,0.021-3.09,0.021-4.63C0.04,261.77,0.04,261.65,0.04,261.48z"/>
			</g>
			<g id="shape331-113" transform="translate(0,-26.4993)">
				<title>Tabelle.331</title>
				<path fill="#010101" d="M14.73,271.14c-3.37-0.03-6.97-0.35-10.47-1.42c-1.061-0.32-2.1-0.73-3.04-1.33
					c-0.37-0.24-0.71-0.5-0.98-0.85c-0.239-0.31-0.239-0.6,0.011-0.91c0.279-0.36,0.63-0.62,1.01-0.86
					c1.33-0.84,2.81-1.311,4.33-1.68c3.72-0.92,7.5-1.15,11.31-1.01c2.73,0.11,5.44,0.43,8.09,1.15c1.2,0.33,2.36,0.729,3.45,1.34
					c0.46,0.26,0.91,0.56,1.26,0.97c0.36,0.42,0.36,0.68-0.01,1.11c-0.35,0.41-0.79,0.7-1.26,0.96c-1.55,0.86-3.24,1.34-4.96,1.7
					C20.68,270.91,17.85,271.13,14.73,271.14z"/>
			</g>
			<g id="shape332-115" transform="translate(0.017524,-18.911)">
				<title>Tabelle.332</title>
				<path fill="#010101" d="M0.03,261.85c3.261,1.99,6.851,2.6,10.5,2.97c4.12,0.4,8.23,0.27,12.311-0.46
					c1.95-0.35,3.859-0.85,5.66-1.7c0.489-0.23,0.939-0.52,1.449-0.84c0,0.35,0,0.64,0,0.93c0,1.32-0.01,2.65,0.011,3.97
					c0.01,0.42-0.15,0.74-0.45,1.01c-0.72,0.68-1.601,1.1-2.521,1.46c-1.97,0.78-4.04,1.2-6.14,1.48c-2.83,0.38-5.67,0.47-8.51,0.3
					c-3.2-0.19-6.351-0.62-9.36-1.78c-0.81-0.32-1.58-0.7-2.27-1.24c-0.46-0.37-0.71-0.79-0.69-1.42
					C0.06,264.98,0.03,263.43,0.03,261.85z"/>
			</g>
			<g id="shape333-117" transform="translate(0.00319293,-13.3633)">
				<title>Tabelle.333</title>
				<path fill="#010101" d="M0.05,263.76c0.99,0.68,2.021,1.15,3.09,1.52c2.101,0.73,4.271,1.14,6.471,1.4
					c2.71,0.31,5.43,0.39,8.149,0.22c3.32-0.2,6.59-0.66,9.72-1.85c0.86-0.32,1.671-0.73,2.49-1.29c0,0.57,0,1.09,0,1.6
					c0,0.41-0.04,0.82,0.01,1.22c0.07,0.61-0.229,1.01-0.67,1.36c-0.81,0.65-1.739,1.07-2.71,1.42c-2.25,0.83-4.6,1.24-6.979,1.48
					c-2.42,0.25-4.86,0.3-7.3,0.15c-3.181-0.2-6.32-0.62-9.311-1.78c-0.83-0.32-1.609-0.71-2.3-1.26c-0.45-0.36-0.71-0.77-0.68-1.39
					C0.08,265.65,0.05,264.74,0.05,263.76z"/>
			</g>
			<g id="shape334-119" transform="translate(0.0223505,-7.8584)">
				<title>Tabelle.334</title>
				<path fill="#010101" d="M29.94,263.83c0,1.12,0.021,2.18-0.01,3.23c-0.021,0.39-0.36,0.64-0.65,0.88
					c-0.79,0.65-1.72,1.06-2.67,1.41c-2.06,0.75-4.189,1.15-6.359,1.41c-2.631,0.3-5.271,0.38-7.921,0.22
					c-3.199-0.19-6.35-0.62-9.359-1.79c-0.891-0.35-1.78-0.72-2.49-1.42c-0.31-0.32-0.479-0.66-0.46-1.12
					c0.03-0.92,0.01-1.83,0.01-2.74c0.03-0.01,0.061-0.03,0.07-0.02c1.93,1.26,4.1,1.89,6.32,2.34c3.989,0.81,8.02,0.98,12.069,0.68
					c2.92-0.21,5.801-0.66,8.57-1.64C28.06,264.91,29.01,264.47,29.94,263.83z"/>
			</g>
		</g>
		<g id="shape335-121" transform="translate(0.00497503,-4.90546)">
			<title>Tabelle.335</title>
			<rect x="0" y="244.562" fill="#FFFFFF" width="31.902" height="26.578"/>
		</g>
		<g id="shape336-123">
			<title>Tabelle.336</title>
			<ellipse fill="#FFFFFF" cx="15.949" cy="266.288" rx="15.948" ry="4.852"/>
		</g>
		<g id="shape337-125" transform="translate(0.00928177,-26.6213)">
			<title>Tabelle.337</title>
			<ellipse fill="#FFFFFF" cx="15.948" cy="266.288" rx="15.949" ry="4.852"/>
		</g>
		<g id="group338-127" transform="translate(0.995006,-0.785535)">
			<title>Tabelle.338</title>
			<g id="shape339-128" transform="translate(0.0129945,0)">
				<title>Tabelle.339</title>
				<path fill="#010101" d="M0.04,261.48c2.63,1.68,5.53,2.31,8.49,2.75c3.09,0.46,6.199,0.56,9.319,0.37
					c3.28-0.21,6.511-0.67,9.61-1.84c0.86-0.33,1.67-0.73,2.44-1.27c0.1,0.14,0.05,0.28,0.05,0.4c0.01,1.56-0.021,3.12,0.02,4.68
					c0.021,0.62-0.229,1.03-0.68,1.39c-0.811,0.64-1.73,1.05-2.68,1.4c-2.271,0.83-4.631,1.24-7.021,1.48
					c-2.42,0.25-4.84,0.3-7.26,0.15c-3.18-0.19-6.32-0.62-9.32-1.77c-0.81-0.32-1.59-0.7-2.27-1.24c-0.48-0.37-0.74-0.79-0.721-1.45
					c0.051-1.54,0.021-3.09,0.021-4.63C0.04,261.77,0.04,261.65,0.04,261.48z"/>
			</g>
			<g id="shape340-130" transform="translate(0,-26.4993)">
				<title>Tabelle.340</title>
				<path fill="#010101" d="M14.73,271.14c-3.37-0.03-6.97-0.35-10.47-1.42c-1.061-0.32-2.101-0.73-3.04-1.33
					c-0.37-0.24-0.71-0.5-0.98-0.85c-0.239-0.31-0.239-0.6,0.011-0.91c0.279-0.36,0.63-0.62,1.01-0.86
					c1.33-0.84,2.81-1.31,4.33-1.68c3.72-0.92,7.5-1.15,11.31-1.01c2.73,0.11,5.44,0.43,8.09,1.15c1.2,0.33,2.36,0.73,3.45,1.34
					c0.46,0.26,0.91,0.56,1.26,0.97c0.36,0.42,0.36,0.68-0.01,1.11c-0.35,0.41-0.79,0.7-1.26,0.96c-1.55,0.86-3.24,1.34-4.96,1.7
					C20.68,270.91,17.85,271.13,14.73,271.14z"/>
			</g>
			<g id="shape341-132" transform="translate(0.017524,-18.911)">
				<title>Tabelle.341</title>
				<path fill="#010101" d="M0.03,261.85c3.261,1.99,6.851,2.6,10.5,2.97c4.12,0.4,8.23,0.27,12.311-0.46
					c1.95-0.35,3.859-0.85,5.66-1.7c0.489-0.23,0.939-0.52,1.449-0.84c0,0.35,0,0.64,0,0.93c0,1.32-0.01,2.65,0.011,3.97
					c0.01,0.42-0.15,0.74-0.45,1.01c-0.72,0.68-1.601,1.1-2.521,1.46c-1.97,0.78-4.04,1.2-6.14,1.48c-2.83,0.38-5.67,0.47-8.51,0.3
					c-3.2-0.19-6.351-0.62-9.36-1.78c-0.81-0.32-1.58-0.7-2.27-1.24c-0.46-0.37-0.71-0.79-0.69-1.42
					C0.06,264.98,0.03,263.43,0.03,261.85z"/>
			</g>
			<g id="shape342-134" transform="translate(0.00319293,-13.3633)">
				<title>Tabelle.342</title>
				<path fill="#010101" d="M0.05,263.76c0.99,0.68,2.021,1.15,3.09,1.52c2.101,0.73,4.271,1.14,6.471,1.4
					c2.71,0.31,5.43,0.39,8.149,0.22c3.32-0.2,6.59-0.66,9.72-1.85c0.86-0.32,1.67-0.73,2.49-1.29c0,0.57,0,1.09,0,1.6
					c0,0.41-0.04,0.82,0.01,1.22c0.07,0.61-0.229,1.01-0.67,1.36c-0.81,0.65-1.739,1.07-2.71,1.42c-2.25,0.83-4.6,1.24-6.979,1.48
					c-2.42,0.25-4.86,0.3-7.3,0.15c-3.181-0.2-6.32-0.62-9.311-1.78c-0.83-0.32-1.61-0.71-2.3-1.26c-0.45-0.36-0.71-0.77-0.68-1.39
					C0.08,265.65,0.05,264.74,0.05,263.76z"/>
			</g>
			<g id="shape343-136" transform="translate(0.0223505,-7.85832)">
				<title>Tabelle.343</title>
				<path fill="#010101" d="M29.94,263.83c0,1.12,0.021,2.18-0.01,3.23c-0.021,0.39-0.36,0.64-0.65,0.88
					c-0.79,0.65-1.72,1.06-2.67,1.41c-2.06,0.75-4.189,1.15-6.359,1.41c-2.631,0.3-5.271,0.38-7.921,0.22
					c-3.199-0.19-6.35-0.62-9.359-1.79c-0.891-0.35-1.78-0.72-2.49-1.42c-0.31-0.32-0.479-0.66-0.46-1.12
					c0.03-0.92,0.01-1.83,0.01-2.74c0.03-0.01,0.061-0.03,0.07-0.02c1.93,1.26,4.1,1.89,6.32,2.34c3.989,0.81,8.02,0.98,12.069,0.68
					c2.92-0.21,5.8-0.66,8.57-1.64C28.06,264.91,29.011,264.47,29.94,263.83z"/>
			</g>
		</g>
	</g>
	<g id="group344-138" transform="translate(76.4274,-172.099)">
		<title>Tabelle.344</title>
		<g id="group345-139" transform="translate(1.06926,-0.934044)">
			<title>Tabelle.345</title>
			<g id="shape346-140" transform="translate(0.0129945,0)">
				<title>Tabelle.346</title>
				<path fill="#010101" d="M0.04,261.48c2.63,1.68,5.53,2.31,8.49,2.75c3.09,0.46,6.199,0.56,9.319,0.37
					c3.28-0.21,6.511-0.67,9.61-1.84c0.86-0.33,1.67-0.73,2.44-1.27c0.1,0.14,0.05,0.28,0.05,0.4c0.01,1.56-0.021,3.12,0.02,4.68
					c0.021,0.62-0.229,1.03-0.68,1.39c-0.811,0.64-1.73,1.05-2.68,1.4c-2.271,0.83-4.631,1.24-7.021,1.48
					c-2.42,0.25-4.84,0.3-7.26,0.15c-3.18-0.19-6.32-0.62-9.32-1.77c-0.81-0.32-1.59-0.7-2.27-1.24c-0.48-0.37-0.74-0.79-0.721-1.45
					c0.051-1.54,0.021-3.09,0.021-4.63C0.04,261.77,0.04,261.65,0.04,261.48z"/>
			</g>
			<g id="shape347-142" transform="translate(0,-26.4993)">
				<title>Tabelle.347</title>
				<path fill="#010101" d="M14.73,271.14c-3.37-0.03-6.97-0.35-10.47-1.42c-1.061-0.32-2.101-0.73-3.04-1.33
					c-0.37-0.24-0.71-0.5-0.98-0.85c-0.239-0.31-0.239-0.6,0.011-0.91c0.279-0.36,0.63-0.62,1.01-0.86
					c1.33-0.84,2.81-1.31,4.33-1.68c3.72-0.92,7.5-1.15,11.31-1.01c2.73,0.11,5.44,0.43,8.09,1.15c1.2,0.33,2.36,0.73,3.45,1.34
					c0.46,0.26,0.91,0.56,1.26,0.97c0.36,0.42,0.36,0.68-0.01,1.11c-0.35,0.41-0.79,0.7-1.26,0.96c-1.55,0.86-3.24,1.34-4.96,1.7
					C20.68,270.91,17.85,271.13,14.73,271.14z"/>
			</g>
			<g id="shape348-144" transform="translate(0.017524,-18.911)">
				<title>Tabelle.348</title>
				<path fill="#010101" d="M0.03,261.85c3.261,1.99,6.851,2.6,10.5,2.97c4.12,0.4,8.23,0.27,12.311-0.46
					c1.95-0.35,3.859-0.85,5.66-1.7c0.489-0.23,0.939-0.52,1.449-0.84c0,0.35,0,0.64,0,0.93c0,1.32-0.01,2.65,0.011,3.97
					c0.01,0.42-0.15,0.74-0.45,1.01c-0.72,0.68-1.601,1.1-2.521,1.46c-1.97,0.78-4.04,1.2-6.14,1.48c-2.83,0.38-5.67,0.47-8.51,0.3
					c-3.2-0.19-6.351-0.62-9.36-1.78c-0.81-0.32-1.58-0.7-2.27-1.24c-0.46-0.37-0.71-0.79-0.69-1.42
					C0.06,264.98,0.03,263.43,0.03,261.85z"/>
			</g>
			<g id="shape349-146" transform="translate(0.00319293,-13.3633)">
				<title>Tabelle.349</title>
				<path fill="#010101" d="M0.05,263.76c0.99,0.68,2.021,1.15,3.09,1.52c2.101,0.73,4.271,1.14,6.471,1.4
					c2.71,0.31,5.43,0.39,8.149,0.22c3.32-0.2,6.59-0.66,9.72-1.85c0.86-0.32,1.671-0.73,2.49-1.29c0,0.57,0,1.09,0,1.6
					c0,0.41-0.04,0.82,0.01,1.22c0.07,0.61-0.229,1.01-0.67,1.36c-0.81,0.65-1.739,1.07-2.71,1.42c-2.25,0.83-4.6,1.24-6.979,1.48
					c-2.42,0.25-4.86,0.3-7.3,0.15c-3.181-0.2-6.32-0.62-9.311-1.78c-0.83-0.32-1.609-0.71-2.3-1.26c-0.45-0.36-0.71-0.77-0.68-1.39
					C0.08,265.65,0.05,264.74,0.05,263.76z"/>
			</g>
			<g id="shape350-148" transform="translate(0.0223505,-7.8584)">
				<title>Tabelle.350</title>
				<path fill="#010101" d="M29.94,263.83c0,1.12,0.021,2.18-0.01,3.23c-0.021,0.39-0.36,0.64-0.65,0.88
					c-0.79,0.65-1.72,1.06-2.67,1.41c-2.06,0.75-4.189,1.15-6.359,1.41c-2.631,0.3-5.271,0.38-7.921,0.22
					c-3.199-0.19-6.35-0.62-9.359-1.79c-0.891-0.35-1.78-0.72-2.49-1.42c-0.31-0.32-0.479-0.66-0.46-1.12
					c0.03-0.92,0.01-1.83,0.01-2.74c0.03-0.01,0.061-0.03,0.07-0.02c1.93,1.26,4.1,1.89,6.32,2.34c3.989,0.81,8.02,0.98,12.069,0.68
					c2.92-0.21,5.801-0.66,8.57-1.64C28.06,264.91,29.01,264.47,29.94,263.83z"/>
			</g>
		</g>
		<g id="shape351-150" transform="translate(0.00497503,-4.90546)">
			<title>Tabelle.351</title>
			<rect x="0" y="244.562" fill="#FFFFFF" width="31.902" height="26.578"/>
		</g>
		<g id="shape352-152">
			<title>Tabelle.352</title>
			<ellipse fill="#FFFFFF" cx="15.949" cy="266.288" rx="15.948" ry="4.852"/>
		</g>
		<g id="shape353-154" transform="translate(0.00928177,-26.6213)">
			<title>Tabelle.353</title>
			<ellipse fill="#FFFFFF" cx="15.948" cy="266.288" rx="15.949" ry="4.852"/>
		</g>
		<g id="group354-156" transform="translate(0.995006,-0.785535)">
			<title>Tabelle.354</title>
			<g id="shape355-157" transform="translate(0.0129945,0)">
				<title>Tabelle.355</title>
				<path fill="#010101" d="M0.04,261.48c2.63,1.68,5.53,2.311,8.49,2.75c3.09,0.46,6.199,0.561,9.319,0.37
					c3.28-0.21,6.511-0.67,9.61-1.84c0.86-0.33,1.67-0.73,2.44-1.27c0.1,0.14,0.05,0.28,0.05,0.4c0.01,1.56-0.021,3.12,0.02,4.68
					c0.021,0.62-0.229,1.03-0.68,1.39c-0.811,0.64-1.73,1.05-2.68,1.4c-2.271,0.83-4.631,1.24-7.021,1.48
					c-2.42,0.25-4.84,0.3-7.26,0.15c-3.18-0.19-6.32-0.62-9.32-1.77c-0.81-0.32-1.59-0.7-2.27-1.24c-0.48-0.37-0.74-0.79-0.721-1.45
					c0.051-1.54,0.021-3.09,0.021-4.63C0.04,261.77,0.04,261.65,0.04,261.48z"/>
			</g>
			<g id="shape356-159" transform="translate(0,-26.4993)">
				<title>Tabelle.356</title>
				<path fill="#010101" d="M14.73,271.14c-3.37-0.03-6.97-0.35-10.47-1.42c-1.061-0.32-2.101-0.73-3.04-1.33
					c-0.37-0.24-0.71-0.5-0.98-0.85c-0.239-0.31-0.239-0.6,0.011-0.91c0.279-0.36,0.63-0.62,1.01-0.86
					c1.33-0.84,2.81-1.31,4.33-1.68c3.72-0.92,7.5-1.15,11.31-1.01c2.73,0.11,5.44,0.43,8.09,1.15c1.2,0.33,2.36,0.73,3.45,1.34
					c0.46,0.26,0.91,0.56,1.26,0.97c0.36,0.42,0.36,0.68-0.01,1.11c-0.35,0.41-0.79,0.7-1.26,0.96c-1.55,0.86-3.24,1.34-4.96,1.7
					C20.68,270.91,17.85,271.13,14.73,271.14z"/>
			</g>
			<g id="shape357-161" transform="translate(0.017524,-18.911)">
				<title>Tabelle.357</title>
				<path fill="#010101" d="M0.03,261.85c3.261,1.99,6.851,2.6,10.5,2.97c4.12,0.4,8.23,0.27,12.311-0.46
					c1.95-0.35,3.859-0.85,5.66-1.7c0.489-0.23,0.939-0.521,1.449-0.84c0,0.35,0,0.64,0,0.93c0,1.32-0.01,2.65,0.011,3.97
					c0.01,0.42-0.15,0.74-0.45,1.01c-0.72,0.68-1.601,1.1-2.521,1.46c-1.97,0.78-4.04,1.2-6.14,1.48c-2.83,0.38-5.67,0.47-8.51,0.3
					c-3.2-0.19-6.351-0.62-9.36-1.78c-0.81-0.32-1.58-0.7-2.27-1.24c-0.46-0.37-0.71-0.79-0.69-1.42
					C0.06,264.98,0.03,263.43,0.03,261.85z"/>
			</g>
			<g id="shape358-163" transform="translate(0.00319293,-13.3633)">
				<title>Tabelle.358</title>
				<path fill="#010101" d="M0.05,263.76c0.99,0.68,2.021,1.15,3.09,1.52c2.101,0.73,4.271,1.14,6.471,1.4
					c2.71,0.31,5.43,0.39,8.149,0.22c3.32-0.2,6.59-0.66,9.72-1.85c0.86-0.32,1.67-0.73,2.49-1.29c0,0.57,0,1.09,0,1.6
					c0,0.41-0.04,0.82,0.01,1.22c0.07,0.61-0.229,1.01-0.67,1.36c-0.81,0.65-1.739,1.07-2.71,1.42c-2.25,0.83-4.6,1.24-6.979,1.48
					c-2.42,0.25-4.86,0.3-7.3,0.15c-3.181-0.2-6.32-0.62-9.311-1.78c-0.83-0.32-1.61-0.71-2.3-1.26c-0.45-0.36-0.71-0.77-0.68-1.39
					C0.08,265.65,0.05,264.74,0.05,263.76z"/>
			</g>
			<g id="shape359-165" transform="translate(0.0223505,-7.85832)">
				<title>Tabelle.359</title>
				<path fill="#010101" d="M29.94,263.83c0,1.12,0.021,2.18-0.01,3.229c-0.021,0.39-0.36,0.64-0.65,0.88
					c-0.79,0.65-1.72,1.06-2.67,1.41c-2.06,0.75-4.189,1.15-6.359,1.41c-2.631,0.3-5.271,0.38-7.921,0.22
					c-3.199-0.19-6.35-0.62-9.359-1.79c-0.891-0.35-1.78-0.72-2.49-1.42c-0.31-0.32-0.479-0.66-0.46-1.12
					c0.03-0.92,0.01-1.83,0.01-2.74c0.03-0.01,0.061-0.03,0.07-0.02c1.93,1.26,4.1,1.89,6.32,2.34c3.989,0.81,8.02,0.98,12.069,0.68
					c2.92-0.21,5.8-0.66,8.57-1.64C28.06,264.91,29.011,264.47,29.94,263.83z"/>
			</g>
		</g>
	</g>
	<g id="group360-167" transform="translate(110.806,-172.099)">
		<title>Tabelle.360</title>
		<g id="group361-168" transform="translate(1.06926,-0.934044)">
			<title>Tabelle.361</title>
			<g id="shape362-169" transform="translate(0.0129945,0)">
				<title>Tabelle.362</title>
				<path fill="#010101" d="M0.041,261.48c2.63,1.68,5.529,2.31,8.489,2.75c3.091,0.46,6.2,0.56,9.32,0.37
					c3.28-0.21,6.51-0.67,9.61-1.84c0.859-0.33,1.67-0.73,2.439-1.27c0.101,0.14,0.05,0.28,0.05,0.4
					c0.011,1.56-0.02,3.12,0.021,4.68c0.02,0.62-0.23,1.03-0.68,1.39c-0.811,0.64-1.73,1.05-2.681,1.4
					c-2.27,0.83-4.63,1.24-7.02,1.48c-2.42,0.25-4.84,0.3-7.26,0.15c-3.181-0.19-6.32-0.62-9.32-1.77
					c-0.811-0.32-1.59-0.7-2.271-1.24c-0.479-0.37-0.739-0.79-0.72-1.45c0.05-1.54,0.021-3.09,0.021-4.63
					C0.041,261.77,0.041,261.65,0.041,261.48z"/>
			</g>
			<g id="shape363-171" transform="translate(0,-26.4993)">
				<title>Tabelle.363</title>
				<path fill="#010101" d="M14.73,271.14c-3.37-0.03-6.97-0.35-10.47-1.42c-1.061-0.32-2.101-0.73-3.04-1.33
					c-0.37-0.24-0.71-0.5-0.98-0.85c-0.24-0.31-0.24-0.6,0.01-0.91c0.28-0.36,0.63-0.62,1.011-0.86c1.329-0.84,2.81-1.31,4.329-1.68
					c3.721-0.92,7.5-1.15,11.311-1.01c2.729,0.11,5.439,0.43,8.09,1.15c1.2,0.33,2.36,0.73,3.45,1.34c0.46,0.26,0.91,0.56,1.26,0.97
					c0.36,0.42,0.36,0.68-0.01,1.11c-0.351,0.41-0.79,0.7-1.26,0.96c-1.551,0.86-3.24,1.34-4.96,1.7
					C20.681,270.91,17.851,271.13,14.73,271.14z"/>
			</g>
			<g id="shape364-173" transform="translate(0.017524,-18.911)">
				<title>Tabelle.364</title>
				<path fill="#010101" d="M0.03,261.85c3.26,1.99,6.85,2.6,10.5,2.97c4.12,0.4,8.23,0.27,12.31-0.46c1.95-0.35,3.86-0.85,5.66-1.7
					c0.49-0.23,0.94-0.52,1.45-0.84c0,0.35,0,0.64,0,0.93c0,1.32-0.01,2.65,0.01,3.97c0.011,0.42-0.149,0.74-0.449,1.01
					c-0.721,0.68-1.601,1.1-2.521,1.46c-1.97,0.78-4.04,1.2-6.14,1.48c-2.83,0.38-5.67,0.47-8.511,0.3
					c-3.199-0.19-6.35-0.62-9.359-1.78c-0.811-0.32-1.58-0.7-2.271-1.24c-0.46-0.37-0.71-0.79-0.689-1.42
					C0.061,264.98,0.03,263.43,0.03,261.85z"/>
			</g>
			<g id="shape365-175" transform="translate(0.00319293,-13.3633)">
				<title>Tabelle.365</title>
				<path fill="#010101" d="M0.05,263.76c0.99,0.68,2.02,1.15,3.09,1.52c2.1,0.73,4.27,1.14,6.47,1.4
					c2.71,0.31,5.431,0.39,8.15,0.22c3.32-0.2,6.59-0.66,9.72-1.85c0.86-0.32,1.67-0.73,2.49-1.29c0,0.57,0,1.09,0,1.6
					c0,0.41-0.04,0.82,0.01,1.22c0.07,0.61-0.229,1.01-0.67,1.36c-0.81,0.65-1.74,1.07-2.71,1.42c-2.25,0.83-4.6,1.24-6.98,1.48
					c-2.42,0.25-4.859,0.3-7.3,0.15c-3.18-0.2-6.319-0.62-9.31-1.78c-0.83-0.32-1.61-0.71-2.3-1.26c-0.45-0.36-0.71-0.77-0.681-1.39
					C0.081,265.65,0.05,264.74,0.05,263.76z"/>
			</g>
			<g id="shape366-177" transform="translate(0.0223505,-7.8584)">
				<title>Tabelle.366</title>
				<path fill="#010101" d="M29.94,263.83c0,1.12,0.02,2.18-0.01,3.23c-0.021,0.39-0.36,0.64-0.65,0.88
					c-0.79,0.65-1.72,1.06-2.67,1.41c-2.061,0.75-4.19,1.15-6.36,1.41c-2.63,0.3-5.27,0.38-7.92,0.22
					c-3.2-0.19-6.35-0.62-9.359-1.79c-0.891-0.35-1.78-0.72-2.49-1.42c-0.311-0.32-0.48-0.66-0.46-1.12
					c0.029-0.92,0.01-1.83,0.01-2.74c0.03-0.01,0.06-0.03,0.07-0.02c1.93,1.26,4.1,1.89,6.319,2.34c3.99,0.81,8.021,0.98,12.07,0.68
					c2.92-0.21,5.8-0.66,8.57-1.64C28.061,264.91,29.01,264.47,29.94,263.83z"/>
			</g>
		</g>
		<g id="shape367-179" transform="translate(0.00497503,-4.90546)">
			<title>Tabelle.367</title>
			<rect x="0.001" y="244.562" fill="#FFFFFF" width="31.902" height="26.578"/>
		</g>
		<g id="shape368-181">
			<title>Tabelle.368</title>
			<ellipse fill="#FFFFFF" cx="15.949" cy="266.288" rx="15.948" ry="4.852"/>
		</g>
		<g id="shape369-183" transform="translate(0.00928177,-26.6213)">
			<title>Tabelle.369</title>
			<ellipse fill="#FFFFFF" cx="15.949" cy="266.288" rx="15.948" ry="4.852"/>
		</g>
		<g id="group370-185" transform="translate(0.995006,-0.785535)">
			<title>Tabelle.370</title>
			<g id="shape371-186" transform="translate(0.0129945,0)">
				<title>Tabelle.371</title>
				<path fill="#010101" d="M0.041,261.48c2.63,1.68,5.529,2.311,8.489,2.75c3.09,0.46,6.2,0.561,9.32,0.37
					c3.28-0.21,6.51-0.67,9.61-1.84c0.859-0.33,1.67-0.73,2.439-1.27c0.101,0.14,0.05,0.28,0.05,0.4
					c0.011,1.56-0.02,3.12,0.021,4.68c0.02,0.62-0.23,1.03-0.68,1.39c-0.811,0.64-1.73,1.05-2.681,1.4
					c-2.27,0.83-4.63,1.24-7.02,1.48c-2.42,0.25-4.84,0.3-7.26,0.15c-3.181-0.19-6.32-0.62-9.32-1.77
					c-0.811-0.32-1.59-0.7-2.271-1.24c-0.479-0.37-0.739-0.79-0.72-1.45c0.05-1.54,0.021-3.09,0.021-4.63
					C0.041,261.77,0.041,261.65,0.041,261.48z"/>
			</g>
			<g id="shape372-188" transform="translate(0,-26.4993)">
				<title>Tabelle.372</title>
				<path fill="#010101" d="M14.73,271.14c-3.37-0.03-6.97-0.35-10.47-1.42c-1.061-0.32-2.101-0.73-3.04-1.33
					c-0.37-0.24-0.71-0.5-0.98-0.85c-0.24-0.31-0.24-0.6,0.01-0.91c0.28-0.36,0.63-0.62,1.011-0.86c1.329-0.84,2.81-1.31,4.329-1.68
					c3.721-0.92,7.5-1.15,11.311-1.01c2.729,0.11,5.439,0.43,8.09,1.15c1.2,0.33,2.36,0.73,3.45,1.34c0.46,0.26,0.91,0.56,1.26,0.97
					c0.36,0.42,0.36,0.68-0.01,1.11c-0.351,0.41-0.79,0.7-1.26,0.96c-1.551,0.86-3.24,1.34-4.96,1.7
					C20.681,270.91,17.851,271.13,14.73,271.14z"/>
			</g>
			<g id="shape373-190" transform="translate(0.017524,-18.911)">
				<title>Tabelle.373</title>
				<path fill="#010101" d="M0.03,261.85c3.26,1.99,6.85,2.6,10.5,2.97c4.12,0.4,8.229,0.27,12.31-0.46
					c1.95-0.35,3.86-0.85,5.66-1.7c0.49-0.23,0.94-0.521,1.45-0.84c0,0.35,0,0.64,0,0.93c0,1.32-0.01,2.65,0.01,3.97
					c0.011,0.42-0.149,0.74-0.45,1.01c-0.72,0.68-1.6,1.1-2.52,1.46c-1.97,0.78-4.04,1.2-6.14,1.48c-2.83,0.38-5.67,0.47-8.511,0.3
					c-3.199-0.19-6.35-0.62-9.359-1.78c-0.811-0.32-1.58-0.7-2.271-1.24c-0.46-0.37-0.71-0.79-0.689-1.42
					C0.061,264.98,0.03,263.43,0.03,261.85z"/>
			</g>
			<g id="shape374-192" transform="translate(0.00319293,-13.3633)">
				<title>Tabelle.374</title>
				<path fill="#010101" d="M0.051,263.76c0.99,0.68,2.02,1.15,3.09,1.52c2.1,0.73,4.27,1.14,6.47,1.4
					c2.71,0.31,5.431,0.39,8.15,0.22c3.319-0.2,6.59-0.66,9.72-1.85c0.86-0.32,1.67-0.73,2.49-1.29c0,0.57,0,1.09,0,1.6
					c0,0.41-0.04,0.82,0.01,1.22c0.07,0.61-0.229,1.01-0.67,1.36c-0.81,0.65-1.74,1.07-2.71,1.42c-2.25,0.83-4.6,1.24-6.98,1.48
					c-2.42,0.25-4.859,0.3-7.3,0.15c-3.18-0.2-6.319-0.62-9.31-1.78c-0.83-0.32-1.61-0.71-2.3-1.26c-0.45-0.36-0.71-0.77-0.681-1.39
					C0.08,265.65,0.051,264.74,0.051,263.76z"/>
			</g>
			<g id="shape375-194" transform="translate(0.0223505,-7.85832)">
				<title>Tabelle.375</title>
				<path fill="#010101" d="M29.941,263.83c0,1.12,0.02,2.18-0.01,3.229c-0.021,0.39-0.36,0.64-0.65,0.88
					c-0.79,0.65-1.72,1.06-2.67,1.41c-2.061,0.75-4.19,1.15-6.36,1.41c-2.63,0.3-5.27,0.38-7.92,0.22c-3.2-0.19-6.35-0.62-9.36-1.79
					c-0.89-0.35-1.779-0.72-2.489-1.42c-0.311-0.32-0.48-0.66-0.46-1.12c0.029-0.92,0.01-1.83,0.01-2.74
					c0.03-0.01,0.06-0.03,0.07-0.02c1.93,1.26,4.1,1.89,6.319,2.34c3.99,0.81,8.021,0.98,12.07,0.68c2.92-0.21,5.8-0.66,8.57-1.64
					C28.061,264.91,29.01,264.47,29.941,263.83z"/>
			</g>
		</g>
	</g>
	<g id="group376-196" transform="translate(93.4353,-162.177)">
		<title>Tabelle.376</title>
		<g id="group377-197" transform="translate(1.06926,-0.934044)">
			<title>Tabelle.377</title>
			<g id="shape378-198" transform="translate(0.0129945,0)">
				<title>Tabelle.378</title>
				<path fill="#010101" d="M0.04,261.48c2.63,1.68,5.53,2.31,8.49,2.75c3.09,0.46,6.2,0.56,9.319,0.37
					c3.28-0.21,6.511-0.67,9.61-1.84c0.86-0.33,1.67-0.73,2.44-1.27c0.1,0.14,0.05,0.28,0.05,0.4c0.01,1.56-0.021,3.12,0.02,4.68
					c0.021,0.62-0.229,1.03-0.68,1.39c-0.81,0.64-1.73,1.05-2.68,1.4c-2.271,0.83-4.63,1.24-7.021,1.48
					c-2.42,0.25-4.84,0.3-7.26,0.15c-3.18-0.19-6.32-0.62-9.32-1.77c-0.81-0.32-1.59-0.7-2.27-1.24c-0.48-0.37-0.74-0.79-0.72-1.45
					c0.05-1.54,0.02-3.09,0.02-4.63C0.04,261.77,0.04,261.65,0.04,261.48z"/>
			</g>
			<g id="shape379-200" transform="translate(0,-26.4993)">
				<title>Tabelle.379</title>
				<path fill="#010101" d="M14.73,271.14c-3.37-0.03-6.97-0.35-10.47-1.42c-1.06-0.32-2.1-0.73-3.04-1.33
					c-0.37-0.24-0.71-0.5-0.979-0.85c-0.24-0.31-0.24-0.6,0.01-0.91c0.279-0.36,0.63-0.62,1.01-0.86c1.33-0.84,2.81-1.31,4.33-1.68
					c3.72-0.92,7.5-1.15,11.31-1.01c2.73,0.11,5.44,0.43,8.091,1.15c1.199,0.33,2.359,0.73,3.449,1.34
					c0.46,0.26,0.91,0.56,1.261,0.97c0.359,0.42,0.359,0.68-0.011,1.11c-0.35,0.41-0.79,0.7-1.26,0.96
					c-1.55,0.86-3.24,1.34-4.96,1.7C20.68,270.91,17.85,271.13,14.73,271.14z"/>
			</g>
			<g id="shape380-202" transform="translate(0.017524,-18.911)">
				<title>Tabelle.380</title>
				<path fill="#010101" d="M0.03,261.85c3.261,1.99,6.851,2.6,10.5,2.97c4.12,0.4,8.23,0.27,12.311-0.46
					c1.95-0.35,3.859-0.85,5.66-1.7c0.489-0.23,0.939-0.52,1.449-0.84c0,0.35,0,0.64,0,0.93c0,1.32-0.01,2.65,0.011,3.97
					c0.01,0.42-0.15,0.74-0.45,1.01c-0.72,0.68-1.6,1.1-2.521,1.46c-1.97,0.78-4.04,1.2-6.14,1.48c-2.83,0.38-5.67,0.47-8.51,0.3
					c-3.2-0.19-6.351-0.62-9.36-1.78c-0.81-0.32-1.58-0.7-2.27-1.24c-0.46-0.37-0.71-0.79-0.69-1.42
					C0.06,264.98,0.03,263.43,0.03,261.85z"/>
			</g>
			<g id="shape381-204" transform="translate(0.00319293,-13.3633)">
				<title>Tabelle.381</title>
				<path fill="#010101" d="M0.05,263.76c0.99,0.68,2.021,1.15,3.09,1.52c2.101,0.73,4.271,1.14,6.471,1.4
					c2.71,0.31,5.43,0.39,8.149,0.22c3.32-0.2,6.59-0.66,9.721-1.85c0.859-0.32,1.67-0.73,2.489-1.29c0,0.57,0,1.09,0,1.6
					c0,0.41-0.04,0.82,0.011,1.22c0.069,0.61-0.23,1.01-0.671,1.36c-0.81,0.65-1.739,1.07-2.71,1.42c-2.25,0.83-4.6,1.24-6.979,1.48
					c-2.42,0.25-4.86,0.3-7.3,0.15c-3.181-0.2-6.32-0.62-9.311-1.78c-0.83-0.32-1.609-0.71-2.3-1.26c-0.45-0.36-0.71-0.77-0.68-1.39
					C0.08,265.65,0.05,264.74,0.05,263.76z"/>
			</g>
			<g id="shape382-206" transform="translate(0.0223505,-7.8584)">
				<title>Tabelle.382</title>
				<path fill="#010101" d="M29.94,263.83c0,1.12,0.021,2.18-0.01,3.229c-0.021,0.39-0.36,0.64-0.65,0.88
					c-0.79,0.65-1.72,1.06-2.67,1.41c-2.06,0.75-4.189,1.15-6.359,1.41c-2.63,0.3-5.271,0.38-7.92,0.22
					c-3.2-0.19-6.351-0.62-9.36-1.79c-0.89-0.35-1.78-0.72-2.49-1.42c-0.31-0.32-0.479-0.66-0.46-1.12
					c0.03-0.92,0.01-1.83,0.01-2.74c0.03-0.01,0.061-0.03,0.07-0.02c1.93,1.26,4.1,1.89,6.32,2.34c3.989,0.81,8.02,0.98,12.069,0.68
					c2.92-0.21,5.801-0.66,8.57-1.64C28.06,264.91,29.01,264.47,29.94,263.83z"/>
			</g>
		</g>
		<g id="shape383-208" transform="translate(0.00497503,-4.90546)">
			<title>Tabelle.383</title>
			<rect x="0" y="244.562" fill="#FFFFFF" width="31.902" height="26.579"/>
		</g>
		<g id="shape384-210">
			<title>Tabelle.384</title>
			<ellipse fill="#FFFFFF" cx="15.949" cy="266.288" rx="15.948" ry="4.852"/>
		</g>
		<g id="shape385-212" transform="translate(0.00928177,-26.6213)">
			<title>Tabelle.385</title>
			<ellipse fill="#FFFFFF" cx="15.948" cy="266.288" rx="15.949" ry="4.852"/>
		</g>
		<g id="group386-214" transform="translate(0.995006,-0.785535)">
			<title>Tabelle.386</title>
			<g id="shape387-215" transform="translate(0.0129945,0)">
				<title>Tabelle.387</title>
				<path fill="#010101" d="M0.04,261.48c2.63,1.68,5.53,2.31,8.49,2.75c3.09,0.46,6.2,0.56,9.319,0.37
					c3.28-0.21,6.511-0.67,9.61-1.84c0.86-0.33,1.67-0.73,2.44-1.27c0.1,0.14,0.05,0.28,0.05,0.4c0.01,1.56-0.021,3.12,0.02,4.68
					c0.021,0.62-0.229,1.03-0.68,1.39c-0.81,0.64-1.73,1.05-2.68,1.4c-2.271,0.83-4.63,1.24-7.021,1.48
					c-2.42,0.25-4.84,0.3-7.26,0.15c-3.18-0.19-6.32-0.62-9.32-1.77c-0.81-0.32-1.59-0.7-2.27-1.24c-0.48-0.37-0.74-0.79-0.721-1.45
					c0.051-1.54,0.021-3.09,0.021-4.63C0.04,261.77,0.04,261.65,0.04,261.48z"/>
			</g>
			<g id="shape388-217" transform="translate(0,-26.4993)">
				<title>Tabelle.388</title>
				<path fill="#010101" d="M14.73,271.14c-3.37-0.03-6.97-0.35-10.47-1.42c-1.06-0.32-2.1-0.73-3.04-1.33
					c-0.37-0.24-0.71-0.5-0.98-0.85c-0.239-0.31-0.239-0.6,0.011-0.91c0.279-0.36,0.63-0.62,1.01-0.86
					c1.33-0.84,2.81-1.31,4.33-1.68c3.72-0.92,7.5-1.15,11.31-1.01c2.73,0.11,5.44,0.43,8.09,1.15c1.2,0.33,2.36,0.73,3.45,1.34
					c0.46,0.26,0.91,0.56,1.261,0.97c0.359,0.42,0.359,0.68-0.011,1.11c-0.35,0.41-0.79,0.7-1.26,0.96
					c-1.55,0.86-3.24,1.34-4.96,1.7C20.68,270.91,17.85,271.13,14.73,271.14z"/>
			</g>
			<g id="shape389-219" transform="translate(0.017524,-18.911)">
				<title>Tabelle.389</title>
				<path fill="#010101" d="M0.03,261.85c3.261,1.99,6.851,2.6,10.5,2.97c4.12,0.4,8.23,0.27,12.311-0.46
					c1.95-0.35,3.859-0.85,5.66-1.7c0.489-0.23,0.939-0.52,1.449-0.84c0,0.35,0,0.64,0,0.93c0,1.32-0.01,2.65,0.011,3.97
					c0.01,0.42-0.15,0.74-0.45,1.01c-0.72,0.68-1.601,1.1-2.521,1.46c-1.97,0.78-4.04,1.2-6.14,1.48c-2.83,0.38-5.67,0.47-8.51,0.3
					c-3.2-0.189-6.351-0.62-9.36-1.78c-0.81-0.32-1.58-0.7-2.27-1.24c-0.46-0.37-0.71-0.79-0.69-1.42
					C0.06,264.98,0.03,263.43,0.03,261.85z"/>
			</g>
			<g id="shape390-221" transform="translate(0.00319293,-13.3633)">
				<title>Tabelle.390</title>
				<path fill="#010101" d="M0.05,263.76c0.99,0.68,2.021,1.15,3.09,1.52c2.101,0.73,4.271,1.14,6.471,1.4
					c2.71,0.31,5.43,0.39,8.149,0.22c3.32-0.2,6.59-0.66,9.72-1.85c0.86-0.32,1.671-0.73,2.49-1.29c0,0.57,0,1.09,0,1.6
					c0,0.41-0.04,0.82,0.01,1.22c0.07,0.61-0.229,1.01-0.67,1.36c-0.81,0.65-1.739,1.07-2.71,1.42c-2.25,0.83-4.6,1.24-6.979,1.48
					c-2.42,0.25-4.86,0.3-7.3,0.15c-3.181-0.2-6.32-0.62-9.311-1.78c-0.83-0.32-1.609-0.71-2.3-1.26c-0.45-0.36-0.71-0.77-0.68-1.39
					C0.08,265.65,0.05,264.74,0.05,263.76z"/>
			</g>
			<g id="shape391-223" transform="translate(0.0223505,-7.85832)">
				<title>Tabelle.391</title>
				<path fill="#010101" d="M29.94,263.83c0,1.12,0.021,2.18-0.01,3.23c-0.021,0.39-0.36,0.64-0.65,0.88
					c-0.79,0.65-1.72,1.06-2.67,1.41c-2.06,0.75-4.189,1.15-6.359,1.41c-2.631,0.3-5.271,0.38-7.92,0.22
					c-3.2-0.19-6.351-0.62-9.36-1.79c-0.89-0.35-1.78-0.72-2.49-1.42c-0.31-0.32-0.479-0.66-0.46-1.12
					c0.03-0.92,0.01-1.83,0.01-2.74c0.03-0.01,0.061-0.03,0.07-0.02c1.93,1.26,4.1,1.89,6.32,2.34c3.989,0.81,8.02,0.98,12.069,0.68
					c2.92-0.21,5.801-0.66,8.57-1.64C28.06,264.91,29.01,264.47,29.94,263.83z"/>
			</g>
		</g>
	</g>
	<g id="shape392-225" transform="translate(171.317,-55.0738)">
		<title>Tabelle.392</title>
		<desc>Internet</desc>
		<v:textBlock  v:tabSpace="42.5197" v:margins="rect(4,4,4,4)"></v:textBlock>
		<v:textRect  width="65.29" height="21.7621" cy="260.259" cx="32.6432"></v:textRect>
		<rect x="0.001" y="249.378" fill="none" width="65.286" height="21.762"/>
		<text transform="matrix(1 0 0 1 12.38 263.8605)" enable-background="new    " font-family="'Roboto-Light'" font-size="12.0001">Internet<v:paragraph  v:horizAlign="1"></v:paragraph><v:tabList></v:tabList></text>
	</g>
	<g id="shape393-228" transform="translate(172.521,-249.003)">
		<title>Tabelle.393</title>
		<desc>Server</desc>
		<v:textBlock  v:tabSpace="42.5197" v:margins="rect(4,4,4,4)"></v:textBlock>
		<v:textRect  width="69.13" height="21.7621" cy="260.259" cx="34.563"></v:textRect>
		<rect x="0.001" y="249.378" fill="none" width="69.126" height="21.762"/>
		<text transform="matrix(1 0 0 1 17.8899 263.86)" enable-background="new    " font-family="'Roboto-Light'" font-size="12.0001">Server<v:paragraph  v:horizAlign="1"></v:paragraph><v:tabList></v:tabList></text>
	</g>
	<g id="shape394-231" transform="translate(75.1893,-220.656)">
		<title>Tabelle.394</title>
		<desc>Datenbank</desc>
		<v:textBlock  v:tabSpace="42.5197" v:margins="rect(4,4,4,4)"></v:textBlock>
		<v:textRect  width="69.13" height="21.7621" cy="260.259" cx="34.563"></v:textRect>
		<rect x="0" y="249.378" fill="none" width="69.126" height="21.762"/>
		
			<text transform="matrix(1 0 0 1 6.3202 263.8597)" enable-background="new    " font-family="'Roboto-Light'" font-size="12.0001">Datenbank<v:paragraph  v:horizAlign="1"></v:paragraph><v:tabList></v:tabList></text>
	</g>
	<g id="shape395-234" transform="translate(21.154,-99.9244)">
		<title>Tabelle.395</title>
		<desc>Schule</desc>
		<v:textBlock  v:tabSpace="42.5197" v:margins="rect(4,4,4,4)"></v:textBlock>
		<v:textRect  width="85.21" height="18.2839" cy="261.998" cx="42.6021"></v:textRect>
		<rect x="0.001" y="252.856" fill="none" width="85.204" height="18.284"/>
		<text transform="matrix(1 0 0 1 24.92 265.5997)" enable-background="new    " font-family="'Roboto-Light'" font-size="12.0001">Schule<v:paragraph  v:horizAlign="1"></v:paragraph><v:tabList></v:tabList></text>
	</g>
	<g id="shape396-237" transform="translate(325.099,-103.521)">
		<title>Tabelle.396</title>
		<desc>Home</desc>
		<v:textBlock  v:tabSpace="42.5197" v:margins="rect(4,4,4,4)"></v:textBlock>
		<v:textRect  width="69.13" height="21.7621" cy="260.259" cx="34.563"></v:textRect>
		<rect x="0" y="249.378" fill="none" width="69.126" height="21.762"/>
		
			<text transform="matrix(1 0 0 1 18.5399 263.8604)" enable-background="new    " font-family="'Roboto-Light'" font-size="12.0001">Home<v:paragraph  v:horizAlign="1"></v:paragraph><v:tabList></v:tabList></text>
	</g>
	<g id="group398-240" transform="translate(87.9734,-33.6881)">
		<title>Tabelle.398</title>
		<g id="group399-241">
			<title>Zeichenblatt-1</title>
			<g id="group400-242">
				<title>Tabelle.42</title>
				<g id="shape401-243">
					<title>Tabelle.401</title>
					<path d="M20.77,271.14H0.81c-0.45,0-0.81-0.36-0.81-0.81v-26.58c0-0.45,0.359-0.82,0.81-0.82h15.971
						c0.26,0,0.5,0.12,0.649,0.33l3.99,5.311c0.1,0.14,0.16,0.319,0.16,0.49v21.27C21.581,270.77,21.22,271.14,20.77,271.14z
						 M1.63,269.51h18.32v-20.18l-3.58-4.77H1.63V269.51z"/>
				</g>
			</g>
		</g>
	</g>
	<g id="group573-245" transform="translate(109.752,-114.859)">
		<title>Layer_2.573</title>
		<g id="group574-246" transform="translate(0,-18.3875)">
			<title>Tabelle.574</title>
			<g id="shape575-247" transform="translate(1.32393,-1.32374)">
				<title>Tabelle.575</title>
				<ellipse fill="#FFFFFF" cx="26.739" cy="244.402" rx="26.738" ry="26.738"/>
			</g>
			<g id="shape576-249">
				<title>Tabelle.576</title>
				<path fill="#808285" d="M28.061,271.141C12.59,271.141,0,258.55,0,243.08c0-15.48,12.59-28.06,28.061-28.06
					c15.479,0,28.06,12.58,28.06,28.06C56.12,258.55,43.54,271.141,28.061,271.141z M28.061,217.66
					c-14.011,0-25.41,11.4-25.41,25.42c0,14.01,11.399,25.41,25.41,25.41c14.02,0,25.42-11.4,25.42-25.41
					C53.481,229.06,42.08,217.66,28.061,217.66z"/>
			</g>
		</g>
		<g id="shape577-251" transform="translate(239.748,433.707) rotate(135)">
			<title>Tabelle.577</title>
			<rect x="-0.001" y="235.975" fill="#808285" width="6.07" height="35.165"/>
		</g>
	</g>
	<g id="group582-253" transform="translate(132.763,-153.744)">
		<title>Zeichenblatt-1</title>
		<g id="group583-254">
			<title>Tabelle.5</title>
			<g id="shape584-255">
				<title>Tabelle.584</title>
				<path d="M19.5,270.4v-4.42H18.02v4.42H19.5z M19.5,264.5v-4.42H18.02v4.42H19.5z M19.5,258.6v-4.43H18.02v4.43H19.5z
					 M18.011,251.43l0.01,1.27H19.5v-1.51c0-0.16-0.05-0.32-0.14-0.45l-1.75-2.32l-1.18,0.88L18.011,251.43z M14.811,247.12l0.729,1
					l1.19-0.88l-0.98-1.3c-0.14-0.18-0.359-0.3-0.59-0.3h-2.819v1.48H14.811z M10.86,245.64h-4.43v1.48h4.43V245.64z M4.95,247.12
					v-1.48l0,0H0.74c-0.41,0-0.74,0.33-0.74,0.74v0.229v0.51H4.95z M0,248.08v4.43h1.48v-4.43H0z M0,253.98v4.43h1.48v-4.43H0z
					 M0,259.88v4.43h1.48v-4.43H0z M0,265.79v4.42h1.48v-4.42H0z M1.78,271.14h4.4v-1.45h-4.4V271.14z M7.61,271.14h4.44v-1.47H7.61
					V271.14z M13.44,271.14h4.44v-1.44h-4.44V271.14z"/>
				<path fill="none" d="M19.5,270.4v-4.42H18.02v4.42H19.5 M19.5,264.5v-4.42H18.02v4.42H19.5 M19.5,258.6v-4.43H18.02v4.43H19.5
					 M18.011,251.43l0.01,1.27H19.5v-1.51c0-0.16-0.05-0.32-0.14-0.45l-1.75-2.32l-1.18,0.88 M14.811,247.12l0.729,1l1.19-0.88
					l-0.98-1.3c-0.14-0.18-0.359-0.3-0.59-0.3h-2.819v1.48 M10.86,245.64h-4.43v1.48h4.43V245.64 M4.95,247.12v-1.48l0,0H0.74
					c-0.41,0-0.74,0.33-0.74,0.74v0.229v0.51 M0,248.08v4.43h1.48v-4.43H0 M0,253.98v4.43h1.48v-4.43H0 M0,259.88v4.43h1.48v-4.43H0
					 M0,265.79v4.42h1.48v-4.42H0 M1.78,271.14h4.4v-1.45h-4.4V271.14 M7.61,271.14h4.44v-1.47H7.61V271.14 M13.44,271.14h4.44
					v-1.44h-4.44V271.14"/>
			</g>
		</g>
	</g>
	<g id="group589-258" transform="translate(123.909,-143.803)">
		<title>Tabelle.589</title>
		<g id="group590-259">
			<title>Zeichenblatt-1</title>
			<g id="group591-260">
				<title>Tabelle.42</title>
				<g id="shape592-261">
					<title>Tabelle.592</title>
					<path d="M18.77,271.14H0.741c-0.41,0-0.74-0.33-0.74-0.74v-24.03c0-0.4,0.33-0.73,0.74-0.73h14.43c0.229,0,0.45,0.11,0.59,0.29
						l3.601,4.81c0.1,0.13,0.149,0.28,0.149,0.44v19.22C19.51,270.81,19.18,271.14,18.77,271.14z M1.47,269.67h16.57v-18.24
						l-3.24-4.32H1.47V269.67z"/>
				</g>
			</g>
		</g>
		<g id="shape593-263" transform="translate(1.47303,-1.47361)">
			<title>Tabelle.593</title>
			<path fill="#FFFFFF" d="M0,271.14h16.561V252.9l-3.23-4.31H0V271.14z"/>
		</g>
	</g>
	<g id="shape599-265" transform="translate(258.571,-63.0193)">
		<title>Tabelle.599</title>
		
			<path fill="none" stroke="#000000" stroke-width="0.75" stroke-linecap="round" stroke-linejoin="round" stroke-miterlimit="3" d="
			M0.001,271.14h45.64"/>
	</g>
	<g id="shape821-268" transform="translate(-62.1751,152.137) rotate(-90)">
		<title>Tabelle.821</title>
		
			<path fill="none" stroke="#000000" stroke-width="0.75" stroke-linecap="round" stroke-linejoin="round" stroke-miterlimit="3" d="
			M0,271.14h36.68"/>
	</g>
	<g id="shape822-271" transform="translate(139.233,-192.809)">
		<title>Tabelle.822</title>
		
			<path fill="none" stroke="#000000" stroke-width="0.75" stroke-linecap="round" stroke-linejoin="round" stroke-miterlimit="3" d="
			M0.001,271.14h33.41"/>
	</g>
	<g id="group939-274" transform="translate(294.004,-37.2347)">
		<title>Layer_2.939</title>
		<g id="group940-275" transform="translate(0,-17.407)">
			<title>Tabelle.940</title>
			<g id="shape941-276" transform="translate(1.25333,-1.25315)">
				<title>Tabelle.941</title>
				<ellipse fill="#FFFFFF" cx="25.312" cy="245.828" rx="25.313" ry="25.313"/>
			</g>
			<g id="shape942-278">
				<title>Tabelle.942</title>
				<path fill="#808285" d="M26.57,271.14C11.92,271.14,0,259.22,0,244.57c0-14.64,11.92-26.56,26.57-26.56
					c14.64,0,26.56,11.92,26.56,26.56C53.13,259.22,41.21,271.14,26.57,271.14z M26.57,220.52c-13.271,0-24.061,10.79-24.061,24.05
					c0,13.271,10.79,24.06,24.061,24.06c13.26,0,24.05-10.789,24.05-24.06C50.62,231.31,39.83,220.52,26.57,220.52z"/>
			</g>
		</g>
		<g id="shape943-280" transform="translate(237.187,435.262) rotate(135)">
			<title>Tabelle.943</title>
			<rect x="-0.001" y="237.85" fill="#808285" width="5.747" height="33.29"/>
		</g>
	</g>
	<g id="shape623-282" transform="translate(265.779,-136.083) rotate(23.6131)">
		<title>Tabelle.623</title>
		<path fill="none" d=""/>
		<path fill="#262626" d="M150.45,271.14"/>
	</g>
</g>
<g>
	<polygon fill="#FFFFFF" stroke="#000000" stroke-width="2" stroke-miterlimit="10" points="270.657,170.889 304.99,178.403 
		276.022,158.501 274.456,162.114 159.107,112.155 156.871,117.317 272.221,167.276 	"/>
</g>
</svg>
