<?xml version="1.0" encoding="utf-8"?>
<!-- Generator: Adobe Illustrator 16.0.0, SVG Export Plug-In . SVG Version: 6.00 Build 0)  -->
<!DOCTYPE svg PUBLIC "-//W3C//DTD SVG 1.1//EN" "http://www.w3.org/Graphics/SVG/1.1/DTD/svg11.dtd">
<svg version="1.1"
	 id="Layer_1" xmlns:ev="http://www.w3.org/2001/xml-events" xmlns:v="http://schemas.microsoft.com/visio/2003/SVGExtensions/"
	 xmlns="http://www.w3.org/2000/svg" xmlns:xlink="http://www.w3.org/1999/xlink" x="0px" y="0px" width="417.141px"
	 height="237.49px" viewBox="0 0 417.141 237.49" enable-background="new 0 0 417.141 237.49" xml:space="preserve">
<v:documentProperties  v:viewMarkup="false" v:metric="true" v:langID="1031"></v:documentProperties>
<g>
	<title>Zeichenblatt-1</title>
	
		<v:pageProperties  v:shadowOffsetY="-8.50394" v:shadowOffsetX="8.50394" v:drawingUnits="24" v:pageScale="0.0393701" v:drawingScale="0.0393701">
		</v:pageProperties>
	<g id="group470-1" transform="translate(294.804,-135.322)">
		<title>Tabelle.470</title>
		<g id="group471-2">
			<title>Zeichenblatt-1</title>
			<g id="group472-3" transform="translate(0,-9.03782)">
				<v:userDefs>
					<v:ud  v:val="VT0(0):5" v:prompt="" v:nameU="CTypeTopLeftSnip"></v:ud>
					<v:ud  v:val="VT0(0):5" v:prompt="" v:nameU="CTypeTopRightSnip"></v:ud>
					<v:ud  v:val="VT0(0):5" v:prompt="" v:nameU="CTypeBotLeftSnip"></v:ud>
					<v:ud  v:val="VT0(0):5" v:prompt="" v:nameU="CTypeBotRightSnip"></v:ud>
					<v:ud  v:val="VT0(1):5" v:prompt="" v:nameU="CornerLockHoriz"></v:ud>
					<v:ud  v:val="VT0(1):5" v:prompt="" v:nameU="CornerLockVert"></v:ud>
					<v:ud  v:val="VT0(0):5" v:prompt="" v:nameU="CornerLockDiag"></v:ud>
					<v:ud  v:val="VT0(0):26" v:prompt="" v:nameU="TopLeftOffset"></v:ud>
					<v:ud  v:val="VT0(0):26" v:prompt="" v:nameU="TopRightOffset"></v:ud>
					<v:ud  v:val="VT0(0):26" v:prompt="" v:nameU="BotLeftOffset"></v:ud>
					<v:ud  v:val="VT0(0):26" v:prompt="" v:nameU="BotRightOffset"></v:ud>
					<v:ud  v:val="VT0(15):26" v:prompt="" v:nameU="visVersion"></v:ud>
				</v:userDefs>
				<title>Abgerundetes Rechteck</title>
				<g id="shape473-4">
					<title>Tabelle.473</title>
					<path d="M118.55,237.49H3.03c-1.67,0-3.03-1.36-3.03-3.03v-64.68c0-1.671,1.36-3.03,3.03-3.03h115.52
						c1.681,0,3.04,1.359,3.04,3.03v64.68C121.59,236.13,120.23,237.49,118.55,237.49z M6.07,231.42h109.45V172.82H6.07V231.42z"/>
				</g>
			</g>
			<g id="group474-6" transform="translate(56.3867,-0.817006)">
				<v:userDefs>
					<v:ud  v:val="VT0(15):26" v:nameU="visVersion"></v:ud>
				</v:userDefs>
				<title>Rechteck</title>
				<g id="group475-7">
					<title>Tabelle.475</title>
					<g id="shape476-8" transform="translate(0.0728137,-0.0728137)">
						<title>Tabelle.476</title>
						<rect x="0" y="224.591" width="6.02" height="12.899"/>
					</g>
					<g id="shape477-10">
						<title>Tabelle.477</title>
						<path d="M6.09,237.49H0.07c-0.04,0-0.07-0.03-0.07-0.07v-12.9c0-0.04,0.03-0.08,0.07-0.08h6.02c0.04,0,0.08,0.04,0.08,0.08
							v12.9C6.17,237.46,6.13,237.49,6.09,237.49z M0.15,237.34h5.87v-12.75H0.15V237.34z"/>
					</g>
				</g>
			</g>
			<g id="group478-12" transform="translate(32.9516,0)">
				<v:userDefs>
					<v:ud  v:val="VT0(15):26" v:nameU="visVersion"></v:ud>
				</v:userDefs>
				<title>Rechteck.71</title>
				<g id="group479-13">
					<title>Tabelle.479</title>
					<g id="shape480-14" transform="translate(0.0728137,-0.0728137)">
						<title>Tabelle.480</title>
						<rect x="0" y="234.48" width="54.095" height="3.01"/>
					</g>
					<g id="shape481-16">
						<title>Tabelle.481</title>
						<path d="M54.17,237.49H0.07c-0.04,0-0.069-0.029-0.069-0.069v-3.011c0-0.04,0.029-0.08,0.069-0.08H54.17
							c0.04,0,0.069,0.04,0.069,0.08v3.011C54.24,237.46,54.21,237.49,54.17,237.49z M0.15,237.34h53.94v-2.86H0.15V237.34z"/>
					</g>
				</g>
			</g>
		</g>
	</g>
	<g id="group484-18" transform="translate(0.611223,-136.252)">
		<title>Tabelle.484</title>
		<g id="group485-19">
			<title>Zeichenblatt-1</title>
			<g id="group486-20" transform="translate(13.1991,-13.749)">
				<title>Tabelle.74</title>
				<g id="shape487-21">
					<title>Tabelle.487</title>
					<path d="M98.241,237.49H1.76c-0.97,0-1.76-0.79-1.76-1.76v-54.4c0-0.97,0.79-1.75,1.76-1.75h96.48c0.97,0,1.76,0.78,1.76,1.75
						v54.4C100,236.7,99.21,237.49,98.241,237.49z M5.6,231.88h88.79V185.18H5.6V231.88z"/>
				</g>
			</g>
			<g id="group488-23" transform="translate(1.89585,-1.75569)">
				<title>Tabelle.75</title>
				<g id="shape489-24">
					<title>Tabelle.489</title>
					<path d="M122.5,237.49l-10.87-10.84H10.87L0,237.49H122.5z"/>
				</g>
			</g>
			<g id="group490-26">
				<title>Tabelle.76</title>
				<g id="shape491-27">
					<title>Tabelle.491</title>
					<path d="M124.401,237.49H1.901c-0.71,0-1.36-0.43-1.631-1.09c-0.27-0.65-0.119-1.41,0.381-1.91l10.88-10.84
						c0.33-0.33,0.77-0.51,1.239-0.51h100.75c0.471,0,0.91,0.18,1.24,0.51l10.88,10.84c0.5,0.5,0.65,1.26,0.38,1.91
						C125.75,237.06,125.111,237.49,124.401,237.49z M6.14,233.98h114.011l-7.351-7.33h-99.31L6.14,233.98z"/>
				</g>
			</g>
		</g>
	</g>
	<g id="group528-29" transform="translate(100.466,-42.9911) rotate(-15)">
		<title>Tabelle.528</title>
		<g id="group529-30">
			<title>Tabelle.529</title>
			<g id="shape530-31">
				<title>Tabelle.530</title>
				<path d="M0,178.01c0.001-1.13,0-2.261,0.001-3.381c0.139-0.89,0.24-1.79,0.409-2.67c2.251-11.46,11.85-18.89,22.241-19.31
					c0.73-0.03,0.979-0.32,1.189-0.97c2.45-7.71,7.511-12.96,15.111-15.67c1.95-0.69,4.05-0.909,6.09-1.35c1.12,0,2.25-0.001,3.37,0
					c0.18,0.049,0.36,0.13,0.54,0.14c5.1,0.47,9.571,2.41,13.4,5.8c0.55,0.49,0.89,0.38,1.42,0.021c4.991-3.4,10.511-4.83,16.5-4.05
					c6.05,0.79,11.13,3.55,15.09,8.2c3.34,3.94,5.26,8.501,5.58,13.68c0.05,0.75,0.48,0.82,0.98,0.95
					c8.33,2.24,13.99,7.411,16.85,15.53c0.661,1.881,0.891,3.921,1.32,5.89c0,1.19,0,2.38,0,3.571
					c-0.05,0.17-0.129,0.339-0.149,0.52c-0.44,4.759-2.241,8.97-5.27,12.64c-0.38,0.47-0.41,0.809-0.19,1.33
					c2.04,4.77,2.41,9.689,1.289,14.729c-2.99,13.4-17.289,21.59-30.339,17.36c-1.471-0.47-2.87-1.13-4.33-1.71
					c-0.12,0.12-0.25,0.261-0.38,0.401c-3.199,3.44-7.05,5.82-11.6,7.02c-1.37,0.36-2.79,0.539-4.19,0.809
					c-1.19,0.001-2.38,0-3.57,0c-0.18-0.049-0.351-0.129-0.53-0.15c-5.75-0.569-10.66-2.919-14.66-7.08
					c-1.17-1.23-2.179-2.62-3.28-3.95c-4.6,1.78-9.33,2.141-14.19,1.061c-13.25-2.97-21.42-16.851-17.55-29.881
					c0.18-0.61,0.099-0.91-0.44-1.27c-4.6-3.06-7.8-7.24-9.49-12.49C0.62,181.88,0.4,179.92,0,178.01z M24.411,158.53
					c-0.001-0.04,0-0.08-0.01-0.12c-1.18,0.1-2.37,0.12-3.54,0.31c-7.791,1.32-13.691,7.31-14.78,15.36
					c-1.051,7.74,3.02,14.84,9.64,18.27c2.4,1.239,2.86,2.46,1.779,4.92c-1.4,3.22-1.74,6.58-1.12,10
					c2.16,11.929,15.14,18.329,25.929,12.81c2.28-1.17,3.74-0.71,4.9,1.56c6.17,12.1,22.421,13.4,30.44,2.45
					c1.56-2.13,2.88-2.38,5.07-0.91c3.75,2.5,7.869,3.45,12.31,2.83c12.349-1.75,19.21-15.311,13.33-26.301
					c-1.11-2.08-0.96-3.04,0.71-4.74c2.831-2.89,4.531-6.34,4.99-10.35c1.14-10.02-6.1-18.94-16.13-19.94
					c-1.69-0.16-2.77-1.36-2.81-3.05c-0.02-1.28-0.02-2.56-0.17-3.83c-1.24-10.69-12.28-17.88-22.65-14.8
					c-2.799,0.83-5.239,2.28-7.41,4.23c-1.49,1.34-3.1,1.22-4.47-0.23c-0.17-0.18-0.331-0.37-0.501-0.55
					c-8.919-9.76-24.949-6.88-29.88,5.39c-0.469,1.17-0.75,2.44-0.949,3.691c-0.32,2.07-1.47,3.099-3.551,3
					C25.16,158.51,24.791,158.531,24.411,158.53z"/>
			</g>
			<g id="shape531-33" transform="translate(0,-0.000375296)">
				<title>Tabelle.531</title>
				<path fill="#FFFFFF" d="M0,178.01c0.4,1.91,0.62,3.87,1.22,5.721c1.69,5.249,4.89,9.43,9.49,12.489
					c0.539,0.36,0.62,0.66,0.44,1.271c-3.871,13.03,4.3,26.91,17.55,29.88c4.86,1.08,9.59,0.72,14.189-1.06
					c1.1,1.33,2.11,2.72,3.28,3.95c4,4.159,8.911,6.51,14.66,7.08c0.18,0.02,0.35,0.1,0.53,0.15c-20.44,0-40.87,0-61.36,0
					C0.001,217.66,0,197.83,0,178.01z"/>
			</g>
			<g id="shape532-35" transform="translate(48.4132,-56.6697)">
				<title>Tabelle.532</title>
				<path fill="#FFFFFF" d="M71.68,237.49c-0.429-1.97-0.659-4.01-1.329-5.89c-2.86-8.119-8.521-13.29-16.841-15.529
					c-0.509-0.141-0.939-0.2-0.98-0.95c-0.33-5.18-2.239-9.75-5.59-13.681c-3.96-4.649-9.03-7.41-15.08-8.2
					c-5.99-0.78-11.51,0.651-16.509,4.051c-0.53,0.359-0.87,0.47-1.42-0.021c-3.82-3.389-8.3-5.33-13.4-5.8
					c-0.18-0.01-0.35-0.09-0.531-0.14c23.89,0,47.791,0,71.681,0.001C71.68,206.72,71.681,222.1,71.68,237.49z"/>
			</g>
			<g id="shape533-37" transform="translate(0,-62.8622)">
				<title>Tabelle.533</title>
				<path fill="#FFFFFF" d="M45.04,197.521c-2.04,0.439-4.139,0.669-6.09,1.36c-7.6,2.7-12.66,7.949-15.11,15.67
					c-0.211,0.639-0.46,0.929-1.19,0.96c-10.39,0.42-19.99,7.85-22.24,19.31c-0.17,0.88-0.27,1.78-0.41,2.669
					c0-13.31,0-26.62,0-39.969C15.01,197.52,30.021,197.52,45.04,197.521z"/>
			</g>
			<g id="shape534-39" transform="translate(64.9262,-0.000187648)">
				<title>Tabelle.534</title>
				<path fill="#FFFFFF" d="M0,237.49c1.401-0.27,2.82-0.45,4.19-0.81c4.549-1.199,8.41-3.58,11.61-7.02
					c0.12-0.14,0.25-0.28,0.37-0.4c1.46,0.58,2.87,1.24,4.33,1.71c13.05,4.23,27.351-3.96,30.34-17.36
					c1.13-5.04,0.75-9.96-1.28-14.73c-0.23-0.521-0.2-0.86,0.18-1.331c3.031-3.67,4.83-7.88,5.27-12.64
					c0.02-0.18,0.11-0.35,0.159-0.519c0,17.68,0,35.369,0,53.099C36.781,237.49,18.39,237.49,0,237.49z"/>
			</g>
			<g id="shape535-41" transform="translate(5.02953,-2.44562)">
				<title>Tabelle.535</title>
				<path fill="#FFFFFF" d="M19.381,160.97c0.38,0,0.75-0.021,1.129-0.001c2.08,0.111,3.23-0.92,3.55-2.99
					c0.2-1.25,0.48-2.52,0.95-3.689c4.93-12.27,20.961-15.151,29.88-5.401c0.17,0.19,0.331,0.381,0.5,0.561
					c1.371,1.45,2.98,1.57,4.471,0.229c2.169-1.949,4.609-3.399,7.419-4.24c10.36-3.08,21.4,4.121,22.65,14.8
					c0.14,1.27,0.14,2.56,0.17,3.84c0.029,1.69,1.11,2.88,2.8,3.05c10.029,1,17.27,9.91,16.13,19.94
					c-0.461,4.01-2.161,7.46-4.99,10.339c-1.669,1.71-1.82,2.671-0.71,4.751c5.88,10.98-0.98,24.55-13.33,26.29
					c-4.44,0.63-8.561-0.319-12.31-2.829c-2.19-1.46-3.51-1.22-5.07,0.91c-8.02,10.96-24.27,9.65-30.44-2.44
					c-1.16-2.27-2.619-2.74-4.9-1.571c-10.79,5.521-23.77-0.869-25.929-12.81c-0.62-3.42-0.28-6.77,1.12-9.99
					c1.08-2.46,0.63-3.69-1.78-4.929C4.07,191.37,0,184.27,1.051,176.521C2.14,168.48,8.04,162.48,15.84,161.17
					c1.161-0.2,2.35-0.22,3.54-0.32C19.381,160.89,19.38,160.93,19.381,160.97z"/>
			</g>
		</g>
	</g>
	<g id="shape605-43" transform="translate(173.984,-105.408)">
		<title>Tabelle.605</title>
		<desc>Internet</desc>
		<v:textBlock  v:tabSpace="42.5197" v:margins="rect(4,4,4,4)"></v:textBlock>
		<v:textRect  width="65.29" height="21.7621" cy="226.609" cx="32.6432"></v:textRect>
		<rect x="0.001" y="215.728" fill="none" width="65.286" height="21.762"/>
		
			<text transform="matrix(1 0 0 1 12.3801 230.2105)" enable-background="new    " font-family="'Roboto-Light'" font-size="12.0001">Internet<v:paragraph  v:horizAlign="1"></v:paragraph><v:tabList></v:tabList></text>
	</g>
	<g id="shape608-46" transform="translate(21.154,-207.492)">
		<title>Tabelle.608</title>
		<desc>Schule</desc>
		<v:textBlock  v:tabSpace="42.5197" v:margins="rect(4,4,4,4)"></v:textBlock>
		<v:textRect  width="85.21" height="18.2839" cy="228.348" cx="42.6021"></v:textRect>
		<rect x="0.001" y="219.206" fill="none" width="85.204" height="18.284"/>
		<text transform="matrix(1 0 0 1 24.92 231.9507)" enable-background="new    " font-family="'Roboto-Light'" font-size="12.0001">Schule<v:paragraph  v:horizAlign="1"></v:paragraph><v:tabList></v:tabList></text>
	</g>
	<g id="shape609-49" transform="translate(321.035,-215.353)">
		<title>Tabelle.609</title>
		<desc>Partner X</desc>
		<v:textBlock  v:tabSpace="42.5197" v:margins="rect(4,4,4,4)"></v:textBlock>
		<v:textRect  width="69.13" height="21.7621" cy="226.609" cx="34.563"></v:textRect>
		<rect x="0" y="215.728" fill="none" width="69.126" height="21.763"/>
		
			<text transform="matrix(1 0 0 1 10.1606 230.2102)" enable-background="new    " font-family="'Roboto-Light'" font-size="12.0001">Partner X<v:paragraph  v:horizAlign="1"></v:paragraph><v:tabList></v:tabList></text>
	</g>
	<g id="shape627-52" transform="translate(167.967,-123.313) rotate(-23.0372)">
		<title>Tabelle.627</title>
		
			<path fill="none" stroke="#000000" stroke-width="0.75" stroke-linecap="round" stroke-linejoin="round" stroke-miterlimit="3" d="
			M0,237.49l39.591,0.001"/>
	</g>
	<g id="group630-55" transform="translate(282.193,-123.303)">
		<title>Layer_2.939</title>
		<g id="group631-56" transform="translate(0,-17.407)">
			<title>Tabelle.631</title>
			<g id="shape632-57" transform="translate(1.25333,-1.25315)">
				<title>Tabelle.632</title>
				<ellipse fill="#FFFFFF" cx="25.313" cy="212.178" rx="25.312" ry="25.312"/>
			</g>
			<g id="shape633-59">
				<title>Tabelle.633</title>
				<path fill="#808285" d="M26.57,237.49c-14.649,0-26.569-11.92-26.569-26.57c0-14.64,11.92-26.56,26.569-26.56
					c14.64,0,26.561,11.92,26.561,26.56C53.13,225.57,41.21,237.49,26.57,237.49z M26.57,186.87c-13.27,0-24.06,10.79-24.06,24.05
					c0,13.271,10.79,24.061,24.06,24.061c13.26,0,24.05-10.79,24.05-24.061C50.62,197.66,39.83,186.87,26.57,186.87z"/>
			</g>
		</g>
		<g id="shape634-61" transform="translate(213.392,377.818) rotate(135)">
			<title>Tabelle.634</title>
			<rect x="0" y="204.2" fill="#808285" width="5.745" height="33.29"/>
		</g>
	</g>
	<g id="group636-63" transform="translate(294.804,-22.2664)">
		<title>Tabelle.636</title>
		<g id="group637-64">
			<title>Zeichenblatt-1</title>
			<g id="group638-65" transform="translate(0,-9.03782)">
				<v:userDefs>
					<v:ud  v:val="VT0(0):5" v:prompt="" v:nameU="CTypeTopLeftSnip"></v:ud>
					<v:ud  v:val="VT0(0):5" v:prompt="" v:nameU="CTypeTopRightSnip"></v:ud>
					<v:ud  v:val="VT0(0):5" v:prompt="" v:nameU="CTypeBotLeftSnip"></v:ud>
					<v:ud  v:val="VT0(0):5" v:prompt="" v:nameU="CTypeBotRightSnip"></v:ud>
					<v:ud  v:val="VT0(1):5" v:prompt="" v:nameU="CornerLockHoriz"></v:ud>
					<v:ud  v:val="VT0(1):5" v:prompt="" v:nameU="CornerLockVert"></v:ud>
					<v:ud  v:val="VT0(0):5" v:prompt="" v:nameU="CornerLockDiag"></v:ud>
					<v:ud  v:val="VT0(0):26" v:prompt="" v:nameU="TopLeftOffset"></v:ud>
					<v:ud  v:val="VT0(0):26" v:prompt="" v:nameU="TopRightOffset"></v:ud>
					<v:ud  v:val="VT0(0):26" v:prompt="" v:nameU="BotLeftOffset"></v:ud>
					<v:ud  v:val="VT0(0):26" v:prompt="" v:nameU="BotRightOffset"></v:ud>
					<v:ud  v:val="VT0(15):26" v:prompt="" v:nameU="visVersion"></v:ud>
				</v:userDefs>
				<title>Abgerundetes Rechteck</title>
				<g id="shape639-66">
					<title>Tabelle.639</title>
					<path d="M118.55,237.49H3.03c-1.67,0-3.03-1.359-3.03-3.029V169.78c0-1.67,1.36-3.029,3.03-3.029h115.52
						c1.681,0,3.04,1.359,3.04,3.029v64.681C121.59,236.13,120.23,237.49,118.55,237.49z M6.07,231.42h109.45V172.82H6.07V231.42z"
						/>
				</g>
			</g>
			<g id="group640-68" transform="translate(56.3867,-0.817006)">
				<v:userDefs>
					<v:ud  v:val="VT0(15):26" v:nameU="visVersion"></v:ud>
				</v:userDefs>
				<title>Rechteck</title>
				<g id="group641-69">
					<title>Tabelle.641</title>
					<g id="shape642-70" transform="translate(0.0728137,-0.0728137)">
						<title>Tabelle.642</title>
						<rect x="0" y="224.59" width="6.02" height="12.9"/>
					</g>
					<g id="shape643-72">
						<title>Tabelle.643</title>
						<path d="M6.09,237.49H0.07c-0.04,0-0.07-0.03-0.07-0.07v-12.9c0-0.04,0.03-0.08,0.07-0.08h6.02c0.04,0,0.08,0.04,0.08,0.08
							v12.9C6.17,237.46,6.13,237.49,6.09,237.49z M0.15,237.34h5.87v-12.75H0.15V237.34z"/>
					</g>
				</g>
			</g>
			<g id="group644-74" transform="translate(32.9516,0)">
				<v:userDefs>
					<v:ud  v:val="VT0(15):26" v:nameU="visVersion"></v:ud>
				</v:userDefs>
				<title>Rechteck.71</title>
				<g id="group645-75">
					<title>Tabelle.645</title>
					<g id="shape646-76" transform="translate(0.0728137,-0.0728137)">
						<title>Tabelle.646</title>
						<rect x="0" y="234.48" width="54.095" height="3.01"/>
					</g>
					<g id="shape647-78">
						<title>Tabelle.647</title>
						<path d="M54.17,237.49H0.07C0.03,237.49,0,237.461,0,237.42v-3.011c0-0.04,0.029-0.08,0.069-0.08H54.17
							c0.04,0,0.069,0.04,0.069,0.08v3.011C54.24,237.461,54.21,237.49,54.17,237.49z M0.15,237.34h53.94v-2.86H0.15V237.34z"/>
					</g>
				</g>
			</g>
		</g>
	</g>
	<g id="shape648-80" transform="translate(321.035,-102.297)">
		<title>Tabelle.648</title>
		<desc>Partner Y</desc>
		<v:textBlock  v:tabSpace="42.5197" v:margins="rect(4,4,4,4)"></v:textBlock>
		<v:textRect  width="69.13" height="21.7621" cy="226.609" cx="34.563"></v:textRect>
		<rect x="0" y="215.728" fill="none" width="69.126" height="21.762"/>
		
			<text transform="matrix(1 0 0 1 10.2406 230.2098)" enable-background="new    " font-family="'Roboto-Light'" font-size="12.0001">Partner Y<v:paragraph  v:horizAlign="1"></v:paragraph><v:tabList></v:tabList></text>
	</g>
	<g id="shape662-83" transform="translate(381.974,-69.8804) rotate(30.3701)">
		<title>Tabelle.662</title>
		
			<path fill="none" stroke="#000000" stroke-width="0.75" stroke-linecap="round" stroke-linejoin="round" stroke-miterlimit="3" d="
			M0,237.489l40.08,0.001"/>
	</g>
	<g id="shape483-86" transform="translate(203.922,-143.403) rotate(23.2469)">
		<title>Tabelle.483</title>
		
			<path fill="none" stroke="#000000" stroke-width="0.75" stroke-linecap="round" stroke-linejoin="round" stroke-miterlimit="3" d="
			M0,237.489l60.27,0.001"/>
	</g>
	<g id="group663-89" transform="translate(1.26706,-27.6052)">
		<title>Tabelle.663</title>
		<g id="group664-90">
			<title>Zeichenblatt-1</title>
			<g id="group665-91" transform="translate(0,-9.03782)">
				<v:userDefs>
					<v:ud  v:val="VT0(0):5" v:prompt="" v:nameU="CTypeTopLeftSnip"></v:ud>
					<v:ud  v:val="VT0(0):5" v:prompt="" v:nameU="CTypeTopRightSnip"></v:ud>
					<v:ud  v:val="VT0(0):5" v:prompt="" v:nameU="CTypeBotLeftSnip"></v:ud>
					<v:ud  v:val="VT0(0):5" v:prompt="" v:nameU="CTypeBotRightSnip"></v:ud>
					<v:ud  v:val="VT0(1):5" v:prompt="" v:nameU="CornerLockHoriz"></v:ud>
					<v:ud  v:val="VT0(1):5" v:prompt="" v:nameU="CornerLockVert"></v:ud>
					<v:ud  v:val="VT0(0):5" v:prompt="" v:nameU="CornerLockDiag"></v:ud>
					<v:ud  v:val="VT0(0):26" v:prompt="" v:nameU="TopLeftOffset"></v:ud>
					<v:ud  v:val="VT0(0):26" v:prompt="" v:nameU="TopRightOffset"></v:ud>
					<v:ud  v:val="VT0(0):26" v:prompt="" v:nameU="BotLeftOffset"></v:ud>
					<v:ud  v:val="VT0(0):26" v:prompt="" v:nameU="BotRightOffset"></v:ud>
					<v:ud  v:val="VT0(15):26" v:prompt="" v:nameU="visVersion"></v:ud>
				</v:userDefs>
				<title>Abgerundetes Rechteck</title>
				<g id="shape666-92">
					<title>Tabelle.666</title>
					<path d="M118.551,237.49H3.03c-1.67,0-3.029-1.36-3.029-3.03v-64.68c0-1.671,1.359-3.03,3.029-3.03h115.521
						c1.68,0,3.04,1.359,3.04,3.03v64.68C121.591,236.13,120.23,237.49,118.551,237.49z M6.07,231.42h109.45V172.82H6.07V231.42z"/>
				</g>
			</g>
			<g id="group667-94" transform="translate(56.3867,-0.817006)">
				<v:userDefs>
					<v:ud  v:val="VT0(15):26" v:nameU="visVersion"></v:ud>
				</v:userDefs>
				<title>Rechteck</title>
				<g id="group668-95">
					<title>Tabelle.668</title>
					<g id="shape669-96" transform="translate(0.0728137,-0.0728137)">
						<title>Tabelle.669</title>
						<rect x="0" y="224.591" width="6.02" height="12.899"/>
					</g>
					<g id="shape670-98">
						<title>Tabelle.670</title>
						<path d="M6.091,237.49H0.07c-0.04,0-0.069-0.03-0.069-0.07v-12.9c0-0.04,0.029-0.08,0.069-0.08h6.021
							c0.04,0,0.08,0.04,0.08,0.08v12.9C6.171,237.46,6.131,237.49,6.091,237.49z M0.15,237.34h5.87v-12.75H0.15V237.34z"/>
					</g>
				</g>
			</g>
			<g id="group671-100" transform="translate(32.9516,0)">
				<v:userDefs>
					<v:ud  v:val="VT0(15):26" v:nameU="visVersion"></v:ud>
				</v:userDefs>
				<title>Rechteck.71</title>
				<g id="group672-101">
					<title>Tabelle.672</title>
					<g id="shape673-102" transform="translate(0.0728137,-0.0728137)">
						<title>Tabelle.673</title>
						<rect x="0.001" y="234.48" width="54.094" height="3.01"/>
					</g>
					<g id="shape674-104">
						<title>Tabelle.674</title>
						<path d="M54.17,237.49h-54.1c-0.04,0-0.07-0.029-0.07-0.069v-3.011c0-0.04,0.03-0.08,0.07-0.08h54.1
							c0.04,0,0.07,0.04,0.07,0.08v3.011C54.241,237.46,54.21,237.49,54.17,237.49z M0.151,237.34H54.09v-2.86H0.151V237.34z"/>
					</g>
				</g>
			</g>
		</g>
	</g>
	<g id="shape675-106" transform="translate(27.4975,-107.636)">
		<title>Tabelle.675</title>
		<desc>Heim-PC</desc>
		<v:textBlock  v:tabSpace="42.5197" v:margins="rect(4,4,4,4)"></v:textBlock>
		<v:textRect  width="69.13" height="21.7621" cy="226.609" cx="34.563"></v:textRect>
		<rect x="0.001" y="215.729" fill="none" width="69.126" height="21.762"/>
		<text transform="matrix(1 0 0 1 11.2503 230.21)" enable-background="new    " font-family="'Roboto-Light'" font-size="12.0001">Heim-PC<v:paragraph  v:horizAlign="1"></v:paragraph><v:tabList></v:tabList></text>
	</g>
	<g id="shape677-109" transform="translate(245.92,353.48) rotate(156.907)">
		<title>Tabelle.677</title>
		
			<path fill="none" stroke="#000000" stroke-width="0.75" stroke-linecap="round" stroke-linejoin="round" stroke-miterlimit="3" d="
			M0,237.49l32.52,0"/>
	</g>
	<g id="group679-112" transform="translate(43.6633,-106.721)">
		<title>Tabelle.679</title>
		<g id="group680-113">
			<title>Layer_2</title>
			<g id="group681-114" transform="translate(0,-25.7364)">
				<title>Tabelle.681</title>
				<g id="shape682-115" transform="translate(1.85306,-1.85279)">
					<title>Tabelle.682</title>
					<ellipse fill="#FFFFFF" cx="37.425" cy="200.065" rx="37.424" ry="37.424"/>
				</g>
				<g id="shape683-117">
					<title>Tabelle.683</title>
					<path fill="#808285" d="M39.28,237.49C17.62,237.49,0,219.87,0,198.21s17.62-39.28,39.28-39.28s39.271,17.62,39.271,39.28
						S60.94,237.49,39.28,237.49z M39.28,162.64c-19.62,0-35.57,15.96-35.57,35.57c0,19.62,15.95,35.57,35.57,35.57
						c19.61,0,35.57-15.95,35.57-35.57C74.851,178.6,58.891,162.64,39.28,162.64z"/>
				</g>
			</g>
			<g id="shape684-119" transform="translate(235.146,364.61) rotate(135)">
				<title>Tabelle.684</title>
				<rect x="0" y="188.269" fill="#808285" width="8.495" height="49.22"/>
			</g>
		</g>
	</g>
	<g id="group696-121" transform="translate(79.0051,-173.087)">
		<title>Tabelle.696</title>
		<g id="group697-122">
			<title>Zeichenblatt-1</title>
			<g id="group698-123">
				<title>Tabelle.44</title>
				<g id="group699-124">
					<title>Tabelle.699</title>
					<g id="shape700-125" transform="translate(0.00298007,-0.00178804)">
						<title>Tabelle.700</title>
						<path d="M14.17,236.74v-4.49h-1.5v4.49H14.17z M14.17,230.74v-4.5h-1.5v4.5H14.17z M12.67,224.74h1.5v-1.42
							c0-0.16-0.05-0.32-0.149-0.46l-1.851-2.45l-1.199,0.9l1.689,2.26L12.67,224.74z M10.52,219.21h-4.51v1.5h4.51V219.21z
							 M4.511,220.71v-1.5H0.75c-0.409,0-0.75,0.341-0.75,0.75v0.75H4.511z M0,222.21v4.5h1.5v-4.5H0z M0,228.21v4.5h1.5v-4.5H0z
							 M1.5,234.21H0v2.53c0,0.42,0.341,0.75,0.75,0.75h1.971v-1.5H1.5V234.21z M4.23,237.49h4.5v-1.5h-4.5V237.49z M10.24,237.49
							h3.18v-1.5h-3.18V237.49z"/>
						<path fill="none" d="M14.17,236.74v-4.49h-1.5v4.49H14.17 M14.17,230.74v-4.5h-1.5v4.5H14.17 M12.67,224.74h1.5v-1.42
							c0-0.16-0.05-0.32-0.149-0.46l-1.851-2.45l-1.199,0.9l1.689,2.26 M10.52,219.21h-4.51v1.5h4.51V219.21 M4.511,220.71v-1.5
							H0.75c-0.409,0-0.75,0.341-0.75,0.75v0.75 M0,222.21v4.5h1.5v-4.5H0 M0,228.21v4.5h1.5v-4.5H0 M1.5,234.21H0v2.53
							c0,0.42,0.341,0.75,0.75,0.75h1.971v-1.5H1.5 M4.23,237.49h4.5v-1.5h-4.5V237.49 M10.24,237.49h3.18v-1.5h-3.18V237.49"/>
					</g>
					<g id="shape701-128">
						<title>Tabelle.701</title>
						<path d="M13.42,237.49h-3.18l0,0v-1.5l0,0h2.43v-3.75l0,0h1.5l0,0v4.5l0,0h-0.75V237.49L13.42,237.49z M10.24,237.49h3.18
							v-0.74h-0.75v-0.01v-0.75h-2.43V237.49z M13.42,236.74h0.75v-4.49h-1.5v3.74h0.75l0,0V236.74z M12.67,236.74h0.75v-0.75h-0.75
							V236.74z M8.73,237.49h-4.5l0,0v-1.5l0,0h4.51l0,0v1.5C8.74,237.49,8.74,237.49,8.73,237.49z M4.23,237.49h4.5v-1.5h-4.5
							V237.49z M2.73,237.49H0.75c-0.41,0-0.75-0.34-0.75-0.75v-2.53l0,0h1.5c0.011,0,0.011,0,0.011,0v1.78h1.22l0,0V237.49
							L2.73,237.49z M1.5,235.99v-1.78H0.011v2.53c0,0.41,0.329,0.75,0.739,0.75h1.971v-1.5h-1.21H1.5z M1.5,232.71H0l0,0v-4.5
							v-0.01h1.5c0.011,0,0.011,0.01,0.011,0.01v4.5C1.511,232.71,1.511,232.71,1.5,232.71z M0.011,232.71H1.5v-4.5H0.011V232.71z
							 M14.17,230.74h-1.5l0,0v-4.5l0,0h1.5l0,0V230.74L14.17,230.74z M12.67,230.74h1.5v-4.5h-1.5V230.74z M1.5,226.71H0l0,0v-4.5
							l0,0h1.5c0.011,0,0.011,0,0.011,0v4.5C1.511,226.71,1.511,226.71,1.5,226.71z M0.011,226.71H1.5v-4.5H0.011V226.71z
							 M14.17,224.74h-1.5l0,0v-1.17l-1.699-2.26l0,0l1.199-0.9l0,0l1.851,2.45c0.1,0.13,0.149,0.29,0.149,0.45V224.74L14.17,224.74
							z M1.5,220.71H0l0,0v-0.75c0-0.41,0.34-0.75,0.75-0.75h3.761l0,0v1.49c0,0.01,0,0.01,0,0.01h-3l0,0
							C1.511,220.71,1.511,220.71,1.5,220.71z M1.511,220.7h3v-1.49H0.75c-0.41,0-0.739,0.34-0.739,0.75v0.75L1.511,220.7z
							 M10.521,220.71h-4.51c0,0,0,0,0-0.01v-1.49l0,0h4.51l0,0v1.49C10.53,220.71,10.521,220.71,10.521,220.71z M6.011,220.7h4.51
							v-1.49h-4.51V220.7z"/>
						<path fill="none" d="M13.42,237.49h-3.18l0,0v-1.5l0,0h2.43v-3.75l0,0h1.5l0,0v4.5l0,0h-0.75V237.49L13.42,237.49
							 M10.24,237.49h3.18v-0.74h-0.75v-0.01v-0.75h-2.43V237.49 M13.42,236.74h0.75v-4.49h-1.5v3.74h0.75l0,0V236.74 M12.67,236.74
							h0.75v-0.75h-0.75V236.74 M8.73,237.49h-4.5l0,0v-1.5l0,0h4.51l0,0v1.5C8.74,237.49,8.74,237.49,8.73,237.49 M4.23,237.49h4.5
							v-1.5h-4.5V237.49 M2.73,237.49H0.75c-0.41,0-0.75-0.34-0.75-0.75v-2.53l0,0h1.5c0.011,0,0.011,0,0.011,0v1.78h1.22l0,0
							V237.49L2.73,237.49 M1.5,235.99v-1.78H0.011v2.53c0,0.41,0.329,0.75,0.739,0.75h1.971v-1.5h-1.21 M1.5,232.71H0l0,0v-4.5
							v-0.01h1.5c0.011,0,0.011,0.01,0.011,0.01v4.5C1.511,232.71,1.511,232.71,1.5,232.71 M0.011,232.71H1.5v-4.5H0.011V232.71
							 M14.17,230.74h-1.5l0,0v-4.5l0,0h1.5l0,0V230.74L14.17,230.74 M12.67,230.74h1.5v-4.5h-1.5V230.74 M1.5,226.71H0l0,0v-4.5
							l0,0h1.5c0.011,0,0.011,0,0.011,0v4.5C1.511,226.71,1.511,226.71,1.5,226.71 M0.011,226.71H1.5v-4.5H0.011V226.71
							 M14.17,224.74h-1.5l0,0v-1.17l-1.699-2.26l0,0l1.199-0.9l0,0l1.851,2.45c0.1,0.13,0.149,0.29,0.149,0.45V224.74L14.17,224.74
							 M1.5,220.71H0l0,0v-0.75c0-0.41,0.34-0.75,0.75-0.75h3.761l0,0v1.49c0,0.01,0,0.01,0,0.01h-3l0,0
							C1.511,220.71,1.511,220.71,1.5,220.71 M1.511,220.7h3v-1.49H0.75c-0.41,0-0.739,0.34-0.739,0.75v0.75 M10.521,220.71h-4.51
							c0,0,0,0,0-0.01v-1.49l0,0h4.51l0,0v1.49C10.53,220.71,10.521,220.71,10.521,220.71 M6.011,220.7h4.51v-1.49h-4.51V220.7"/>
					</g>
				</g>
			</g>
			<g id="shape702-131" transform="translate(10.2433,-0.00432219)">
				<title>Tabelle.702</title>
				<path d="M2.431,232.25h1.49v4.489h-0.75v0.75H0V236l2.421-0.011L2.431,232.25z"/>
			</g>
		</g>
	</g>
	<g id="group703-133" transform="translate(96.013,-173.087)">
		<title>Tabelle.703</title>
		<g id="group704-134">
			<title>Zeichenblatt-1</title>
			<g id="group705-135">
				<title>Tabelle.44</title>
				<g id="group706-136">
					<title>Tabelle.706</title>
					<g id="shape707-137" transform="translate(0.00298007,-0.00178804)">
						<title>Tabelle.707</title>
						<path d="M14.171,236.74v-4.49h-1.5v4.49H14.171z M14.171,230.74v-4.5h-1.5v4.5H14.171z M12.671,224.74h1.5v-1.42
							c0-0.16-0.051-0.32-0.15-0.46l-1.85-2.45l-1.2,0.9l1.689,2.26L12.671,224.74z M10.52,219.21h-4.51v1.5h4.51V219.21z
							 M4.511,220.71v-1.5H0.75c-0.409,0-0.75,0.341-0.75,0.75v0.75H4.511z M0,222.21v4.5h1.5v-4.5H0z M0,228.21v4.5h1.5v-4.5H0z
							 M1.5,234.21H0v2.53c0,0.42,0.341,0.75,0.75,0.75h1.971v-1.5H1.5V234.21z M4.23,237.49h4.5v-1.5h-4.5V237.49z M10.24,237.49
							h3.181v-1.5H10.24V237.49z"/>
						<path fill="none" d="M14.171,236.74v-4.49h-1.5v4.49H14.171 M14.171,230.74v-4.5h-1.5v4.5H14.171 M12.671,224.74h1.5v-1.42
							c0-0.16-0.051-0.32-0.15-0.46l-1.85-2.45l-1.2,0.9l1.689,2.26 M10.52,219.21h-4.51v1.5h4.51V219.21 M4.511,220.71v-1.5H0.75
							c-0.409,0-0.75,0.341-0.75,0.75v0.75 M0,222.21v4.5h1.5v-4.5H0 M0,228.21v4.5h1.5v-4.5H0 M1.5,234.21H0v2.53
							c0,0.42,0.341,0.75,0.75,0.75h1.971v-1.5H1.5 M4.23,237.49h4.5v-1.5h-4.5V237.49 M10.24,237.49h3.181v-1.5H10.24V237.49"/>
					</g>
					<g id="shape708-140">
						<title>Tabelle.708</title>
						<path d="M13.42,237.49h-3.18l0,0v-1.5l0,0h2.43v-3.75l0,0h1.5l0,0v4.5l0,0h-0.75V237.49L13.42,237.49z M10.24,237.49h3.18
							v-0.74h-0.75v-0.01v-0.75h-2.43V237.49z M13.42,236.74h0.75v-4.49h-1.5v3.74h0.75l0,0V236.74z M12.67,236.74h0.75v-0.75h-0.75
							V236.74z M8.73,237.49h-4.5l0,0v-1.5l0,0h4.51l0,0v1.5C8.74,237.49,8.74,237.49,8.73,237.49z M4.23,237.49h4.5v-1.5h-4.5
							V237.49z M2.73,237.49H0.75c-0.409,0-0.75-0.34-0.75-0.75v-2.53l0,0h1.5c0.011,0,0.011,0,0.011,0v1.78h1.22l0,0V237.49
							L2.73,237.49z M1.5,235.99v-1.78H0.011v2.53c0,0.41,0.33,0.75,0.739,0.75h1.971v-1.5h-1.21H1.5z M1.5,232.71H0l0,0v-4.5v-0.01
							h1.5c0.011,0,0.011,0.01,0.011,0.01v4.5C1.511,232.71,1.511,232.71,1.5,232.71z M0.011,232.71H1.5v-4.5H0.011V232.71z
							 M14.17,230.74h-1.5l0,0v-4.5l0,0h1.5l0,0V230.74L14.17,230.74z M12.67,230.74h1.5v-4.5h-1.5V230.74z M1.5,226.71H0l0,0v-4.5
							l0,0h1.5c0.011,0,0.011,0,0.011,0v4.5C1.511,226.71,1.511,226.71,1.5,226.71z M0.011,226.71H1.5v-4.5H0.011V226.71z
							 M14.17,224.74h-1.5l0,0v-1.17l-1.699-2.26l0,0l1.199-0.9l0,0l1.851,2.45c0.1,0.13,0.149,0.29,0.149,0.45V224.74L14.17,224.74
							z M1.5,220.71H0l0,0v-0.75c0-0.41,0.341-0.75,0.75-0.75h3.761l0,0v1.49c0,0.01,0,0.01,0,0.01h-3l0,0
							C1.511,220.71,1.511,220.71,1.5,220.71z M1.511,220.7h3v-1.49H0.75c-0.409,0-0.739,0.34-0.739,0.75v0.75L1.511,220.7z
							 M10.52,220.71h-4.51c0,0,0,0,0-0.01v-1.49l0,0h4.51l0,0v1.49C10.53,220.71,10.52,220.71,10.52,220.71z M6.011,220.7h4.51
							v-1.49h-4.51V220.7z"/>
						<path fill="none" d="M13.42,237.49h-3.18l0,0v-1.5l0,0h2.43v-3.75l0,0h1.5l0,0v4.5l0,0h-0.75V237.49L13.42,237.49
							 M10.24,237.49h3.18v-0.74h-0.75v-0.01v-0.75h-2.43V237.49 M13.42,236.74h0.75v-4.49h-1.5v3.74h0.75l0,0V236.74 M12.67,236.74
							h0.75v-0.75h-0.75V236.74 M8.73,237.49h-4.5l0,0v-1.5l0,0h4.51l0,0v1.5C8.74,237.49,8.74,237.49,8.73,237.49 M4.23,237.49h4.5
							v-1.5h-4.5V237.49 M2.73,237.49H0.75c-0.409,0-0.75-0.34-0.75-0.75v-2.53l0,0h1.5c0.011,0,0.011,0,0.011,0v1.78h1.22l0,0
							V237.49L2.73,237.49 M1.5,235.99v-1.78H0.011v2.53c0,0.41,0.33,0.75,0.739,0.75h1.971v-1.5h-1.21 M1.5,232.71H0l0,0v-4.5
							v-0.01h1.5c0.011,0,0.011,0.01,0.011,0.01v4.5C1.511,232.71,1.511,232.71,1.5,232.71 M0.011,232.71H1.5v-4.5H0.011V232.71
							 M14.17,230.74h-1.5l0,0v-4.5l0,0h1.5l0,0V230.74L14.17,230.74 M12.67,230.74h1.5v-4.5h-1.5V230.74 M1.5,226.71H0l0,0v-4.5
							l0,0h1.5c0.011,0,0.011,0,0.011,0v4.5C1.511,226.71,1.511,226.71,1.5,226.71 M0.011,226.71H1.5v-4.5H0.011V226.71
							 M14.17,224.74h-1.5l0,0v-1.17l-1.699-2.26l0,0l1.199-0.9l0,0l1.851,2.45c0.1,0.13,0.149,0.29,0.149,0.45V224.74L14.17,224.74
							 M1.5,220.71H0l0,0v-0.75c0-0.41,0.341-0.75,0.75-0.75h3.761l0,0v1.49c0,0.01,0,0.01,0,0.01h-3l0,0
							C1.511,220.71,1.511,220.71,1.5,220.71 M1.511,220.7h3v-1.49H0.75c-0.409,0-0.739,0.34-0.739,0.75v0.75 M10.52,220.71h-4.51
							c0,0,0,0,0-0.01v-1.49l0,0h4.51l0,0v1.49C10.53,220.71,10.52,220.71,10.52,220.71 M6.011,220.7h4.51v-1.49h-4.51V220.7"/>
					</g>
				</g>
			</g>
			<g id="shape709-143" transform="translate(10.2433,-0.00432219)">
				<title>Tabelle.709</title>
				<path d="M2.43,232.25h1.49v4.489h-0.75v0.75h-3.17V236l2.42-0.011L2.43,232.25z"/>
			</g>
		</g>
	</g>
	<g id="group724-145" transform="translate(82.4012,-176.6)">
		<title>Tabelle.724</title>
		<g id="group725-146">
			<title>Zeichenblatt-1</title>
			<g id="group726-147" transform="translate(0.781821,-0.781821)">
				<title>Tabelle.84</title>
				<g id="shape727-148">
					<title>Tabelle.727</title>
					<path d="M0.001,232.86v4.63h6.09v-4.63H0.001z"/>
				</g>
			</g>
			<g id="group728-150">
				<title>Tabelle.85</title>
				<g id="shape729-151">
					<title>Tabelle.729</title>
					<path d="M6.87,237.49h-6.09c-0.431,0-0.78-0.351-0.78-0.78v-4.63c0-0.43,0.35-0.78,0.78-0.78h6.09
						c0.439,0,0.79,0.351,0.79,0.78v4.63C7.661,237.14,7.31,237.49,6.87,237.49z M1.56,235.93h4.53v-3.069H1.56V235.93z"/>
				</g>
			</g>
			<g id="group730-153" transform="translate(1.56447,-7.70073)">
				<title>Tabelle.86</title>
				<g id="shape731-154">
					<title>Tabelle.731</title>
					<path d="M0,237.49c0-1.25,1.02-2.26,2.26-2.26c1.26,0,2.271,1.01,2.271,2.26h-1.13c0-0.62-0.511-1.13-1.141-1.13
						c-0.62,0-1.13,0.51-1.13,1.13H0z"/>
				</g>
			</g>
		</g>
		<g id="group732-156" transform="translate(1.56442,-5.00901)">
			<title>Tabelle.90</title>
			<g id="shape733-157">
				<title>Tabelle.733</title>
				<path d="M0,234.89v2.6h1.13v-2.72H0V234.89z"/>
			</g>
		</g>
		<g id="group734-159" transform="translate(4.96131,-5.00901)">
			<title>Tabelle.734</title>
			<g id="shape735-160">
				<title>Tabelle.735</title>
				<path d="M0,234.89v2.6h1.13v-2.72H0V234.89z"/>
			</g>
		</g>
		<g id="shape736-162" transform="translate(2.86806,-3.05898)">
			<title>Tabelle.736</title>
			<ellipse fill="#FFFFFF" cx="0.96" cy="236.529" rx="0.96" ry="0.96"/>
		</g>
		<g id="shape737-164" transform="translate(3.33348,-1.13819)">
			<title>Tabelle.737</title>
			<path fill="#FFFFFF" d="M0.99,237c0,0.271-0.22,0.49-0.5,0.49c-0.27,0-0.49-0.22-0.49-0.49V235.1c0-0.271,0.221-0.49,0.49-0.49
				c0.28,0,0.5,0.22,0.5,0.49V237z"/>
		</g>
	</g>
	<g id="group738-166" transform="translate(99.4005,-176.6)">
		<title>Tabelle.738</title>
		<g id="group739-167">
			<title>Zeichenblatt-1</title>
			<g id="group740-168" transform="translate(0.781821,-0.781821)">
				<title>Tabelle.84</title>
				<g id="shape741-169">
					<title>Tabelle.741</title>
					<path d="M0.001,232.86v4.63h6.09v-4.63H0.001z"/>
				</g>
			</g>
			<g id="group742-171">
				<title>Tabelle.85</title>
				<g id="shape743-172">
					<title>Tabelle.743</title>
					<path d="M6.87,237.49H0.78c-0.43,0-0.78-0.351-0.78-0.78v-4.63c0-0.43,0.351-0.78,0.78-0.78h6.09c0.44,0,0.79,0.351,0.79,0.78
						v4.63C7.66,237.14,7.311,237.49,6.87,237.49z M1.561,235.93H6.09v-3.069H1.561V235.93z"/>
				</g>
			</g>
			<g id="group744-174" transform="translate(1.56447,-7.70073)">
				<title>Tabelle.86</title>
				<g id="shape745-175">
					<title>Tabelle.745</title>
					<path d="M0,237.49c0-1.25,1.021-2.26,2.26-2.26c1.261,0,2.271,1.01,2.271,2.26H3.4c0-0.62-0.51-1.13-1.141-1.13
						c-0.619,0-1.13,0.51-1.13,1.13H0z"/>
				</g>
			</g>
		</g>
		<g id="group746-177" transform="translate(1.56442,-5.00901)">
			<title>Tabelle.90</title>
			<g id="shape747-178">
				<title>Tabelle.747</title>
				<path d="M0,234.89v2.6h1.13v-2.72H0V234.89z"/>
			</g>
		</g>
		<g id="group748-180" transform="translate(4.96131,-5.00901)">
			<title>Tabelle.748</title>
			<g id="shape749-181">
				<title>Tabelle.749</title>
				<path d="M0.001,234.89v2.6h1.13v-2.72h-1.13V234.89z"/>
			</g>
		</g>
		<g id="shape750-183" transform="translate(2.86806,-3.05898)">
			<title>Tabelle.750</title>
			<ellipse fill="#FFFFFF" cx="0.961" cy="236.529" rx="0.96" ry="0.96"/>
		</g>
		<g id="shape751-185" transform="translate(3.33348,-1.13819)">
			<title>Tabelle.751</title>
			<path fill="#FFFFFF" d="M0.99,237c0,0.271-0.22,0.49-0.5,0.49c-0.27,0-0.489-0.22-0.489-0.49V235.1c0-0.271,0.22-0.49,0.489-0.49
				c0.28,0,0.5,0.22,0.5,0.49V237z"/>
		</g>
	</g>
	<g id="group773-187" transform="translate(79.0051,-152.465)">
		<title>Tabelle.773</title>
		<g id="group774-188">
			<title>Zeichenblatt-1</title>
			<g id="group775-189">
				<title>Tabelle.44</title>
				<g id="group776-190">
					<title>Tabelle.776</title>
					<g id="shape777-191" transform="translate(0.00298007,-0.00178804)">
						<title>Tabelle.777</title>
						<path d="M14.17,236.74v-4.49h-1.5v4.49H14.17z M14.17,230.74v-4.5h-1.5v4.5H14.17z M12.67,224.74h1.5v-1.42
							c0-0.16-0.05-0.32-0.149-0.46l-1.851-2.45l-1.199,0.9l1.689,2.26L12.67,224.74z M10.52,219.21h-4.51v1.5h4.51V219.21z
							 M4.511,220.71v-1.5H0.75c-0.409,0-0.75,0.341-0.75,0.75v0.75H4.511z M0,222.21v4.5h1.5v-4.5H0z M0,228.21v4.5h1.5v-4.5H0z
							 M1.5,234.21H0v2.53c0,0.42,0.341,0.75,0.75,0.75h1.971v-1.5H1.5V234.21z M4.23,237.49h4.5v-1.5h-4.5V237.49z M10.24,237.49
							h3.18v-1.5h-3.18V237.49z"/>
						<path fill="none" d="M14.17,236.74v-4.49h-1.5v4.49H14.17 M14.17,230.74v-4.5h-1.5v4.5H14.17 M12.67,224.74h1.5v-1.42
							c0-0.16-0.05-0.32-0.149-0.46l-1.851-2.45l-1.199,0.9l1.689,2.26 M10.52,219.21h-4.51v1.5h4.51V219.21 M4.511,220.71v-1.5
							H0.75c-0.409,0-0.75,0.341-0.75,0.75v0.75 M0,222.21v4.5h1.5v-4.5H0 M0,228.21v4.5h1.5v-4.5H0 M1.5,234.21H0v2.53
							c0,0.42,0.341,0.75,0.75,0.75h1.971v-1.5H1.5 M4.23,237.49h4.5v-1.5h-4.5V237.49 M10.24,237.49h3.18v-1.5h-3.18V237.49"/>
					</g>
					<g id="shape778-194">
						<title>Tabelle.778</title>
						<path d="M13.42,237.49h-3.18l0,0v-1.5l0,0h2.43v-3.75l0,0h1.5l0,0v4.5l0,0h-0.75V237.49L13.42,237.49z M10.24,237.49h3.18
							v-0.74h-0.75v-0.01v-0.75h-2.43V237.49z M13.42,236.74h0.75v-4.49h-1.5v3.74h0.75l0,0V236.74z M12.67,236.74h0.75v-0.75h-0.75
							V236.74z M8.73,237.49h-4.5l0,0v-1.5l0,0h4.51l0,0v1.5C8.74,237.49,8.74,237.49,8.73,237.49z M4.23,237.49h4.5v-1.5h-4.5
							V237.49z M2.73,237.49H0.75c-0.41,0-0.75-0.34-0.75-0.75v-2.53l0,0h1.5c0.011,0,0.011,0,0.011,0v1.78h1.22l0,0V237.49
							L2.73,237.49z M1.5,235.99v-1.78H0.011v2.53c0,0.41,0.329,0.75,0.739,0.75h1.971v-1.5h-1.21H1.5z M1.5,232.71H0l0,0v-4.5
							v-0.01h1.5c0.011,0,0.011,0.01,0.011,0.01v4.5C1.511,232.71,1.511,232.71,1.5,232.71z M0.011,232.71H1.5v-4.5H0.011V232.71z
							 M14.17,230.74h-1.5l0,0v-4.5l0,0h1.5l0,0V230.74L14.17,230.74z M12.67,230.74h1.5v-4.5h-1.5V230.74z M1.5,226.71H0l0,0v-4.5
							l0,0h1.5c0.011,0,0.011,0,0.011,0v4.5C1.511,226.71,1.511,226.71,1.5,226.71z M0.011,226.71H1.5v-4.5H0.011V226.71z
							 M14.17,224.74h-1.5l0,0v-1.17l-1.699-2.26l0,0l1.199-0.9l0,0l1.851,2.45c0.1,0.13,0.149,0.29,0.149,0.45V224.74L14.17,224.74
							z M1.5,220.71H0l0,0v-0.75c0-0.41,0.34-0.75,0.75-0.75h3.761l0,0v1.49c0,0.01,0,0.01,0,0.01h-3l0,0
							C1.511,220.71,1.511,220.71,1.5,220.71z M1.511,220.7h3v-1.49H0.75c-0.41,0-0.739,0.34-0.739,0.75v0.75L1.511,220.7z
							 M10.521,220.71h-4.51c0,0,0,0,0-0.01v-1.49l0,0h4.51l0,0v1.49C10.53,220.71,10.521,220.71,10.521,220.71z M6.011,220.7h4.51
							v-1.49h-4.51V220.7z"/>
						<path fill="none" d="M13.42,237.49h-3.18l0,0v-1.5l0,0h2.43v-3.75l0,0h1.5l0,0v4.5l0,0h-0.75V237.49L13.42,237.49
							 M10.24,237.49h3.18v-0.74h-0.75v-0.01v-0.75h-2.43V237.49 M13.42,236.74h0.75v-4.49h-1.5v3.74h0.75l0,0V236.74 M12.67,236.74
							h0.75v-0.75h-0.75V236.74 M8.73,237.49h-4.5l0,0v-1.5l0,0h4.51l0,0v1.5C8.74,237.49,8.74,237.49,8.73,237.49 M4.23,237.49h4.5
							v-1.5h-4.5V237.49 M2.73,237.49H0.75c-0.41,0-0.75-0.34-0.75-0.75v-2.53l0,0h1.5c0.011,0,0.011,0,0.011,0v1.78h1.22l0,0
							V237.49L2.73,237.49 M1.5,235.99v-1.78H0.011v2.53c0,0.41,0.329,0.75,0.739,0.75h1.971v-1.5h-1.21 M1.5,232.71H0l0,0v-4.5
							v-0.01h1.5c0.011,0,0.011,0.01,0.011,0.01v4.5C1.511,232.71,1.511,232.71,1.5,232.71 M0.011,232.71H1.5v-4.5H0.011V232.71
							 M14.17,230.74h-1.5l0,0v-4.5l0,0h1.5l0,0V230.74L14.17,230.74 M12.67,230.74h1.5v-4.5h-1.5V230.74 M1.5,226.71H0l0,0v-4.5
							l0,0h1.5c0.011,0,0.011,0,0.011,0v4.5C1.511,226.71,1.511,226.71,1.5,226.71 M0.011,226.71H1.5v-4.5H0.011V226.71
							 M14.17,224.74h-1.5l0,0v-1.17l-1.699-2.26l0,0l1.199-0.9l0,0l1.851,2.45c0.1,0.13,0.149,0.29,0.149,0.45V224.74L14.17,224.74
							 M1.5,220.71H0l0,0v-0.75c0-0.41,0.34-0.75,0.75-0.75h3.761l0,0v1.49c0,0.01,0,0.01,0,0.01h-3l0,0
							C1.511,220.71,1.511,220.71,1.5,220.71 M1.511,220.7h3v-1.49H0.75c-0.41,0-0.739,0.34-0.739,0.75v0.75 M10.521,220.71h-4.51
							c0,0,0,0,0-0.01v-1.49l0,0h4.51l0,0v1.49C10.53,220.71,10.521,220.71,10.521,220.71 M6.011,220.7h4.51v-1.49h-4.51V220.7"/>
					</g>
				</g>
			</g>
			<g id="shape779-197" transform="translate(10.2433,-0.00432219)">
				<title>Tabelle.779</title>
				<path d="M2.431,232.25h1.49v4.489h-0.75v0.75H0V236l2.421-0.011L2.431,232.25z"/>
			</g>
		</g>
	</g>
	<g id="group780-199" transform="translate(96.013,-152.465)">
		<title>Tabelle.780</title>
		<g id="group781-200">
			<title>Zeichenblatt-1</title>
			<g id="group782-201">
				<title>Tabelle.44</title>
				<g id="group783-202">
					<title>Tabelle.783</title>
					<g id="shape784-203" transform="translate(0.00298007,-0.00178804)">
						<title>Tabelle.784</title>
						<path d="M14.171,236.74v-4.49h-1.5v4.49H14.171z M14.171,230.74v-4.5h-1.5v4.5H14.171z M12.671,224.74h1.5v-1.42
							c0-0.16-0.051-0.32-0.15-0.46l-1.85-2.45l-1.2,0.9l1.689,2.26L12.671,224.74z M10.52,219.21h-4.51v1.5h4.51V219.21z
							 M4.511,220.71v-1.5H0.75c-0.409,0-0.75,0.341-0.75,0.75v0.75H4.511z M0,222.21v4.5h1.5v-4.5H0z M0,228.21v4.5h1.5v-4.5H0z
							 M1.5,234.21H0v2.53c0,0.42,0.341,0.75,0.75,0.75h1.971v-1.5H1.5V234.21z M4.23,237.49h4.5v-1.5h-4.5V237.49z M10.24,237.49
							h3.181v-1.5H10.24V237.49z"/>
						<path fill="none" d="M14.171,236.74v-4.49h-1.5v4.49H14.171 M14.171,230.74v-4.5h-1.5v4.5H14.171 M12.671,224.74h1.5v-1.42
							c0-0.16-0.051-0.32-0.15-0.46l-1.85-2.45l-1.2,0.9l1.689,2.26 M10.52,219.21h-4.51v1.5h4.51V219.21 M4.511,220.71v-1.5H0.75
							c-0.409,0-0.75,0.341-0.75,0.75v0.75 M0,222.21v4.5h1.5v-4.5H0 M0,228.21v4.5h1.5v-4.5H0 M1.5,234.21H0v2.53
							c0,0.42,0.341,0.75,0.75,0.75h1.971v-1.5H1.5 M4.23,237.49h4.5v-1.5h-4.5V237.49 M10.24,237.49h3.181v-1.5H10.24V237.49"/>
					</g>
					<g id="shape785-206">
						<title>Tabelle.785</title>
						<path d="M13.42,237.49h-3.18l0,0v-1.5l0,0h2.43v-3.75l0,0h1.5l0,0v4.5l0,0h-0.75V237.49L13.42,237.49z M10.24,237.49h3.18
							v-0.74h-0.75v-0.01v-0.75h-2.43V237.49z M13.42,236.74h0.75v-4.49h-1.5v3.74h0.75l0,0V236.74z M12.67,236.74h0.75v-0.75h-0.75
							V236.74z M8.73,237.49h-4.5l0,0v-1.5l0,0h4.51l0,0v1.5C8.74,237.49,8.74,237.49,8.73,237.49z M4.23,237.49h4.5v-1.5h-4.5
							V237.49z M2.73,237.49H0.75c-0.409,0-0.75-0.34-0.75-0.75v-2.53l0,0h1.5c0.011,0,0.011,0,0.011,0v1.78h1.22l0,0V237.49
							L2.73,237.49z M1.5,235.99v-1.78H0.011v2.53c0,0.41,0.33,0.75,0.739,0.75h1.971v-1.5h-1.21H1.5z M1.5,232.71H0l0,0v-4.5v-0.01
							h1.5c0.011,0,0.011,0.01,0.011,0.01v4.5C1.511,232.71,1.511,232.71,1.5,232.71z M0.011,232.71H1.5v-4.5H0.011V232.71z
							 M14.17,230.74h-1.5l0,0v-4.5l0,0h1.5l0,0V230.74L14.17,230.74z M12.67,230.74h1.5v-4.5h-1.5V230.74z M1.5,226.71H0l0,0v-4.5
							l0,0h1.5c0.011,0,0.011,0,0.011,0v4.5C1.511,226.71,1.511,226.71,1.5,226.71z M0.011,226.71H1.5v-4.5H0.011V226.71z
							 M14.17,224.74h-1.5l0,0v-1.17l-1.699-2.26l0,0l1.199-0.9l0,0l1.851,2.45c0.1,0.13,0.149,0.29,0.149,0.45V224.74L14.17,224.74
							z M1.5,220.71H0l0,0v-0.75c0-0.41,0.341-0.75,0.75-0.75h3.761l0,0v1.49c0,0.01,0,0.01,0,0.01h-3l0,0
							C1.511,220.71,1.511,220.71,1.5,220.71z M1.511,220.7h3v-1.49H0.75c-0.409,0-0.739,0.34-0.739,0.75v0.75L1.511,220.7z
							 M10.52,220.71h-4.51c0,0,0,0,0-0.01v-1.49l0,0h4.51l0,0v1.49C10.53,220.71,10.52,220.71,10.52,220.71z M6.011,220.7h4.51
							v-1.49h-4.51V220.7z"/>
						<path fill="none" d="M13.42,237.49h-3.18l0,0v-1.5l0,0h2.43v-3.75l0,0h1.5l0,0v4.5l0,0h-0.75V237.49L13.42,237.49
							 M10.24,237.49h3.18v-0.74h-0.75v-0.01v-0.75h-2.43V237.49 M13.42,236.74h0.75v-4.49h-1.5v3.74h0.75l0,0V236.74 M12.67,236.74
							h0.75v-0.75h-0.75V236.74 M8.73,237.49h-4.5l0,0v-1.5l0,0h4.51l0,0v1.5C8.74,237.49,8.74,237.49,8.73,237.49 M4.23,237.49h4.5
							v-1.5h-4.5V237.49 M2.73,237.49H0.75c-0.409,0-0.75-0.34-0.75-0.75v-2.53l0,0h1.5c0.011,0,0.011,0,0.011,0v1.78h1.22l0,0
							V237.49L2.73,237.49 M1.5,235.99v-1.78H0.011v2.53c0,0.41,0.33,0.75,0.739,0.75h1.971v-1.5h-1.21 M1.5,232.71H0l0,0v-4.5
							v-0.01h1.5c0.011,0,0.011,0.01,0.011,0.01v4.5C1.511,232.71,1.511,232.71,1.5,232.71 M0.011,232.71H1.5v-4.5H0.011V232.71
							 M14.17,230.74h-1.5l0,0v-4.5l0,0h1.5l0,0V230.74L14.17,230.74 M12.67,230.74h1.5v-4.5h-1.5V230.74 M1.5,226.71H0l0,0v-4.5
							l0,0h1.5c0.011,0,0.011,0,0.011,0v4.5C1.511,226.71,1.511,226.71,1.5,226.71 M0.011,226.71H1.5v-4.5H0.011V226.71
							 M14.17,224.74h-1.5l0,0v-1.17l-1.699-2.26l0,0l1.199-0.9l0,0l1.851,2.45c0.1,0.13,0.149,0.29,0.149,0.45V224.74L14.17,224.74
							 M1.5,220.71H0l0,0v-0.75c0-0.41,0.341-0.75,0.75-0.75h3.761l0,0v1.49c0,0.01,0,0.01,0,0.01h-3l0,0
							C1.511,220.71,1.511,220.71,1.5,220.71 M1.511,220.7h3v-1.49H0.75c-0.409,0-0.739,0.34-0.739,0.75v0.75 M10.52,220.71h-4.51
							c0,0,0,0,0-0.01v-1.49l0,0h4.51l0,0v1.49C10.53,220.71,10.52,220.71,10.52,220.71 M6.011,220.7h4.51v-1.49h-4.51V220.7"/>
					</g>
				</g>
			</g>
			<g id="shape786-209" transform="translate(10.2433,-0.00432219)">
				<title>Tabelle.786</title>
				<path d="M2.43,232.25h1.49v4.489h-0.75v0.75h-3.17V236l2.42-0.011L2.43,232.25z"/>
			</g>
		</g>
	</g>
	<g id="group787-211" transform="translate(82.4012,-155.979)">
		<title>Tabelle.787</title>
		<g id="group788-212">
			<title>Zeichenblatt-1</title>
			<g id="group789-213" transform="translate(0.781821,-0.781821)">
				<title>Tabelle.84</title>
				<g id="shape790-214">
					<title>Tabelle.790</title>
					<path d="M0.001,232.86v4.63h6.09v-4.63H0.001z"/>
				</g>
			</g>
			<g id="group791-216">
				<title>Tabelle.85</title>
				<g id="shape792-217">
					<title>Tabelle.792</title>
					<path d="M6.87,237.49h-6.09c-0.431,0-0.78-0.351-0.78-0.78v-4.63c0-0.431,0.35-0.78,0.78-0.78h6.09
						c0.439,0,0.79,0.35,0.79,0.78v4.63C7.661,237.14,7.31,237.49,6.87,237.49z M1.56,235.93h4.53v-3.07H1.56V235.93z"/>
				</g>
			</g>
			<g id="group793-219" transform="translate(1.56447,-7.70073)">
				<title>Tabelle.86</title>
				<g id="shape794-220">
					<title>Tabelle.794</title>
					<path d="M0,237.49c0-1.25,1.02-2.26,2.26-2.26c1.26,0,2.271,1.01,2.271,2.26h-1.13c0-0.62-0.511-1.13-1.141-1.13
						c-0.62,0-1.13,0.51-1.13,1.13H0z"/>
				</g>
			</g>
		</g>
		<g id="group795-222" transform="translate(1.56442,-5.00901)">
			<title>Tabelle.90</title>
			<g id="shape796-223">
				<title>Tabelle.796</title>
				<path d="M0,234.89v2.6h1.13v-2.72H0V234.89z"/>
			</g>
		</g>
		<g id="group797-225" transform="translate(4.96131,-5.00901)">
			<title>Tabelle.797</title>
			<g id="shape798-226">
				<title>Tabelle.798</title>
				<path d="M0,234.89v2.6h1.13v-2.72H0V234.89z"/>
			</g>
		</g>
		<g id="shape799-228" transform="translate(2.86806,-3.05898)">
			<title>Tabelle.799</title>
			<ellipse fill="#FFFFFF" cx="0.96" cy="236.529" rx="0.96" ry="0.96"/>
		</g>
		<g id="shape800-230" transform="translate(3.33348,-1.13819)">
			<title>Tabelle.800</title>
			<path fill="#FFFFFF" d="M0.99,237c0,0.271-0.22,0.49-0.5,0.49c-0.27,0-0.49-0.22-0.49-0.49V235.1c0-0.271,0.221-0.49,0.49-0.49
				c0.28,0,0.5,0.22,0.5,0.49V237z"/>
		</g>
	</g>
	<g id="group801-232" transform="translate(99.4005,-155.979)">
		<title>Tabelle.801</title>
		<g id="group802-233">
			<title>Zeichenblatt-1</title>
			<g id="group803-234" transform="translate(0.781821,-0.781821)">
				<title>Tabelle.84</title>
				<g id="shape804-235">
					<title>Tabelle.804</title>
					<path d="M0.001,232.86v4.63h6.09v-4.63H0.001z"/>
				</g>
			</g>
			<g id="group805-237">
				<title>Tabelle.85</title>
				<g id="shape806-238">
					<title>Tabelle.806</title>
					<path d="M6.87,237.49H0.78c-0.43,0-0.78-0.351-0.78-0.78v-4.63c0-0.431,0.351-0.78,0.78-0.78h6.09c0.44,0,0.79,0.35,0.79,0.78
						v4.63C7.66,237.14,7.311,237.49,6.87,237.49z M1.561,235.93H6.09v-3.07H1.561V235.93z"/>
				</g>
			</g>
			<g id="group807-240" transform="translate(1.56447,-7.70073)">
				<title>Tabelle.86</title>
				<g id="shape808-241">
					<title>Tabelle.808</title>
					<path d="M0,237.49c0-1.25,1.021-2.26,2.26-2.26c1.261,0,2.271,1.01,2.271,2.26H3.4c0-0.62-0.51-1.13-1.141-1.13
						c-0.619,0-1.13,0.51-1.13,1.13H0z"/>
				</g>
			</g>
		</g>
		<g id="group809-243" transform="translate(1.56442,-5.00901)">
			<title>Tabelle.90</title>
			<g id="shape810-244">
				<title>Tabelle.810</title>
				<path d="M0,234.89v2.6h1.13v-2.72H0V234.89z"/>
			</g>
		</g>
		<g id="group811-246" transform="translate(4.96131,-5.00901)">
			<title>Tabelle.811</title>
			<g id="shape812-247">
				<title>Tabelle.812</title>
				<path d="M0.001,234.89v2.6h1.13v-2.72h-1.13V234.89z"/>
			</g>
		</g>
		<g id="shape813-249" transform="translate(2.86806,-3.05898)">
			<title>Tabelle.813</title>
			<ellipse fill="#FFFFFF" cx="0.961" cy="236.529" rx="0.96" ry="0.96"/>
		</g>
		<g id="shape814-251" transform="translate(3.33348,-1.13819)">
			<title>Tabelle.814</title>
			<path fill="#FFFFFF" d="M0.99,237c0,0.271-0.22,0.49-0.5,0.49c-0.27,0-0.489-0.22-0.489-0.49V235.1c0-0.271,0.22-0.49,0.489-0.49
				c0.28,0,0.5,0.22,0.5,0.49V237z"/>
		</g>
	</g>
	<g id="group815-253" transform="translate(53.2067,-157.938)">
		<title>Tabelle.815</title>
		<g id="group816-254">
			<title>Zeichenblatt-1</title>
			<g id="group817-255">
				<title>Tabelle.42</title>
				<g id="shape818-256">
					<title>Tabelle.818</title>
					<path d="M20.72,237.49H0.81c-0.45,0-0.81-0.36-0.81-0.811v-26.53c0-0.449,0.359-0.81,0.81-0.81h15.94
						c0.25,0,0.5,0.12,0.649,0.32l3.971,5.31c0.109,0.14,0.17,0.311,0.17,0.49v21.22C21.541,237.13,21.17,237.49,20.72,237.49z
						 M1.63,235.86h18.28v-20.13l-3.57-4.77H1.63V235.86z"/>
				</g>
			</g>
		</g>
	</g>
	<g id="group914-258" transform="translate(282.193,-0.749993)">
		<title>Layer_2.914</title>
		<g id="group915-259" transform="translate(0,-17.407)">
			<title>Tabelle.915</title>
			<g id="shape916-260" transform="translate(1.25333,-1.25315)">
				<title>Tabelle.916</title>
				<ellipse fill="#FFFFFF" cx="25.313" cy="212.178" rx="25.312" ry="25.312"/>
			</g>
			<g id="shape917-262">
				<title>Tabelle.917</title>
				<path fill="#808285" d="M26.57,237.49c-14.649,0-26.569-11.92-26.569-26.569c0-14.641,11.92-26.561,26.569-26.561
					c14.64,0,26.561,11.92,26.561,26.561C53.13,225.57,41.21,237.49,26.57,237.49z M26.57,186.87c-13.27,0-24.06,10.79-24.06,24.051
					c0,13.27,10.79,24.06,24.06,24.06c13.26,0,24.05-10.79,24.05-24.06C50.62,197.66,39.83,186.87,26.57,186.87z"/>
			</g>
		</g>
		<g id="shape918-264" transform="translate(213.392,377.818) rotate(135)">
			<title>Tabelle.918</title>
			<rect x="0" y="204.2" fill="#808285" width="5.746" height="33.291"/>
		</g>
	</g>
	<g id="group1196-266" transform="translate(293.084,-157.745)">
		<title>Tabelle.1196</title>
		<g id="group1197-267">
			<title>Zeichenblatt-1</title>
			<g id="group1198-268">
				<title>Tabelle.44</title>
				<g id="group1199-269">
					<title>Tabelle.1199</title>
					<g id="shape1200-270" transform="translate(0.00298007,-0.00178804)">
						<title>Tabelle.1200</title>
						<path d="M14.17,236.74v-4.489h-1.5v4.489H14.17z M14.17,230.74v-4.5h-1.5v4.5H14.17z M12.67,224.74h1.5v-1.42
							c0-0.16-0.05-0.319-0.15-0.46l-1.85-2.45l-1.2,0.9l1.69,2.26L12.67,224.74z M10.52,219.21H6.01v1.5h4.51V219.21z M4.51,220.71
							v-1.5H0.75c-0.41,0-0.75,0.34-0.75,0.75v0.75H4.51z M0,222.21v4.5h1.5v-4.5H0z M0,228.21v4.5h1.5v-4.5H0z M1.5,234.21H0v2.529
							c0,0.42,0.34,0.75,0.75,0.75h1.97v-1.5H1.5V234.21z M4.231,237.49H8.73v-1.5H4.231V237.49z M10.24,237.49h3.18v-1.5h-3.18
							V237.49z"/>
						<path fill="none" d="M14.17,236.74v-4.489h-1.5v4.489H14.17 M14.17,230.74v-4.5h-1.5v4.5H14.17 M12.67,224.74h1.5v-1.42
							c0-0.16-0.05-0.319-0.15-0.46l-1.85-2.45l-1.2,0.9l1.69,2.26 M10.52,219.21H6.01v1.5h4.51V219.21 M4.51,220.71v-1.5H0.75
							c-0.41,0-0.75,0.34-0.75,0.75v0.75 M0,222.21v4.5h1.5v-4.5H0 M0,228.21v4.5h1.5v-4.5H0 M1.5,234.21H0v2.529
							c0,0.42,0.34,0.75,0.75,0.75h1.97v-1.5H1.5 M4.231,237.49H8.73v-1.5H4.231V237.49 M10.24,237.49h3.18v-1.5h-3.18V237.49"/>
					</g>
					<g id="shape1201-273">
						<title>Tabelle.1201</title>
						<path d="M13.42,237.49h-3.18l0,0v-1.5l0,0h2.43v-3.75l0,0h1.5l0,0v4.5l0,0h-0.75V237.49L13.42,237.49z M10.24,237.49h3.18
							v-0.74h-0.75v-0.01v-0.75h-2.43V237.49z M13.42,236.74h0.75v-4.49h-1.5v3.74h0.75l0,0V236.74z M12.67,236.74h0.75v-0.75h-0.75
							V236.74z M8.73,237.49H4.231l0,0v-1.5l0,0h4.51l0,0v1.5C8.74,237.49,8.74,237.49,8.73,237.49z M4.231,237.49H8.73v-1.5H4.231
							V237.49z M2.731,237.49H0.75c-0.41,0-0.75-0.34-0.75-0.75v-2.53l0,0h1.5c0.01,0,0.01,0,0.01,0v1.78h1.221l0,0V237.49
							L2.731,237.49z M1.5,235.99v-1.78H0.01v2.53c0,0.41,0.33,0.75,0.74,0.75h1.97v-1.5H1.51H1.5z M1.5,232.71H0l0,0v-4.5v-0.01
							h1.5c0.01,0,0.01,0.01,0.01,0.01v4.5C1.51,232.71,1.51,232.71,1.5,232.71z M0.01,232.71H1.5v-4.5H0.01V232.71z M14.17,230.74
							h-1.5l0,0v-4.5l0,0h1.5l0,0V230.74L14.17,230.74z M12.67,230.74h1.5v-4.5h-1.5V230.74z M1.5,226.71H0l0,0v-4.5l0,0h1.5
							c0.01,0,0.01,0,0.01,0v4.5C1.51,226.71,1.51,226.71,1.5,226.71z M0.01,226.71H1.5v-4.5H0.01V226.71z M14.17,224.74h-1.5l0,0
							v-1.17l-1.7-2.26l0,0l1.2-0.9l0,0l1.85,2.45c0.101,0.13,0.15,0.29,0.15,0.45V224.74L14.17,224.74z M1.5,220.71H0l0,0v-0.75
							c0-0.409,0.34-0.75,0.75-0.75h3.76l0,0v1.49c0,0.01,0,0.01,0,0.01h-3l0,0C1.51,220.71,1.51,220.71,1.5,220.71z M1.51,220.7h3
							v-1.49H0.75c-0.41,0-0.74,0.341-0.74,0.75v0.75L1.51,220.7z M10.52,220.71H6.01c0,0,0,0,0-0.01v-1.49l0,0h4.51l0,0v1.49
							C10.53,220.71,10.52,220.71,10.52,220.71z M6.01,220.7h4.51v-1.49H6.01V220.7z"/>
						<path fill="none" d="M13.42,237.49h-3.18l0,0v-1.5l0,0h2.43v-3.75l0,0h1.5l0,0v4.5l0,0h-0.75V237.49L13.42,237.49
							 M10.24,237.49h3.18v-0.74h-0.75v-0.01v-0.75h-2.43V237.49 M13.42,236.74h0.75v-4.49h-1.5v3.74h0.75l0,0V236.74 M12.67,236.74
							h0.75v-0.75h-0.75V236.74 M8.73,237.49H4.231l0,0v-1.5l0,0h4.51l0,0v1.5C8.74,237.49,8.74,237.49,8.73,237.49 M4.231,237.49
							H8.73v-1.5H4.231V237.49 M2.731,237.49H0.75c-0.41,0-0.75-0.34-0.75-0.75v-2.53l0,0h1.5c0.01,0,0.01,0,0.01,0v1.78h1.221l0,0
							V237.49L2.731,237.49 M1.5,235.99v-1.78H0.01v2.53c0,0.41,0.33,0.75,0.74,0.75h1.97v-1.5H1.51 M1.5,232.71H0l0,0v-4.5v-0.01
							h1.5c0.01,0,0.01,0.01,0.01,0.01v4.5C1.51,232.71,1.51,232.71,1.5,232.71 M0.01,232.71H1.5v-4.5H0.01V232.71 M14.17,230.74
							h-1.5l0,0v-4.5l0,0h1.5l0,0V230.74L14.17,230.74 M12.67,230.74h1.5v-4.5h-1.5V230.74 M1.5,226.71H0l0,0v-4.5l0,0h1.5
							c0.01,0,0.01,0,0.01,0v4.5C1.51,226.71,1.51,226.71,1.5,226.71 M0.01,226.71H1.5v-4.5H0.01V226.71 M14.17,224.74h-1.5l0,0
							v-1.17l-1.7-2.26l0,0l1.2-0.9l0,0l1.85,2.45c0.101,0.13,0.15,0.29,0.15,0.45V224.74L14.17,224.74 M1.5,220.71H0l0,0v-0.75
							c0-0.409,0.34-0.75,0.75-0.75h3.76l0,0v1.49c0,0.01,0,0.01,0,0.01h-3l0,0C1.51,220.71,1.51,220.71,1.5,220.71 M1.51,220.7h3
							v-1.49H0.75c-0.41,0-0.74,0.341-0.74,0.75v0.75 M10.52,220.71H6.01c0,0,0,0,0-0.01v-1.49l0,0h4.51l0,0v1.49
							C10.53,220.71,10.52,220.71,10.52,220.71 M6.01,220.7h4.51v-1.49H6.01V220.7"/>
					</g>
				</g>
			</g>
			<g id="shape1202-276" transform="translate(10.2433,-0.00432219)">
				<title>Tabelle.1202</title>
				<path d="M2.43,232.25h1.49v4.49H3.17v0.75H0V236l2.42-0.01L2.43,232.25z"/>
			</g>
		</g>
	</g>
	<g id="group1203-278" transform="translate(310.092,-157.745)">
		<title>Tabelle.1203</title>
		<g id="group1204-279">
			<title>Zeichenblatt-1</title>
			<g id="group1205-280">
				<title>Tabelle.44</title>
				<g id="group1206-281">
					<title>Tabelle.1206</title>
					<g id="shape1207-282" transform="translate(0.00298007,-0.00178804)">
						<title>Tabelle.1207</title>
						<path d="M14.17,236.74v-4.489h-1.5v4.489H14.17z M14.17,230.74v-4.5h-1.5v4.5H14.17z M12.67,224.74h1.5v-1.42
							c0-0.16-0.05-0.319-0.149-0.46l-1.851-2.45l-1.2,0.9l1.69,2.26L12.67,224.74z M10.52,219.21H6.01v1.5h4.511V219.21z
							 M4.51,220.71v-1.5H0.75c-0.41,0-0.75,0.34-0.75,0.75v0.75H4.51z M0,222.21v4.5h1.5v-4.5H0z M0,228.21v4.5h1.5v-4.5H0z
							 M1.5,234.21H0v2.529c0,0.42,0.34,0.75,0.75,0.75h1.97v-1.5H1.5V234.21z M4.23,237.49h4.5v-1.5h-4.5V237.49z M10.24,237.49
							h3.18v-1.5h-3.18V237.49z"/>
						<path fill="none" d="M14.17,236.74v-4.489h-1.5v4.489H14.17 M14.17,230.74v-4.5h-1.5v4.5H14.17 M12.67,224.74h1.5v-1.42
							c0-0.16-0.05-0.319-0.149-0.46l-1.851-2.45l-1.2,0.9l1.69,2.26 M10.52,219.21H6.01v1.5h4.511V219.21 M4.51,220.71v-1.5H0.75
							c-0.41,0-0.75,0.34-0.75,0.75v0.75 M0,222.21v4.5h1.5v-4.5H0 M0,228.21v4.5h1.5v-4.5H0 M1.5,234.21H0v2.529
							c0,0.42,0.34,0.75,0.75,0.75h1.97v-1.5H1.5 M4.23,237.49h4.5v-1.5h-4.5V237.49 M10.24,237.49h3.18v-1.5h-3.18V237.49"/>
					</g>
					<g id="shape1208-285">
						<title>Tabelle.1208</title>
						<path d="M13.42,237.49h-3.18l0,0v-1.5l0,0h2.43v-3.75l0,0h1.5l0,0v4.5l0,0h-0.75V237.49L13.42,237.49z M10.24,237.49h3.18
							v-0.74h-0.75v-0.01v-0.75h-2.43V237.49z M13.42,236.74h0.75v-4.49h-1.5v3.74h0.75l0,0V236.74z M12.67,236.74h0.75v-0.75h-0.75
							V236.74z M8.73,237.49h-4.5l0,0v-1.5l0,0h4.51l0,0v1.5C8.74,237.49,8.74,237.49,8.73,237.49z M4.23,237.49h4.5v-1.5h-4.5
							V237.49z M2.73,237.49H0.75c-0.41,0-0.75-0.34-0.75-0.75v-2.53l0,0h1.5c0.01,0,0.01,0,0.01,0v1.78H2.73l0,0V237.49
							L2.73,237.49z M1.5,235.99v-1.78H0.01v2.53c0,0.41,0.33,0.75,0.74,0.75h1.97v-1.5H1.51H1.5z M1.5,232.71H0l0,0v-4.5v-0.01h1.5
							c0.01,0,0.01,0.01,0.01,0.01v4.5C1.51,232.71,1.51,232.71,1.5,232.71z M0.01,232.71H1.5v-4.5H0.01V232.71z M14.17,230.74h-1.5
							l0,0v-4.5l0,0h1.5l0,0V230.74L14.17,230.74z M12.67,230.74h1.5v-4.5h-1.5V230.74z M1.5,226.71H0l0,0v-4.5l0,0h1.5
							c0.01,0,0.01,0,0.01,0v4.5C1.51,226.71,1.51,226.71,1.5,226.71z M0.01,226.71H1.5v-4.5H0.01V226.71z M14.17,224.74h-1.5l0,0
							v-1.17l-1.7-2.26l0,0l1.2-0.9l0,0l1.851,2.45c0.1,0.13,0.149,0.29,0.149,0.45V224.74L14.17,224.74z M1.5,220.71H0l0,0v-0.75
							c0-0.409,0.34-0.75,0.75-0.75h3.76l0,0v1.49c0,0.01,0,0.01,0,0.01h-3l0,0C1.51,220.71,1.51,220.71,1.5,220.71z M1.51,220.7h3
							v-1.49H0.75c-0.41,0-0.74,0.341-0.74,0.75v0.75L1.51,220.7z M10.521,220.71H6.01c0,0,0,0,0-0.01v-1.49l0,0h4.511l0,0v1.49
							C10.53,220.71,10.521,220.71,10.521,220.71z M6.01,220.7h4.511v-1.49H6.01V220.7z"/>
						<path fill="none" d="M13.42,237.49h-3.18l0,0v-1.5l0,0h2.43v-3.75l0,0h1.5l0,0v4.5l0,0h-0.75V237.49L13.42,237.49
							 M10.24,237.49h3.18v-0.74h-0.75v-0.01v-0.75h-2.43V237.49 M13.42,236.74h0.75v-4.49h-1.5v3.74h0.75l0,0V236.74 M12.67,236.74
							h0.75v-0.75h-0.75V236.74 M8.73,237.49h-4.5l0,0v-1.5l0,0h4.51l0,0v1.5C8.74,237.49,8.74,237.49,8.73,237.49 M4.23,237.49h4.5
							v-1.5h-4.5V237.49 M2.73,237.49H0.75c-0.41,0-0.75-0.34-0.75-0.75v-2.53l0,0h1.5c0.01,0,0.01,0,0.01,0v1.78H2.73l0,0V237.49
							L2.73,237.49 M1.5,235.99v-1.78H0.01v2.53c0,0.41,0.33,0.75,0.74,0.75h1.97v-1.5H1.51 M1.5,232.71H0l0,0v-4.5v-0.01h1.5
							c0.01,0,0.01,0.01,0.01,0.01v4.5C1.51,232.71,1.51,232.71,1.5,232.71 M0.01,232.71H1.5v-4.5H0.01V232.71 M14.17,230.74h-1.5
							l0,0v-4.5l0,0h1.5l0,0V230.74L14.17,230.74 M12.67,230.74h1.5v-4.5h-1.5V230.74 M1.5,226.71H0l0,0v-4.5l0,0h1.5
							c0.01,0,0.01,0,0.01,0v4.5C1.51,226.71,1.51,226.71,1.5,226.71 M0.01,226.71H1.5v-4.5H0.01V226.71 M14.17,224.74h-1.5l0,0
							v-1.17l-1.7-2.26l0,0l1.2-0.9l0,0l1.851,2.45c0.1,0.13,0.149,0.29,0.149,0.45V224.74L14.17,224.74 M1.5,220.71H0l0,0v-0.75
							c0-0.409,0.34-0.75,0.75-0.75h3.76l0,0v1.49c0,0.01,0,0.01,0,0.01h-3l0,0C1.51,220.71,1.51,220.71,1.5,220.71 M1.51,220.7h3
							v-1.49H0.75c-0.41,0-0.74,0.341-0.74,0.75v0.75 M10.521,220.71H6.01c0,0,0,0,0-0.01v-1.49l0,0h4.511l0,0v1.49
							C10.53,220.71,10.521,220.71,10.521,220.71 M6.01,220.7h4.511v-1.49H6.01V220.7"/>
					</g>
				</g>
			</g>
			<g id="shape1209-288" transform="translate(10.2433,-0.00432219)">
				<title>Tabelle.1209</title>
				<path d="M2.431,232.25H3.92v4.49H3.17v0.75H0V236l2.42-0.01L2.431,232.25z"/>
			</g>
		</g>
	</g>
	<g id="group1210-290" transform="translate(296.48,-161.258)">
		<title>Tabelle.1210</title>
		<g id="group1211-291">
			<title>Zeichenblatt-1</title>
			<g id="group1212-292" transform="translate(0.781821,-0.781821)">
				<title>Tabelle.84</title>
				<g id="shape1213-293">
					<title>Tabelle.1213</title>
					<path d="M0,232.86v4.63h6.09v-4.63H0z"/>
				</g>
			</g>
			<g id="group1214-295">
				<title>Tabelle.85</title>
				<g id="shape1215-296">
					<title>Tabelle.1215</title>
					<path d="M6.87,237.49H0.78c-0.43,0-0.779-0.351-0.779-0.78v-4.63c0-0.43,0.35-0.78,0.779-0.78h6.09
						c0.44,0,0.79,0.351,0.79,0.78v4.63C7.66,237.14,7.31,237.49,6.87,237.49z M1.56,235.93h4.53v-3.069H1.56V235.93z"/>
				</g>
			</g>
			<g id="group1216-298" transform="translate(1.56447,-7.70073)">
				<title>Tabelle.86</title>
				<g id="shape1217-299">
					<title>Tabelle.1217</title>
					<path d="M0,237.49c0-1.25,1.021-2.26,2.261-2.26c1.26,0,2.27,1.01,2.27,2.26H3.4c0-0.62-0.51-1.13-1.14-1.13
						c-0.62,0-1.13,0.51-1.13,1.13H0z"/>
				</g>
			</g>
		</g>
		<g id="group1218-301" transform="translate(1.56442,-5.00901)">
			<title>Tabelle.90</title>
			<g id="shape1219-302">
				<title>Tabelle.1219</title>
				<path d="M0,234.89v2.601h1.13v-2.721H0V234.89z"/>
			</g>
		</g>
		<g id="group1220-304" transform="translate(4.96131,-5.00901)">
			<title>Tabelle.1220</title>
			<g id="shape1221-305">
				<title>Tabelle.1221</title>
				<path d="M0,234.89v2.601h1.13v-2.721H0V234.89z"/>
			</g>
		</g>
		<g id="shape1222-307" transform="translate(2.86806,-3.05898)">
			<title>Tabelle.1222</title>
			<ellipse fill="#FFFFFF" cx="0.961" cy="236.529" rx="0.96" ry="0.96"/>
		</g>
		<g id="shape1223-309" transform="translate(3.33348,-1.13819)">
			<title>Tabelle.1223</title>
			<path fill="#FFFFFF" d="M0.99,237c0,0.27-0.221,0.489-0.5,0.489C0.22,237.49,0,237.27,0,237v-1.9c0-0.27,0.22-0.49,0.49-0.49
				c0.279,0,0.5,0.221,0.5,0.49V237z"/>
		</g>
	</g>
	<g id="group1224-311" transform="translate(313.479,-161.258)">
		<title>Tabelle.1224</title>
		<g id="group1225-312">
			<title>Zeichenblatt-1</title>
			<g id="group1226-313" transform="translate(0.781821,-0.781821)">
				<title>Tabelle.84</title>
				<g id="shape1227-314">
					<title>Tabelle.1227</title>
					<path d="M0,232.86v4.63h6.09v-4.63H0z"/>
				</g>
			</g>
			<g id="group1228-316">
				<title>Tabelle.85</title>
				<g id="shape1229-317">
					<title>Tabelle.1229</title>
					<path d="M6.87,237.49H0.78c-0.43,0-0.78-0.351-0.78-0.78v-4.63c0-0.43,0.351-0.78,0.78-0.78h6.09c0.44,0,0.79,0.351,0.79,0.78
						v4.63C7.66,237.14,7.31,237.49,6.87,237.49z M1.56,235.93H6.09v-3.069H1.56V235.93z"/>
				</g>
			</g>
			<g id="group1230-319" transform="translate(1.56447,-7.70073)">
				<title>Tabelle.86</title>
				<g id="shape1231-320">
					<title>Tabelle.1231</title>
					<path d="M0,237.49c0-1.25,1.021-2.26,2.261-2.26c1.26,0,2.27,1.01,2.27,2.26H3.4c0-0.62-0.51-1.13-1.14-1.13
						c-0.62,0-1.13,0.51-1.13,1.13H0z"/>
				</g>
			</g>
		</g>
		<g id="group1232-322" transform="translate(1.56442,-5.00901)">
			<title>Tabelle.90</title>
			<g id="shape1233-323">
				<title>Tabelle.1233</title>
				<path d="M0,234.89v2.601h1.13v-2.721H0V234.89z"/>
			</g>
		</g>
		<g id="group1234-325" transform="translate(4.96131,-5.00901)">
			<title>Tabelle.1234</title>
			<g id="shape1235-326">
				<title>Tabelle.1235</title>
				<path d="M0,234.89v2.601h1.13v-2.721H0V234.89z"/>
			</g>
		</g>
		<g id="shape1236-328" transform="translate(2.86806,-3.05898)">
			<title>Tabelle.1236</title>
			<ellipse fill="#FFFFFF" cx="0.961" cy="236.529" rx="0.96" ry="0.96"/>
		</g>
		<g id="shape1237-330" transform="translate(3.33348,-1.13819)">
			<title>Tabelle.1237</title>
			<path fill="#FFFFFF" d="M0.99,237c0,0.27-0.221,0.489-0.5,0.489C0.22,237.49,0,237.27,0,237v-1.9c0-0.27,0.22-0.49,0.49-0.49
				c0.279,0,0.5,0.221,0.5,0.49V237z"/>
		</g>
	</g>
	<g id="group1238-332" transform="translate(293.084,-34.579)">
		<title>Tabelle.1238</title>
		<g id="group1239-333">
			<title>Zeichenblatt-1</title>
			<g id="group1240-334">
				<title>Tabelle.44</title>
				<g id="group1241-335">
					<title>Tabelle.1241</title>
					<g id="shape1242-336" transform="translate(0.00298007,-0.00178804)">
						<title>Tabelle.1242</title>
						<path d="M14.17,236.74v-4.489h-1.5v4.489H14.17z M14.17,230.74v-4.5h-1.5v4.5H14.17z M12.67,224.74h1.5v-1.42
							c0-0.16-0.05-0.319-0.15-0.46l-1.85-2.45l-1.2,0.9l1.69,2.26L12.67,224.74z M10.52,219.21H6.01v1.5h4.51V219.21z M4.51,220.71
							v-1.5H0.75c-0.41,0-0.75,0.34-0.75,0.75v0.75H4.51z M0,222.21v4.5h1.5v-4.5H0z M0,228.21v4.5h1.5v-4.5H0z M1.5,234.21H0v2.529
							c0,0.42,0.34,0.75,0.75,0.75h1.97v-1.5H1.5V234.21z M4.231,237.49H8.73v-1.5H4.231V237.49z M10.24,237.49h3.18v-1.5h-3.18
							V237.49z"/>
						<path fill="none" d="M14.17,236.74v-4.489h-1.5v4.489H14.17 M14.17,230.74v-4.5h-1.5v4.5H14.17 M12.67,224.74h1.5v-1.42
							c0-0.16-0.05-0.319-0.15-0.46l-1.85-2.45l-1.2,0.9l1.69,2.26 M10.52,219.21H6.01v1.5h4.51V219.21 M4.51,220.71v-1.5H0.75
							c-0.41,0-0.75,0.34-0.75,0.75v0.75 M0,222.21v4.5h1.5v-4.5H0 M0,228.21v4.5h1.5v-4.5H0 M1.5,234.21H0v2.529
							c0,0.42,0.34,0.75,0.75,0.75h1.97v-1.5H1.5 M4.231,237.49H8.73v-1.5H4.231V237.49 M10.24,237.49h3.18v-1.5h-3.18V237.49"/>
					</g>
					<g id="shape1243-339">
						<title>Tabelle.1243</title>
						<path d="M13.42,237.49h-3.18l0,0v-1.5l0,0h2.43v-3.75l0,0h1.5l0,0v4.5l0,0h-0.75V237.49L13.42,237.49z M10.24,237.49h3.18
							v-0.74h-0.75v-0.01v-0.75h-2.43V237.49z M13.42,236.74h0.75v-4.49h-1.5v3.74h0.75l0,0V236.74z M12.67,236.74h0.75v-0.75h-0.75
							V236.74z M8.73,237.49H4.231l0,0v-1.5l0,0h4.51l0,0v1.5C8.74,237.49,8.74,237.49,8.73,237.49z M4.231,237.49H8.73v-1.5H4.231
							V237.49z M2.731,237.49H0.75c-0.41,0-0.75-0.34-0.75-0.75v-2.53l0,0h1.5c0.01,0,0.01,0,0.01,0v1.78h1.221l0,0V237.49
							L2.731,237.49z M1.5,235.99v-1.78H0.01v2.53c0,0.41,0.33,0.75,0.74,0.75h1.97v-1.5H1.51H1.5z M1.5,232.71H0l0,0v-4.5v-0.01
							h1.5c0.01,0,0.01,0.01,0.01,0.01v4.5C1.51,232.71,1.51,232.71,1.5,232.71z M0.01,232.71H1.5v-4.5H0.01V232.71z M14.17,230.74
							h-1.5l0,0v-4.5l0,0h1.5l0,0V230.74L14.17,230.74z M12.67,230.74h1.5v-4.5h-1.5V230.74z M1.5,226.71H0l0,0v-4.5l0,0h1.5
							c0.01,0,0.01,0,0.01,0v4.5C1.51,226.71,1.51,226.71,1.5,226.71z M0.01,226.71H1.5v-4.5H0.01V226.71z M14.17,224.74h-1.5l0,0
							v-1.17l-1.7-2.26l0,0l1.2-0.9l0,0l1.85,2.45c0.101,0.13,0.15,0.29,0.15,0.45V224.74L14.17,224.74z M1.5,220.71H0l0,0v-0.75
							c0-0.409,0.34-0.75,0.75-0.75h3.76l0,0v1.49c0,0.01,0,0.01,0,0.01h-3l0,0C1.51,220.71,1.51,220.71,1.5,220.71z M1.51,220.7h3
							v-1.49H0.75c-0.41,0-0.74,0.341-0.74,0.75v0.75L1.51,220.7z M10.52,220.71H6.01c0,0,0,0,0-0.01v-1.49l0,0h4.51l0,0v1.49
							C10.53,220.71,10.52,220.71,10.52,220.71z M6.01,220.7h4.51v-1.49H6.01V220.7z"/>
						<path fill="none" d="M13.42,237.49h-3.18l0,0v-1.5l0,0h2.43v-3.75l0,0h1.5l0,0v4.5l0,0h-0.75V237.49L13.42,237.49
							 M10.24,237.49h3.18v-0.74h-0.75v-0.01v-0.75h-2.43V237.49 M13.42,236.74h0.75v-4.49h-1.5v3.74h0.75l0,0V236.74 M12.67,236.74
							h0.75v-0.75h-0.75V236.74 M8.73,237.49H4.231l0,0v-1.5l0,0h4.51l0,0v1.5C8.74,237.49,8.74,237.49,8.73,237.49 M4.231,237.49
							H8.73v-1.5H4.231V237.49 M2.731,237.49H0.75c-0.41,0-0.75-0.34-0.75-0.75v-2.53l0,0h1.5c0.01,0,0.01,0,0.01,0v1.78h1.221l0,0
							V237.49L2.731,237.49 M1.5,235.99v-1.78H0.01v2.53c0,0.41,0.33,0.75,0.74,0.75h1.97v-1.5H1.51 M1.5,232.71H0l0,0v-4.5v-0.01
							h1.5c0.01,0,0.01,0.01,0.01,0.01v4.5C1.51,232.71,1.51,232.71,1.5,232.71 M0.01,232.71H1.5v-4.5H0.01V232.71 M14.17,230.74
							h-1.5l0,0v-4.5l0,0h1.5l0,0V230.74L14.17,230.74 M12.67,230.74h1.5v-4.5h-1.5V230.74 M1.5,226.71H0l0,0v-4.5l0,0h1.5
							c0.01,0,0.01,0,0.01,0v4.5C1.51,226.71,1.51,226.71,1.5,226.71 M0.01,226.71H1.5v-4.5H0.01V226.71 M14.17,224.74h-1.5l0,0
							v-1.17l-1.7-2.26l0,0l1.2-0.9l0,0l1.85,2.45c0.101,0.13,0.15,0.29,0.15,0.45V224.74L14.17,224.74 M1.5,220.71H0l0,0v-0.75
							c0-0.409,0.34-0.75,0.75-0.75h3.76l0,0v1.49c0,0.01,0,0.01,0,0.01h-3l0,0C1.51,220.71,1.51,220.71,1.5,220.71 M1.51,220.7h3
							v-1.49H0.75c-0.41,0-0.74,0.341-0.74,0.75v0.75 M10.52,220.71H6.01c0,0,0,0,0-0.01v-1.49l0,0h4.51l0,0v1.49
							C10.53,220.71,10.52,220.71,10.52,220.71 M6.01,220.7h4.51v-1.49H6.01V220.7"/>
					</g>
				</g>
			</g>
			<g id="shape1244-342" transform="translate(10.2433,-0.00432219)">
				<title>Tabelle.1244</title>
				<path d="M2.43,232.25h1.49v4.49H3.17v0.75H0V236l2.42-0.01L2.43,232.25z"/>
			</g>
		</g>
	</g>
	<g id="group1245-344" transform="translate(310.092,-34.579)">
		<title>Tabelle.1245</title>
		<g id="group1246-345">
			<title>Zeichenblatt-1</title>
			<g id="group1247-346">
				<title>Tabelle.44</title>
				<g id="group1248-347">
					<title>Tabelle.1248</title>
					<g id="shape1249-348" transform="translate(0.00298007,-0.00178804)">
						<title>Tabelle.1249</title>
						<path d="M14.17,236.74v-4.489h-1.5v4.489H14.17z M14.17,230.74v-4.5h-1.5v4.5H14.17z M12.67,224.74h1.5v-1.42
							c0-0.16-0.05-0.319-0.149-0.46l-1.851-2.45l-1.2,0.9l1.69,2.26L12.67,224.74z M10.52,219.21H6.01v1.5h4.511V219.21z
							 M4.51,220.71v-1.5H0.75c-0.41,0-0.75,0.34-0.75,0.75v0.75H4.51z M0,222.21v4.5h1.5v-4.5H0z M0,228.21v4.5h1.5v-4.5H0z
							 M1.5,234.21H0v2.529c0,0.42,0.34,0.75,0.75,0.75h1.97v-1.5H1.5V234.21z M4.23,237.49h4.5v-1.5h-4.5V237.49z M10.24,237.49
							h3.18v-1.5h-3.18V237.49z"/>
						<path fill="none" d="M14.17,236.74v-4.489h-1.5v4.489H14.17 M14.17,230.74v-4.5h-1.5v4.5H14.17 M12.67,224.74h1.5v-1.42
							c0-0.16-0.05-0.319-0.149-0.46l-1.851-2.45l-1.2,0.9l1.69,2.26 M10.52,219.21H6.01v1.5h4.511V219.21 M4.51,220.71v-1.5H0.75
							c-0.41,0-0.75,0.34-0.75,0.75v0.75 M0,222.21v4.5h1.5v-4.5H0 M0,228.21v4.5h1.5v-4.5H0 M1.5,234.21H0v2.529
							c0,0.42,0.34,0.75,0.75,0.75h1.97v-1.5H1.5 M4.23,237.49h4.5v-1.5h-4.5V237.49 M10.24,237.49h3.18v-1.5h-3.18V237.49"/>
					</g>
					<g id="shape1250-351">
						<title>Tabelle.1250</title>
						<path d="M13.42,237.49h-3.18l0,0v-1.5l0,0h2.43v-3.75l0,0h1.5l0,0v4.5l0,0h-0.75V237.49L13.42,237.49z M10.24,237.49h3.18
							v-0.74h-0.75v-0.01v-0.75h-2.43V237.49z M13.42,236.74h0.75v-4.49h-1.5v3.74h0.75l0,0V236.74z M12.67,236.74h0.75v-0.75h-0.75
							V236.74z M8.73,237.49h-4.5l0,0v-1.5l0,0h4.51l0,0v1.5C8.74,237.49,8.74,237.49,8.73,237.49z M4.23,237.49h4.5v-1.5h-4.5
							V237.49z M2.73,237.49H0.75c-0.41,0-0.75-0.34-0.75-0.75v-2.53l0,0h1.5c0.01,0,0.01,0,0.01,0v1.78H2.73l0,0V237.49
							L2.73,237.49z M1.5,235.99v-1.78H0.01v2.53c0,0.41,0.33,0.75,0.74,0.75h1.97v-1.5H1.51H1.5z M1.5,232.71H0l0,0v-4.5v-0.01h1.5
							c0.01,0,0.01,0.01,0.01,0.01v4.5C1.51,232.71,1.51,232.71,1.5,232.71z M0.01,232.71H1.5v-4.5H0.01V232.71z M14.17,230.74h-1.5
							l0,0v-4.5l0,0h1.5l0,0V230.74L14.17,230.74z M12.67,230.74h1.5v-4.5h-1.5V230.74z M1.5,226.71H0l0,0v-4.5l0,0h1.5
							c0.01,0,0.01,0,0.01,0v4.5C1.51,226.71,1.51,226.71,1.5,226.71z M0.01,226.71H1.5v-4.5H0.01V226.71z M14.17,224.74h-1.5l0,0
							v-1.17l-1.7-2.26l0,0l1.2-0.9l0,0l1.851,2.45c0.1,0.13,0.149,0.29,0.149,0.45V224.74L14.17,224.74z M1.5,220.71H0l0,0v-0.75
							c0-0.409,0.34-0.75,0.75-0.75h3.76l0,0v1.49c0,0.01,0,0.01,0,0.01h-3l0,0C1.51,220.71,1.51,220.71,1.5,220.71z M1.51,220.7h3
							v-1.49H0.75c-0.41,0-0.74,0.341-0.74,0.75v0.75L1.51,220.7z M10.521,220.71H6.01c0,0,0,0,0-0.01v-1.49l0,0h4.511l0,0v1.49
							C10.53,220.71,10.521,220.71,10.521,220.71z M6.01,220.7h4.511v-1.49H6.01V220.7z"/>
						<path fill="none" d="M13.42,237.49h-3.18l0,0v-1.5l0,0h2.43v-3.75l0,0h1.5l0,0v4.5l0,0h-0.75V237.49L13.42,237.49
							 M10.24,237.49h3.18v-0.74h-0.75v-0.01v-0.75h-2.43V237.49 M13.42,236.74h0.75v-4.49h-1.5v3.74h0.75l0,0V236.74 M12.67,236.74
							h0.75v-0.75h-0.75V236.74 M8.73,237.49h-4.5l0,0v-1.5l0,0h4.51l0,0v1.5C8.74,237.49,8.74,237.49,8.73,237.49 M4.23,237.49h4.5
							v-1.5h-4.5V237.49 M2.73,237.49H0.75c-0.41,0-0.75-0.34-0.75-0.75v-2.53l0,0h1.5c0.01,0,0.01,0,0.01,0v1.78H2.73l0,0V237.49
							L2.73,237.49 M1.5,235.99v-1.78H0.01v2.53c0,0.41,0.33,0.75,0.74,0.75h1.97v-1.5H1.51 M1.5,232.71H0l0,0v-4.5v-0.01h1.5
							c0.01,0,0.01,0.01,0.01,0.01v4.5C1.51,232.71,1.51,232.71,1.5,232.71 M0.01,232.71H1.5v-4.5H0.01V232.71 M14.17,230.74h-1.5
							l0,0v-4.5l0,0h1.5l0,0V230.74L14.17,230.74 M12.67,230.74h1.5v-4.5h-1.5V230.74 M1.5,226.71H0l0,0v-4.5l0,0h1.5
							c0.01,0,0.01,0,0.01,0v4.5C1.51,226.71,1.51,226.71,1.5,226.71 M0.01,226.71H1.5v-4.5H0.01V226.71 M14.17,224.74h-1.5l0,0
							v-1.17l-1.7-2.26l0,0l1.2-0.9l0,0l1.851,2.45c0.1,0.13,0.149,0.29,0.149,0.45V224.74L14.17,224.74 M1.5,220.71H0l0,0v-0.75
							c0-0.409,0.34-0.75,0.75-0.75h3.76l0,0v1.49c0,0.01,0,0.01,0,0.01h-3l0,0C1.51,220.71,1.51,220.71,1.5,220.71 M1.51,220.7h3
							v-1.49H0.75c-0.41,0-0.74,0.341-0.74,0.75v0.75 M10.521,220.71H6.01c0,0,0,0,0-0.01v-1.49l0,0h4.511l0,0v1.49
							C10.53,220.71,10.521,220.71,10.521,220.71 M6.01,220.7h4.511v-1.49H6.01V220.7"/>
					</g>
				</g>
			</g>
			<g id="shape1251-354" transform="translate(10.2433,-0.00432219)">
				<title>Tabelle.1251</title>
				<path d="M2.431,232.25H3.92v4.49H3.17v0.75H0V236l2.42-0.01L2.431,232.25z"/>
			</g>
		</g>
	</g>
	<g id="group1252-356" transform="translate(296.48,-38.0924)">
		<title>Tabelle.1252</title>
		<g id="group1253-357">
			<title>Zeichenblatt-1</title>
			<g id="group1254-358" transform="translate(0.781821,-0.781821)">
				<title>Tabelle.84</title>
				<g id="shape1255-359">
					<title>Tabelle.1255</title>
					<path d="M0,232.86v4.63h6.09v-4.63H0z"/>
				</g>
			</g>
			<g id="group1256-361">
				<title>Tabelle.85</title>
				<g id="shape1257-362">
					<title>Tabelle.1257</title>
					<path d="M6.87,237.49H0.78c-0.43,0-0.779-0.35-0.779-0.779v-4.63c0-0.431,0.35-0.78,0.779-0.78h6.09
						c0.44,0,0.79,0.35,0.79,0.78v4.63C7.66,237.14,7.31,237.49,6.87,237.49z M1.56,235.93h4.53v-3.07H1.56V235.93z"/>
				</g>
			</g>
			<g id="group1258-364" transform="translate(1.56447,-7.70073)">
				<title>Tabelle.86</title>
				<g id="shape1259-365">
					<title>Tabelle.1259</title>
					<path d="M0,237.49c0-1.25,1.021-2.26,2.261-2.26c1.26,0,2.27,1.01,2.27,2.26H3.4c0-0.62-0.51-1.13-1.14-1.13
						c-0.62,0-1.13,0.51-1.13,1.13H0z"/>
				</g>
			</g>
		</g>
		<g id="group1260-367" transform="translate(1.56442,-5.00901)">
			<title>Tabelle.90</title>
			<g id="shape1261-368">
				<title>Tabelle.1261</title>
				<path d="M0,234.89v2.6h1.13v-2.72H0V234.89z"/>
			</g>
		</g>
		<g id="group1262-370" transform="translate(4.96131,-5.00901)">
			<title>Tabelle.1262</title>
			<g id="shape1263-371">
				<title>Tabelle.1263</title>
				<path d="M0,234.89v2.6h1.13v-2.72H0V234.89z"/>
			</g>
		</g>
		<g id="shape1264-373" transform="translate(2.86806,-3.05898)">
			<title>Tabelle.1264</title>
			<ellipse fill="#FFFFFF" cx="0.961" cy="236.529" rx="0.96" ry="0.96"/>
		</g>
		<g id="shape1265-375" transform="translate(3.33348,-1.13819)">
			<title>Tabelle.1265</title>
			<path fill="#FFFFFF" d="M0.99,237c0,0.271-0.221,0.49-0.5,0.49C0.22,237.49,0,237.27,0,237V235.1c0-0.271,0.22-0.49,0.49-0.49
				c0.279,0,0.5,0.22,0.5,0.49V237z"/>
		</g>
	</g>
	<g id="group1266-377" transform="translate(313.479,-38.0924)">
		<title>Tabelle.1266</title>
		<g id="group1267-378">
			<title>Zeichenblatt-1</title>
			<g id="group1268-379" transform="translate(0.781821,-0.781821)">
				<title>Tabelle.84</title>
				<g id="shape1269-380">
					<title>Tabelle.1269</title>
					<path d="M0,232.86v4.63h6.09v-4.63H0z"/>
				</g>
			</g>
			<g id="group1270-382">
				<title>Tabelle.85</title>
				<g id="shape1271-383">
					<title>Tabelle.1271</title>
					<path d="M6.87,237.49H0.78c-0.43,0-0.78-0.35-0.78-0.779v-4.63c0-0.431,0.351-0.78,0.78-0.78h6.09c0.44,0,0.79,0.35,0.79,0.78
						v4.63C7.66,237.14,7.31,237.49,6.87,237.49z M1.56,235.93H6.09v-3.07H1.56V235.93z"/>
				</g>
			</g>
			<g id="group1272-385" transform="translate(1.56447,-7.70073)">
				<title>Tabelle.86</title>
				<g id="shape1273-386">
					<title>Tabelle.1273</title>
					<path d="M0,237.49c0-1.25,1.021-2.26,2.261-2.26c1.26,0,2.27,1.01,2.27,2.26H3.4c0-0.62-0.51-1.13-1.14-1.13
						c-0.62,0-1.13,0.51-1.13,1.13H0z"/>
				</g>
			</g>
		</g>
		<g id="group1274-388" transform="translate(1.56442,-5.00901)">
			<title>Tabelle.90</title>
			<g id="shape1275-389">
				<title>Tabelle.1275</title>
				<path d="M0,234.89v2.6h1.13v-2.72H0V234.89z"/>
			</g>
		</g>
		<g id="group1276-391" transform="translate(4.96131,-5.00901)">
			<title>Tabelle.1276</title>
			<g id="shape1277-392">
				<title>Tabelle.1277</title>
				<path d="M0,234.89v2.6h1.13v-2.72H0V234.89z"/>
			</g>
		</g>
		<g id="shape1278-394" transform="translate(2.86806,-3.05898)">
			<title>Tabelle.1278</title>
			<ellipse fill="#FFFFFF" cx="0.961" cy="236.529" rx="0.96" ry="0.96"/>
		</g>
		<g id="shape1279-396" transform="translate(3.33348,-1.13819)">
			<title>Tabelle.1279</title>
			<path fill="#FFFFFF" d="M0.99,237c0,0.271-0.221,0.49-0.5,0.49C0.22,237.49,0,237.27,0,237V235.1c0-0.271,0.22-0.49,0.49-0.49
				c0.279,0,0.5,0.22,0.5,0.49V237z"/>
		</g>
	</g>
</g>
<g>
	<polygon fill="#FFFFFF" stroke="#636363" stroke-width="3" stroke-miterlimit="10" points="249.033,71.104 282.571,64.354 
		249.033,57.604 249.033,61.542 115.822,61.542 115.822,67.167 249.033,67.167 	"/>
</g>
<g>
	<polygon fill="#FFFFFF" stroke="#636363" stroke-width="3" stroke-miterlimit="10" points="253.569,176.407 284.071,186.745 
		259.399,164.651 257.699,168.079 114.407,83.848 111.979,88.746 255.27,172.977 	"/>
</g>
</svg>
