<?xml version="1.0" encoding="utf-8"?>
<!-- Generator: Adobe Illustrator 16.0.0, SVG Export Plug-In . SVG Version: 6.00 Build 0)  -->
<!DOCTYPE svg PUBLIC "-//W3C//DTD SVG 1.1//EN" "http://www.w3.org/Graphics/SVG/1.1/DTD/svg11.dtd">
<svg version="1.1"
	 id="Layer_1" xmlns:ev="http://www.w3.org/2001/xml-events" xmlns:v="http://schemas.microsoft.com/visio/2003/SVGExtensions/"
	 xmlns="http://www.w3.org/2000/svg" xmlns:xlink="http://www.w3.org/1999/xlink" x="0px" y="0px" width="417.141px"
	 height="249.984px" viewBox="0 0 417.141 249.984" enable-background="new 0 0 417.141 249.984" xml:space="preserve">
<v:documentProperties  v:viewMarkup="false" v:metric="true" v:langID="1031"></v:documentProperties>
<g>
	<title>Zeichenblatt-1</title>
	
		<v:pageProperties  v:shadowOffsetY="-8.50394" v:shadowOffsetX="8.50394" v:drawingUnits="24" v:pageScale="0.0393701" v:drawingScale="0.0393701">
		</v:pageProperties>
	<g id="group919-1" transform="translate(294.804,-147.815)">
		<title>Tabelle.919</title>
		<g id="group920-2">
			<title>Zeichenblatt-1</title>
			<g id="group921-3" transform="translate(0,-9.03782)">
				<v:userDefs>
					<v:ud  v:val="VT0(0):5" v:prompt="" v:nameU="CTypeTopLeftSnip"></v:ud>
					<v:ud  v:val="VT0(0):5" v:prompt="" v:nameU="CTypeTopRightSnip"></v:ud>
					<v:ud  v:val="VT0(0):5" v:prompt="" v:nameU="CTypeBotLeftSnip"></v:ud>
					<v:ud  v:val="VT0(0):5" v:prompt="" v:nameU="CTypeBotRightSnip"></v:ud>
					<v:ud  v:val="VT0(1):5" v:prompt="" v:nameU="CornerLockHoriz"></v:ud>
					<v:ud  v:val="VT0(1):5" v:prompt="" v:nameU="CornerLockVert"></v:ud>
					<v:ud  v:val="VT0(0):5" v:prompt="" v:nameU="CornerLockDiag"></v:ud>
					<v:ud  v:val="VT0(0):26" v:prompt="" v:nameU="TopLeftOffset"></v:ud>
					<v:ud  v:val="VT0(0):26" v:prompt="" v:nameU="TopRightOffset"></v:ud>
					<v:ud  v:val="VT0(0):26" v:prompt="" v:nameU="BotLeftOffset"></v:ud>
					<v:ud  v:val="VT0(0):26" v:prompt="" v:nameU="BotRightOffset"></v:ud>
					<v:ud  v:val="VT0(15):26" v:prompt="" v:nameU="visVersion"></v:ud>
				</v:userDefs>
				<title>Abgerundetes Rechteck</title>
				<g id="shape922-4">
					<title>Tabelle.922</title>
					<path d="M118.55,249.98H3.03c-1.67,0-3.03-1.35-3.03-3.03v-64.67c0-1.68,1.36-3.04,3.03-3.04h115.52
						c1.68,0,3.04,1.36,3.04,3.04v64.67C121.59,248.62,120.229,249.98,118.55,249.98z M6.069,243.92h109.45v-58.61H6.069V243.92z"/>
				</g>
			</g>
			<g id="group923-6" transform="translate(56.3867,-0.817006)">
				<v:userDefs>
					<v:ud  v:val="VT0(15):26" v:nameU="visVersion"></v:ud>
				</v:userDefs>
				<title>Rechteck</title>
				<g id="group924-7">
					<title>Tabelle.924</title>
					<g id="shape925-8" transform="translate(0.0728137,-0.0728137)">
						<title>Tabelle.925</title>
						<rect x="-0.001" y="237.083" width="6.021" height="12.9"/>
					</g>
					<g id="shape926-10">
						<title>Tabelle.926</title>
						<path d="M6.09,249.98H0.069C0.03,249.98,0,249.95,0,249.91v-12.9c0-0.04,0.03-0.07,0.069-0.07H6.09
							c0.04,0,0.08,0.03,0.08,0.07v12.9C6.17,249.95,6.13,249.98,6.09,249.98z M0.149,249.84h5.87v-12.76h-5.87V249.84z"/>
					</g>
				</g>
			</g>
			<g id="group927-12" transform="translate(32.9516,2.84217E-014)">
				<v:userDefs>
					<v:ud  v:val="VT0(15):26" v:nameU="visVersion"></v:ud>
				</v:userDefs>
				<title>Rechteck.71</title>
				<g id="group928-13">
					<title>Tabelle.928</title>
					<g id="shape929-14" transform="translate(0.0728137,-0.0728137)">
						<title>Tabelle.929</title>
						<rect x="0" y="246.974" width="54.095" height="3.009"/>
					</g>
					<g id="shape930-16">
						<title>Tabelle.930</title>
						<path d="M54.169,249.98H0.07c-0.04,0-0.07-0.03-0.07-0.07v-3.01c0-0.04,0.03-0.07,0.07-0.07h54.1c0.04,0,0.07,0.03,0.07,0.07
							v3.01C54.24,249.95,54.21,249.98,54.169,249.98z M0.15,249.84h53.939v-2.87H0.15V249.84z"/>
					</g>
				</g>
			</g>
		</g>
	</g>
	<g id="group931-18" transform="translate(0.611223,-148.745)">
		<title>Tabelle.931</title>
		<g id="group932-19">
			<title>Zeichenblatt-1</title>
			<g id="group933-20" transform="translate(13.1991,-13.749)">
				<title>Tabelle.74</title>
				<g id="shape934-21">
					<title>Tabelle.934</title>
					<path d="M98.24,249.98H1.76c-0.971,0-1.76-0.78-1.76-1.75v-54.4c0-0.97,0.789-1.76,1.76-1.76H98.24
						c0.971,0,1.761,0.79,1.761,1.76v54.4C100,249.2,99.21,249.98,98.24,249.98z M5.6,244.38h88.79v-46.71H5.6V244.38z"/>
				</g>
			</g>
			<g id="group935-23" transform="translate(1.89585,-1.75569)">
				<title>Tabelle.75</title>
				<g id="shape936-24">
					<title>Tabelle.936</title>
					<path d="M122.5,249.98l-10.87-10.84H10.87L0,249.98H122.5z"/>
				</g>
			</g>
			<g id="group937-26">
				<title>Tabelle.76</title>
				<g id="shape938-27">
					<title>Tabelle.938</title>
					<path d="M124.4,249.98H1.9c-0.71,0-1.359-0.42-1.63-1.08c-0.27-0.66-0.12-1.41,0.38-1.92l10.88-10.84
						c0.33-0.33,0.771-0.51,1.24-0.51h100.75c0.47,0,0.91,0.18,1.24,0.51l10.88,10.84c0.5,0.51,0.65,1.26,0.38,1.92
						C125.75,249.56,125.11,249.98,124.4,249.98z M6.14,246.47h114.01l-7.35-7.33H13.49L6.14,246.47z"/>
				</g>
			</g>
		</g>
	</g>
	<g id="group939-29" transform="translate(97.233,-55.0588) rotate(-15)">
		<title>Tabelle.939</title>
		<g id="group940-30">
			<title>Tabelle.940</title>
			<g id="shape941-31">
				<title>Tabelle.941</title>
				<path d="M0,190.501c0-1.13,0-2.251,0-3.381c0.139-0.89,0.24-1.79,0.41-2.67c2.25-11.46,11.849-18.89,22.24-19.31
					c0.73-0.03,0.98-0.32,1.189-0.96c2.451-7.72,7.51-12.97,15.111-15.67c1.95-0.69,4.05-0.92,6.09-1.36c1.12,0,2.25,0,3.37,0
					c0.181,0.05,0.361,0.13,0.54,0.15c5.1,0.47,9.57,2.4,13.401,5.79c0.55,0.49,0.89,0.38,1.42,0.02
					c4.99-3.39,10.509-4.83,16.499-4.04c6.05,0.79,11.13,3.54,15.09,8.2c3.34,3.93,5.26,8.5,5.58,13.67
					c0.05,0.75,0.48,0.82,0.98,0.95c8.33,2.24,13.99,7.411,16.85,15.531c0.659,1.89,0.89,3.93,1.319,5.89
					c0.001,1.19,0,2.38,0.001,3.57c-0.051,0.17-0.13,0.34-0.15,0.52c-0.44,4.77-2.24,8.97-5.27,12.65
					c-0.38,0.47-0.41,0.81-0.19,1.32c2.04,4.77,2.41,9.69,1.29,14.73c-2.99,13.4-17.29,21.59-30.34,17.37
					c-1.47-0.48-2.87-1.14-4.33-1.72c-0.12,0.131-0.25,0.26-0.38,0.401c-3.199,3.44-7.049,5.819-11.6,7.02
					c-1.369,0.359-2.79,0.55-4.189,0.81c-1.191-0.001-2.381,0-3.571,0.001c-0.18-0.05-0.35-0.12-0.53-0.14
					c-5.75-0.57-10.659-2.931-14.66-7.09c-1.171-1.23-2.18-2.62-3.28-3.95c-4.601,1.78-9.331,2.151-14.191,1.061
					c-13.25-2.96-21.42-16.84-17.55-29.871c0.18-0.61,0.1-0.92-0.44-1.27c-4.601-3.07-7.8-7.24-9.491-12.499
					C0.62,194.37,0.401,192.41,0,190.501z M24.41,171.02c0-0.04,0-0.08-0.01-0.12c-1.18,0.1-2.37,0.12-3.539,0.32
					c-7.79,1.31-13.69,7.31-14.78,15.35c-1.05,7.75,3.02,14.85,9.64,18.27c2.4,1.241,2.86,2.47,1.78,4.93
					c-1.4,3.21-1.74,6.569-1.12,9.99c2.16,11.94,15.14,18.33,25.93,12.81c2.28-1.17,3.739-0.701,4.9,1.56
					c6.169,12.1,22.42,13.41,30.44,2.45c1.559-2.13,2.879-2.381,5.069-0.91c3.751,2.51,7.87,3.459,12.31,2.83
					c12.351-1.751,19.21-15.311,13.331-26.3c-1.111-2.081-0.961-3.04,0.71-4.74c2.83-2.88,4.53-6.34,4.99-10.34
					c1.14-10.03-6.1-18.94-16.13-19.94c-1.69-0.17-2.77-1.36-2.811-3.06c-0.02-1.27-0.02-2.56-0.17-3.83
					c-1.24-10.68-12.28-17.88-22.65-14.8c-2.799,0.83-5.24,2.29-7.41,4.24c-1.49,1.33-3.1,1.21-4.47-0.23
					c-0.17-0.18-0.331-0.37-0.5-0.56c-8.92-9.76-24.95-6.88-29.88,5.39c-0.47,1.17-0.75,2.45-0.95,3.7
					c-0.32,2.06-1.471,3.1-3.55,2.99C25.16,171,24.79,171.02,24.41,171.02z"/>
			</g>
			<g id="shape942-33" transform="translate(0,-0.000375296)">
				<title>Tabelle.942</title>
				<path fill="#FFFFFF" d="M0,190.5c0.399,1.91,0.62,3.87,1.219,5.72c1.691,5.259,4.89,9.43,9.491,12.499
					c0.54,0.35,0.62,0.659,0.44,1.27c-3.871,13.03,4.3,26.91,17.55,29.87c4.86,1.08,9.59,0.72,14.189-1.06
					c1.1,1.33,2.11,2.72,3.281,3.951c4,4.159,8.91,6.52,14.66,7.09c0.18,0.02,0.35,0.09,0.53,0.14c-20.44,0-40.87,0-61.359,0
					C0,230.16,0,210.33,0,190.5z"/>
			</g>
			<g id="shape943-35" transform="translate(48.4132,-56.6697)">
				<title>Tabelle.943</title>
				<path fill="#FFFFFF" d="M71.68,249.98c-0.43-1.96-0.66-4.001-1.33-5.89c-2.86-8.12-8.519-13.29-16.839-15.53
					c-0.51-0.13-0.94-0.2-0.98-0.95c-0.33-5.17-2.24-9.74-5.591-13.671c-3.959-4.66-9.03-7.41-15.08-8.2
					c-5.99-0.79-11.51,0.65-16.51,4.04c-0.53,0.36-0.87,0.47-1.42-0.02c-3.82-3.39-8.299-5.32-13.399-5.79
					c-0.181-0.02-0.35-0.1-0.53-0.15c23.889,0,47.79,0,71.68,0C71.68,219.21,71.68,234.6,71.68,249.98z"/>
			</g>
			<g id="shape944-37" transform="translate(0,-62.8622)">
				<title>Tabelle.944</title>
				<path fill="#FFFFFF" d="M45.04,210.01c-2.04,0.44-4.14,0.67-6.09,1.36c-7.599,2.7-12.66,7.95-15.11,15.67
					c-0.21,0.64-0.461,0.93-1.19,0.96c-10.389,0.42-19.99,7.85-22.24,19.31c-0.17,0.89-0.27,1.78-0.41,2.67
					C0,236.67,0,223.37,0,210.01C15.01,210.01,30.02,210.01,45.04,210.01z"/>
			</g>
			<g id="shape945-39" transform="translate(64.9262,-0.000187648)">
				<title>Tabelle.945</title>
				<path fill="#FFFFFF" d="M0,249.98c1.4-0.26,2.82-0.45,4.189-0.81c4.55-1.199,8.41-3.58,11.61-7.02
					c0.12-0.14,0.25-0.271,0.37-0.4c1.46,0.58,2.871,1.24,4.33,1.72c13.05,4.22,27.35-3.971,30.34-17.37
					c1.13-5.039,0.75-9.96-1.28-14.73c-0.23-0.51-0.2-0.85,0.18-1.32c3.03-3.68,4.83-7.88,5.27-12.65
					c0.02-0.18,0.11-0.35,0.161-0.52c-0.001,17.68,0,35.371,0,53.1C36.78,249.98,18.39,249.98,0,249.98z"/>
			</g>
			<g id="shape946-41" transform="translate(5.02953,-2.44562)">
				<title>Tabelle.946</title>
				<path fill="#FFFFFF" d="M19.38,173.46c0.38,0,0.75-0.01,1.13,0.01c2.08,0.1,3.23-0.929,3.551-3c0.199-1.25,0.48-2.52,0.949-3.69
					c4.931-12.27,20.96-15.15,29.88-5.39c0.17,0.18,0.33,0.37,0.501,0.55c1.37,1.45,2.979,1.57,4.47,0.23
					c2.17-1.95,4.61-3.4,7.42-4.23c10.36-3.08,21.4,4.11,22.65,14.8c0.14,1.26,0.14,2.55,0.17,3.83c0.03,1.69,1.11,2.89,2.8,3.05
					c10.03,1,17.27,9.91,16.13,19.94c-0.46,4.01-2.16,7.46-4.99,10.35c-1.67,1.7-1.82,2.66-0.71,4.74
					c5.88,10.99-0.98,24.55-13.33,26.29c-4.44,0.629-8.559-0.32-12.309-2.821c-2.19-1.47-3.51-1.22-5.07,0.91
					c-8.019,10.95-24.27,9.651-30.44-2.45c-1.16-2.269-2.62-2.729-4.9-1.56c-10.79,5.521-23.77-0.879-25.929-12.81
					c-0.62-3.42-0.28-6.78,1.12-10c1.081-2.46,0.63-3.689-1.78-4.929c-6.62-3.42-10.69-10.52-9.64-18.26
					c1.089-8.05,6.989-14.04,14.79-15.36c1.16-0.19,2.349-0.21,3.539-0.32C19.38,173.38,19.38,173.42,19.38,173.46z"/>
			</g>
		</g>
	</g>
	<g id="shape947-43" transform="translate(173.984,-117.901)">
		<title>Tabelle.947</title>
		<desc>Internet</desc>
		<v:textBlock  v:tabSpace="42.5197" v:margins="rect(4,4,4,4)"></v:textBlock>
		<v:textRect  width="65.29" height="21.7621" cy="239.102" cx="32.6432"></v:textRect>
		<rect x="0" y="228.221" fill="none" width="65.287" height="21.762"/>
	</g>
	<g id="shape948-46" transform="translate(21.154,-219.986)">
		<title>Tabelle.948</title>
		<desc>Schule</desc>
		<v:textBlock  v:tabSpace="42.5197" v:margins="rect(4,4,4,4)"></v:textBlock>
		<v:textRect  width="85.21" height="18.2839" cy="240.841" cx="42.6021"></v:textRect>
		<rect x="0" y="231.699" fill="none" width="85.205" height="18.284"/>
		<text transform="matrix(1 0 0 1 24.92 244.4396)" enable-background="new    " font-family="'Roboto-Light'" font-size="12.0001">Schule<v:paragraph  v:horizAlign="1"></v:paragraph><v:tabList></v:tabList></text>
	</g>
	<g id="shape949-49" transform="translate(321.035,-227.846)">
		<title>Tabelle.949</title>
		<desc>Partner X</desc>
		<v:textBlock  v:tabSpace="42.5197" v:margins="rect(4,4,4,4)"></v:textBlock>
		<v:textRect  width="69.13" height="21.7621" cy="239.102" cx="34.563"></v:textRect>
		<rect x="-0.001" y="228.221" fill="none" width="69.126" height="21.762"/>
		<text transform="matrix(1 0 0 1 10.1595 242.7)" enable-background="new    " font-family="'Roboto-Light'" font-size="12.0001">Partner X<v:paragraph  v:horizAlign="1"></v:paragraph><v:tabList></v:tabList></text>
	</g>
	<g id="shape950-52" transform="translate(163.078,-134.81) rotate(-23.0372)">
		<title>Tabelle.950</title>
		
			<path fill="none" stroke="#000000" stroke-width="0.75" stroke-linecap="round" stroke-linejoin="round" stroke-miterlimit="3" d="
			M0,249.98h39.59"/>
	</g>
	<g id="group956-55" transform="translate(294.804,-34.7597)">
		<title>Tabelle.956</title>
		<g id="group957-56">
			<title>Zeichenblatt-1</title>
			<g id="group958-57" transform="translate(0,-9.03782)">
				<v:userDefs>
					<v:ud  v:val="VT0(0):5" v:prompt="" v:nameU="CTypeTopLeftSnip"></v:ud>
					<v:ud  v:val="VT0(0):5" v:prompt="" v:nameU="CTypeTopRightSnip"></v:ud>
					<v:ud  v:val="VT0(0):5" v:prompt="" v:nameU="CTypeBotLeftSnip"></v:ud>
					<v:ud  v:val="VT0(0):5" v:prompt="" v:nameU="CTypeBotRightSnip"></v:ud>
					<v:ud  v:val="VT0(1):5" v:prompt="" v:nameU="CornerLockHoriz"></v:ud>
					<v:ud  v:val="VT0(1):5" v:prompt="" v:nameU="CornerLockVert"></v:ud>
					<v:ud  v:val="VT0(0):5" v:prompt="" v:nameU="CornerLockDiag"></v:ud>
					<v:ud  v:val="VT0(0):26" v:prompt="" v:nameU="TopLeftOffset"></v:ud>
					<v:ud  v:val="VT0(0):26" v:prompt="" v:nameU="TopRightOffset"></v:ud>
					<v:ud  v:val="VT0(0):26" v:prompt="" v:nameU="BotLeftOffset"></v:ud>
					<v:ud  v:val="VT0(0):26" v:prompt="" v:nameU="BotRightOffset"></v:ud>
					<v:ud  v:val="VT0(15):26" v:prompt="" v:nameU="visVersion"></v:ud>
				</v:userDefs>
				<title>Abgerundetes Rechteck</title>
				<g id="shape959-58">
					<title>Tabelle.959</title>
					<path d="M118.55,249.981H3.03c-1.67,0-3.03-1.351-3.03-3.031v-64.67c0-1.68,1.36-3.039,3.03-3.039h115.52
						c1.68,0,3.04,1.359,3.04,3.039v64.67C121.59,248.62,120.229,249.981,118.55,249.981z M6.069,243.92h109.45v-58.609H6.069
						V243.92z"/>
				</g>
			</g>
			<g id="group960-60" transform="translate(56.3867,-0.817006)">
				<v:userDefs>
					<v:ud  v:val="VT0(15):26" v:nameU="visVersion"></v:ud>
				</v:userDefs>
				<title>Rechteck</title>
				<g id="group961-61">
					<title>Tabelle.961</title>
					<g id="shape962-62" transform="translate(0.0728137,-0.0728137)">
						<title>Tabelle.962</title>
						<rect x="-0.001" y="237.083" width="6.021" height="12.9"/>
					</g>
					<g id="shape963-64">
						<title>Tabelle.963</title>
						<path d="M6.09,249.981H0.069c-0.039,0-0.069-0.03-0.069-0.07v-12.9c0-0.04,0.03-0.07,0.069-0.07H6.09
							c0.04,0,0.08,0.03,0.08,0.07v12.9C6.17,249.95,6.13,249.981,6.09,249.981z M0.149,249.84h5.87v-12.76h-5.87V249.84z"/>
					</g>
				</g>
			</g>
			<g id="group964-66" transform="translate(32.9516,2.84217E-014)">
				<v:userDefs>
					<v:ud  v:val="VT0(15):26" v:nameU="visVersion"></v:ud>
				</v:userDefs>
				<title>Rechteck.71</title>
				<g id="group965-67">
					<title>Tabelle.965</title>
					<g id="shape966-68" transform="translate(0.0728137,-0.0728137)">
						<title>Tabelle.966</title>
						<rect x="0" y="246.975" width="54.095" height="3.01"/>
					</g>
					<g id="shape967-70">
						<title>Tabelle.967</title>
						<path d="M54.169,249.98H0.07c-0.04,0-0.07-0.029-0.07-0.07v-3.01c0-0.04,0.03-0.07,0.07-0.07h54.1c0.04,0,0.07,0.03,0.07,0.07
							v3.01C54.24,249.951,54.209,249.98,54.169,249.98z M0.15,249.84h53.939v-2.87H0.15V249.84z"/>
					</g>
				</g>
			</g>
		</g>
	</g>
	<g id="shape968-72" transform="translate(321.035,-114.791)">
		<title>Tabelle.968</title>
		<desc>Partner Y</desc>
		<v:textBlock  v:tabSpace="42.5197" v:margins="rect(4,4,4,4)"></v:textBlock>
		<v:textRect  width="69.13" height="21.7621" cy="239.102" cx="34.563"></v:textRect>
		<rect x="-0.001" y="228.221" fill="none" width="69.126" height="21.762"/>
		
			<text transform="matrix(1 0 0 1 10.2396 242.6998)" enable-background="new    " font-family="'Roboto-Light'" font-size="12.0001">Partner Y<v:paragraph  v:horizAlign="1"></v:paragraph><v:tabList></v:tabList></text>
	</g>
	<g id="shape969-75" transform="translate(388.29,-80.6593) rotate(30.3701)">
		<title>Tabelle.969</title>
		
			<path fill="none" stroke="#000000" stroke-width="0.75" stroke-linecap="round" stroke-linejoin="round" stroke-miterlimit="3" d="
			M0,249.98l40.08,0"/>
	</g>
	<g id="shape970-78" transform="translate(208.853,-154.882) rotate(23.2469)">
		<title>Tabelle.970</title>
		
			<path fill="none" stroke="#000000" stroke-width="0.75" stroke-linecap="round" stroke-linejoin="round" stroke-miterlimit="3" d="
			M0,249.98l60.269,0.001"/>
	</g>
	<g id="group971-81" transform="translate(1.26706,-40.0985)">
		<title>Tabelle.971</title>
		<g id="group972-82">
			<title>Zeichenblatt-1</title>
			<g id="group973-83" transform="translate(0,-9.03782)">
				<v:userDefs>
					<v:ud  v:val="VT0(0):5" v:prompt="" v:nameU="CTypeTopLeftSnip"></v:ud>
					<v:ud  v:val="VT0(0):5" v:prompt="" v:nameU="CTypeTopRightSnip"></v:ud>
					<v:ud  v:val="VT0(0):5" v:prompt="" v:nameU="CTypeBotLeftSnip"></v:ud>
					<v:ud  v:val="VT0(0):5" v:prompt="" v:nameU="CTypeBotRightSnip"></v:ud>
					<v:ud  v:val="VT0(1):5" v:prompt="" v:nameU="CornerLockHoriz"></v:ud>
					<v:ud  v:val="VT0(1):5" v:prompt="" v:nameU="CornerLockVert"></v:ud>
					<v:ud  v:val="VT0(0):5" v:prompt="" v:nameU="CornerLockDiag"></v:ud>
					<v:ud  v:val="VT0(0):26" v:prompt="" v:nameU="TopLeftOffset"></v:ud>
					<v:ud  v:val="VT0(0):26" v:prompt="" v:nameU="TopRightOffset"></v:ud>
					<v:ud  v:val="VT0(0):26" v:prompt="" v:nameU="BotLeftOffset"></v:ud>
					<v:ud  v:val="VT0(0):26" v:prompt="" v:nameU="BotRightOffset"></v:ud>
					<v:ud  v:val="VT0(15):26" v:prompt="" v:nameU="visVersion"></v:ud>
				</v:userDefs>
				<title>Abgerundetes Rechteck</title>
				<g id="shape974-84">
					<title>Tabelle.974</title>
					<path d="M118.55,249.98H3.03c-1.67,0-3.03-1.35-3.03-3.029v-64.67c0-1.68,1.36-3.041,3.03-3.041h115.52
						c1.681,0,3.04,1.361,3.04,3.041v64.67C121.59,248.62,120.23,249.98,118.55,249.98z M6.07,243.92h109.45v-58.61H6.07V243.92z"/>
				</g>
			</g>
			<g id="group975-86" transform="translate(56.3867,-0.817006)">
				<v:userDefs>
					<v:ud  v:val="VT0(15):26" v:nameU="visVersion"></v:ud>
				</v:userDefs>
				<title>Rechteck</title>
				<g id="group976-87">
					<title>Tabelle.976</title>
					<g id="shape977-88" transform="translate(0.0728137,-0.0728137)">
						<title>Tabelle.977</title>
						<rect x="0" y="237.084" width="6.02" height="12.899"/>
					</g>
					<g id="shape978-90">
						<title>Tabelle.978</title>
						<path d="M6.09,249.98H0.07c-0.04,0-0.07-0.029-0.07-0.069v-12.899c0-0.041,0.03-0.07,0.07-0.07h6.02
							c0.04,0,0.08,0.029,0.08,0.07v12.899C6.17,249.95,6.13,249.98,6.09,249.98z M0.15,249.84h5.87v-12.76H0.15V249.84z"/>
					</g>
				</g>
			</g>
			<g id="group979-92" transform="translate(32.9516,2.84217E-014)">
				<v:userDefs>
					<v:ud  v:val="VT0(15):26" v:nameU="visVersion"></v:ud>
				</v:userDefs>
				<title>Rechteck.71</title>
				<g id="group980-93">
					<title>Tabelle.980</title>
					<g id="shape981-94" transform="translate(0.0728137,-0.0728137)">
						<title>Tabelle.981</title>
						<rect x="0" y="246.974" width="54.095" height="3.01"/>
					</g>
					<g id="shape982-96">
						<title>Tabelle.982</title>
						<path d="M54.17,249.98H0.07c-0.04,0-0.069-0.03-0.069-0.069V246.9c0-0.04,0.029-0.069,0.069-0.069H54.17
							c0.04,0,0.069,0.029,0.069,0.069v3.011C54.24,249.95,54.21,249.98,54.17,249.98z M0.15,249.84h53.94v-2.87H0.15V249.84z"/>
					</g>
				</g>
			</g>
		</g>
	</g>
	<g id="shape983-98" transform="translate(27.4975,-120.13)">
		<title>Tabelle.983</title>
		<desc>Heim-PC</desc>
		<v:textBlock  v:tabSpace="42.5197" v:margins="rect(4,4,4,4)"></v:textBlock>
		<v:textRect  width="69.13" height="21.7621" cy="239.102" cx="34.563"></v:textRect>
		<rect x="0" y="228.221" fill="none" width="69.126" height="21.762"/>
		
			<text transform="matrix(1 0 0 1 11.2498 242.6999)" enable-background="new    " font-family="'Roboto-Light'" font-size="12.0001">Heim-PC<v:paragraph  v:horizAlign="1"></v:paragraph><v:tabList></v:tabList></text>
	</g>
	<g id="shape984-101" transform="translate(250.821,364.972) rotate(156.907)">
		<title>Tabelle.984</title>
		
			<path fill="none" stroke="#000000" stroke-width="0.75" stroke-linecap="round" stroke-linejoin="round" stroke-miterlimit="3" d="
			M0,249.98l32.52-0.001"/>
	</g>
	<g id="group1079-104" transform="translate(45.0426,-0.749992)">
		<title>Tabelle.1079</title>
		<g id="group1080-105">
			<title>Layer_2</title>
			<g id="group1081-106" transform="translate(0,-25.7364)">
				<title>Tabelle.1081</title>
				<g id="shape1082-107" transform="translate(1.85306,-1.85279)">
					<title>Tabelle.1082</title>
					<ellipse fill="#FFFFFF" cx="37.425" cy="212.559" rx="37.424" ry="37.424"/>
				</g>
				<g id="shape1083-109">
					<title>Tabelle.1083</title>
					<path fill="#808285" d="M39.28,249.98C17.62,249.98,0,232.36,0,210.711c0-21.66,17.62-39.28,39.28-39.28
						s39.271,17.62,39.271,39.28C78.55,232.36,60.94,249.98,39.28,249.98z M39.28,175.13c-19.62,0-35.57,15.959-35.57,35.58
						c0,19.609,15.95,35.569,35.57,35.569c19.61,0,35.57-15.96,35.57-35.569C74.85,191.089,58.89,175.13,39.28,175.13z"/>
				</g>
			</g>
			<g id="shape1084-111" transform="translate(243.98,385.937) rotate(135)">
				<title>Tabelle.1084</title>
				<rect x="0" y="200.763" fill="#808285" width="8.496" height="49.221"/>
			</g>
		</g>
	</g>
	<g id="group1085-113" transform="translate(80.3843,-67.1158)">
		<title>Tabelle.1085</title>
		<g id="group1086-114">
			<title>Zeichenblatt-1</title>
			<g id="group1087-115">
				<title>Tabelle.44</title>
				<g id="group1088-116">
					<title>Tabelle.1088</title>
					<g id="shape1089-117" transform="translate(0.00298007,-0.00178804)">
						<title>Tabelle.1089</title>
						<path d="M14.17,249.24v-4.5h-1.5v4.5H14.17z M14.17,243.24v-4.5h-1.5v4.5H14.17z M12.67,237.23h1.5v-1.42
							c0-0.16-0.05-0.32-0.149-0.45l-1.851-2.45l-1.199,0.9l1.689,2.26L12.67,237.23z M10.52,231.7H6.01v1.5h4.51V231.7z
							 M4.51,233.2v-1.5H0.75c-0.41,0-0.75,0.34-0.75,0.75v0.76L4.51,233.2z M0,234.71v4.5h1.5v-4.5H0z M0,240.7v4.5h1.5v-4.5H0z
							 M1.5,246.71H0v2.53c0,0.41,0.34,0.74,0.75,0.74H2.72v-1.49L1.5,248.48V246.71z M4.23,249.98h4.5v-1.49h-4.5V249.98z
							 M10.24,249.98h3.18v-1.49h-3.18V249.98z"/>
						<path fill="none" d="M14.17,249.24v-4.5h-1.5v4.5H14.17 M14.17,243.24v-4.5h-1.5v4.5H14.17 M12.67,237.23h1.5v-1.42
							c0-0.16-0.05-0.32-0.149-0.45l-1.851-2.45l-1.199,0.9l1.689,2.26 M10.52,231.7H6.01v1.5h4.51V231.7 M4.51,233.2v-1.5H0.75
							c-0.41,0-0.75,0.34-0.75,0.75v0.76 M0,234.71v4.5h1.5v-4.5H0 M0,240.7v4.5h1.5v-4.5H0 M1.5,246.71H0v2.53
							c0,0.41,0.34,0.74,0.75,0.74H2.72v-1.49L1.5,248.48 M4.23,249.98h4.5v-1.49h-4.5V249.98 M10.24,249.98h3.18v-1.49h-3.18
							V249.98"/>
					</g>
					<g id="shape1090-120">
						<title>Tabelle.1090</title>
						<path d="M13.42,249.981h-3.18l0,0v-1.5l0,0h2.43v-3.74v-0.01h1.5v0.01v4.5l0,0h-0.75V249.981L13.42,249.981z M10.24,249.981
							h3.18v-0.74h-0.75l0,0v-0.75h-2.43V249.981z M13.42,249.231h0.75v-4.49h-1.5v3.74h0.75c0,0,0,0,0,0.01V249.231z
							 M12.67,249.231h0.75v-0.74h-0.75V249.231z M8.73,249.981h-4.5l0,0v-1.5l0,0h4.51l0,0v1.5
							C8.74,249.981,8.74,249.981,8.73,249.981z M4.23,249.981h4.5v-1.49h-4.5V249.981z M2.73,249.981H0.75
							c-0.41,0-0.75-0.33-0.75-0.74v-2.54l0,0h1.5c0.011,0,0.011,0,0.011,0v1.78h1.22l0,0V249.981L2.73,249.981z M1.5,248.481
							v-1.771H0.01v2.53c0,0.41,0.329,0.74,0.739,0.74H2.72v-1.49H1.51L1.5,248.481z M1.5,245.2H0l0,0v-4.5l0,0h1.5
							c0.011,0,0.011,0,0.011,0v4.5C1.51,245.2,1.51,245.2,1.5,245.2z M0.01,245.2H1.5v-4.5H0.01V245.2z M14.17,243.24h-1.5
							c0,0,0,0,0-0.01v-4.5l0,0h1.5l0,0V243.24L14.17,243.24z M12.67,243.231h1.5v-4.49h-1.5V243.231z M1.5,239.21H0l0,0v-4.5
							c0-0.01,0-0.01,0-0.01h1.5c0.011,0,0.011,0,0.011,0.01v4.5C1.51,239.21,1.51,239.21,1.5,239.21z M0.01,239.2H1.5v-4.49H0.01
							V239.2z M14.17,237.24h-1.5v-0.01v-1.17l-1.699-2.25V233.8l1.199-0.899l0,0l1.851,2.449c0.1,0.141,0.149,0.291,0.149,0.461
							v1.42V237.24z M1.5,233.21H0v-0.01v-0.75c0-0.41,0.34-0.75,0.75-0.75H4.51l0,0v1.5l0,0h-3l0,0
							C1.51,233.2,1.51,233.21,1.5,233.21z M1.51,233.2h3v-1.5H0.75c-0.41,0-0.739,0.34-0.739,0.75v0.75H1.51z M10.52,233.2H6.01
							l0,0v-1.5l0,0h4.51l0,0V233.2C10.53,233.2,10.52,233.2,10.52,233.2z M6.01,233.2h4.51v-1.5H6.01V233.2z"/>
						<path fill="none" d="M13.42,249.981h-3.18l0,0v-1.5l0,0h2.43v-3.74v-0.01h1.5v0.01v4.5l0,0h-0.75V249.981L13.42,249.981
							 M10.24,249.981h3.18v-0.74h-0.75l0,0v-0.75h-2.43V249.981 M13.42,249.231h0.75v-4.49h-1.5v3.74h0.75c0,0,0,0,0,0.01V249.231
							 M12.67,249.231h0.75v-0.74h-0.75V249.231 M8.73,249.981h-4.5l0,0v-1.5l0,0h4.51l0,0v1.5
							C8.74,249.981,8.74,249.981,8.73,249.981 M4.23,249.981h4.5v-1.49h-4.5V249.981 M2.73,249.981H0.75
							c-0.41,0-0.75-0.33-0.75-0.74v-2.54l0,0h1.5c0.011,0,0.011,0,0.011,0v1.78h1.22l0,0V249.981L2.73,249.981 M1.5,248.481v-1.771
							H0.01v2.53c0,0.41,0.329,0.74,0.739,0.74H2.72v-1.49H1.51 M1.5,245.2H0l0,0v-4.5l0,0h1.5c0.011,0,0.011,0,0.011,0v4.5
							C1.51,245.2,1.51,245.2,1.5,245.2 M0.01,245.2H1.5v-4.5H0.01V245.2 M14.17,243.24h-1.5c0,0,0,0,0-0.01v-4.5l0,0h1.5l0,0
							V243.24L14.17,243.24 M12.67,243.231h1.5v-4.49h-1.5V243.231 M1.5,239.21H0l0,0v-4.5c0-0.01,0-0.01,0-0.01h1.5
							c0.011,0,0.011,0,0.011,0.01v4.5C1.51,239.21,1.51,239.21,1.5,239.21 M0.01,239.2H1.5v-4.49H0.01V239.2 M14.17,237.24h-1.5
							v-0.01v-1.17l-1.699-2.25V233.8l1.199-0.899l0,0l1.851,2.449c0.1,0.141,0.149,0.291,0.149,0.461v1.42V237.24 M1.5,233.21H0
							v-0.01v-0.75c0-0.41,0.34-0.75,0.75-0.75H4.51l0,0v1.5l0,0h-3l0,0C1.51,233.2,1.51,233.21,1.5,233.21 M1.51,233.2h3v-1.5H0.75
							c-0.41,0-0.739,0.34-0.739,0.75v0.75 M10.52,233.2H6.01l0,0v-1.5l0,0h4.51l0,0V233.2C10.53,233.2,10.52,233.2,10.52,233.2
							 M6.01,233.2h4.51v-1.5H6.01V233.2"/>
					</g>
				</g>
			</g>
			<g id="shape1091-123" transform="translate(10.2433,-0.00432219)">
				<title>Tabelle.1091</title>
				<path d="M2.43,244.741h1.49v4.5H3.17v0.739H0v-1.489H2.42L2.43,244.741z"/>
			</g>
		</g>
	</g>
	<g id="group1092-125" transform="translate(97.3922,-67.1158)">
		<title>Tabelle.1092</title>
		<g id="group1093-126">
			<title>Zeichenblatt-1</title>
			<g id="group1094-127">
				<title>Tabelle.44</title>
				<g id="group1095-128">
					<title>Tabelle.1095</title>
					<g id="shape1096-129" transform="translate(0.00298007,-0.00178804)">
						<title>Tabelle.1096</title>
						<path d="M14.17,249.24v-4.5h-1.5v4.5H14.17z M14.17,243.24v-4.5h-1.5v4.5H14.17z M12.67,237.23h1.5v-1.42
							c0-0.16-0.051-0.32-0.15-0.45l-1.85-2.45l-1.2,0.9l1.689,2.26L12.67,237.23z M10.52,231.7H6.01v1.5h4.51V231.7z M4.51,233.2
							v-1.5H0.75c-0.409,0-0.75,0.34-0.75,0.75v0.76L4.51,233.2z M0,234.71v4.5h1.5v-4.5H0z M0,240.7v4.5h1.5v-4.5H0z M1.5,246.71H0
							v2.53c0,0.41,0.341,0.74,0.75,0.74H2.72v-1.49L1.5,248.48V246.71z M4.23,249.98h4.5v-1.49h-4.5V249.98z M10.24,249.98h3.181
							v-1.49H10.24V249.98z"/>
						<path fill="none" d="M14.17,249.24v-4.5h-1.5v4.5H14.17 M14.17,243.24v-4.5h-1.5v4.5H14.17 M12.67,237.23h1.5v-1.42
							c0-0.16-0.051-0.32-0.15-0.45l-1.85-2.45l-1.2,0.9l1.689,2.26 M10.52,231.7H6.01v1.5h4.51V231.7 M4.51,233.2v-1.5H0.75
							c-0.409,0-0.75,0.34-0.75,0.75v0.76 M0,234.71v4.5h1.5v-4.5H0 M0,240.7v4.5h1.5v-4.5H0 M1.5,246.71H0v2.53
							c0,0.41,0.341,0.74,0.75,0.74H2.72v-1.49L1.5,248.48 M4.23,249.98h4.5v-1.49h-4.5V249.98 M10.24,249.98h3.181v-1.49H10.24
							V249.98"/>
					</g>
					<g id="shape1097-132">
						<title>Tabelle.1097</title>
						<path d="M13.419,249.981h-3.18l0,0v-1.5l0,0h2.43v-3.74v-0.01h1.5v0.01v4.5l0,0h-0.75V249.981L13.419,249.981z M10.24,249.981
							h3.18v-0.74h-0.75l0,0v-0.75h-2.43V249.981z M13.419,249.231h0.75v-4.49h-1.5v3.74h0.75c0,0,0,0,0,0.01V249.231z
							 M12.669,249.231h0.75v-0.74h-0.75V249.231z M8.73,249.981h-4.5l0,0v-1.5l0,0h4.51l0,0v1.5
							C8.74,249.981,8.74,249.981,8.73,249.981z M4.23,249.981h4.5v-1.49h-4.5V249.981z M2.73,249.981H0.75
							c-0.409,0-0.75-0.33-0.75-0.74v-2.54l0,0h1.5c0.011,0,0.011,0,0.011,0v1.78h1.22l0,0V249.981L2.73,249.981z M1.5,248.481
							v-1.771H0.01v2.53c0,0.41,0.33,0.74,0.739,0.74H2.72v-1.49H1.51L1.5,248.481z M1.5,245.2H0l0,0v-4.5l0,0h1.5
							c0.011,0,0.011,0,0.011,0v4.5C1.51,245.2,1.51,245.2,1.5,245.2z M0.01,245.2H1.5v-4.5H0.01V245.2z M14.169,243.24h-1.5
							c0,0,0,0,0-0.01v-4.5l0,0h1.5l0,0V243.24L14.169,243.24z M12.669,243.231h1.5v-4.49h-1.5V243.231z M1.5,239.21H0l0,0v-4.5
							c0-0.01,0-0.01,0-0.01h1.5c0.011,0,0.011,0,0.011,0.01v4.5C1.51,239.21,1.51,239.21,1.5,239.21z M0.01,239.2H1.5v-4.49H0.01
							V239.2z M14.169,237.24h-1.5v-0.01v-1.17l-1.699-2.25V233.8l1.199-0.899l0,0l1.851,2.449c0.1,0.141,0.149,0.291,0.149,0.461
							v1.42V237.24z M1.5,233.21H0v-0.01v-0.75c0-0.41,0.341-0.75,0.75-0.75H4.51l0,0v1.5l0,0h-3l0,0
							C1.51,233.2,1.51,233.21,1.5,233.21z M1.51,233.2h3v-1.5H0.75c-0.409,0-0.739,0.34-0.739,0.75v0.75H1.51z M10.52,233.2H6.01
							l0,0v-1.5l0,0h4.51l0,0V233.2C10.53,233.2,10.52,233.2,10.52,233.2z M6.01,233.2h4.51v-1.5H6.01V233.2z"/>
						<path fill="none" d="M13.419,249.981h-3.18l0,0v-1.5l0,0h2.43v-3.74v-0.01h1.5v0.01v4.5l0,0h-0.75V249.981L13.419,249.981
							 M10.24,249.981h3.18v-0.74h-0.75l0,0v-0.75h-2.43V249.981 M13.419,249.231h0.75v-4.49h-1.5v3.74h0.75c0,0,0,0,0,0.01V249.231
							 M12.669,249.231h0.75v-0.74h-0.75V249.231 M8.73,249.981h-4.5l0,0v-1.5l0,0h4.51l0,0v1.5
							C8.74,249.981,8.74,249.981,8.73,249.981 M4.23,249.981h4.5v-1.49h-4.5V249.981 M2.73,249.981H0.75
							c-0.409,0-0.75-0.33-0.75-0.74v-2.54l0,0h1.5c0.011,0,0.011,0,0.011,0v1.78h1.22l0,0V249.981L2.73,249.981 M1.5,248.481
							v-1.771H0.01v2.53c0,0.41,0.33,0.74,0.739,0.74H2.72v-1.49H1.51 M1.5,245.2H0l0,0v-4.5l0,0h1.5c0.011,0,0.011,0,0.011,0v4.5
							C1.51,245.2,1.51,245.2,1.5,245.2 M0.01,245.2H1.5v-4.5H0.01V245.2 M14.169,243.24h-1.5c0,0,0,0,0-0.01v-4.5l0,0h1.5l0,0
							V243.24L14.169,243.24 M12.669,243.231h1.5v-4.49h-1.5V243.231 M1.5,239.21H0l0,0v-4.5c0-0.01,0-0.01,0-0.01h1.5
							c0.011,0,0.011,0,0.011,0.01v4.5C1.51,239.21,1.51,239.21,1.5,239.21 M0.01,239.2H1.5v-4.49H0.01V239.2 M14.169,237.24h-1.5
							v-0.01v-1.17l-1.699-2.25V233.8l1.199-0.899l0,0l1.851,2.449c0.1,0.141,0.149,0.291,0.149,0.461v1.42V237.24 M1.5,233.21H0
							v-0.01v-0.75c0-0.41,0.341-0.75,0.75-0.75H4.51l0,0v1.5l0,0h-3l0,0C1.51,233.2,1.51,233.21,1.5,233.21 M1.51,233.2h3v-1.5
							H0.75c-0.409,0-0.739,0.34-0.739,0.75v0.75 M10.52,233.2H6.01l0,0v-1.5l0,0h4.51l0,0V233.2
							C10.53,233.2,10.52,233.2,10.52,233.2 M6.01,233.2h4.51v-1.5H6.01V233.2"/>
					</g>
				</g>
			</g>
			<g id="shape1098-135" transform="translate(10.2433,-0.00432219)">
				<title>Tabelle.1098</title>
				<path d="M2.43,244.741h1.49v4.5H3.17v0.739H0v-1.489h2.42L2.43,244.741z"/>
			</g>
		</g>
	</g>
	<g id="group1099-137" transform="translate(83.7804,-70.6292)">
		<title>Tabelle.1099</title>
		<g id="group1100-138">
			<title>Zeichenblatt-1</title>
			<g id="group1101-139" transform="translate(0.781821,-0.781821)">
				<title>Tabelle.84</title>
				<g id="shape1102-140">
					<title>Tabelle.1102</title>
					<path d="M-0.001,245.35v4.63H6.09v-4.63H-0.001z"/>
				</g>
			</g>
			<g id="group1103-142">
				<title>Tabelle.85</title>
				<g id="shape1104-143">
					<title>Tabelle.1104</title>
					<path d="M6.87,249.98H0.78c-0.431,0-0.78-0.35-0.78-0.78v-4.63c0-0.43,0.35-0.78,0.78-0.78h6.09c0.439,0,0.79,0.351,0.79,0.78
						v4.63C7.66,249.631,7.31,249.98,6.87,249.98z M1.56,248.42h4.53v-3.07H1.56V248.42z"/>
				</g>
			</g>
			<g id="group1105-145" transform="translate(1.56447,-7.70073)">
				<title>Tabelle.86</title>
				<g id="shape1106-146">
					<title>Tabelle.1106</title>
					<path d="M0,249.98c0-1.24,1.02-2.26,2.26-2.26c1.26,0,2.271,1.02,2.271,2.26H3.4c0-0.619-0.511-1.13-1.141-1.13
						c-0.62,0-1.13,0.511-1.13,1.13H0z"/>
				</g>
			</g>
		</g>
		<g id="group1107-148" transform="translate(1.56442,-5.00901)">
			<title>Tabelle.90</title>
			<g id="shape1108-149">
				<title>Tabelle.1108</title>
				<path d="M0,247.39v2.59h1.13v-2.72H0V247.39z"/>
			</g>
		</g>
		<g id="group1109-151" transform="translate(4.96131,-5.00901)">
			<title>Tabelle.1109</title>
			<g id="shape1110-152">
				<title>Tabelle.1110</title>
				<path d="M0,247.39v2.59h1.13v-2.72H0V247.39z"/>
			</g>
		</g>
		<g id="shape1111-154" transform="translate(2.86806,-3.05898)">
			<title>Tabelle.1111</title>
			<ellipse fill="#FFFFFF" cx="0.96" cy="249.023" rx="0.96" ry="0.96"/>
		</g>
		<g id="shape1112-156" transform="translate(3.33348,-1.13819)">
			<title>Tabelle.1112</title>
			<path fill="#FFFFFF" d="M0.99,249.49c0,0.271-0.22,0.49-0.5,0.49c-0.27,0-0.49-0.22-0.49-0.49v-1.89c0-0.28,0.221-0.5,0.49-0.5
				c0.28,0,0.5,0.22,0.5,0.5V249.49z"/>
		</g>
	</g>
	<g id="group1113-158" transform="translate(100.78,-70.6292)">
		<title>Tabelle.1113</title>
		<g id="group1114-159">
			<title>Zeichenblatt-1</title>
			<g id="group1115-160" transform="translate(0.781821,-0.781821)">
				<title>Tabelle.84</title>
				<g id="shape1116-161">
					<title>Tabelle.1116</title>
					<path d="M0,245.35v4.63h6.09v-4.63H0z"/>
				</g>
			</g>
			<g id="group1117-163">
				<title>Tabelle.85</title>
				<g id="shape1118-164">
					<title>Tabelle.1118</title>
					<path d="M6.87,249.98H0.78c-0.43,0-0.78-0.35-0.78-0.78v-4.63c0-0.43,0.351-0.78,0.78-0.78h6.09c0.44,0,0.79,0.351,0.79,0.78
						v4.63C7.66,249.631,7.31,249.98,6.87,249.98z M1.56,248.42h4.53v-3.07H1.56V248.42z"/>
				</g>
			</g>
			<g id="group1119-166" transform="translate(1.56447,-7.70073)">
				<title>Tabelle.86</title>
				<g id="shape1120-167">
					<title>Tabelle.1120</title>
					<path d="M-0.001,249.98c0-1.24,1.021-2.26,2.261-2.26c1.26,0,2.27,1.02,2.27,2.26H3.4c0-0.619-0.51-1.13-1.14-1.13
						c-0.62,0-1.13,0.511-1.13,1.13H-0.001z"/>
				</g>
			</g>
		</g>
		<g id="group1121-169" transform="translate(1.56442,-5.00901)">
			<title>Tabelle.90</title>
			<g id="shape1122-170">
				<title>Tabelle.1122</title>
				<path d="M-0.001,247.39v2.59H1.13v-2.72h-1.131V247.39z"/>
			</g>
		</g>
		<g id="group1123-172" transform="translate(4.96131,-5.00901)">
			<title>Tabelle.1123</title>
			<g id="shape1124-173">
				<title>Tabelle.1124</title>
				<path d="M0,247.39v2.59h1.13v-2.72H0V247.39z"/>
			</g>
		</g>
		<g id="shape1125-175" transform="translate(2.86806,-3.05898)">
			<title>Tabelle.1125</title>
			<ellipse fill="#FFFFFF" cx="0.96" cy="249.023" rx="0.96" ry="0.96"/>
		</g>
		<g id="shape1126-177" transform="translate(3.33348,-1.13819)">
			<title>Tabelle.1126</title>
			<path fill="#FFFFFF" d="M0.99,249.49c0,0.271-0.221,0.49-0.5,0.49c-0.271,0-0.49-0.22-0.49-0.49v-1.89c0-0.28,0.22-0.5,0.49-0.5
				c0.279,0,0.5,0.22,0.5,0.5V249.49z"/>
		</g>
	</g>
	<g id="group1127-179" transform="translate(80.3843,-46.494)">
		<title>Tabelle.1127</title>
		<g id="group1128-180">
			<title>Zeichenblatt-1</title>
			<g id="group1129-181">
				<title>Tabelle.44</title>
				<g id="group1130-182">
					<title>Tabelle.1130</title>
					<g id="shape1131-183" transform="translate(0.00298007,-0.00178804)">
						<title>Tabelle.1131</title>
						<path d="M14.17,249.239v-4.5h-1.5v4.5H14.17z M14.17,243.239v-4.5h-1.5v4.5H14.17z M12.67,237.23h1.5v-1.42
							c0-0.16-0.05-0.32-0.149-0.449l-1.851-2.45l-1.199,0.899l1.689,2.26L12.67,237.23z M10.52,231.7H6.01v1.5h4.51V231.7z
							 M4.51,233.2v-1.5H0.75c-0.41,0-0.75,0.34-0.75,0.75v0.76L4.51,233.2z M0,234.71v4.5h1.5v-4.5H0z M0,240.7v4.5h1.5v-4.5H0z
							 M1.5,246.71H0v2.529c0,0.41,0.34,0.74,0.75,0.74H2.72v-1.49L1.5,248.48V246.71z M4.23,249.98h4.5v-1.49h-4.5V249.98z
							 M10.24,249.98h3.18v-1.49h-3.18V249.98z"/>
						<path fill="none" d="M14.17,249.239v-4.5h-1.5v4.5H14.17 M14.17,243.239v-4.5h-1.5v4.5H14.17 M12.67,237.23h1.5v-1.42
							c0-0.16-0.05-0.32-0.149-0.449l-1.851-2.45l-1.199,0.899l1.689,2.26 M10.52,231.7H6.01v1.5h4.51V231.7 M4.51,233.2v-1.5H0.75
							c-0.41,0-0.75,0.34-0.75,0.75v0.76 M0,234.71v4.5h1.5v-4.5H0 M0,240.7v4.5h1.5v-4.5H0 M1.5,246.71H0v2.529
							c0,0.41,0.34,0.74,0.75,0.74H2.72v-1.49L1.5,248.48 M4.23,249.98h4.5v-1.49h-4.5V249.98 M10.24,249.98h3.18v-1.49h-3.18
							V249.98"/>
					</g>
					<g id="shape1132-186">
						<title>Tabelle.1132</title>
						<path d="M13.42,249.98h-3.18l0,0v-1.5l0,0h2.43v-3.74v-0.01h1.5v0.01v4.5l0,0h-0.75V249.98L13.42,249.98z M10.24,249.98h3.18
							v-0.74h-0.75l0,0v-0.75h-2.43V249.98z M13.42,249.23h0.75v-4.49h-1.5v3.74h0.75c0,0,0,0,0,0.01V249.23z M12.67,249.23h0.75
							v-0.74h-0.75V249.23z M8.73,249.98h-4.5l0,0v-1.5l0,0h4.51l0,0v1.5C8.74,249.98,8.74,249.98,8.73,249.98z M4.23,249.98h4.5
							v-1.49h-4.5V249.98z M2.73,249.98H0.75c-0.41,0-0.75-0.33-0.75-0.74v-2.539l0,0h1.5c0.011,0,0.011,0,0.011,0v1.779h1.22l0,0
							V249.98L2.73,249.98z M1.5,248.48v-1.77H0.01v2.529c0,0.41,0.329,0.74,0.739,0.74H2.72v-1.49H1.51L1.5,248.48z M1.5,245.201H0
							l0,0v-4.5l0,0h1.5c0.011,0,0.011,0,0.011,0v4.5C1.51,245.201,1.51,245.201,1.5,245.201z M0.01,245.201H1.5v-4.5H0.01V245.201z
							 M14.17,243.24h-1.5c0,0,0,0,0-0.01v-4.5l0,0h1.5l0,0V243.24L14.17,243.24z M12.67,243.23h1.5v-4.49h-1.5V243.23z M1.5,239.21
							H0l0,0v-4.5c0-0.01,0-0.01,0-0.01h1.5c0.011,0,0.011,0,0.011,0.01v4.5C1.51,239.21,1.51,239.21,1.5,239.21z M0.01,239.201H1.5
							v-4.49H0.01V239.201z M14.17,237.24h-1.5v-0.01v-1.17l-1.699-2.25v-0.01l1.199-0.9l0,0l1.851,2.45
							c0.1,0.14,0.149,0.29,0.149,0.46v1.42V237.24z M1.5,233.21H0v-0.01v-0.75c0-0.41,0.34-0.75,0.75-0.75H4.51l0,0v1.5l0,0h-3l0,0
							C1.51,233.201,1.51,233.21,1.5,233.21z M1.51,233.201h3v-1.5H0.75c-0.41,0-0.739,0.34-0.739,0.75v0.75H1.51z M10.52,233.201
							H6.01l0,0v-1.5l0,0h4.51l0,0V233.201C10.53,233.201,10.52,233.201,10.52,233.201z M6.01,233.201h4.51v-1.5H6.01V233.201z"/>
						<path fill="none" d="M13.42,249.98h-3.18l0,0v-1.5l0,0h2.43v-3.74v-0.01h1.5v0.01v4.5l0,0h-0.75V249.98L13.42,249.98
							 M10.24,249.98h3.18v-0.74h-0.75l0,0v-0.75h-2.43V249.98 M13.42,249.23h0.75v-4.49h-1.5v3.74h0.75c0,0,0,0,0,0.01V249.23
							 M12.67,249.23h0.75v-0.74h-0.75V249.23 M8.73,249.98h-4.5l0,0v-1.5l0,0h4.51l0,0v1.5C8.74,249.98,8.74,249.98,8.73,249.98
							 M4.23,249.98h4.5v-1.49h-4.5V249.98 M2.73,249.98H0.75c-0.41,0-0.75-0.33-0.75-0.74v-2.539l0,0h1.5c0.011,0,0.011,0,0.011,0
							v1.779h1.22l0,0V249.98L2.73,249.98 M1.5,248.48v-1.77H0.01v2.529c0,0.41,0.329,0.74,0.739,0.74H2.72v-1.49H1.51 M1.5,245.201
							H0l0,0v-4.5l0,0h1.5c0.011,0,0.011,0,0.011,0v4.5C1.51,245.201,1.51,245.201,1.5,245.201 M0.01,245.201H1.5v-4.5H0.01V245.201
							 M14.17,243.24h-1.5c0,0,0,0,0-0.01v-4.5l0,0h1.5l0,0V243.24L14.17,243.24 M12.67,243.23h1.5v-4.49h-1.5V243.23 M1.5,239.21H0
							l0,0v-4.5c0-0.01,0-0.01,0-0.01h1.5c0.011,0,0.011,0,0.011,0.01v4.5C1.51,239.21,1.51,239.21,1.5,239.21 M0.01,239.201H1.5
							v-4.49H0.01V239.201 M14.17,237.24h-1.5v-0.01v-1.17l-1.699-2.25v-0.01l1.199-0.9l0,0l1.851,2.45
							c0.1,0.14,0.149,0.29,0.149,0.46v1.42V237.24 M1.5,233.21H0v-0.01v-0.75c0-0.41,0.34-0.75,0.75-0.75H4.51l0,0v1.5l0,0h-3l0,0
							C1.51,233.201,1.51,233.21,1.5,233.21 M1.51,233.201h3v-1.5H0.75c-0.41,0-0.739,0.34-0.739,0.75v0.75 M10.52,233.201H6.01l0,0
							v-1.5l0,0h4.51l0,0V233.201C10.53,233.201,10.52,233.201,10.52,233.201 M6.01,233.201h4.51v-1.5H6.01V233.201"/>
					</g>
				</g>
			</g>
			<g id="shape1133-189" transform="translate(10.2433,-0.00432219)">
				<title>Tabelle.1133</title>
				<path d="M2.43,244.74h1.49v4.5H3.17v0.74h-3.171v-1.49H2.42L2.43,244.74z"/>
			</g>
		</g>
	</g>
	<g id="group1134-191" transform="translate(97.3922,-46.494)">
		<title>Tabelle.1134</title>
		<g id="group1135-192">
			<title>Zeichenblatt-1</title>
			<g id="group1136-193">
				<title>Tabelle.44</title>
				<g id="group1137-194">
					<title>Tabelle.1137</title>
					<g id="shape1138-195" transform="translate(0.00298007,-0.00178804)">
						<title>Tabelle.1138</title>
						<path d="M14.17,249.239v-4.5h-1.5v4.5H14.17z M14.17,243.239v-4.5h-1.5v4.5H14.17z M12.67,237.23h1.5v-1.42
							c0-0.16-0.051-0.32-0.15-0.449l-1.85-2.45l-1.2,0.899l1.689,2.26L12.67,237.23z M10.52,231.7H6.01v1.5h4.51V231.7z
							 M4.51,233.2v-1.5H0.749c-0.409,0-0.75,0.34-0.75,0.75v0.76L4.51,233.2z M-0.001,234.71v4.5h1.5v-4.5H-0.001z M-0.001,240.7
							v4.5h1.5v-4.5H-0.001z M1.499,246.71h-1.5v2.529c0,0.41,0.341,0.74,0.75,0.74H2.72v-1.49l-1.221-0.01V246.71z M4.23,249.98
							h4.5v-1.49h-4.5V249.98z M10.24,249.98h3.181v-1.49H10.24V249.98z"/>
						<path fill="none" d="M14.17,249.239v-4.5h-1.5v4.5H14.17 M14.17,243.239v-4.5h-1.5v4.5H14.17 M12.67,237.23h1.5v-1.42
							c0-0.16-0.051-0.32-0.15-0.449l-1.85-2.45l-1.2,0.899l1.689,2.26 M10.52,231.7H6.01v1.5h4.51V231.7 M4.51,233.2v-1.5H0.749
							c-0.409,0-0.75,0.34-0.75,0.75v0.76 M-0.001,234.71v4.5h1.5v-4.5H-0.001 M-0.001,240.7v4.5h1.5v-4.5H-0.001 M1.499,246.71
							h-1.5v2.529c0,0.41,0.341,0.74,0.75,0.74H2.72v-1.49l-1.221-0.01 M4.23,249.98h4.5v-1.49h-4.5V249.98 M10.24,249.98h3.181
							v-1.49H10.24V249.98"/>
					</g>
					<g id="shape1139-198">
						<title>Tabelle.1139</title>
						<path d="M13.419,249.98h-3.18l0,0v-1.5l0,0h2.43v-3.74v-0.01h1.5v0.01v4.5l0,0h-0.75V249.98L13.419,249.98z M10.24,249.98
							h3.18v-0.74h-0.75l0,0v-0.75h-2.43V249.98z M13.419,249.23h0.75v-4.49h-1.5v3.74h0.75c0,0,0,0,0,0.01V249.23z M12.669,249.23
							h0.75v-0.74h-0.75V249.23z M8.73,249.98h-4.5l0,0v-1.5l0,0h4.51l0,0v1.5C8.74,249.98,8.74,249.98,8.73,249.98z M4.23,249.98
							h4.5v-1.49h-4.5V249.98z M2.73,249.98H0.75c-0.409,0-0.75-0.33-0.75-0.74v-2.539l0,0h1.5c0.011,0,0.011,0,0.011,0v1.779h1.22
							l0,0V249.98L2.73,249.98z M1.5,248.48v-1.77H0.01v2.529c0,0.41,0.33,0.74,0.739,0.74H2.72v-1.49H1.51L1.5,248.48z
							 M1.5,245.201H0l0,0v-4.5l0,0h1.5c0.011,0,0.011,0,0.011,0v4.5C1.51,245.201,1.51,245.201,1.5,245.201z M0.01,245.201H1.5
							v-4.5H0.01V245.201z M14.169,243.24h-1.5c0,0,0,0,0-0.01v-4.5l0,0h1.5l0,0V243.24L14.169,243.24z M12.669,243.23h1.5v-4.49
							h-1.5V243.23z M1.5,239.21H0l0,0v-4.5c0-0.01,0-0.01,0-0.01h1.5c0.011,0,0.011,0,0.011,0.01v4.5
							C1.51,239.21,1.51,239.21,1.5,239.21z M0.01,239.201H1.5v-4.49H0.01V239.201z M14.169,237.24h-1.5v-0.01v-1.17l-1.699-2.25
							v-0.01l1.199-0.9l0,0l1.851,2.45c0.1,0.14,0.149,0.29,0.149,0.46v1.42V237.24z M1.5,233.21H0v-0.01v-0.75
							c0-0.41,0.341-0.75,0.75-0.75H4.51l0,0v1.5l0,0h-3l0,0C1.51,233.201,1.51,233.21,1.5,233.21z M1.51,233.201h3v-1.5H0.75
							c-0.409,0-0.739,0.34-0.739,0.75v0.75H1.51z M10.52,233.201H6.01l0,0v-1.5l0,0h4.51l0,0V233.201
							C10.53,233.201,10.52,233.201,10.52,233.201z M6.01,233.201h4.51v-1.5H6.01V233.201z"/>
						<path fill="none" d="M13.419,249.98h-3.18l0,0v-1.5l0,0h2.43v-3.74v-0.01h1.5v0.01v4.5l0,0h-0.75V249.98L13.419,249.98
							 M10.24,249.98h3.18v-0.74h-0.75l0,0v-0.75h-2.43V249.98 M13.419,249.23h0.75v-4.49h-1.5v3.74h0.75c0,0,0,0,0,0.01V249.23
							 M12.669,249.23h0.75v-0.74h-0.75V249.23 M8.73,249.98h-4.5l0,0v-1.5l0,0h4.51l0,0v1.5C8.74,249.98,8.74,249.98,8.73,249.98
							 M4.23,249.98h4.5v-1.49h-4.5V249.98 M2.73,249.98H0.75c-0.409,0-0.75-0.33-0.75-0.74v-2.539l0,0h1.5c0.011,0,0.011,0,0.011,0
							v1.779h1.22l0,0V249.98L2.73,249.98 M1.5,248.48v-1.77H0.01v2.529c0,0.41,0.33,0.74,0.739,0.74H2.72v-1.49H1.51 M1.5,245.201
							H0l0,0v-4.5l0,0h1.5c0.011,0,0.011,0,0.011,0v4.5C1.51,245.201,1.51,245.201,1.5,245.201 M0.01,245.201H1.5v-4.5H0.01V245.201
							 M14.169,243.24h-1.5c0,0,0,0,0-0.01v-4.5l0,0h1.5l0,0V243.24L14.169,243.24 M12.669,243.23h1.5v-4.49h-1.5V243.23
							 M1.5,239.21H0l0,0v-4.5c0-0.01,0-0.01,0-0.01h1.5c0.011,0,0.011,0,0.011,0.01v4.5C1.51,239.21,1.51,239.21,1.5,239.21
							 M0.01,239.201H1.5v-4.49H0.01V239.201 M14.169,237.24h-1.5v-0.01v-1.17l-1.699-2.25v-0.01l1.199-0.9l0,0l1.851,2.45
							c0.1,0.14,0.149,0.29,0.149,0.46v1.42V237.24 M1.5,233.21H0v-0.01v-0.75c0-0.41,0.341-0.75,0.75-0.75H4.51l0,0v1.5l0,0h-3l0,0
							C1.51,233.201,1.51,233.21,1.5,233.21 M1.51,233.201h3v-1.5H0.75c-0.409,0-0.739,0.34-0.739,0.75v0.75 M10.52,233.201H6.01
							l0,0v-1.5l0,0h4.51l0,0V233.201C10.53,233.201,10.52,233.201,10.52,233.201 M6.01,233.201h4.51v-1.5H6.01V233.201"/>
					</g>
				</g>
			</g>
			<g id="shape1140-201" transform="translate(10.2433,-0.00432219)">
				<title>Tabelle.1140</title>
				<path d="M2.43,244.74h1.49v4.5H3.17v0.74H0v-1.49h2.42L2.43,244.74z"/>
			</g>
		</g>
	</g>
	<g id="group1141-203" transform="translate(83.7804,-50.0074)">
		<title>Tabelle.1141</title>
		<g id="group1142-204">
			<title>Zeichenblatt-1</title>
			<g id="group1143-205" transform="translate(0.781821,-0.781821)">
				<title>Tabelle.84</title>
				<g id="shape1144-206">
					<title>Tabelle.1144</title>
					<path d="M-0.001,245.35v4.63H6.09v-4.63H-0.001z"/>
				</g>
			</g>
			<g id="group1145-208">
				<title>Tabelle.85</title>
				<g id="shape1146-209">
					<title>Tabelle.1146</title>
					<path d="M6.87,249.98H0.78C0.35,249.98,0,249.63,0,249.2v-4.631c0-0.43,0.35-0.779,0.78-0.779h6.09
						c0.439,0,0.79,0.35,0.79,0.779v4.631C7.66,249.63,7.31,249.98,6.87,249.98z M1.56,248.42h4.53v-3.069H1.56V248.42z"/>
				</g>
			</g>
			<g id="group1147-211" transform="translate(1.56447,-7.70073)">
				<title>Tabelle.86</title>
				<g id="shape1148-212">
					<title>Tabelle.1148</title>
					<path d="M0,249.98c0-1.24,1.02-2.26,2.26-2.26c1.26,0,2.271,1.02,2.271,2.26H3.4c0-0.62-0.511-1.13-1.141-1.13
						c-0.62,0-1.13,0.51-1.13,1.13H0z"/>
				</g>
			</g>
		</g>
		<g id="group1149-214" transform="translate(1.56442,-5.00901)">
			<title>Tabelle.90</title>
			<g id="shape1150-215">
				<title>Tabelle.1150</title>
				<path d="M0,247.39v2.59h1.13v-2.72H0V247.39z"/>
			</g>
		</g>
		<g id="group1151-217" transform="translate(4.96131,-5.00901)">
			<title>Tabelle.1151</title>
			<g id="shape1152-218">
				<title>Tabelle.1152</title>
				<path d="M0,247.39v2.59h1.13v-2.72H0V247.39z"/>
			</g>
		</g>
		<g id="shape1153-220" transform="translate(2.86806,-3.05898)">
			<title>Tabelle.1153</title>
			<ellipse fill="#FFFFFF" cx="0.96" cy="249.023" rx="0.96" ry="0.96"/>
		</g>
		<g id="shape1154-222" transform="translate(3.33348,-1.13819)">
			<title>Tabelle.1154</title>
			<path fill="#FFFFFF" d="M0.99,249.49c0,0.271-0.22,0.49-0.5,0.49c-0.27,0-0.49-0.22-0.49-0.49v-1.89c0-0.28,0.221-0.5,0.49-0.5
				c0.28,0,0.5,0.22,0.5,0.5V249.49z"/>
		</g>
	</g>
	<g id="group1155-224" transform="translate(100.78,-50.0074)">
		<title>Tabelle.1155</title>
		<g id="group1156-225">
			<title>Zeichenblatt-1</title>
			<g id="group1157-226" transform="translate(0.781821,-0.781821)">
				<title>Tabelle.84</title>
				<g id="shape1158-227">
					<title>Tabelle.1158</title>
					<path d="M0,245.35v4.63h6.09v-4.63H0z"/>
				</g>
			</g>
			<g id="group1159-229">
				<title>Tabelle.85</title>
				<g id="shape1160-230">
					<title>Tabelle.1160</title>
					<path d="M6.87,249.98H0.78c-0.43,0-0.78-0.35-0.78-0.779v-4.631c0-0.43,0.351-0.779,0.78-0.779h6.09
						c0.44,0,0.79,0.35,0.79,0.779v4.631C7.66,249.63,7.31,249.98,6.87,249.98z M1.56,248.42h4.53v-3.069H1.56V248.42z"/>
				</g>
			</g>
			<g id="group1161-232" transform="translate(1.56447,-7.70073)">
				<title>Tabelle.86</title>
				<g id="shape1162-233">
					<title>Tabelle.1162</title>
					<path d="M-0.001,249.98c0-1.24,1.021-2.26,2.261-2.26c1.26,0,2.27,1.02,2.27,2.26H3.4c0-0.62-0.51-1.13-1.14-1.13
						c-0.62,0-1.13,0.51-1.13,1.13H-0.001z"/>
				</g>
			</g>
		</g>
		<g id="group1163-235" transform="translate(1.56442,-5.00901)">
			<title>Tabelle.90</title>
			<g id="shape1164-236">
				<title>Tabelle.1164</title>
				<path d="M-0.001,247.39v2.59H1.13v-2.72h-1.131V247.39z"/>
			</g>
		</g>
		<g id="group1165-238" transform="translate(4.96131,-5.00901)">
			<title>Tabelle.1165</title>
			<g id="shape1166-239">
				<title>Tabelle.1166</title>
				<path d="M0,247.39v2.59h1.13v-2.72H0V247.39z"/>
			</g>
		</g>
		<g id="shape1167-241" transform="translate(2.86806,-3.05898)">
			<title>Tabelle.1167</title>
			<ellipse fill="#FFFFFF" cx="0.96" cy="249.023" rx="0.96" ry="0.96"/>
		</g>
		<g id="shape1168-243" transform="translate(3.33348,-1.13819)">
			<title>Tabelle.1168</title>
			<path fill="#FFFFFF" d="M0.99,249.49c0,0.271-0.221,0.49-0.5,0.49c-0.271,0-0.49-0.22-0.49-0.49v-1.89c0-0.28,0.22-0.5,0.49-0.5
				c0.279,0,0.5,0.22,0.5,0.5V249.49z"/>
		</g>
	</g>
	<g id="group1169-245" transform="translate(54.5859,-51.9672)">
		<title>Tabelle.1169</title>
		<g id="group1170-246">
			<title>Zeichenblatt-1</title>
			<g id="group1171-247">
				<title>Tabelle.42</title>
				<g id="shape1172-248">
					<title>Tabelle.1172</title>
					<path d="M20.72,249.98H0.81c-0.45,0-0.81-0.36-0.81-0.811v-26.529c0-0.451,0.359-0.811,0.81-0.811h15.94
						c0.25,0,0.5,0.12,0.649,0.33l3.971,5.3c0.109,0.14,0.17,0.31,0.17,0.49v21.22C21.54,249.62,21.17,249.98,20.72,249.98z
						 M1.63,248.36h18.28v-20.14l-3.57-4.761H1.63V248.36z"/>
				</g>
			</g>
		</g>
	</g>
	<g id="group1178-250" transform="translate(58.6712,-134.4)">
		<title>Layer_2.1178</title>
		<g id="group1179-251" transform="translate(0,-18.3875)">
			<title>Tabelle.1179</title>
			<g id="shape1180-252" transform="translate(1.32393,-1.32374)">
				<title>Tabelle.1180</title>
				<ellipse fill="#FFFFFF" cx="26.738" cy="223.245" rx="26.738" ry="26.738"/>
			</g>
			<g id="shape1181-254">
				<title>Tabelle.1181</title>
				<path fill="#808285" d="M28.06,249.98C12.59,249.98,0,237.39,0,221.92c0-15.47,12.59-28.06,28.061-28.06
					c15.479,0,28.06,12.59,28.06,28.06C56.12,237.39,43.54,249.98,28.06,249.98z M28.06,196.51c-14.011,0-25.41,11.4-25.41,25.41
					c0,14.01,11.399,25.42,25.41,25.42c14.02,0,25.42-11.4,25.42-25.42C53.48,207.91,42.08,196.51,28.06,196.51z"/>
			</g>
		</g>
		<g id="shape1182-256" transform="translate(224.787,397.591) rotate(135)">
			<title>Tabelle.1182</title>
			<rect x="0" y="214.818" fill="#808285" width="6.069" height="35.165"/>
		</g>
	</g>
	<g id="group1186-258" transform="translate(74.4283,-164.872)">
		<title>Tabelle.1186</title>
		<g id="group1187-259">
			<title>Zeichenblatt-1</title>
			<g id="group1188-260">
				<title>Tabelle.42</title>
				<g id="shape1189-261">
					<title>Tabelle.1189</title>
					<path d="M24,249.98H0.94c-0.521,0-0.94-0.42-0.94-0.94v-30.71c0-0.52,0.42-0.95,0.94-0.95h18.45c0.3,0,0.58,0.14,0.76,0.38
						l4.6,6.14c0.12,0.17,0.19,0.37,0.19,0.57v24.57C24.94,249.56,24.52,249.98,24,249.98z M1.879,248.1H23.06v-23.32l-4.141-5.51
						H1.879V248.1z"/>
				</g>
			</g>
		</g>
		<g id="shape1190-263" transform="translate(1.88297,-1.88372)">
			<title>Tabelle.1190</title>
			<path fill="#FFFFFF" d="M0,249.98h21.17v-23.31l-4.131-5.521H0V249.98z"/>
		</g>
	</g>
	<g id="group1280-265" transform="translate(280.785,-134.805)">
		<title>Layer_2.1280</title>
		<g id="group1281-266" transform="translate(0,-17.407)">
			<title>Tabelle.1281</title>
			<g id="shape1282-267" transform="translate(1.25333,-1.25315)">
				<title>Tabelle.1282</title>
				<ellipse fill="#FFFFFF" cx="25.312" cy="224.671" rx="25.312" ry="25.312"/>
			</g>
			<g id="shape1283-269">
				<title>Tabelle.1283</title>
				<path fill="#808285" d="M26.57,249.98C11.92,249.98,0,238.07,0,223.42s11.92-26.57,26.569-26.57
					c14.64,0,26.56,11.92,26.56,26.57S41.209,249.98,26.57,249.98z M26.57,199.36c-13.27,0-24.06,10.79-24.06,24.06
					c0,13.26,10.79,24.06,24.06,24.06c13.26,0,24.05-10.8,24.05-24.06C50.619,210.15,39.829,199.36,26.57,199.36z"/>
			</g>
		</g>
		<g id="shape1284-271" transform="translate(222.227,399.145) rotate(135)">
			<title>Tabelle.1284</title>
			<rect x="0.001" y="216.693" fill="#808285" width="5.746" height="33.29"/>
		</g>
	</g>
	<g id="group1285-273" transform="translate(291.676,-169.247)">
		<title>Tabelle.1285</title>
		<g id="group1286-274">
			<title>Zeichenblatt-1</title>
			<g id="group1287-275">
				<title>Tabelle.44</title>
				<g id="group1288-276">
					<title>Tabelle.1288</title>
					<g id="shape1289-277" transform="translate(0.00298007,-0.00178804)">
						<title>Tabelle.1289</title>
						<path d="M14.17,249.24v-4.5h-1.5v4.5H14.17z M14.17,243.24v-4.5h-1.5v4.5H14.17z M12.67,237.23h1.5v-1.42
							c0-0.16-0.05-0.32-0.15-0.45l-1.85-2.45l-1.2,0.9l1.69,2.26L12.67,237.23z M10.519,231.7H6.01v1.5h4.51V231.7z M4.51,233.2
							v-1.5H0.75c-0.41,0-0.75,0.34-0.75,0.75v0.76L4.51,233.2z M0,234.71v4.5h1.5v-4.5H0z M0,240.7v4.5h1.5v-4.5H0z M1.5,246.71H0
							v2.53c0,0.41,0.34,0.74,0.75,0.74h1.97v-1.49l-1.22-0.01V246.71z M4.23,249.98h4.499v-1.49H4.23V249.98z M10.24,249.98h3.18
							v-1.49h-3.18V249.98z"/>
						<path fill="none" d="M14.17,249.24v-4.5h-1.5v4.5H14.17 M14.17,243.24v-4.5h-1.5v4.5H14.17 M12.67,237.23h1.5v-1.42
							c0-0.16-0.05-0.32-0.15-0.45l-1.85-2.45l-1.2,0.9l1.69,2.26 M10.519,231.7H6.01v1.5h4.51V231.7 M4.51,233.2v-1.5H0.75
							c-0.41,0-0.75,0.34-0.75,0.75v0.76 M0,234.71v4.5h1.5v-4.5H0 M0,240.7v4.5h1.5v-4.5H0 M1.5,246.71H0v2.53
							c0,0.41,0.34,0.74,0.75,0.74h1.97v-1.49l-1.22-0.01 M4.23,249.98h4.499v-1.49H4.23V249.98 M10.24,249.98h3.18v-1.49h-3.18
							V249.98"/>
					</g>
					<g id="shape1290-280">
						<title>Tabelle.1290</title>
						<path d="M13.42,249.98h-3.18l0,0v-1.5l0,0h2.43v-3.74v-0.01h1.5v0.01v4.5l0,0h-0.75V249.98L13.42,249.98z M10.24,249.98h3.18
							v-0.74h-0.75l0,0v-0.75h-2.43V249.98z M13.42,249.23h0.75v-4.49h-1.5v3.74h0.75c0,0,0,0,0,0.01V249.23z M12.67,249.23h0.75
							v-0.74h-0.75V249.23z M8.729,249.98H4.23l0,0v-1.5l0,0h4.51l0,0v1.5C8.74,249.98,8.74,249.98,8.729,249.98z M4.23,249.98
							h4.499v-1.49H4.23V249.98z M2.73,249.98H0.75c-0.41,0-0.75-0.33-0.75-0.74v-2.54l0,0h1.5c0.01,0,0.01,0,0.01,0v1.78H2.73l0,0
							V249.98L2.73,249.98z M1.5,248.48v-1.77H0.01v2.53c0,0.41,0.33,0.74,0.74,0.74h1.97v-1.49H1.51L1.5,248.48z M1.5,245.2H0l0,0
							v-4.5l0,0h1.5c0.01,0,0.01,0,0.01,0v4.5C1.51,245.2,1.51,245.2,1.5,245.2z M0.01,245.2H1.5v-4.5H0.01V245.2z M14.17,243.24
							h-1.5c0,0,0,0,0-0.01v-4.5l0,0h1.5l0,0V243.24L14.17,243.24z M12.67,243.23h1.5v-4.49h-1.5V243.23z M1.5,239.21H0l0,0v-4.5
							c0-0.01,0-0.01,0-0.01h1.5c0.01,0,0.01,0,0.01,0.01v4.5C1.51,239.21,1.51,239.21,1.5,239.21z M0.01,239.2H1.5v-4.49H0.01
							V239.2z M14.17,237.24h-1.5v-0.01v-1.17l-1.7-2.25v-0.01l1.2-0.9l0,0l1.85,2.45c0.101,0.14,0.15,0.29,0.15,0.46v1.42V237.24z
							 M1.5,233.21H0v-0.01v-0.75c0-0.41,0.34-0.75,0.75-0.75h3.76l0,0v1.5l0,0h-3l0,0C1.51,233.2,1.51,233.21,1.5,233.21z
							 M1.51,233.2h3v-1.5H0.75c-0.41,0-0.74,0.34-0.74,0.75v0.75H1.51z M10.519,233.2H6.01l0,0v-1.5l0,0h4.51l0,0V233.2
							C10.529,233.2,10.519,233.2,10.519,233.2z M6.01,233.2h4.51v-1.5H6.01V233.2z"/>
						<path fill="none" d="M13.42,249.98h-3.18l0,0v-1.5l0,0h2.43v-3.74v-0.01h1.5v0.01v4.5l0,0h-0.75V249.98L13.42,249.98
							 M10.24,249.98h3.18v-0.74h-0.75l0,0v-0.75h-2.43V249.98 M13.42,249.23h0.75v-4.49h-1.5v3.74h0.75c0,0,0,0,0,0.01V249.23
							 M12.67,249.23h0.75v-0.74h-0.75V249.23 M8.729,249.98H4.23l0,0v-1.5l0,0h4.51l0,0v1.5C8.74,249.98,8.74,249.98,8.729,249.98
							 M4.23,249.98h4.499v-1.49H4.23V249.98 M2.73,249.98H0.75c-0.41,0-0.75-0.33-0.75-0.74v-2.54l0,0h1.5c0.01,0,0.01,0,0.01,0
							v1.78H2.73l0,0V249.98L2.73,249.98 M1.5,248.48v-1.77H0.01v2.53c0,0.41,0.33,0.74,0.74,0.74h1.97v-1.49H1.51 M1.5,245.2H0l0,0
							v-4.5l0,0h1.5c0.01,0,0.01,0,0.01,0v4.5C1.51,245.2,1.51,245.2,1.5,245.2 M0.01,245.2H1.5v-4.5H0.01V245.2 M14.17,243.24h-1.5
							c0,0,0,0,0-0.01v-4.5l0,0h1.5l0,0V243.24L14.17,243.24 M12.67,243.23h1.5v-4.49h-1.5V243.23 M1.5,239.21H0l0,0v-4.5
							c0-0.01,0-0.01,0-0.01h1.5c0.01,0,0.01,0,0.01,0.01v4.5C1.51,239.21,1.51,239.21,1.5,239.21 M0.01,239.2H1.5v-4.49H0.01V239.2
							 M14.17,237.24h-1.5v-0.01v-1.17l-1.7-2.25v-0.01l1.2-0.9l0,0l1.85,2.45c0.101,0.14,0.15,0.29,0.15,0.46v1.42V237.24
							 M1.5,233.21H0v-0.01v-0.75c0-0.41,0.34-0.75,0.75-0.75h3.76l0,0v1.5l0,0h-3l0,0C1.51,233.2,1.51,233.21,1.5,233.21
							 M1.51,233.2h3v-1.5H0.75c-0.41,0-0.74,0.34-0.74,0.75v0.75 M10.519,233.2H6.01l0,0v-1.5l0,0h4.51l0,0V233.2
							C10.529,233.2,10.519,233.2,10.519,233.2 M6.01,233.2h4.51v-1.5H6.01V233.2"/>
					</g>
				</g>
			</g>
			<g id="shape1291-283" transform="translate(10.2433,-0.00432219)">
				<title>Tabelle.1291</title>
				<path d="M2.429,244.74h1.49v4.5H3.17v0.74H0v-1.49h2.42L2.429,244.74z"/>
			</g>
		</g>
	</g>
	<g id="group1292-285" transform="translate(308.684,-169.247)">
		<title>Tabelle.1292</title>
		<g id="group1293-286">
			<title>Zeichenblatt-1</title>
			<g id="group1294-287">
				<title>Tabelle.44</title>
				<g id="group1295-288">
					<title>Tabelle.1295</title>
					<g id="shape1296-289" transform="translate(0.00298007,-0.00178804)">
						<title>Tabelle.1296</title>
						<path d="M14.169,249.24v-4.5h-1.5v4.5H14.169z M14.169,243.24v-4.5h-1.5v4.5H14.169z M12.669,237.23h1.5v-1.42
							c0-0.16-0.05-0.32-0.15-0.45l-1.85-2.45l-1.2,0.9l1.69,2.26L12.669,237.23z M10.519,231.7h-4.51v1.5h4.51V231.7z M4.509,233.2
							v-1.5H0.75c-0.41,0-0.75,0.34-0.75,0.75v0.76L4.509,233.2z M0,234.71v4.5h1.5v-4.5H0z M0,240.7v4.5h1.5v-4.5H0z M1.5,246.71H0
							v2.53c0,0.41,0.34,0.74,0.75,0.74h1.97v-1.49l-1.22-0.01V246.71z M4.23,249.98h4.5v-1.49h-4.5V249.98z M10.24,249.98h3.18
							v-1.49h-3.18V249.98z"/>
						<path fill="none" d="M14.169,249.24v-4.5h-1.5v4.5H14.169 M14.169,243.24v-4.5h-1.5v4.5H14.169 M12.669,237.23h1.5v-1.42
							c0-0.16-0.05-0.32-0.15-0.45l-1.85-2.45l-1.2,0.9l1.69,2.26 M10.519,231.7h-4.51v1.5h4.51V231.7 M4.509,233.2v-1.5H0.75
							c-0.41,0-0.75,0.34-0.75,0.75v0.76 M0,234.71v4.5h1.5v-4.5H0 M0,240.7v4.5h1.5v-4.5H0 M1.5,246.71H0v2.53
							c0,0.41,0.34,0.74,0.75,0.74h1.97v-1.49l-1.22-0.01 M4.23,249.98h4.5v-1.49h-4.5V249.98 M10.24,249.98h3.18v-1.49h-3.18
							V249.98"/>
					</g>
					<g id="shape1297-292">
						<title>Tabelle.1297</title>
						<path d="M13.42,249.98h-3.18l0,0v-1.5l0,0h2.43v-3.74v-0.01h1.5v0.01v4.5l0,0h-0.75V249.98L13.42,249.98z M10.24,249.98h3.18
							v-0.74h-0.75l0,0v-0.75h-2.43V249.98z M13.42,249.23h0.75v-4.49h-1.5v3.74h0.75c0,0,0,0,0,0.01V249.23z M12.67,249.23h0.75
							v-0.74h-0.75V249.23z M8.729,249.98h-4.5l0,0v-1.5l0,0H8.74l0,0v1.5C8.74,249.98,8.74,249.98,8.729,249.98z M4.229,249.98h4.5
							v-1.49h-4.5V249.98z M2.729,249.98H0.75c-0.41,0-0.75-0.33-0.75-0.74v-2.54l0,0h1.5c0.01,0,0.01,0,0.01,0v1.78h1.22l0,0
							V249.98L2.729,249.98z M1.5,248.48v-1.77h-1.49v2.53c0,0.41,0.33,0.74,0.74,0.74h1.97v-1.49h-1.21L1.5,248.48z M1.5,245.2H0
							l0,0v-4.5l0,0h1.5c0.01,0,0.01,0,0.01,0v4.5C1.509,245.2,1.509,245.2,1.5,245.2z M0.009,245.2H1.5v-4.5h-1.49V245.2z
							 M14.17,243.24h-1.5c0,0,0,0,0-0.01v-4.5l0,0h1.5l0,0V243.24L14.17,243.24z M12.67,243.23h1.5v-4.49h-1.5V243.23z M1.5,239.21
							H0l0,0v-4.5c0-0.01,0-0.01,0-0.01h1.5c0.01,0,0.01,0,0.01,0.01v4.5C1.509,239.21,1.509,239.21,1.5,239.21z M0.009,239.2H1.5
							v-4.49h-1.49V239.2z M14.17,237.24h-1.5v-0.01v-1.17l-1.7-2.25v-0.01l1.2-0.9l0,0l1.85,2.45c0.101,0.14,0.15,0.29,0.15,0.46
							v1.42V237.24z M1.5,233.21H0v-0.01v-0.75c0-0.41,0.34-0.75,0.75-0.75h3.76l0,0v1.5l0,0h-3l0,0
							C1.509,233.2,1.509,233.21,1.5,233.21z M1.509,233.2h3v-1.5H0.75c-0.41,0-0.74,0.34-0.74,0.75v0.75H1.509z M10.519,233.2
							h-4.51l0,0v-1.5l0,0h4.51l0,0V233.2C10.53,233.2,10.519,233.2,10.519,233.2z M6.009,233.2h4.51v-1.5h-4.51V233.2z"/>
						<path fill="none" d="M13.42,249.98h-3.18l0,0v-1.5l0,0h2.43v-3.74v-0.01h1.5v0.01v4.5l0,0h-0.75V249.98L13.42,249.98
							 M10.24,249.98h3.18v-0.74h-0.75l0,0v-0.75h-2.43V249.98 M13.42,249.23h0.75v-4.49h-1.5v3.74h0.75c0,0,0,0,0,0.01V249.23
							 M12.67,249.23h0.75v-0.74h-0.75V249.23 M8.729,249.98h-4.5l0,0v-1.5l0,0H8.74l0,0v1.5C8.74,249.98,8.74,249.98,8.729,249.98
							 M4.229,249.98h4.5v-1.49h-4.5V249.98 M2.729,249.98H0.75c-0.41,0-0.75-0.33-0.75-0.74v-2.54l0,0h1.5c0.01,0,0.01,0,0.01,0
							v1.78h1.22l0,0V249.98L2.729,249.98 M1.5,248.48v-1.77h-1.49v2.53c0,0.41,0.33,0.74,0.74,0.74h1.97v-1.49h-1.21 M1.5,245.2H0
							l0,0v-4.5l0,0h1.5c0.01,0,0.01,0,0.01,0v4.5C1.509,245.2,1.509,245.2,1.5,245.2 M0.009,245.2H1.5v-4.5h-1.49V245.2
							 M14.17,243.24h-1.5c0,0,0,0,0-0.01v-4.5l0,0h1.5l0,0V243.24L14.17,243.24 M12.67,243.23h1.5v-4.49h-1.5V243.23 M1.5,239.21H0
							l0,0v-4.5c0-0.01,0-0.01,0-0.01h1.5c0.01,0,0.01,0,0.01,0.01v4.5C1.509,239.21,1.509,239.21,1.5,239.21 M0.009,239.2H1.5
							v-4.49h-1.49V239.2 M14.17,237.24h-1.5v-0.01v-1.17l-1.7-2.25v-0.01l1.2-0.9l0,0l1.85,2.45c0.101,0.14,0.15,0.29,0.15,0.46
							v1.42V237.24 M1.5,233.21H0v-0.01v-0.75c0-0.41,0.34-0.75,0.75-0.75h3.76l0,0v1.5l0,0h-3l0,0
							C1.509,233.2,1.509,233.21,1.5,233.21 M1.509,233.2h3v-1.5H0.75c-0.41,0-0.74,0.34-0.74,0.75v0.75 M10.519,233.2h-4.51l0,0
							v-1.5l0,0h4.51l0,0V233.2C10.53,233.2,10.519,233.2,10.519,233.2 M6.009,233.2h4.51v-1.5h-4.51V233.2"/>
					</g>
				</g>
			</g>
			<g id="shape1298-295" transform="translate(10.2433,-0.00432219)">
				<title>Tabelle.1298</title>
				<path d="M2.429,244.74h1.49v4.5h-0.75v0.74H0v-1.49h2.42L2.429,244.74z"/>
			</g>
		</g>
	</g>
	<g id="group1299-297" transform="translate(295.072,-172.76)">
		<title>Tabelle.1299</title>
		<g id="group1300-298">
			<title>Zeichenblatt-1</title>
			<g id="group1301-299" transform="translate(0.781821,-0.781821)">
				<title>Tabelle.84</title>
				<g id="shape1302-300">
					<title>Tabelle.1302</title>
					<path d="M0,245.35v4.63h6.09v-4.63H0z"/>
				</g>
			</g>
			<g id="group1303-302">
				<title>Tabelle.85</title>
				<g id="shape1304-303">
					<title>Tabelle.1304</title>
					<path d="M6.869,249.98H0.78c-0.43,0-0.78-0.35-0.78-0.78v-4.63c0-0.43,0.351-0.78,0.78-0.78h6.09c0.44,0,0.79,0.35,0.79,0.78
						v4.63C7.659,249.63,7.31,249.98,6.869,249.98z M1.56,248.42h4.529v-3.07H1.56V248.42z"/>
				</g>
			</g>
			<g id="group1305-305" transform="translate(1.56447,-7.70073)">
				<title>Tabelle.86</title>
				<g id="shape1306-306">
					<title>Tabelle.1306</title>
					<path d="M0,249.98c0-1.24,1.02-2.26,2.26-2.26c1.26,0,2.27,1.02,2.27,2.26H3.4c0-0.62-0.51-1.13-1.14-1.13
						c-0.62,0-1.131,0.51-1.131,1.13H0z"/>
				</g>
			</g>
		</g>
		<g id="group1307-308" transform="translate(1.56442,-5.00901)">
			<title>Tabelle.90</title>
			<g id="shape1308-309">
				<title>Tabelle.1308</title>
				<path d="M-0.001,247.39v2.59h1.13v-2.72h-1.13V247.39z"/>
			</g>
		</g>
		<g id="group1309-311" transform="translate(4.96131,-5.00901)">
			<title>Tabelle.1309</title>
			<g id="shape1310-312">
				<title>Tabelle.1310</title>
				<path d="M0,247.39v2.59h1.13v-2.72H0V247.39z"/>
			</g>
		</g>
		<g id="shape1311-314" transform="translate(2.86806,-3.05898)">
			<title>Tabelle.1311</title>
			<ellipse fill="#FFFFFF" cx="0.96" cy="249.023" rx="0.96" ry="0.96"/>
		</g>
		<g id="shape1312-316" transform="translate(3.33348,-1.13819)">
			<title>Tabelle.1312</title>
			<path fill="#FFFFFF" d="M0.989,249.49c0,0.27-0.22,0.49-0.5,0.49c-0.27,0-0.489-0.22-0.489-0.49v-1.89c0-0.28,0.22-0.5,0.489-0.5
				c0.28,0,0.5,0.22,0.5,0.5V249.49z"/>
		</g>
	</g>
	<g id="group1313-318" transform="translate(312.071,-172.76)">
		<title>Tabelle.1313</title>
		<g id="group1314-319">
			<title>Zeichenblatt-1</title>
			<g id="group1315-320" transform="translate(0.781821,-0.781821)">
				<title>Tabelle.84</title>
				<g id="shape1316-321">
					<title>Tabelle.1316</title>
					<path d="M0,245.35v4.63h6.09v-4.63H0z"/>
				</g>
			</g>
			<g id="group1317-323">
				<title>Tabelle.85</title>
				<g id="shape1318-324">
					<title>Tabelle.1318</title>
					<path d="M6.869,249.98H0.78c-0.43,0-0.78-0.35-0.78-0.78v-4.63c0-0.43,0.351-0.78,0.78-0.78h6.09c0.44,0,0.79,0.35,0.79,0.78
						v4.63C7.659,249.63,7.31,249.98,6.869,249.98z M1.56,248.42h4.529v-3.07H1.56V248.42z"/>
				</g>
			</g>
			<g id="group1319-326" transform="translate(1.56447,-7.70073)">
				<title>Tabelle.86</title>
				<g id="shape1320-327">
					<title>Tabelle.1320</title>
					<path d="M-0.001,249.98c0-1.24,1.021-2.26,2.261-2.26c1.26,0,2.27,1.02,2.27,2.26H3.4c0-0.62-0.51-1.13-1.14-1.13
						c-0.62,0-1.131,0.51-1.131,1.13H-0.001z"/>
				</g>
			</g>
		</g>
		<g id="group1321-329" transform="translate(1.56442,-5.00901)">
			<title>Tabelle.90</title>
			<g id="shape1322-330">
				<title>Tabelle.1322</title>
				<path d="M-0.001,247.39v2.59h1.13v-2.72h-1.13V247.39z"/>
			</g>
		</g>
		<g id="group1323-332" transform="translate(4.96131,-5.00901)">
			<title>Tabelle.1323</title>
			<g id="shape1324-333">
				<title>Tabelle.1324</title>
				<path d="M0,247.39v2.59h1.13v-2.72H0V247.39z"/>
			</g>
		</g>
		<g id="shape1325-335" transform="translate(2.86806,-3.05898)">
			<title>Tabelle.1325</title>
			<ellipse fill="#FFFFFF" cx="0.96" cy="249.023" rx="0.96" ry="0.96"/>
		</g>
		<g id="shape1326-337" transform="translate(3.33348,-1.13819)">
			<title>Tabelle.1326</title>
			<path fill="#FFFFFF" d="M0.989,249.49c0,0.27-0.22,0.49-0.5,0.49c-0.27,0-0.489-0.22-0.489-0.49v-1.89c0-0.28,0.22-0.5,0.489-0.5
				c0.28,0,0.5,0.22,0.5,0.5V249.49z"/>
		</g>
	</g>
	<g id="group1327-339" transform="translate(280.785,-21.4192)">
		<title>Layer_2.1327</title>
		<g id="group1328-340" transform="translate(0,-17.407)">
			<title>Tabelle.1328</title>
			<g id="shape1329-341" transform="translate(1.25333,-1.25315)">
				<title>Tabelle.1329</title>
				<ellipse fill="#FFFFFF" cx="25.312" cy="224.671" rx="25.313" ry="25.313"/>
			</g>
			<g id="shape1330-343">
				<title>Tabelle.1330</title>
				<path fill="#808285" d="M26.57,249.98C11.92,249.98,0,238.07,0,223.419C0,208.77,11.92,196.85,26.57,196.85
					c14.64,0,26.56,11.92,26.56,26.569C53.129,238.07,41.209,249.98,26.57,249.98z M26.57,199.36c-13.27,0-24.06,10.79-24.06,24.06
					c0,13.261,10.79,24.061,24.06,24.061c13.26,0,24.05-10.8,24.05-24.061C50.619,210.15,39.829,199.36,26.57,199.36z"/>
			</g>
		</g>
		<g id="shape1331-345" transform="translate(222.227,399.145) rotate(135)">
			<title>Tabelle.1331</title>
			<rect x="0.001" y="216.693" fill="#808285" width="5.745" height="33.291"/>
		</g>
	</g>
	<g id="group1332-347" transform="translate(291.676,-55.2482)">
		<title>Tabelle.1332</title>
		<g id="group1333-348">
			<title>Zeichenblatt-1</title>
			<g id="group1334-349">
				<title>Tabelle.44</title>
				<g id="group1335-350">
					<title>Tabelle.1335</title>
					<g id="shape1336-351" transform="translate(0.00298007,-0.00178804)">
						<title>Tabelle.1336</title>
						<path d="M14.17,249.24v-4.5h-1.5v4.5H14.17z M14.17,243.24v-4.5h-1.5v4.5H14.17z M12.67,237.23h1.5v-1.42
							c0-0.16-0.05-0.32-0.15-0.45l-1.85-2.45l-1.2,0.9l1.69,2.26L12.67,237.23z M10.519,231.701h-4.51v1.5h4.51V231.701z
							 M4.509,233.201v-1.5H0.75c-0.41,0-0.75,0.34-0.75,0.75v0.76L4.509,233.201z M0,234.711v4.5h1.5v-4.5H0z M0,240.701v4.5h1.5
							v-4.5H0z M1.5,246.711H0v2.529c0,0.41,0.34,0.74,0.75,0.74h1.97v-1.49l-1.22-0.01V246.711z M4.23,249.98h4.499v-1.49H4.23
							V249.98z M10.24,249.98h3.18v-1.49h-3.18V249.98z"/>
						<path fill="none" d="M14.17,249.24v-4.5h-1.5v4.5H14.17 M14.17,243.24v-4.5h-1.5v4.5H14.17 M12.67,237.23h1.5v-1.42
							c0-0.16-0.05-0.32-0.15-0.45l-1.85-2.45l-1.2,0.9l1.69,2.26 M10.519,231.701h-4.51v1.5h4.51V231.701 M4.509,233.201v-1.5H0.75
							c-0.41,0-0.75,0.34-0.75,0.75v0.76 M0,234.711v4.5h1.5v-4.5H0 M0,240.701v4.5h1.5v-4.5H0 M1.5,246.711H0v2.529
							c0,0.41,0.34,0.74,0.75,0.74h1.97v-1.49l-1.22-0.01 M4.23,249.98h4.499v-1.49H4.23V249.98 M10.24,249.98h3.18v-1.49h-3.18
							V249.98"/>
					</g>
					<g id="shape1337-354">
						<title>Tabelle.1337</title>
						<path d="M13.42,249.98h-3.18l0,0v-1.5l0,0h2.43v-3.74v-0.01h1.5v0.01v4.5l0,0h-0.75V249.98L13.42,249.98z M10.24,249.98h3.18
							v-0.74h-0.75l0,0v-0.75h-2.43V249.98z M13.42,249.23h0.75v-4.49h-1.5v3.74h0.75c0,0,0,0,0,0.01V249.23z M12.67,249.23h0.75
							v-0.74h-0.75V249.23z M8.729,249.98H4.23l0,0v-1.5l0,0h4.51l0,0v1.5C8.74,249.98,8.74,249.98,8.729,249.98z M4.23,249.98
							h4.499v-1.49H4.23V249.98z M2.73,249.98H0.75c-0.41,0-0.75-0.33-0.75-0.74v-2.54l0,0h1.5c0.01,0,0.01,0,0.01,0v1.78H2.73l0,0
							V249.98L2.73,249.98z M1.5,248.48v-1.77h-1.49v2.529c0,0.41,0.33,0.74,0.74,0.74h1.97v-1.49h-1.21L1.5,248.48z M1.5,245.2H0
							l0,0v-4.5l0,0h1.5c0.01,0,0.01,0,0.01,0v4.5C1.509,245.2,1.509,245.2,1.5,245.2z M0.009,245.2H1.5v-4.5h-1.49V245.2z
							 M14.17,243.24h-1.5c0,0,0,0,0-0.01v-4.5l0,0h1.5l0,0V243.24L14.17,243.24z M12.67,243.23h1.5v-4.49h-1.5V243.23z
							 M1.5,239.211H0l0,0v-4.5c0-0.011,0-0.011,0-0.011h1.5c0.01,0,0.01,0,0.01,0.011v4.5C1.509,239.211,1.509,239.211,1.5,239.211
							z M0.009,239.2H1.5v-4.489h-1.49V239.2z M14.17,237.24h-1.5v-0.01v-1.17l-1.7-2.25v-0.01l1.2-0.9l0,0l1.85,2.45
							c0.101,0.14,0.15,0.29,0.15,0.46v1.42V237.24z M1.5,233.211H0V233.2v-0.75c0-0.409,0.34-0.75,0.75-0.75h3.76l0,0v1.5l0,0h-3
							l0,0C1.509,233.2,1.509,233.211,1.5,233.211z M1.509,233.2h3v-1.5H0.75c-0.41,0-0.74,0.341-0.74,0.75v0.75H1.509z
							 M10.519,233.2h-4.51l0,0v-1.5l0,0h4.51l0,0V233.2C10.529,233.2,10.519,233.2,10.519,233.2z M6.009,233.2h4.51v-1.5h-4.51
							V233.2z"/>
						<path fill="none" d="M13.42,249.98h-3.18l0,0v-1.5l0,0h2.43v-3.74v-0.01h1.5v0.01v4.5l0,0h-0.75V249.98L13.42,249.98
							 M10.24,249.98h3.18v-0.74h-0.75l0,0v-0.75h-2.43V249.98 M13.42,249.23h0.75v-4.49h-1.5v3.74h0.75c0,0,0,0,0,0.01V249.23
							 M12.67,249.23h0.75v-0.74h-0.75V249.23 M8.729,249.98H4.23l0,0v-1.5l0,0h4.51l0,0v1.5C8.74,249.98,8.74,249.98,8.729,249.98
							 M4.23,249.98h4.499v-1.49H4.23V249.98 M2.73,249.98H0.75c-0.41,0-0.75-0.33-0.75-0.74v-2.54l0,0h1.5c0.01,0,0.01,0,0.01,0
							v1.78H2.73l0,0V249.98L2.73,249.98 M1.5,248.48v-1.77h-1.49v2.529c0,0.41,0.33,0.74,0.74,0.74h1.97v-1.49h-1.21 M1.5,245.2H0
							l0,0v-4.5l0,0h1.5c0.01,0,0.01,0,0.01,0v4.5C1.509,245.2,1.509,245.2,1.5,245.2 M0.009,245.2H1.5v-4.5h-1.49V245.2
							 M14.17,243.24h-1.5c0,0,0,0,0-0.01v-4.5l0,0h1.5l0,0V243.24L14.17,243.24 M12.67,243.23h1.5v-4.49h-1.5V243.23 M1.5,239.211
							H0l0,0v-4.5c0-0.011,0-0.011,0-0.011h1.5c0.01,0,0.01,0,0.01,0.011v4.5C1.509,239.211,1.509,239.211,1.5,239.211 M0.009,239.2
							H1.5v-4.489h-1.49V239.2 M14.17,237.24h-1.5v-0.01v-1.17l-1.7-2.25v-0.01l1.2-0.9l0,0l1.85,2.45
							c0.101,0.14,0.15,0.29,0.15,0.46v1.42V237.24 M1.5,233.211H0V233.2v-0.75c0-0.409,0.34-0.75,0.75-0.75h3.76l0,0v1.5l0,0h-3
							l0,0C1.509,233.2,1.509,233.211,1.5,233.211 M1.509,233.2h3v-1.5H0.75c-0.41,0-0.74,0.341-0.74,0.75v0.75 M10.519,233.2h-4.51
							l0,0v-1.5l0,0h4.51l0,0V233.2C10.529,233.2,10.519,233.2,10.519,233.2 M6.009,233.2h4.51v-1.5h-4.51V233.2"/>
					</g>
				</g>
			</g>
			<g id="shape1338-357" transform="translate(10.2433,-0.00432219)">
				<title>Tabelle.1338</title>
				<path d="M2.429,244.74h1.49v4.5h-0.75v0.74H0v-1.49h2.42L2.429,244.74z"/>
			</g>
		</g>
	</g>
	<g id="group1339-359" transform="translate(308.684,-55.2482)">
		<title>Tabelle.1339</title>
		<g id="group1340-360">
			<title>Zeichenblatt-1</title>
			<g id="group1341-361">
				<title>Tabelle.44</title>
				<g id="group1342-362">
					<title>Tabelle.1342</title>
					<g id="shape1343-363" transform="translate(0.00298007,-0.00178804)">
						<title>Tabelle.1343</title>
						<path d="M14.169,249.24v-4.5h-1.5v4.5H14.169z M14.169,243.24v-4.5h-1.5v4.5H14.169z M12.669,237.23h1.5v-1.42
							c0-0.16-0.05-0.32-0.15-0.45l-1.85-2.45l-1.2,0.9l1.69,2.26L12.669,237.23z M10.519,231.701h-4.51v1.5h4.51V231.701z
							 M4.509,233.201v-1.5h-3.76c-0.41,0-0.75,0.34-0.75,0.75v0.76L4.509,233.201z M-0.001,234.711v4.5h1.5v-4.5H-0.001z
							 M-0.001,240.701v4.5h1.5v-4.5H-0.001z M1.499,246.711h-1.5v2.529c0,0.41,0.34,0.74,0.75,0.74h1.97v-1.49l-1.22-0.01V246.711z
							 M4.23,249.98h4.5v-1.49h-4.5V249.98z M10.24,249.98h3.18v-1.49h-3.18V249.98z"/>
						<path fill="none" d="M14.169,249.24v-4.5h-1.5v4.5H14.169 M14.169,243.24v-4.5h-1.5v4.5H14.169 M12.669,237.23h1.5v-1.42
							c0-0.16-0.05-0.32-0.15-0.45l-1.85-2.45l-1.2,0.9l1.69,2.26 M10.519,231.701h-4.51v1.5h4.51V231.701 M4.509,233.201v-1.5
							h-3.76c-0.41,0-0.75,0.34-0.75,0.75v0.76 M-0.001,234.711v4.5h1.5v-4.5H-0.001 M-0.001,240.701v4.5h1.5v-4.5H-0.001
							 M1.499,246.711h-1.5v2.529c0,0.41,0.34,0.74,0.75,0.74h1.97v-1.49l-1.22-0.01 M4.23,249.98h4.5v-1.49h-4.5V249.98
							 M10.24,249.98h3.18v-1.49h-3.18V249.98"/>
					</g>
					<g id="shape1344-366">
						<title>Tabelle.1344</title>
						<path d="M13.419,249.98h-3.18l0,0v-1.5l0,0h2.43v-3.74v-0.01h1.5v0.01v4.5l0,0h-0.75V249.98L13.419,249.98z M10.24,249.98
							h3.18v-0.74h-0.75l0,0v-0.75h-2.43V249.98z M13.419,249.23h0.75v-4.49h-1.5v3.74h0.75c0,0,0,0,0,0.01V249.23z M12.669,249.23
							h0.75v-0.74h-0.75V249.23z M8.729,249.98h-4.5l0,0v-1.5l0,0H8.74l0,0v1.5C8.74,249.98,8.74,249.98,8.729,249.98z
							 M4.229,249.98h4.5v-1.49h-4.5V249.98z M2.729,249.98H0.75c-0.41,0-0.75-0.33-0.75-0.74v-2.54l0,0h1.5c0.01,0,0.01,0,0.01,0
							v1.78h1.22l0,0V249.98L2.729,249.98z M1.5,248.48v-1.77h-1.49v2.529c0,0.41,0.33,0.74,0.74,0.74h1.97v-1.49h-1.21L1.5,248.48z
							 M1.5,245.2H0l0,0v-4.5l0,0h1.5c0.01,0,0.01,0,0.01,0v4.5C1.509,245.2,1.509,245.2,1.5,245.2z M0.009,245.2H1.5v-4.5h-1.49
							V245.2z M14.169,243.24h-1.5c0,0,0,0,0-0.01v-4.5l0,0h1.5l0,0V243.24L14.169,243.24z M12.669,243.23h1.5v-4.49h-1.5V243.23z
							 M1.5,239.211H0l0,0v-4.5c0-0.011,0-0.011,0-0.011h1.5c0.01,0,0.01,0,0.01,0.011v4.5C1.509,239.211,1.509,239.211,1.5,239.211
							z M0.009,239.2H1.5v-4.489h-1.49V239.2z M14.169,237.24h-1.5v-0.01v-1.17l-1.7-2.25v-0.01l1.2-0.9l0,0l1.85,2.45
							c0.101,0.14,0.15,0.29,0.15,0.46v1.42V237.24z M1.5,233.211H0V233.2v-0.75c0-0.409,0.34-0.75,0.75-0.75h3.76l0,0v1.5l0,0h-3
							l0,0C1.509,233.2,1.509,233.211,1.5,233.211z M1.509,233.2h3v-1.5H0.75c-0.41,0-0.74,0.341-0.74,0.75v0.75H1.509z
							 M10.519,233.2h-4.51l0,0v-1.5l0,0h4.51l0,0V233.2C10.53,233.2,10.519,233.2,10.519,233.2z M6.009,233.2h4.51v-1.5h-4.51
							V233.2z"/>
						<path fill="none" d="M13.419,249.98h-3.18l0,0v-1.5l0,0h2.43v-3.74v-0.01h1.5v0.01v4.5l0,0h-0.75V249.98L13.419,249.98
							 M10.24,249.98h3.18v-0.74h-0.75l0,0v-0.75h-2.43V249.98 M13.419,249.23h0.75v-4.49h-1.5v3.74h0.75c0,0,0,0,0,0.01V249.23
							 M12.669,249.23h0.75v-0.74h-0.75V249.23 M8.729,249.98h-4.5l0,0v-1.5l0,0H8.74l0,0v1.5C8.74,249.98,8.74,249.98,8.729,249.98
							 M4.229,249.98h4.5v-1.49h-4.5V249.98 M2.729,249.98H0.75c-0.41,0-0.75-0.33-0.75-0.74v-2.54l0,0h1.5c0.01,0,0.01,0,0.01,0
							v1.78h1.22l0,0V249.98L2.729,249.98 M1.5,248.48v-1.77h-1.49v2.529c0,0.41,0.33,0.74,0.74,0.74h1.97v-1.49h-1.21 M1.5,245.2H0
							l0,0v-4.5l0,0h1.5c0.01,0,0.01,0,0.01,0v4.5C1.509,245.2,1.509,245.2,1.5,245.2 M0.009,245.2H1.5v-4.5h-1.49V245.2
							 M14.169,243.24h-1.5c0,0,0,0,0-0.01v-4.5l0,0h1.5l0,0V243.24L14.169,243.24 M12.669,243.23h1.5v-4.49h-1.5V243.23
							 M1.5,239.211H0l0,0v-4.5c0-0.011,0-0.011,0-0.011h1.5c0.01,0,0.01,0,0.01,0.011v4.5C1.509,239.211,1.509,239.211,1.5,239.211
							 M0.009,239.2H1.5v-4.489h-1.49V239.2 M14.169,237.24h-1.5v-0.01v-1.17l-1.7-2.25v-0.01l1.2-0.9l0,0l1.85,2.45
							c0.101,0.14,0.15,0.29,0.15,0.46v1.42V237.24 M1.5,233.211H0V233.2v-0.75c0-0.409,0.34-0.75,0.75-0.75h3.76l0,0v1.5l0,0h-3
							l0,0C1.509,233.2,1.509,233.211,1.5,233.211 M1.509,233.2h3v-1.5H0.75c-0.41,0-0.74,0.341-0.74,0.75v0.75 M10.519,233.2h-4.51
							l0,0v-1.5l0,0h4.51l0,0V233.2C10.53,233.2,10.519,233.2,10.519,233.2 M6.009,233.2h4.51v-1.5h-4.51V233.2"/>
					</g>
				</g>
			</g>
			<g id="shape1345-369" transform="translate(10.2433,-0.00432219)">
				<title>Tabelle.1345</title>
				<path d="M2.429,244.74h1.49v4.5h-0.75v0.74h-3.17v-1.49h2.42L2.429,244.74z"/>
			</g>
		</g>
	</g>
	<g id="group1346-371" transform="translate(295.072,-58.7616)">
		<title>Tabelle.1346</title>
		<g id="group1347-372">
			<title>Zeichenblatt-1</title>
			<g id="group1348-373" transform="translate(0.781821,-0.781821)">
				<title>Tabelle.84</title>
				<g id="shape1349-374">
					<title>Tabelle.1349</title>
					<path d="M0,245.35v4.631h6.09v-4.631H0z"/>
				</g>
			</g>
			<g id="group1350-376">
				<title>Tabelle.85</title>
				<g id="shape1351-377">
					<title>Tabelle.1351</title>
					<path d="M6.869,249.98h-6.09c-0.43,0-0.78-0.35-0.78-0.779v-4.631c0-0.43,0.351-0.779,0.78-0.779h6.09
						c0.44,0,0.79,0.35,0.79,0.779v4.631C7.659,249.63,7.31,249.98,6.869,249.98z M1.56,248.42h4.529v-3.07H1.56V248.42z"/>
				</g>
			</g>
			<g id="group1352-379" transform="translate(1.56447,-7.70073)">
				<title>Tabelle.86</title>
				<g id="shape1353-380">
					<title>Tabelle.1353</title>
					<path d="M0,249.98c0-1.239,1.02-2.26,2.26-2.26c1.26,0,2.27,1.021,2.27,2.26H3.4c0-0.619-0.51-1.129-1.14-1.129
						c-0.62,0-1.131,0.51-1.131,1.129H0z"/>
				</g>
			</g>
		</g>
		<g id="group1354-382" transform="translate(1.56442,-5.00901)">
			<title>Tabelle.90</title>
			<g id="shape1355-383">
				<title>Tabelle.1355</title>
				<path d="M-0.001,247.39v2.59h1.13v-2.72h-1.13V247.39z"/>
			</g>
		</g>
		<g id="group1356-385" transform="translate(4.96131,-5.00901)">
			<title>Tabelle.1356</title>
			<g id="shape1357-386">
				<title>Tabelle.1357</title>
				<path d="M0,247.39v2.59h1.13v-2.72H0V247.39z"/>
			</g>
		</g>
		<g id="shape1358-388" transform="translate(2.86806,-3.05898)">
			<title>Tabelle.1358</title>
			<ellipse fill="#FFFFFF" cx="0.96" cy="249.023" rx="0.961" ry="0.961"/>
		</g>
		<g id="shape1359-390" transform="translate(3.33348,-1.13819)">
			<title>Tabelle.1359</title>
			<path fill="#FFFFFF" d="M0.989,249.49c0,0.271-0.22,0.489-0.5,0.489c-0.27,0-0.489-0.219-0.489-0.489v-1.89
				c0-0.28,0.22-0.5,0.489-0.5c0.28,0,0.5,0.22,0.5,0.5V249.49z"/>
		</g>
	</g>
	<g id="group1360-392" transform="translate(312.071,-58.7616)">
		<title>Tabelle.1360</title>
		<g id="group1361-393">
			<title>Zeichenblatt-1</title>
			<g id="group1362-394" transform="translate(0.781821,-0.781821)">
				<title>Tabelle.84</title>
				<g id="shape1363-395">
					<title>Tabelle.1363</title>
					<path d="M0,245.35v4.631h6.09v-4.631H0z"/>
				</g>
			</g>
			<g id="group1364-397">
				<title>Tabelle.85</title>
				<g id="shape1365-398">
					<title>Tabelle.1365</title>
					<path d="M6.869,249.98h-6.09c-0.43,0-0.78-0.35-0.78-0.779v-4.631c0-0.43,0.351-0.779,0.78-0.779h6.09
						c0.44,0,0.79,0.35,0.79,0.779v4.631C7.659,249.63,7.31,249.98,6.869,249.98z M1.56,248.42h4.529v-3.07H1.56V248.42z"/>
				</g>
			</g>
			<g id="group1366-400" transform="translate(1.56447,-7.70073)">
				<title>Tabelle.86</title>
				<g id="shape1367-401">
					<title>Tabelle.1367</title>
					<path d="M-0.001,249.98c0-1.239,1.021-2.26,2.261-2.26c1.26,0,2.27,1.021,2.27,2.26H3.4c0-0.619-0.51-1.129-1.14-1.129
						c-0.62,0-1.131,0.51-1.131,1.129H-0.001z"/>
				</g>
			</g>
		</g>
		<g id="group1368-403" transform="translate(1.56442,-5.00901)">
			<title>Tabelle.90</title>
			<g id="shape1369-404">
				<title>Tabelle.1369</title>
				<path d="M-0.001,247.39v2.59h1.13v-2.72h-1.13V247.39z"/>
			</g>
		</g>
		<g id="group1370-406" transform="translate(4.96131,-5.00901)">
			<title>Tabelle.1370</title>
			<g id="shape1371-407">
				<title>Tabelle.1371</title>
				<path d="M0,247.39v2.59h1.13v-2.72H0V247.39z"/>
			</g>
		</g>
		<g id="shape1372-409" transform="translate(2.86806,-3.05898)">
			<title>Tabelle.1372</title>
			<ellipse fill="#FFFFFF" cx="0.96" cy="249.023" rx="0.961" ry="0.961"/>
		</g>
		<g id="shape1373-411" transform="translate(3.33348,-1.13819)">
			<title>Tabelle.1373</title>
			<path fill="#FFFFFF" d="M0.989,249.49c0,0.271-0.22,0.489-0.5,0.489c-0.27,0-0.489-0.219-0.489-0.489v-1.89
				c0-0.28,0.22-0.5,0.489-0.5c0.28,0,0.5,0.22,0.5,0.5V249.49z"/>
		</g>
	</g>
</g>
<g>
	<polygon fill="#FFFFFF" stroke="#636363" stroke-width="3" stroke-miterlimit="10" points="155.109,183.854 121.572,190.604 
		155.109,197.354 155.109,193.417 288.32,193.417 288.32,187.792 155.109,187.792 	"/>
</g>
<g>
	<polygon fill="#FFFFFF" stroke="#636363" stroke-width="3" stroke-miterlimit="10" points="146.022,152.598 120.57,171.992 
		153.256,164.129 151.146,160.764 302.144,89.98 299.13,85.177 148.133,155.962 	"/>
</g>
</svg>
