<?xml version="1.0" encoding="utf-8"?>
<!-- Generator: Adobe Illustrator 16.0.0, SVG Export Plug-In . SVG Version: 6.00 Build 0)  -->
<!DOCTYPE svg PUBLIC "-//W3C//DTD SVG 1.1//EN" "http://www.w3.org/Graphics/SVG/1.1/DTD/svg11.dtd">
<svg version="1.1"
	 id="Layer_1" xmlns:ev="http://www.w3.org/2001/xml-events" xmlns:v="http://schemas.microsoft.com/visio/2003/SVGExtensions/"
	 xmlns="http://www.w3.org/2000/svg" xmlns:xlink="http://www.w3.org/1999/xlink" x="0px" y="0px" width="425.645px"
	 height="155.709px" viewBox="0 0 425.645 155.709" enable-background="new 0 0 425.645 155.709" xml:space="preserve">
<v:documentProperties  v:viewMarkup="false" v:metric="true" v:langID="1031"></v:documentProperties>
<g>
	<title>Zeichenblatt-1</title>
	
		<v:pageProperties  v:shadowOffsetY="-8.50394" v:shadowOffsetX="8.50394" v:drawingUnits="24" v:pageScale="0.0393701" v:drawingScale="0.0393701">
		</v:pageProperties>
	<g id="group260-1" transform="translate(300.146,-44.8626)">
		<title>Tabelle.260</title>
		<g id="group261-2">
			<title>Zeichenblatt-1</title>
			<g id="group262-3" transform="translate(0,-9.27286)">
				<v:userDefs>
					<v:ud  v:val="VT0(0):5" v:prompt="" v:nameU="CTypeTopLeftSnip"></v:ud>
					<v:ud  v:val="VT0(0):5" v:prompt="" v:nameU="CTypeTopRightSnip"></v:ud>
					<v:ud  v:val="VT0(0):5" v:prompt="" v:nameU="CTypeBotLeftSnip"></v:ud>
					<v:ud  v:val="VT0(0):5" v:prompt="" v:nameU="CTypeBotRightSnip"></v:ud>
					<v:ud  v:val="VT0(1):5" v:prompt="" v:nameU="CornerLockHoriz"></v:ud>
					<v:ud  v:val="VT0(1):5" v:prompt="" v:nameU="CornerLockVert"></v:ud>
					<v:ud  v:val="VT0(0):5" v:prompt="" v:nameU="CornerLockDiag"></v:ud>
					<v:ud  v:val="VT0(0):26" v:prompt="" v:nameU="TopLeftOffset"></v:ud>
					<v:ud  v:val="VT0(0):26" v:prompt="" v:nameU="TopRightOffset"></v:ud>
					<v:ud  v:val="VT0(0):26" v:prompt="" v:nameU="BotLeftOffset"></v:ud>
					<v:ud  v:val="VT0(0):26" v:prompt="" v:nameU="BotRightOffset"></v:ud>
					<v:ud  v:val="VT0(15):26" v:prompt="" v:nameU="visVersion"></v:ud>
				</v:userDefs>
				<title>Abgerundetes Rechteck</title>
				<g id="shape263-4">
					<title>Tabelle.263</title>
					<path d="M121.64,155.71H3.11c-1.72,0-3.109-1.391-3.109-3.11V86.24c0-1.72,1.39-3.109,3.109-3.109h118.53
						c1.72,0,3.11,1.39,3.11,3.109v66.36C124.751,154.31,123.36,155.71,121.64,155.71z M6.23,149.48h112.29V89.36H6.23V149.48z"/>
				</g>
			</g>
			<g id="group264-6" transform="translate(57.8531,-0.838254)">
				<v:userDefs>
					<v:ud  v:val="VT0(15):26" v:nameU="visVersion"></v:ud>
				</v:userDefs>
				<title>Rechteck</title>
				<g id="group265-7">
					<title>Tabelle.265</title>
					<g id="shape266-8" transform="translate(0.0747073,-0.0747073)">
						<title>Tabelle.266</title>
						<rect x="0.001" y="142.473" width="6.176" height="13.236"/>
					</g>
					<g id="shape267-10">
						<title>Tabelle.267</title>
						<path d="M6.25,155.71H0.07c-0.04,0-0.07-0.03-0.07-0.08V142.4c0-0.04,0.03-0.08,0.07-0.08h6.18c0.04,0,0.08,0.04,0.08,0.08
							v13.23C6.33,155.68,6.29,155.71,6.25,155.71z M0.151,155.56h6.03v-13.09h-6.03V155.56z"/>
					</g>
				</g>
			</g>
			<g id="group268-12" transform="translate(33.8086,0)">
				<v:userDefs>
					<v:ud  v:val="VT0(15):26" v:nameU="visVersion"></v:ud>
				</v:userDefs>
				<title>Rechteck.71</title>
				<g id="group269-13">
					<title>Tabelle.269</title>
					<g id="shape270-14" transform="translate(0.0747073,-0.0747073)">
						<title>Tabelle.270</title>
						<rect x="0" y="152.621" width="55.501" height="3.088"/>
					</g>
					<g id="shape271-16">
						<title>Tabelle.271</title>
						<path d="M55.581,155.71H0.07c-0.04,0-0.069-0.03-0.069-0.08v-3.08c0-0.04,0.029-0.08,0.069-0.08h55.511
							c0.039,0,0.069,0.04,0.069,0.08v3.08C55.65,155.68,55.62,155.71,55.581,155.71z M0.15,155.56h55.351v-2.939H0.15V155.56z"/>
					</g>
				</g>
			</g>
		</g>
	</g>
	<g id="group272-18" transform="translate(0.611241,-50.3238)">
		<title>Tabelle.272</title>
		<g id="group273-19">
			<title>Zeichenblatt-1</title>
			<g id="group274-20" transform="translate(13.1991,-13.7491)">
				<title>Tabelle.74</title>
				<g id="shape275-21">
					<title>Tabelle.275</title>
					<path d="M98.241,155.71H1.76c-0.97,0-1.76-0.79-1.76-1.761V99.55c0-0.97,0.79-1.76,1.76-1.76h96.48c0.97,0,1.76,0.79,1.76,1.76
						v54.399C100,154.92,99.21,155.71,98.241,155.71z M5.601,150.1h88.79v-46.7H5.601V150.1z"/>
				</g>
			</g>
			<g id="group276-23" transform="translate(1.89586,-1.7557)">
				<title>Tabelle.75</title>
				<g id="shape277-24">
					<title>Tabelle.277</title>
					<path d="M122.501,155.71l-10.87-10.84H10.871l-10.87,10.84H122.501z"/>
				</g>
			</g>
			<g id="group278-26">
				<title>Tabelle.76</title>
				<g id="shape279-27">
					<title>Tabelle.279</title>
					<path d="M124.401,155.71H1.901c-0.71,0-1.36-0.431-1.63-1.09c-0.271-0.65-0.12-1.41,0.38-1.91l10.88-10.84
						c0.33-0.33,0.771-0.511,1.24-0.511h100.75c0.47,0,0.91,0.181,1.24,0.511l10.88,10.84c0.5,0.5,0.649,1.26,0.38,1.91
						C125.75,155.28,125.111,155.71,124.401,155.71z M6.141,152.201h114.01l-7.35-7.33H13.491L6.141,152.201z"/>
				</g>
			</g>
		</g>
	</g>
	<g id="shape281-29" transform="translate(108.347,-86.8185)">
		<title>Tabelle.281</title>
		
			<path fill="none" stroke="#000000" stroke-width="0.75" stroke-linecap="round" stroke-linejoin="round" stroke-miterlimit="3" d="
			M0.001,155.71h45.27"/>
	</g>
	<g id="group282-32" transform="translate(118.966,-19.2432) rotate(-15)">
		<title>Tabelle.282</title>
		<g id="group283-33">
			<title>Tabelle.283</title>
			<g id="shape284-34">
				<title>Tabelle.284</title>
				<path d="M0.001,96.22c0-1.12,0-2.249,0-3.37c0.14-0.891,0.24-1.79,0.41-2.67c2.25-11.46,11.85-18.89,22.24-19.31
					c0.73-0.03,0.979-0.33,1.19-0.969c2.449-7.711,7.51-12.961,15.11-15.67c1.95-0.691,4.05-0.91,6.09-1.351c1.12,0,2.249,0,3.37,0
					c0.18,0.05,0.361,0.13,0.54,0.14c5.1,0.471,9.57,2.411,13.401,5.801c0.549,0.49,0.89,0.38,1.419,0.019
					c4.99-3.399,10.511-4.83,16.5-4.05c6.051,0.79,11.13,3.551,15.09,8.201c3.34,3.93,5.261,8.5,5.58,13.68
					c0.05,0.75,0.48,0.81,0.98,0.95c8.33,2.23,13.991,7.41,16.851,15.53c0.66,1.88,0.89,3.92,1.319,5.89c0.001,1.19,0,2.38,0,3.56
					c-0.05,0.18-0.13,0.35-0.15,0.53c-0.44,4.76-2.24,8.96-5.27,12.64c-0.38,0.47-0.41,0.81-0.19,1.33
					c2.04,4.76,2.41,9.69,1.29,14.73c-2.99,13.4-17.29,21.59-30.34,17.36c-1.47-0.471-2.87-1.13-4.33-1.72
					c-0.12,0.13-0.249,0.27-0.38,0.4c-3.2,3.44-7.049,5.82-11.6,7.03c-1.37,0.36-2.791,0.54-4.19,0.81c-1.19,0-2.38,0-3.57,0
					c-0.18-0.05-0.349-0.13-0.53-0.15c-5.75-0.57-10.66-2.93-14.66-7.09c-1.17-1.22-2.18-2.61-3.28-3.94
					c-4.6,1.78-9.33,2.14-14.189,1.06c-13.25-2.97-21.421-16.85-17.55-29.88c0.18-0.61,0.1-0.91-0.44-1.27
					c-4.6-3.06-7.8-7.24-9.49-12.49C0.62,100.1,0.401,98.13,0.001,96.22z M24.41,76.74c0.001-0.04,0-0.08-0.01-0.12
					c-1.18,0.109-2.369,0.13-3.539,0.32c-7.79,1.32-13.69,7.309-14.78,15.36c-1.05,7.739,3.02,14.839,9.64,18.26
					c2.401,1.24,2.861,2.47,1.78,4.929c-1.4,3.22-1.74,6.581-1.12,10c2.16,11.93,15.14,18.33,25.93,12.81
					c2.281-1.169,3.741-0.709,4.901,1.561c6.169,12.1,22.42,13.4,30.439,2.45c1.561-2.131,2.88-2.381,5.07-0.91
					c3.75,2.5,7.87,3.449,12.31,2.82c12.351-1.741,19.21-15.311,13.33-26.29c-1.11-2.08-0.96-3.04,0.71-4.74
					c2.831-2.889,4.53-6.339,4.99-10.349c1.14-10.03-6.1-18.94-16.13-19.94c-1.69-0.161-2.77-1.36-2.81-3.05
					c-0.02-1.28-0.02-2.57-0.17-3.83c-1.24-10.69-12.28-17.88-22.65-14.8c-2.799,0.83-5.239,2.28-7.41,4.229
					c-1.491,1.341-3.1,1.221-4.47-0.229c-0.17-0.18-0.33-0.371-0.501-0.551c-8.92-9.759-24.95-6.879-29.88,5.391
					c-0.469,1.169-0.75,2.44-0.949,3.69c-0.32,2.07-1.471,3.1-3.551,3C25.16,76.73,24.791,76.74,24.41,76.74z"/>
			</g>
			<g id="shape285-36" transform="translate(0,-0.000375296)">
				<title>Tabelle.285</title>
				<path fill="#FFFFFF" d="M0.001,96.22c0.4,1.92,0.62,3.879,1.22,5.73c1.69,5.25,4.89,9.43,9.49,12.49
					c0.539,0.36,0.62,0.66,0.44,1.27c-3.871,13.03,4.3,26.911,17.55,29.881c4.86,1.08,9.59,0.719,14.19-1.061
					c1.1,1.33,2.11,2.721,3.28,3.94c4,4.16,8.91,6.52,14.659,7.09c0.18,0.02,0.35,0.1,0.53,0.15c-20.44,0-40.87-0.001-61.36,0
					C0.001,135.88,0,116.05,0.001,96.22z"/>
			</g>
			<g id="shape286-38" transform="translate(48.4132,-56.6697)">
				<title>Tabelle.286</title>
				<path fill="#FFFFFF" d="M71.68,155.71c-0.43-1.969-0.66-4.009-1.33-5.89c-2.861-8.13-8.52-13.3-16.84-15.53
					c-0.51-0.14-0.939-0.199-0.98-0.95c-0.33-5.18-2.239-9.75-5.589-13.679c-3.961-4.65-9.03-7.41-15.08-8.2
					c-5.99-0.78-11.51,0.649-16.51,4.049c-0.53,0.36-0.87,0.47-1.42-0.02c-3.82-3.39-8.3-5.33-13.4-5.8
					c-0.18-0.011-0.35-0.091-0.531-0.14c23.89,0,47.791,0,71.681,0C71.681,124.931,71.681,140.32,71.68,155.71z"/>
			</g>
			<g id="shape287-40" transform="translate(0,-62.8622)">
				<title>Tabelle.287</title>
				<path fill="#FFFFFF" d="M45.04,115.74c-2.04,0.44-4.14,0.66-6.09,1.35c-7.6,2.71-12.66,7.96-15.11,15.67
					c-0.21,0.651-0.46,0.94-1.19,0.97c-10.39,0.42-19.99,7.85-22.24,19.31c-0.17,0.88-0.27,1.78-0.41,2.67
					c0.001-13.31,0-26.62,0-39.97C15.01,115.74,30.021,115.74,45.04,115.74z"/>
			</g>
			<g id="shape288-42" transform="translate(64.9262,-0.000187648)">
				<title>Tabelle.288</title>
				<path fill="#FFFFFF" d="M0,155.71c1.401-0.27,2.821-0.45,4.19-0.81c4.55-1.21,8.41-3.59,11.61-7.029
					c0.12-0.131,0.25-0.271,0.37-0.4c1.46,0.589,2.87,1.25,4.329,1.72c13.05,4.23,27.351-3.96,30.34-17.36
					c1.13-5.04,0.75-9.971-1.28-14.731c-0.23-0.52-0.2-0.859,0.179-1.33c3.03-3.68,4.83-7.88,5.27-12.64
					c0.02-0.18,0.11-0.35,0.16-0.53c-0.001,17.691,0,35.38,0,53.111C36.781,155.71,18.39,155.71,0,155.71z"/>
			</g>
			<g id="shape289-44" transform="translate(5.02953,-2.44562)">
				<title>Tabelle.289</title>
				<path fill="#FFFFFF" d="M19.381,79.19c0.38,0.001,0.749-0.02,1.13,0.001c2.079,0.11,3.23-0.92,3.549-2.99
					c0.201-1.25,0.48-2.52,0.95-3.69c4.93-12.28,20.96-15.15,29.88-5.4c0.17,0.19,0.331,0.38,0.5,0.56
					c1.371,1.45,2.98,1.56,4.471,0.23c2.169-1.95,4.61-3.41,7.419-4.24c10.36-3.081,21.4,4.12,22.65,14.799
					c0.14,1.271,0.14,2.561,0.17,3.841c0.03,1.689,1.11,2.88,2.8,3.049c10.029,1,17.27,9.91,16.13,19.94
					c-0.461,4.01-2.161,7.46-4.991,10.34c-1.669,1.71-1.819,2.67-0.71,4.75c5.88,10.981-0.98,24.551-13.33,26.29
					c-4.44,0.63-8.56-0.32-12.31-2.83c-2.19-1.459-3.51-1.22-5.07,0.91c-8.02,10.96-24.27,9.65-30.439-2.45
					c-1.161-2.26-2.62-2.73-4.9-1.56c-10.791,5.52-23.77-0.87-25.93-12.81c-0.62-3.421-0.28-6.77,1.12-9.99
					c1.08-2.461,0.63-3.69-1.78-4.93c-6.62-3.42-10.69-10.52-9.64-18.27C2.141,86.7,8.041,80.7,15.84,79.39
					c1.161-0.2,2.351-0.219,3.54-0.319C19.381,79.11,19.38,79.15,19.381,79.19z"/>
			</g>
		</g>
	</g>
	<g id="shape295-46" transform="translate(171.317,-78.8729)">
		<title>Tabelle.295</title>
		<desc>Internet</desc>
		<v:textBlock  v:tabSpace="42.5197" v:margins="rect(4,4,4,4)"></v:textBlock>
		<v:textRect  width="65.29" height="21.7621" cy="144.828" cx="32.6432"></v:textRect>
		<rect x="0.001" y="133.947" fill="none" width="65.286" height="21.763"/>
		
			<text transform="matrix(1 0 0 1 12.3805 148.4302)" enable-background="new    " font-family="'Roboto-Light'" font-size="12.0001">Internet<v:paragraph  v:horizAlign="1"></v:paragraph><v:tabList></v:tabList></text>
	</g>
	<g id="shape296-49" transform="translate(21.1541,-123.724)">
		<title>Tabelle.296</title>
		<desc>Schule</desc>
		<v:textBlock  v:tabSpace="42.5197" v:margins="rect(4,4,4,4)"></v:textBlock>
		<v:textRect  width="85.21" height="18.2839" cy="146.567" cx="42.6021"></v:textRect>
		<rect x="0" y="137.425" fill="none" width="85.204" height="18.284"/>
		<text transform="matrix(1 0 0 1 24.9203 150.17)" enable-background="new    " font-family="'Roboto-Light'" font-size="12.0001">Schule<v:paragraph  v:horizAlign="1"></v:paragraph><v:tabList></v:tabList></text>
	</g>
	<g id="shape297-52" transform="translate(325.099,-127.32)">
		<title>Tabelle.297</title>
		<desc>Home</desc>
		<v:textBlock  v:tabSpace="42.5197" v:margins="rect(4,4,4,4)"></v:textBlock>
		<v:textRect  width="69.13" height="21.7621" cy="144.828" cx="34.563"></v:textRect>
		<rect x="0.001" y="133.947" fill="none" width="69.126" height="21.763"/>
		
			<text transform="matrix(1 0 0 1 18.5399 148.4301)" enable-background="new    " font-family="'Roboto-Light'" font-size="12.0001">Home<v:paragraph  v:horizAlign="1"></v:paragraph><v:tabList></v:tabList></text>
	</g>
	<g id="shape302-55" transform="translate(258.571,-86.8185)">
		<title>Tabelle.302</title>
		
			<path fill="none" stroke="#000000" stroke-width="0.75" stroke-linecap="round" stroke-linejoin="round" stroke-miterlimit="3" d="
			M0.001,155.71h45.16"/>
	</g>
	<g id="group312-58" transform="translate(47.411,-3.28934)">
		<title>Tabelle.312</title>
		<g id="group313-59">
			<title>Layer_2</title>
			<g id="group314-60" transform="translate(0,-25.7364)">
				<title>Tabelle.314</title>
				<g id="shape315-61" transform="translate(1.85306,-1.85279)">
					<title>Tabelle.315</title>
					<ellipse fill="#FFFFFF" cx="37.425" cy="118.284" rx="37.424" ry="37.424"/>
				</g>
				<g id="shape316-63">
					<title>Tabelle.316</title>
					<path fill="#808285" d="M39.281,155.71C17.62,155.71,0,138.09,0,116.43S17.62,77.15,39.281,77.15S78.55,94.77,78.55,116.43
						S60.941,155.71,39.281,155.71z M39.281,80.86c-19.62,0-35.57,15.96-35.57,35.569c0,19.62,15.95,35.57,35.57,35.57
						c19.61,0,35.57-15.95,35.57-35.57C74.851,96.82,58.891,80.86,39.281,80.86z"/>
				</g>
			</g>
			<g id="shape317-65" transform="translate(177.318,225.001) rotate(135)">
				<title>Tabelle.317</title>
				<rect x="-0.001" y="106.488" fill="#808285" width="8.496" height="49.219"/>
			</g>
		</g>
	</g>
	<g id="group318-67" transform="translate(76.0238,-37.8741)">
		<title>Tabelle.318</title>
		<g id="group319-68">
			<title>Zeichenblatt-1</title>
			<g id="group320-69">
				<title>Tabelle.42</title>
				<g id="shape321-70">
					<title>Tabelle.321</title>
					<path d="M20.721,155.71H0.81c-0.45,0-0.81-0.37-0.81-0.81v-26.53c0-0.45,0.359-0.81,0.81-0.81h15.94
						c0.25,0,0.5,0.12,0.649,0.319l3.971,5.311c0.109,0.14,0.17,0.31,0.17,0.479v21.23C21.541,155.34,21.171,155.71,20.721,155.71z
						 M1.631,154.08h18.28v-20.13l-3.57-4.77H1.631V154.08z"/>
				</g>
			</g>
		</g>
	</g>
	<g id="group322-72" transform="translate(60.9893,-70.4814)">
		<title>Tabelle.322</title>
		<g id="group323-73">
			<title>Zeichenblatt-1</title>
			<g id="group324-74">
				<title>Tabelle.44</title>
				<g id="group325-75">
					<title>Tabelle.325</title>
					<g id="shape326-76" transform="translate(0.00298007,-0.00178804)">
						<title>Tabelle.326</title>
						<path d="M14.171,154.96v-4.5h-1.5v4.5H14.171z M14.171,148.96v-4.5h-1.5v4.5H14.171z M12.671,142.96h1.5v-1.421
							c0-0.17-0.051-0.319-0.15-0.46l-1.85-2.449l-1.2,0.899l1.689,2.26L12.671,142.96z M10.521,137.43h-4.51v1.5h4.51V137.43z
							 M4.511,138.93v-1.5H0.75c-0.409,0-0.75,0.34-0.75,0.75v0.75H4.511z M0,140.43v4.5h1.5v-4.5H0z M0,146.43v4.5h1.5v-4.5H0z
							 M1.5,152.43H0v2.53c0,0.42,0.341,0.75,0.75,0.75h1.971v-1.5H1.5V152.43z M4.231,155.71h4.5v-1.5h-4.5V155.71z M10.24,155.71
							h3.181v-1.5H10.24V155.71z"/>
						<path fill="none" d="M14.171,154.96v-4.5h-1.5v4.5H14.171 M14.171,148.96v-4.5h-1.5v4.5H14.171 M12.671,142.96h1.5v-1.421
							c0-0.17-0.051-0.319-0.15-0.46l-1.85-2.449l-1.2,0.899l1.689,2.26 M10.521,137.43h-4.51v1.5h4.51V137.43 M4.511,138.93v-1.5
							H0.75c-0.409,0-0.75,0.34-0.75,0.75v0.75 M0,140.43v4.5h1.5v-4.5H0 M0,146.43v4.5h1.5v-4.5H0 M1.5,152.43H0v2.53
							c0,0.42,0.341,0.75,0.75,0.75h1.971v-1.5H1.5 M4.231,155.71h4.5v-1.5h-4.5V155.71 M10.24,155.71h3.181v-1.5H10.24V155.71"/>
					</g>
					<g id="shape327-79">
						<title>Tabelle.327</title>
						<path d="M13.421,155.71H10.24l0,0v-1.5l0,0h2.431v-3.75l0,0h1.5l0,0v4.5l0,0h-0.75V155.71L13.421,155.71z M10.24,155.7h3.181
							v-0.74h-0.75l0,0v-0.75H10.24V155.7z M13.421,154.96h0.75v-4.489h-1.5v3.739h0.75l0,0V154.96z M12.671,154.96h0.75v-0.75
							h-0.75V154.96z M8.731,155.71h-4.5l0,0v-1.5l0,0h4.51l0,0v1.5C8.74,155.71,8.74,155.71,8.731,155.71z M4.231,155.7h4.5v-1.49
							h-4.5V155.7z M2.731,155.71H0.75c-0.409,0-0.75-0.34-0.75-0.75v-2.529l0,0h1.5c0.011,0,0.011,0,0.011,0v1.779h1.22l0,0V155.71
							L2.731,155.71z M1.5,154.21v-1.779H0.011v2.529c0,0.41,0.33,0.74,0.739,0.74h1.971v-1.49h-1.21H1.5z M1.5,150.93H0l0,0v-4.5
							c0-0.011,0-0.011,0-0.011h1.5c0.011,0,0.011,0,0.011,0.011v4.5C1.511,150.93,1.511,150.93,1.5,150.93z M0.011,150.92H1.5
							v-4.489H0.011V150.92z M14.171,148.96h-1.5l0,0v-4.5l0,0h1.5l0,0V148.96L14.171,148.96z M12.671,148.96h1.5v-4.5h-1.5V148.96z
							 M1.5,144.93H0l0,0v-4.5l0,0h1.5c0.011,0,0.011,0,0.011,0v4.5C1.511,144.93,1.511,144.93,1.5,144.93z M0.011,144.93H1.5v-4.5
							H0.011V144.93z M14.171,142.96h-1.5l0,0v-1.17l-1.7-2.26l0,0l1.2-0.9l0,0l1.85,2.45c0.1,0.13,0.15,0.29,0.15,0.45V142.96
							L14.171,142.96z M1.5,138.93H0l0,0v-0.75c0-0.42,0.341-0.761,0.75-0.761h3.761v0.011v1.489v0.011h-3l0,0
							C1.511,138.93,1.511,138.93,1.5,138.93z M1.511,138.92h3v-1.489H0.75c-0.409,0-0.739,0.34-0.739,0.75v0.75L1.511,138.92z
							 M10.521,138.93h-4.51v-0.011v-1.489v-0.011h4.51v0.011v1.489C10.53,138.92,10.521,138.93,10.521,138.93z M6.011,138.92h4.51
							v-1.489h-4.51V138.92z"/>
						<path fill="none" d="M13.421,155.71H10.24l0,0v-1.5l0,0h2.431v-3.75l0,0h1.5l0,0v4.5l0,0h-0.75V155.71L13.421,155.71
							 M10.24,155.7h3.181v-0.74h-0.75l0,0v-0.75H10.24V155.7 M13.421,154.96h0.75v-4.489h-1.5v3.739h0.75l0,0V154.96
							 M12.671,154.96h0.75v-0.75h-0.75V154.96 M8.731,155.71h-4.5l0,0v-1.5l0,0h4.51l0,0v1.5C8.74,155.71,8.74,155.71,8.731,155.71
							 M4.231,155.7h4.5v-1.49h-4.5V155.7 M2.731,155.71H0.75c-0.409,0-0.75-0.34-0.75-0.75v-2.529l0,0h1.5c0.011,0,0.011,0,0.011,0
							v1.779h1.22l0,0V155.71L2.731,155.71 M1.5,154.21v-1.779H0.011v2.529c0,0.41,0.33,0.74,0.739,0.74h1.971v-1.49h-1.21
							 M1.5,150.93H0l0,0v-4.5c0-0.011,0-0.011,0-0.011h1.5c0.011,0,0.011,0,0.011,0.011v4.5C1.511,150.93,1.511,150.93,1.5,150.93
							 M0.011,150.92H1.5v-4.489H0.011V150.92 M14.171,148.96h-1.5l0,0v-4.5l0,0h1.5l0,0V148.96L14.171,148.96 M12.671,148.96h1.5
							v-4.5h-1.5V148.96 M1.5,144.93H0l0,0v-4.5l0,0h1.5c0.011,0,0.011,0,0.011,0v4.5C1.511,144.93,1.511,144.93,1.5,144.93
							 M0.011,144.93H1.5v-4.5H0.011V144.93 M14.171,142.96h-1.5l0,0v-1.17l-1.7-2.26l0,0l1.2-0.9l0,0l1.85,2.45
							c0.1,0.13,0.15,0.29,0.15,0.45V142.96L14.171,142.96 M1.5,138.93H0l0,0v-0.75c0-0.42,0.341-0.761,0.75-0.761h3.761v0.011
							v1.489v0.011h-3l0,0C1.511,138.93,1.511,138.93,1.5,138.93 M1.511,138.92h3v-1.489H0.75c-0.409,0-0.739,0.34-0.739,0.75v0.75
							 M10.521,138.93h-4.51v-0.011v-1.489v-0.011h4.51v0.011v1.489C10.53,138.92,10.521,138.93,10.521,138.93 M6.011,138.92h4.51
							v-1.489h-4.51V138.92"/>
					</g>
				</g>
			</g>
			<g id="shape328-82" transform="translate(10.2433,-0.00432219)">
				<title>Tabelle.328</title>
				<path d="M2.431,150.47h1.49v4.49h-0.75v0.75h-3.17v-1.49l2.42-0.01L2.431,150.47z"/>
			</g>
		</g>
	</g>
	<g id="group329-84" transform="translate(80.5538,-70.4814)">
		<title>Tabelle.329</title>
		<g id="group330-85">
			<title>Zeichenblatt-1</title>
			<g id="group331-86">
				<title>Tabelle.44</title>
				<g id="group332-87">
					<title>Tabelle.332</title>
					<g id="shape333-88" transform="translate(0.00298007,-0.00178804)">
						<title>Tabelle.333</title>
						<path d="M14.171,154.96v-4.5h-1.5v4.5H14.171z M14.171,148.96v-4.5h-1.5v4.5H14.171z M12.671,142.96h1.5v-1.421
							c0-0.17-0.051-0.319-0.15-0.46l-1.85-2.449l-1.2,0.899l1.689,2.26L12.671,142.96z M10.521,137.43h-4.51v1.5h4.51V137.43z
							 M4.511,138.93v-1.5h-3.76c-0.41,0-0.75,0.34-0.75,0.75v0.75H4.511z M0.001,140.43v4.5h1.5v-4.5H0.001z M0.001,146.43v4.5h1.5
							v-4.5H0.001z M1.501,152.43h-1.5v2.53c0,0.42,0.34,0.75,0.75,0.75h1.97v-1.5h-1.22V152.43z M4.231,155.71h4.5v-1.5h-4.5
							V155.71z M10.24,155.71h3.181v-1.5H10.24V155.71z"/>
						<path fill="none" d="M14.171,154.96v-4.5h-1.5v4.5H14.171 M14.171,148.96v-4.5h-1.5v4.5H14.171 M12.671,142.96h1.5v-1.421
							c0-0.17-0.051-0.319-0.15-0.46l-1.85-2.449l-1.2,0.899l1.689,2.26 M10.521,137.43h-4.51v1.5h4.51V137.43 M4.511,138.93v-1.5
							h-3.76c-0.41,0-0.75,0.34-0.75,0.75v0.75 M0.001,140.43v4.5h1.5v-4.5H0.001 M0.001,146.43v4.5h1.5v-4.5H0.001 M1.501,152.43
							h-1.5v2.53c0,0.42,0.34,0.75,0.75,0.75h1.97v-1.5h-1.22 M4.231,155.71h4.5v-1.5h-4.5V155.71 M10.24,155.71h3.181v-1.5H10.24
							V155.71"/>
					</g>
					<g id="shape334-91">
						<title>Tabelle.334</title>
						<path d="M13.421,155.71H10.24l0,0v-1.5l0,0h2.431v-3.75l0,0h1.5l0,0v4.5l0,0h-0.75V155.71L13.421,155.71z M10.24,155.7h3.181
							v-0.74h-0.75l0,0v-0.75H10.24V155.7z M13.421,154.96h0.75v-4.489h-1.5v3.739h0.75l0,0V154.96z M12.671,154.96h0.75v-0.75
							h-0.75V154.96z M8.731,155.71h-4.5l0,0v-1.5l0,0h4.51l0,0v1.5C8.74,155.71,8.74,155.71,8.731,155.71z M4.231,155.7h4.5v-1.49
							h-4.5V155.7z M2.731,155.71H0.75c-0.409,0-0.75-0.34-0.75-0.75v-2.529l0,0h1.5c0.011,0,0.011,0,0.011,0v1.779h1.22l0,0V155.71
							L2.731,155.71z M1.5,154.21v-1.779H0.011v2.529c0,0.41,0.33,0.74,0.739,0.74h1.971v-1.49h-1.21H1.5z M1.5,150.93H0l0,0v-4.5
							c0-0.011,0-0.011,0-0.011h1.5c0.011,0,0.011,0,0.011,0.011v4.5C1.511,150.93,1.511,150.93,1.5,150.93z M0.011,150.92H1.5
							v-4.489H0.011V150.92z M14.171,148.96h-1.5l0,0v-4.5l0,0h1.5l0,0V148.96L14.171,148.96z M12.671,148.96h1.5v-4.5h-1.5V148.96z
							 M1.5,144.93H0l0,0v-4.5l0,0h1.5c0.011,0,0.011,0,0.011,0v4.5C1.511,144.93,1.511,144.93,1.5,144.93z M0.011,144.93H1.5v-4.5
							H0.011V144.93z M14.171,142.96h-1.5l0,0v-1.17l-1.7-2.26l0,0l1.2-0.9l0,0l1.85,2.45c0.1,0.13,0.15,0.29,0.15,0.45V142.96
							L14.171,142.96z M1.5,138.93H0l0,0v-0.75c0-0.42,0.341-0.761,0.75-0.761h3.761v0.011v1.489v0.011h-3l0,0
							C1.511,138.93,1.511,138.93,1.5,138.93z M1.511,138.92h3v-1.489H0.75c-0.409,0-0.739,0.34-0.739,0.75v0.75L1.511,138.92z
							 M10.521,138.93h-4.51v-0.011v-1.489v-0.011h4.51v0.011v1.489C10.53,138.92,10.521,138.93,10.521,138.93z M6.011,138.92h4.51
							v-1.489h-4.51V138.92z"/>
						<path fill="none" d="M13.421,155.71H10.24l0,0v-1.5l0,0h2.431v-3.75l0,0h1.5l0,0v4.5l0,0h-0.75V155.71L13.421,155.71
							 M10.24,155.7h3.181v-0.74h-0.75l0,0v-0.75H10.24V155.7 M13.421,154.96h0.75v-4.489h-1.5v3.739h0.75l0,0V154.96
							 M12.671,154.96h0.75v-0.75h-0.75V154.96 M8.731,155.71h-4.5l0,0v-1.5l0,0h4.51l0,0v1.5C8.74,155.71,8.74,155.71,8.731,155.71
							 M4.231,155.7h4.5v-1.49h-4.5V155.7 M2.731,155.71H0.75c-0.409,0-0.75-0.34-0.75-0.75v-2.529l0,0h1.5c0.011,0,0.011,0,0.011,0
							v1.779h1.22l0,0V155.71L2.731,155.71 M1.5,154.21v-1.779H0.011v2.529c0,0.41,0.33,0.74,0.739,0.74h1.971v-1.49h-1.21
							 M1.5,150.93H0l0,0v-4.5c0-0.011,0-0.011,0-0.011h1.5c0.011,0,0.011,0,0.011,0.011v4.5C1.511,150.93,1.511,150.93,1.5,150.93
							 M0.011,150.92H1.5v-4.489H0.011V150.92 M14.171,148.96h-1.5l0,0v-4.5l0,0h1.5l0,0V148.96L14.171,148.96 M12.671,148.96h1.5
							v-4.5h-1.5V148.96 M1.5,144.93H0l0,0v-4.5l0,0h1.5c0.011,0,0.011,0,0.011,0v4.5C1.511,144.93,1.511,144.93,1.5,144.93
							 M0.011,144.93H1.5v-4.5H0.011V144.93 M14.171,142.96h-1.5l0,0v-1.17l-1.7-2.26l0,0l1.2-0.9l0,0l1.85,2.45
							c0.1,0.13,0.15,0.29,0.15,0.45V142.96L14.171,142.96 M1.5,138.93H0l0,0v-0.75c0-0.42,0.341-0.761,0.75-0.761h3.761v0.011
							v1.489v0.011h-3l0,0C1.511,138.93,1.511,138.93,1.5,138.93 M1.511,138.92h3v-1.489H0.75c-0.409,0-0.739,0.34-0.739,0.75v0.75
							 M10.521,138.93h-4.51v-0.011v-1.489v-0.011h4.51v0.011v1.489C10.53,138.92,10.521,138.93,10.521,138.93 M6.011,138.92h4.51
							v-1.489h-4.51V138.92"/>
					</g>
				</g>
			</g>
			<g id="shape335-94" transform="translate(10.2433,-0.00432219)">
				<title>Tabelle.335</title>
				<path d="M2.431,150.47h1.49v4.49h-0.75v0.75h-3.17v-1.49l2.42-0.01L2.431,150.47z"/>
			</g>
		</g>
	</g>
	<g id="group336-96" transform="translate(100.118,-70.4814)">
		<title>Tabelle.336</title>
		<g id="group337-97">
			<title>Zeichenblatt-1</title>
			<g id="group338-98">
				<title>Tabelle.44</title>
				<g id="group339-99">
					<title>Tabelle.339</title>
					<g id="shape340-100" transform="translate(0.00298007,-0.00178804)">
						<title>Tabelle.340</title>
						<path d="M14.17,154.96v-4.5h-1.5v4.5H14.17z M14.17,148.96v-4.5h-1.5v4.5H14.17z M12.67,142.96h1.5v-1.421
							c0-0.17-0.05-0.319-0.149-0.46l-1.851-2.449l-1.199,0.899l1.689,2.26L12.67,142.96z M10.521,137.43h-4.51v1.5h4.51V137.43z
							 M4.511,138.93v-1.5H0.75c-0.41,0-0.75,0.34-0.75,0.75v0.75H4.511z M0,140.43v4.5h1.5v-4.5H0z M0,146.43v4.5h1.5v-4.5H0z
							 M1.5,152.43H0v2.53c0,0.42,0.34,0.75,0.75,0.75h1.971v-1.5H1.5V152.43z M4.231,155.71h4.5v-1.5h-4.5V155.71z M10.241,155.71
							h3.18v-1.5h-3.18V155.71z"/>
						<path fill="none" d="M14.17,154.96v-4.5h-1.5v4.5H14.17 M14.17,148.96v-4.5h-1.5v4.5H14.17 M12.67,142.96h1.5v-1.421
							c0-0.17-0.05-0.319-0.149-0.46l-1.851-2.449l-1.199,0.899l1.689,2.26 M10.521,137.43h-4.51v1.5h4.51V137.43 M4.511,138.93
							v-1.5H0.75c-0.41,0-0.75,0.34-0.75,0.75v0.75 M0,140.43v4.5h1.5v-4.5H0 M0,146.43v4.5h1.5v-4.5H0 M1.5,152.43H0v2.53
							c0,0.42,0.34,0.75,0.75,0.75h1.971v-1.5H1.5 M4.231,155.71h4.5v-1.5h-4.5V155.71 M10.241,155.71h3.18v-1.5h-3.18V155.71"/>
					</g>
					<g id="shape341-103">
						<title>Tabelle.341</title>
						<path d="M13.42,155.71h-3.18l0,0v-1.5l0,0h2.43v-3.75l0,0h1.5l0,0v4.5l0,0h-0.75V155.71L13.42,155.71z M10.241,155.7h3.18
							v-0.74h-0.75l0,0v-0.75h-2.43V155.7z M13.42,154.96h0.75v-4.489h-1.5v3.739h0.75l0,0V154.96z M12.67,154.96h0.75v-0.75h-0.75
							V154.96z M8.731,155.71h-4.5l0,0v-1.5l0,0h4.51l0,0v1.5C8.741,155.71,8.741,155.71,8.731,155.71z M4.231,155.7h4.5v-1.49h-4.5
							V155.7z M2.731,155.71H0.75c-0.41,0-0.75-0.34-0.75-0.75v-2.529l0,0h1.5c0.01,0,0.01,0,0.01,0v1.779h1.221l0,0V155.71
							L2.731,155.71z M1.5,154.21v-1.779H0.01v2.529c0,0.41,0.33,0.74,0.74,0.74h1.97v-1.49H1.51H1.5z M1.5,150.93H0l0,0v-4.5
							c0-0.011,0-0.011,0-0.011h1.5c0.01,0,0.01,0,0.01,0.011v4.5C1.51,150.93,1.51,150.93,1.5,150.93z M0.01,150.92H1.5v-4.489
							H0.01V150.92z M14.17,148.96h-1.5l0,0v-4.5l0,0h1.5l0,0V148.96L14.17,148.96z M12.67,148.96h1.5v-4.5h-1.5V148.96z
							 M1.5,144.93H0l0,0v-4.5l0,0h1.5c0.01,0,0.01,0,0.01,0v4.5C1.51,144.93,1.51,144.93,1.5,144.93z M0.01,144.93H1.5v-4.5H0.01
							V144.93z M14.17,142.96h-1.5l0,0v-1.17l-1.7-2.26l0,0l1.2-0.9l0,0l1.851,2.45c0.1,0.13,0.149,0.29,0.149,0.45V142.96
							L14.17,142.96z M1.5,138.93H0l0,0v-0.75c0-0.42,0.34-0.761,0.75-0.761h3.76v0.011v1.489v0.011h-3l0,0
							C1.51,138.93,1.51,138.93,1.5,138.93z M1.51,138.92h3v-1.489H0.75c-0.41,0-0.74,0.34-0.74,0.75v0.75L1.51,138.92z
							 M10.521,138.93H6.01v-0.011v-1.489v-0.011h4.511v0.011v1.489C10.531,138.92,10.521,138.93,10.521,138.93z M6.01,138.92h4.511
							v-1.489H6.01V138.92z"/>
						<path fill="none" d="M13.42,155.71h-3.18l0,0v-1.5l0,0h2.43v-3.75l0,0h1.5l0,0v4.5l0,0h-0.75V155.71L13.42,155.71
							 M10.241,155.7h3.18v-0.74h-0.75l0,0v-0.75h-2.43V155.7 M13.42,154.96h0.75v-4.489h-1.5v3.739h0.75l0,0V154.96 M12.67,154.96
							h0.75v-0.75h-0.75V154.96 M8.731,155.71h-4.5l0,0v-1.5l0,0h4.51l0,0v1.5C8.741,155.71,8.741,155.71,8.731,155.71 M4.231,155.7
							h4.5v-1.49h-4.5V155.7 M2.731,155.71H0.75c-0.41,0-0.75-0.34-0.75-0.75v-2.529l0,0h1.5c0.01,0,0.01,0,0.01,0v1.779h1.221l0,0
							V155.71L2.731,155.71 M1.5,154.21v-1.779H0.01v2.529c0,0.41,0.33,0.74,0.74,0.74h1.97v-1.49H1.51 M1.5,150.93H0l0,0v-4.5
							c0-0.011,0-0.011,0-0.011h1.5c0.01,0,0.01,0,0.01,0.011v4.5C1.51,150.93,1.51,150.93,1.5,150.93 M0.01,150.92H1.5v-4.489H0.01
							V150.92 M14.17,148.96h-1.5l0,0v-4.5l0,0h1.5l0,0V148.96L14.17,148.96 M12.67,148.96h1.5v-4.5h-1.5V148.96 M1.5,144.93H0l0,0
							v-4.5l0,0h1.5c0.01,0,0.01,0,0.01,0v4.5C1.51,144.93,1.51,144.93,1.5,144.93 M0.01,144.93H1.5v-4.5H0.01V144.93 M14.17,142.96
							h-1.5l0,0v-1.17l-1.7-2.26l0,0l1.2-0.9l0,0l1.851,2.45c0.1,0.13,0.149,0.29,0.149,0.45V142.96L14.17,142.96 M1.5,138.93H0l0,0
							v-0.75c0-0.42,0.34-0.761,0.75-0.761h3.76v0.011v1.489v0.011h-3l0,0C1.51,138.93,1.51,138.93,1.5,138.93 M1.51,138.92h3
							v-1.489H0.75c-0.41,0-0.74,0.34-0.74,0.75v0.75 M10.521,138.93H6.01v-0.011v-1.489v-0.011h4.511v0.011v1.489
							C10.531,138.92,10.521,138.93,10.521,138.93 M6.01,138.92h4.511v-1.489H6.01V138.92"/>
					</g>
				</g>
			</g>
			<g id="shape342-106" transform="translate(10.2433,-0.00432219)">
				<title>Tabelle.342</title>
				<path d="M2.431,150.47H3.92v4.49H3.17v0.75H0v-1.49l2.42-0.01L2.431,150.47z"/>
			</g>
		</g>
	</g>
	<g id="group343-108" transform="translate(64.3908,-73.9948)">
		<title>Tabelle.343</title>
		<g id="group344-109">
			<title>Zeichenblatt-1</title>
			<g id="group345-110" transform="translate(0.781821,-0.781821)">
				<title>Tabelle.84</title>
				<g id="shape346-111">
					<title>Tabelle.346</title>
					<path d="M0,151.08v4.63h6.09v-4.63H0z"/>
				</g>
			</g>
			<g id="group347-113">
				<title>Tabelle.85</title>
				<g id="shape348-114">
					<title>Tabelle.348</title>
					<path d="M6.87,155.71H0.78c-0.43,0-0.779-0.351-0.779-0.78v-4.63c0-0.44,0.35-0.79,0.779-0.79h6.09c0.44,0,0.79,0.35,0.79,0.79
						v4.63C7.66,155.36,7.311,155.71,6.87,155.71z M1.561,154.14h4.53v-3.06h-4.53V154.14z"/>
				</g>
			</g>
			<g id="group349-116" transform="translate(1.56447,-7.70073)">
				<title>Tabelle.86</title>
				<g id="shape350-117">
					<title>Tabelle.350</title>
					<path d="M0.001,155.71c0-1.25,1.02-2.26,2.26-2.26c1.26,0,2.27,1.01,2.27,2.26H3.4c0-0.62-0.51-1.13-1.14-1.13
						c-0.62,0-1.13,0.51-1.13,1.13H0.001z"/>
				</g>
			</g>
		</g>
		<g id="group351-119" transform="translate(1.56442,-5.00901)">
			<title>Tabelle.90</title>
			<g id="shape352-120">
				<title>Tabelle.352</title>
				<path d="M0.001,153.11v2.6h1.13v-2.72h-1.13V153.11z"/>
			</g>
		</g>
		<g id="group353-122" transform="translate(4.96131,-5.00901)">
			<title>Tabelle.353</title>
			<g id="shape354-123">
				<title>Tabelle.354</title>
				<path d="M0.001,153.11v2.6h1.13v-2.72h-1.13V153.11z"/>
			</g>
		</g>
		<g id="shape355-125" transform="translate(2.86806,-3.05898)">
			<title>Tabelle.355</title>
			<ellipse fill="#FFFFFF" cx="0.961" cy="154.748" rx="0.96" ry="0.96"/>
		</g>
		<g id="shape356-127" transform="translate(3.33348,-1.13819)">
			<title>Tabelle.356</title>
			<path fill="#FFFFFF" d="M0.991,155.21c0,0.28-0.22,0.5-0.5,0.5c-0.271,0-0.49-0.22-0.49-0.5v-1.89c0-0.271,0.22-0.49,0.49-0.49
				c0.28,0,0.5,0.22,0.5,0.49V155.21z"/>
		</g>
	</g>
	<g id="group357-129" transform="translate(83.9498,-73.9948)">
		<title>Tabelle.357</title>
		<g id="group358-130">
			<title>Zeichenblatt-1</title>
			<g id="group359-131" transform="translate(0.781821,-0.781821)">
				<title>Tabelle.84</title>
				<g id="shape360-132">
					<title>Tabelle.360</title>
					<path d="M0.001,151.08v4.63h6.09v-4.63H0.001z"/>
				</g>
			</g>
			<g id="group361-134">
				<title>Tabelle.85</title>
				<g id="shape362-135">
					<title>Tabelle.362</title>
					<path d="M6.871,155.71h-6.09c-0.431,0-0.78-0.351-0.78-0.78v-4.63c0-0.44,0.35-0.79,0.78-0.79h6.09
						c0.439,0,0.79,0.35,0.79,0.79v4.63C7.661,155.36,7.31,155.71,6.871,155.71z M1.56,154.14h4.53v-3.06H1.56V154.14z"/>
				</g>
			</g>
			<g id="group363-137" transform="translate(1.56447,-7.70073)">
				<title>Tabelle.86</title>
				<g id="shape364-138">
					<title>Tabelle.364</title>
					<path d="M0.001,155.71c0-1.25,1.02-2.26,2.26-2.26c1.26,0,2.271,1.01,2.271,2.26h-1.13c0-0.62-0.511-1.13-1.141-1.13
						c-0.62,0-1.13,0.51-1.13,1.13H0.001z"/>
				</g>
			</g>
		</g>
		<g id="group365-140" transform="translate(1.56442,-5.00901)">
			<title>Tabelle.90</title>
			<g id="shape366-141">
				<title>Tabelle.366</title>
				<path d="M0.001,153.11v2.6h1.13v-2.72h-1.13V153.11z"/>
			</g>
		</g>
		<g id="group367-143" transform="translate(4.96131,-5.00901)">
			<title>Tabelle.367</title>
			<g id="shape368-144">
				<title>Tabelle.368</title>
				<path d="M0,153.11v2.6h1.13v-2.72H0V153.11z"/>
			</g>
		</g>
		<g id="shape369-146" transform="translate(2.86806,-3.05898)">
			<title>Tabelle.369</title>
			<ellipse fill="#FFFFFF" cx="0.961" cy="154.748" rx="0.96" ry="0.96"/>
		</g>
		<g id="shape370-148" transform="translate(3.33348,-1.13819)">
			<title>Tabelle.370</title>
			<path fill="#FFFFFF" d="M0.99,155.21c0,0.28-0.22,0.5-0.5,0.5c-0.27,0-0.49-0.22-0.49-0.5v-1.89c0-0.271,0.221-0.49,0.49-0.49
				c0.28,0,0.5,0.22,0.5,0.49V155.21z"/>
		</g>
	</g>
	<g id="group371-150" transform="translate(103.506,-73.9948)">
		<title>Tabelle.371</title>
		<g id="group372-151">
			<title>Zeichenblatt-1</title>
			<g id="group373-152" transform="translate(0.781821,-0.781821)">
				<title>Tabelle.84</title>
				<g id="shape374-153">
					<title>Tabelle.374</title>
					<path d="M0.001,151.08v4.63h6.09v-4.63H0.001z"/>
				</g>
			</g>
			<g id="group375-155">
				<title>Tabelle.85</title>
				<g id="shape376-156">
					<title>Tabelle.376</title>
					<path d="M6.87,155.71H0.78c-0.43,0-0.779-0.351-0.779-0.78v-4.63c0-0.44,0.35-0.79,0.779-0.79h6.09c0.44,0,0.79,0.35,0.79,0.79
						v4.63C7.66,155.36,7.311,155.71,6.87,155.71z M1.561,154.14h4.53v-3.06h-4.53V154.14z"/>
				</g>
			</g>
			<g id="group377-158" transform="translate(1.56447,-7.70073)">
				<title>Tabelle.86</title>
				<g id="shape378-159">
					<title>Tabelle.378</title>
					<path d="M0.001,155.71c0-1.25,1.02-2.26,2.26-2.26c1.26,0,2.27,1.01,2.27,2.26H3.4c0-0.62-0.51-1.13-1.14-1.13
						c-0.62,0-1.13,0.51-1.13,1.13H0.001z"/>
				</g>
			</g>
		</g>
		<g id="group379-161" transform="translate(1.56442,-5.00901)">
			<title>Tabelle.90</title>
			<g id="shape380-162">
				<title>Tabelle.380</title>
				<path d="M0,153.11v2.6h1.131v-2.72H0V153.11z"/>
			</g>
		</g>
		<g id="group381-164" transform="translate(4.96131,-5.00901)">
			<title>Tabelle.381</title>
			<g id="shape382-165">
				<title>Tabelle.382</title>
				<path d="M0.001,153.11v2.6h1.13v-2.72h-1.13V153.11z"/>
			</g>
		</g>
		<g id="shape383-167" transform="translate(2.86806,-3.05898)">
			<title>Tabelle.383</title>
			<ellipse fill="#FFFFFF" cx="0.961" cy="154.748" rx="0.96" ry="0.96"/>
		</g>
		<g id="shape384-169" transform="translate(3.33348,-1.13819)">
			<title>Tabelle.384</title>
			<path fill="#FFFFFF" d="M0.991,155.21c0,0.28-0.221,0.5-0.5,0.5c-0.271,0-0.49-0.22-0.49-0.5v-1.89c0-0.271,0.22-0.49,0.49-0.49
				c0.279,0,0.5,0.22,0.5,0.49V155.21z"/>
		</g>
	</g>
	<g id="group397-171" transform="translate(282.673,-0.749992)">
		<title>Tabelle.397</title>
		<g id="group398-172">
			<title>Layer_2</title>
			<g id="group399-173" transform="translate(0,-25.7364)">
				<title>Tabelle.399</title>
				<g id="shape400-174" transform="translate(1.85306,-1.85279)">
					<title>Tabelle.400</title>
					<ellipse fill="#FFFFFF" cx="37.425" cy="118.284" rx="37.424" ry="37.424"/>
				</g>
				<g id="shape401-176">
					<title>Tabelle.401</title>
					<path fill="#808285" d="M39.28,155.71c-21.66,0-39.279-17.62-39.279-39.279c0-21.66,17.619-39.28,39.279-39.28
						s39.27,17.62,39.27,39.28C78.55,138.09,60.941,155.71,39.28,155.71z M39.28,80.86c-19.62,0-35.569,15.96-35.569,35.57
						C3.711,136.05,19.66,152,39.28,152c19.61,0,35.57-15.95,35.57-35.569C74.851,96.82,58.891,80.86,39.28,80.86z"/>
				</g>
			</g>
			<g id="shape402-178" transform="translate(177.318,225.001) rotate(135)">
				<title>Tabelle.402</title>
				<rect x="-0.001" y="106.489" fill="#808285" width="8.496" height="49.219"/>
			</g>
		</g>
	</g>
	<g id="group403-180" transform="translate(311.285,-35.3347)">
		<title>Tabelle.403</title>
		<g id="group404-181">
			<title>Zeichenblatt-1</title>
			<g id="group405-182">
				<title>Tabelle.42</title>
				<g id="shape406-183">
					<title>Tabelle.406</title>
					<path d="M20.72,155.71H0.81c-0.449,0-0.81-0.37-0.81-0.811v-26.53c0-0.449,0.36-0.81,0.81-0.81h15.94
						c0.25,0,0.5,0.12,0.65,0.32l3.97,5.31c0.11,0.14,0.17,0.311,0.17,0.48V154.9C21.54,155.34,21.17,155.71,20.72,155.71z
						 M1.63,154.08h18.28v-20.13l-3.57-4.77H1.63V154.08z"/>
				</g>
			</g>
		</g>
	</g>
	<g id="group407-185" transform="translate(296.251,-67.942)">
		<title>Tabelle.407</title>
		<g id="group408-186">
			<title>Zeichenblatt-1</title>
			<g id="group409-187">
				<title>Tabelle.44</title>
				<g id="group410-188">
					<title>Tabelle.410</title>
					<g id="shape411-189" transform="translate(0.00298007,-0.00178804)">
						<title>Tabelle.411</title>
						<path d="M14.17,154.96v-4.5h-1.5v4.5H14.17z M14.17,148.96v-4.5h-1.5v4.5H14.17z M12.67,142.96h1.5v-1.42
							c0-0.17-0.05-0.32-0.149-0.46l-1.851-2.45l-1.199,0.9l1.689,2.26L12.67,142.96z M10.521,137.43H6.01v1.5h4.511V137.43z
							 M4.51,138.93v-1.5H0.75c-0.409,0-0.75,0.34-0.75,0.75v0.75H4.51z M0,140.43v4.5h1.5v-4.5H0z M0,146.43v4.5h1.5v-4.5H0z
							 M1.5,152.43H0v2.53c0,0.42,0.341,0.75,0.75,0.75h1.971v-1.5H1.5V152.43z M4.231,155.71h4.5v-1.5h-4.5V155.71z M10.24,155.71
							h3.18v-1.5h-3.18V155.71z"/>
						<path fill="none" d="M14.17,154.96v-4.5h-1.5v4.5H14.17 M14.17,148.96v-4.5h-1.5v4.5H14.17 M12.67,142.96h1.5v-1.42
							c0-0.17-0.05-0.32-0.149-0.46l-1.851-2.45l-1.199,0.9l1.689,2.26 M10.521,137.43H6.01v1.5h4.511V137.43 M4.51,138.93v-1.5
							H0.75c-0.409,0-0.75,0.34-0.75,0.75v0.75 M0,140.43v4.5h1.5v-4.5H0 M0,146.43v4.5h1.5v-4.5H0 M1.5,152.43H0v2.53
							c0,0.42,0.341,0.75,0.75,0.75h1.971v-1.5H1.5 M4.231,155.71h4.5v-1.5h-4.5V155.71 M10.24,155.71h3.18v-1.5h-3.18V155.71"/>
					</g>
					<g id="shape412-192">
						<title>Tabelle.412</title>
						<path d="M13.42,155.71h-3.18l0,0v-1.5l0,0h2.43v-3.75l0,0h1.5l0,0v4.5l0,0h-0.75V155.71L13.42,155.71z M10.24,155.7h3.18
							v-0.739h-0.75l0,0v-0.75h-2.43V155.7z M13.42,154.96h0.75v-4.49h-1.5v3.74h0.75l0,0V154.96z M12.67,154.96h0.75v-0.75h-0.75
							V154.96z M8.731,155.71h-4.5l0,0v-1.5l0,0h4.51l0,0v1.5C8.74,155.71,8.74,155.71,8.731,155.71z M4.231,155.7h4.5v-1.489h-4.5
							V155.7z M2.731,155.71H0.75c-0.409,0-0.75-0.34-0.75-0.75v-2.53l0,0h1.5c0.01,0,0.01,0,0.01,0v1.78h1.221l0,0V155.71
							L2.731,155.71z M1.5,154.21v-1.78H0.011v2.53c0,0.41,0.33,0.739,0.739,0.739h1.97v-1.489H1.51H1.5z M1.5,150.93H0l0,0v-4.5
							c0-0.01,0-0.01,0-0.01h1.5c0.01,0,0.01,0,0.01,0.01v4.5C1.51,150.93,1.51,150.93,1.5,150.93z M0.011,150.92H1.5v-4.49H0.011
							V150.92z M14.17,148.96h-1.5l0,0v-4.5l0,0h1.5l0,0V148.96L14.17,148.96z M12.67,148.96h1.5v-4.5h-1.5V148.96z M1.5,144.93H0
							l0,0v-4.5l0,0h1.5c0.01,0,0.01,0,0.01,0v4.5C1.51,144.93,1.51,144.93,1.5,144.93z M0.011,144.93H1.5v-4.5H0.011V144.93z
							 M14.17,142.96h-1.5l0,0v-1.17l-1.7-2.261l0,0l1.2-0.899l0,0l1.851,2.45c0.1,0.13,0.149,0.29,0.149,0.449V142.96L14.17,142.96
							z M1.5,138.93H0l0,0v-0.75c0-0.42,0.341-0.76,0.75-0.76h3.76v0.01v1.49v0.01h-3l0,0C1.51,138.93,1.51,138.93,1.5,138.93z
							 M1.51,138.92h3v-1.49H0.75c-0.409,0-0.739,0.34-0.739,0.75v0.75L1.51,138.92z M10.521,138.93H6.01v-0.01v-1.49v-0.01h4.511
							v0.01v1.49C10.53,138.92,10.521,138.93,10.521,138.93z M6.01,138.92h4.511v-1.49H6.01V138.92z"/>
						<path fill="none" d="M13.42,155.71h-3.18l0,0v-1.5l0,0h2.43v-3.75l0,0h1.5l0,0v4.5l0,0h-0.75V155.71L13.42,155.71
							 M10.24,155.7h3.18v-0.739h-0.75l0,0v-0.75h-2.43V155.7 M13.42,154.96h0.75v-4.49h-1.5v3.74h0.75l0,0V154.96 M12.67,154.96
							h0.75v-0.75h-0.75V154.96 M8.731,155.71h-4.5l0,0v-1.5l0,0h4.51l0,0v1.5C8.74,155.71,8.74,155.71,8.731,155.71 M4.231,155.7
							h4.5v-1.489h-4.5V155.7 M2.731,155.71H0.75c-0.409,0-0.75-0.34-0.75-0.75v-2.53l0,0h1.5c0.01,0,0.01,0,0.01,0v1.78h1.221l0,0
							V155.71L2.731,155.71 M1.5,154.21v-1.78H0.011v2.53c0,0.41,0.33,0.739,0.739,0.739h1.97v-1.489H1.51 M1.5,150.93H0l0,0v-4.5
							c0-0.01,0-0.01,0-0.01h1.5c0.01,0,0.01,0,0.01,0.01v4.5C1.51,150.93,1.51,150.93,1.5,150.93 M0.011,150.92H1.5v-4.49H0.011
							V150.92 M14.17,148.96h-1.5l0,0v-4.5l0,0h1.5l0,0V148.96L14.17,148.96 M12.67,148.96h1.5v-4.5h-1.5V148.96 M1.5,144.93H0l0,0
							v-4.5l0,0h1.5c0.01,0,0.01,0,0.01,0v4.5C1.51,144.93,1.51,144.93,1.5,144.93 M0.011,144.93H1.5v-4.5H0.011V144.93
							 M14.17,142.96h-1.5l0,0v-1.17l-1.7-2.261l0,0l1.2-0.899l0,0l1.851,2.45c0.1,0.13,0.149,0.29,0.149,0.449V142.96L14.17,142.96
							 M1.5,138.93H0l0,0v-0.75c0-0.42,0.341-0.76,0.75-0.76h3.76v0.01v1.49v0.01h-3l0,0C1.51,138.93,1.51,138.93,1.5,138.93
							 M1.51,138.92h3v-1.49H0.75c-0.409,0-0.739,0.34-0.739,0.75v0.75 M10.521,138.93H6.01v-0.01v-1.49v-0.01h4.511v0.01v1.49
							C10.53,138.92,10.521,138.93,10.521,138.93 M6.01,138.92h4.511v-1.49H6.01V138.92"/>
					</g>
				</g>
			</g>
			<g id="shape413-195" transform="translate(10.2433,-0.00432219)">
				<title>Tabelle.413</title>
				<path d="M2.431,150.471H3.92v4.489H3.17v0.75H0v-1.489l2.42-0.011L2.431,150.471z"/>
			</g>
		</g>
	</g>
	<g id="group414-197" transform="translate(315.815,-67.942)">
		<title>Tabelle.414</title>
		<g id="group415-198">
			<title>Zeichenblatt-1</title>
			<g id="group416-199">
				<title>Tabelle.44</title>
				<g id="group417-200">
					<title>Tabelle.417</title>
					<g id="shape418-201" transform="translate(0.00298007,-0.00178804)">
						<title>Tabelle.418</title>
						<path d="M14.171,154.96v-4.5h-1.5v4.5H14.171z M14.171,148.96v-4.5h-1.5v4.5H14.171z M12.671,142.96h1.5v-1.42
							c0-0.17-0.05-0.32-0.15-0.46l-1.85-2.45l-1.2,0.9l1.69,2.26L12.671,142.96z M10.52,137.43H6.01v1.5h4.51V137.43z M4.51,138.93
							v-1.5h-3.76c-0.41,0-0.75,0.34-0.75,0.75v0.75H4.51z M0.001,140.43v4.5h1.5v-4.5H0.001z M0.001,146.43v4.5h1.5v-4.5H0.001z
							 M1.501,152.43h-1.5v2.53c0,0.42,0.34,0.75,0.75,0.75h1.97v-1.5h-1.22V152.43z M4.23,155.71h4.5v-1.5h-4.5V155.71z
							 M10.241,155.71h3.18v-1.5h-3.18V155.71z"/>
						<path fill="none" d="M14.171,154.96v-4.5h-1.5v4.5H14.171 M14.171,148.96v-4.5h-1.5v4.5H14.171 M12.671,142.96h1.5v-1.42
							c0-0.17-0.05-0.32-0.15-0.46l-1.85-2.45l-1.2,0.9l1.69,2.26 M10.52,137.43H6.01v1.5h4.51V137.43 M4.51,138.93v-1.5h-3.76
							c-0.41,0-0.75,0.34-0.75,0.75v0.75 M0.001,140.43v4.5h1.5v-4.5H0.001 M0.001,146.43v4.5h1.5v-4.5H0.001 M1.501,152.43h-1.5
							v2.53c0,0.42,0.34,0.75,0.75,0.75h1.97v-1.5h-1.22 M4.23,155.71h4.5v-1.5h-4.5V155.71 M10.241,155.71h3.18v-1.5h-3.18V155.71"
							/>
					</g>
					<g id="shape419-204">
						<title>Tabelle.419</title>
						<path d="M13.421,155.71H10.24l0,0v-1.5l0,0h2.431v-3.75l0,0h1.5l0,0v4.5l0,0h-0.75V155.71L13.421,155.71z M10.24,155.7h3.181
							v-0.739h-0.75l0,0v-0.75H10.24V155.7z M13.421,154.96h0.75v-4.49h-1.5v3.74h0.75l0,0V154.96z M12.671,154.96h0.75v-0.75h-0.75
							V154.96z M8.73,155.71h-4.5l0,0v-1.5l0,0h4.51l0,0v1.5C8.74,155.71,8.74,155.71,8.73,155.71z M4.23,155.7h4.5v-1.489h-4.5
							V155.7z M2.73,155.71H0.751c-0.41,0-0.75-0.34-0.75-0.75v-2.53l0,0h1.5c0.01,0,0.01,0,0.01,0v1.78h1.22l0,0V155.71
							L2.73,155.71z M1.501,154.21v-1.78H0.01v2.53c0,0.41,0.33,0.739,0.74,0.739h1.97v-1.489H1.51H1.501z M1.501,150.93h-1.5l0,0
							v-4.5c0-0.01,0-0.01,0-0.01h1.5c0.01,0,0.01,0,0.01,0.01v4.5C1.51,150.93,1.51,150.93,1.501,150.93z M0.01,150.92h1.49v-4.49
							H0.01V150.92z M14.171,148.96h-1.5l0,0v-4.5l0,0h1.5l0,0V148.96L14.171,148.96z M12.671,148.96h1.5v-4.5h-1.5V148.96z
							 M1.501,144.93h-1.5l0,0v-4.5l0,0h1.5c0.01,0,0.01,0,0.01,0v4.5C1.51,144.93,1.51,144.93,1.501,144.93z M0.01,144.93h1.49
							v-4.5H0.01V144.93z M14.171,142.96h-1.5l0,0v-1.17l-1.7-2.261l0,0l1.2-0.899l0,0l1.85,2.45c0.101,0.13,0.15,0.29,0.15,0.449
							V142.96L14.171,142.96z M1.501,138.93h-1.5l0,0v-0.75c0-0.42,0.34-0.76,0.75-0.76h3.76v0.01v1.49v0.01h-3l0,0
							C1.51,138.93,1.51,138.93,1.501,138.93z M1.51,138.92h3v-1.49h-3.76c-0.41,0-0.74,0.34-0.74,0.75v0.75L1.51,138.92z
							 M10.52,138.93H6.01v-0.01v-1.49v-0.01h4.51v0.01v1.49C10.53,138.92,10.52,138.93,10.52,138.93z M6.01,138.92h4.51v-1.49H6.01
							V138.92z"/>
						<path fill="none" d="M13.421,155.71H10.24l0,0v-1.5l0,0h2.431v-3.75l0,0h1.5l0,0v4.5l0,0h-0.75V155.71L13.421,155.71
							 M10.24,155.7h3.181v-0.739h-0.75l0,0v-0.75H10.24V155.7 M13.421,154.96h0.75v-4.49h-1.5v3.74h0.75l0,0V154.96 M12.671,154.96
							h0.75v-0.75h-0.75V154.96 M8.73,155.71h-4.5l0,0v-1.5l0,0h4.51l0,0v1.5C8.74,155.71,8.74,155.71,8.73,155.71 M4.23,155.7h4.5
							v-1.489h-4.5V155.7 M2.73,155.71H0.751c-0.41,0-0.75-0.34-0.75-0.75v-2.53l0,0h1.5c0.01,0,0.01,0,0.01,0v1.78h1.22l0,0V155.71
							L2.73,155.71 M1.501,154.21v-1.78H0.01v2.53c0,0.41,0.33,0.739,0.74,0.739h1.97v-1.489H1.51 M1.501,150.93h-1.5l0,0v-4.5
							c0-0.01,0-0.01,0-0.01h1.5c0.01,0,0.01,0,0.01,0.01v4.5C1.51,150.93,1.51,150.93,1.501,150.93 M0.01,150.92h1.49v-4.49H0.01
							V150.92 M14.171,148.96h-1.5l0,0v-4.5l0,0h1.5l0,0V148.96L14.171,148.96 M12.671,148.96h1.5v-4.5h-1.5V148.96 M1.501,144.93
							h-1.5l0,0v-4.5l0,0h1.5c0.01,0,0.01,0,0.01,0v4.5C1.51,144.93,1.51,144.93,1.501,144.93 M0.01,144.93h1.49v-4.5H0.01V144.93
							 M14.171,142.96h-1.5l0,0v-1.17l-1.7-2.261l0,0l1.2-0.899l0,0l1.85,2.45c0.101,0.13,0.15,0.29,0.15,0.449V142.96
							L14.171,142.96 M1.501,138.93h-1.5l0,0v-0.75c0-0.42,0.34-0.76,0.75-0.76h3.76v0.01v1.49v0.01h-3l0,0
							C1.51,138.93,1.51,138.93,1.501,138.93 M1.51,138.92h3v-1.49h-3.76c-0.41,0-0.74,0.34-0.74,0.75v0.75 M10.52,138.93H6.01
							v-0.01v-1.49v-0.01h4.51v0.01v1.49C10.53,138.92,10.52,138.93,10.52,138.93 M6.01,138.92h4.51v-1.49H6.01V138.92"/>
					</g>
				</g>
			</g>
			<g id="shape420-207" transform="translate(10.2433,-0.00432219)">
				<title>Tabelle.420</title>
				<path d="M2.43,150.471h1.49v4.489H3.17v0.75h-3.17v-1.489l2.42-0.011L2.43,150.471z"/>
			</g>
		</g>
	</g>
	<g id="group421-209" transform="translate(335.38,-67.942)">
		<title>Tabelle.421</title>
		<g id="group422-210">
			<title>Zeichenblatt-1</title>
			<g id="group423-211">
				<title>Tabelle.44</title>
				<g id="group424-212">
					<title>Tabelle.424</title>
					<g id="shape425-213" transform="translate(0.00298007,-0.00178804)">
						<title>Tabelle.425</title>
						<path d="M14.17,154.96v-4.5h-1.5v4.5H14.17z M14.17,148.96v-4.5h-1.5v4.5H14.17z M12.67,142.96h1.5v-1.42
							c0-0.17-0.05-0.32-0.149-0.46l-1.851-2.45l-1.199,0.9l1.689,2.26L12.67,142.96z M10.521,137.43h-4.51v1.5h4.51V137.43z
							 M4.511,138.93v-1.5H0.75c-0.41,0-0.75,0.34-0.75,0.75v0.75H4.511z M0,140.43v4.5h1.5v-4.5H0z M0,146.43v4.5h1.5v-4.5H0z
							 M1.5,152.43H0v2.53c0,0.42,0.34,0.75,0.75,0.75h1.971v-1.5H1.5V152.43z M4.23,155.71h4.5v-1.5h-4.5V155.71z M10.24,155.71
							h3.18v-1.5h-3.18V155.71z"/>
						<path fill="none" d="M14.17,154.96v-4.5h-1.5v4.5H14.17 M14.17,148.96v-4.5h-1.5v4.5H14.17 M12.67,142.96h1.5v-1.42
							c0-0.17-0.05-0.32-0.149-0.46l-1.851-2.45l-1.199,0.9l1.689,2.26 M10.521,137.43h-4.51v1.5h4.51V137.43 M4.511,138.93v-1.5
							H0.75c-0.41,0-0.75,0.34-0.75,0.75v0.75 M0,140.43v4.5h1.5v-4.5H0 M0,146.43v4.5h1.5v-4.5H0 M1.5,152.43H0v2.53
							c0,0.42,0.34,0.75,0.75,0.75h1.971v-1.5H1.5 M4.23,155.71h4.5v-1.5h-4.5V155.71 M10.24,155.71h3.18v-1.5h-3.18V155.71"/>
					</g>
					<g id="shape426-216">
						<title>Tabelle.426</title>
						<path d="M13.42,155.71h-3.18l0,0v-1.5l0,0h2.43v-3.75l0,0h1.5l0,0v4.5l0,0h-0.75V155.71L13.42,155.71z M10.24,155.7h3.18
							v-0.739h-0.75l0,0v-0.75h-2.43V155.7z M13.42,154.96h0.75v-4.49h-1.5v3.74h0.75l0,0V154.96z M12.67,154.96h0.75v-0.75h-0.75
							V154.96z M8.731,155.71h-4.5l0,0v-1.5l0,0h4.51l0,0v1.5C8.74,155.71,8.74,155.71,8.731,155.71z M4.231,155.7h4.5v-1.489h-4.5
							V155.7z M2.731,155.71H0.75c-0.41,0-0.75-0.34-0.75-0.75v-2.53l0,0h1.5c0.011,0,0.011,0,0.011,0v1.78h1.22l0,0V155.71
							L2.731,155.71z M1.5,154.21v-1.78H0.011v2.53c0,0.41,0.329,0.739,0.739,0.739h1.971v-1.489h-1.21H1.5z M1.5,150.93H0l0,0v-4.5
							c0-0.01,0-0.01,0-0.01h1.5c0.011,0,0.011,0,0.011,0.01v4.5C1.511,150.93,1.511,150.93,1.5,150.93z M0.011,150.92H1.5v-4.49
							H0.011V150.92z M14.17,148.96h-1.5l0,0v-4.5l0,0h1.5l0,0V148.96L14.17,148.96z M12.67,148.96h1.5v-4.5h-1.5V148.96z
							 M1.5,144.93H0l0,0v-4.5l0,0h1.5c0.011,0,0.011,0,0.011,0v4.5C1.511,144.93,1.511,144.93,1.5,144.93z M0.011,144.93H1.5v-4.5
							H0.011V144.93z M14.17,142.96h-1.5l0,0v-1.17l-1.699-2.261l0,0l1.199-0.899l0,0l1.851,2.45c0.1,0.13,0.149,0.29,0.149,0.449
							V142.96L14.17,142.96z M1.5,138.93H0l0,0v-0.75c0-0.42,0.34-0.76,0.75-0.76h3.761v0.01v1.49v0.01h-3l0,0
							C1.511,138.93,1.511,138.93,1.5,138.93z M1.511,138.92h3v-1.49H0.75c-0.41,0-0.739,0.34-0.739,0.75v0.75L1.511,138.92z
							 M10.521,138.93h-4.51v-0.01v-1.49v-0.01h4.51v0.01v1.49C10.53,138.92,10.521,138.93,10.521,138.93z M6.011,138.92h4.51v-1.49
							h-4.51V138.92z"/>
						<path fill="none" d="M13.42,155.71h-3.18l0,0v-1.5l0,0h2.43v-3.75l0,0h1.5l0,0v4.5l0,0h-0.75V155.71L13.42,155.71
							 M10.24,155.7h3.18v-0.739h-0.75l0,0v-0.75h-2.43V155.7 M13.42,154.96h0.75v-4.49h-1.5v3.74h0.75l0,0V154.96 M12.67,154.96
							h0.75v-0.75h-0.75V154.96 M8.731,155.71h-4.5l0,0v-1.5l0,0h4.51l0,0v1.5C8.74,155.71,8.74,155.71,8.731,155.71 M4.231,155.7
							h4.5v-1.489h-4.5V155.7 M2.731,155.71H0.75c-0.41,0-0.75-0.34-0.75-0.75v-2.53l0,0h1.5c0.011,0,0.011,0,0.011,0v1.78h1.22l0,0
							V155.71L2.731,155.71 M1.5,154.21v-1.78H0.011v2.53c0,0.41,0.329,0.739,0.739,0.739h1.971v-1.489h-1.21 M1.5,150.93H0l0,0
							v-4.5c0-0.01,0-0.01,0-0.01h1.5c0.011,0,0.011,0,0.011,0.01v4.5C1.511,150.93,1.511,150.93,1.5,150.93 M0.011,150.92H1.5
							v-4.49H0.011V150.92 M14.17,148.96h-1.5l0,0v-4.5l0,0h1.5l0,0V148.96L14.17,148.96 M12.67,148.96h1.5v-4.5h-1.5V148.96
							 M1.5,144.93H0l0,0v-4.5l0,0h1.5c0.011,0,0.011,0,0.011,0v4.5C1.511,144.93,1.511,144.93,1.5,144.93 M0.011,144.93H1.5v-4.5
							H0.011V144.93 M14.17,142.96h-1.5l0,0v-1.17l-1.699-2.261l0,0l1.199-0.899l0,0l1.851,2.45c0.1,0.13,0.149,0.29,0.149,0.449
							V142.96L14.17,142.96 M1.5,138.93H0l0,0v-0.75c0-0.42,0.34-0.76,0.75-0.76h3.761v0.01v1.49v0.01h-3l0,0
							C1.511,138.93,1.511,138.93,1.5,138.93 M1.511,138.92h3v-1.49H0.75c-0.41,0-0.739,0.34-0.739,0.75v0.75 M10.521,138.93h-4.51
							v-0.01v-1.49v-0.01h4.51v0.01v1.49C10.53,138.92,10.521,138.93,10.521,138.93 M6.011,138.92h4.51v-1.49h-4.51V138.92"/>
					</g>
				</g>
			</g>
			<g id="shape427-219" transform="translate(10.2433,-0.00432219)">
				<title>Tabelle.427</title>
				<path d="M2.431,150.471H3.92v4.489H3.17v0.75H0v-1.489l2.42-0.011L2.431,150.471z"/>
			</g>
		</g>
	</g>
	<g id="group428-221" transform="translate(299.652,-71.4555)">
		<title>Tabelle.428</title>
		<g id="group429-222">
			<title>Zeichenblatt-1</title>
			<g id="group430-223" transform="translate(0.781821,-0.781821)">
				<title>Tabelle.84</title>
				<g id="shape431-224">
					<title>Tabelle.431</title>
					<path d="M0,151.08v4.63h6.091v-4.63H0z"/>
				</g>
			</g>
			<g id="group432-226">
				<title>Tabelle.85</title>
				<g id="shape433-227">
					<title>Tabelle.433</title>
					<path d="M6.871,155.71h-6.09c-0.431,0-0.78-0.351-0.78-0.78v-4.63c0-0.44,0.35-0.79,0.78-0.79h6.09
						c0.439,0,0.79,0.35,0.79,0.79v4.63C7.661,155.36,7.31,155.71,6.871,155.71z M1.56,154.14h4.53v-3.06H1.56V154.14z"/>
				</g>
			</g>
			<g id="group434-229" transform="translate(1.56447,-7.70073)">
				<title>Tabelle.86</title>
				<g id="shape435-230">
					<title>Tabelle.435</title>
					<path d="M0.001,155.71c0-1.25,1.02-2.26,2.26-2.26c1.26,0,2.271,1.01,2.271,2.26H3.4c0-0.62-0.51-1.13-1.14-1.13
						c-0.62,0-1.13,0.51-1.13,1.13H0.001z"/>
				</g>
			</g>
		</g>
		<g id="group436-232" transform="translate(1.56442,-5.00901)">
			<title>Tabelle.90</title>
			<g id="shape437-233">
				<title>Tabelle.437</title>
				<path d="M0.001,153.11v2.601h1.13v-2.721h-1.13V153.11z"/>
			</g>
		</g>
		<g id="group438-235" transform="translate(4.96131,-5.00901)">
			<title>Tabelle.438</title>
			<g id="shape439-236">
				<title>Tabelle.439</title>
				<path d="M0,153.11v2.601h1.13v-2.721H0V153.11z"/>
			</g>
		</g>
		<g id="shape440-238" transform="translate(2.86806,-3.05898)">
			<title>Tabelle.440</title>
			<ellipse fill="#FFFFFF" cx="0.961" cy="154.748" rx="0.96" ry="0.96"/>
		</g>
		<g id="shape441-240" transform="translate(3.33348,-1.13819)">
			<title>Tabelle.441</title>
			<path fill="#FFFFFF" d="M0.99,155.21c0,0.28-0.22,0.5-0.5,0.5c-0.27,0-0.49-0.22-0.49-0.5v-1.89c0-0.27,0.221-0.49,0.49-0.49
				c0.28,0,0.5,0.221,0.5,0.49V155.21z"/>
		</g>
	</g>
	<g id="group442-242" transform="translate(319.211,-71.4555)">
		<title>Tabelle.442</title>
		<g id="group443-243">
			<title>Zeichenblatt-1</title>
			<g id="group444-244" transform="translate(0.781821,-0.781821)">
				<title>Tabelle.84</title>
				<g id="shape445-245">
					<title>Tabelle.445</title>
					<path d="M0.001,151.08v4.63h6.09v-4.63H0.001z"/>
				</g>
			</g>
			<g id="group446-247">
				<title>Tabelle.85</title>
				<g id="shape447-248">
					<title>Tabelle.447</title>
					<path d="M6.87,155.71H0.78c-0.43,0-0.78-0.351-0.78-0.78v-4.63c0-0.44,0.351-0.79,0.78-0.79h6.09c0.44,0,0.79,0.35,0.79,0.79
						v4.63C7.66,155.36,7.311,155.71,6.87,155.71z M1.561,154.14H6.09v-3.06H1.561V154.14z"/>
				</g>
			</g>
			<g id="group448-250" transform="translate(1.56447,-7.70073)">
				<title>Tabelle.86</title>
				<g id="shape449-251">
					<title>Tabelle.449</title>
					<path d="M0,155.71c0-1.25,1.021-2.26,2.26-2.26c1.261,0,2.271,1.01,2.271,2.26h-1.13c0-0.62-0.51-1.13-1.141-1.13
						c-0.619,0-1.13,0.51-1.13,1.13H0z"/>
				</g>
			</g>
		</g>
		<g id="group450-253" transform="translate(1.56442,-5.00901)">
			<title>Tabelle.90</title>
			<g id="shape451-254">
				<title>Tabelle.451</title>
				<path d="M0,153.11v2.601h1.13v-2.721H0V153.11z"/>
			</g>
		</g>
		<g id="group452-256" transform="translate(4.96131,-5.00901)">
			<title>Tabelle.452</title>
			<g id="shape453-257">
				<title>Tabelle.453</title>
				<path d="M0.001,153.11v2.601h1.13v-2.721h-1.13V153.11z"/>
			</g>
		</g>
		<g id="shape454-259" transform="translate(2.86806,-3.05898)">
			<title>Tabelle.454</title>
			<ellipse fill="#FFFFFF" cx="0.961" cy="154.748" rx="0.96" ry="0.96"/>
		</g>
		<g id="shape455-261" transform="translate(3.33348,-1.13819)">
			<title>Tabelle.455</title>
			<path fill="#FFFFFF" d="M0.99,155.21c0,0.28-0.22,0.5-0.5,0.5c-0.27,0-0.489-0.22-0.489-0.5v-1.89c0-0.27,0.22-0.49,0.489-0.49
				c0.28,0,0.5,0.221,0.5,0.49V155.21z"/>
		</g>
	</g>
	<g id="group456-263" transform="translate(338.767,-71.4555)">
		<title>Tabelle.456</title>
		<g id="group457-264">
			<title>Zeichenblatt-1</title>
			<g id="group458-265" transform="translate(0.781821,-0.781821)">
				<title>Tabelle.84</title>
				<g id="shape459-266">
					<title>Tabelle.459</title>
					<path d="M0,151.08v4.63h6.09v-4.63H0z"/>
				</g>
			</g>
			<g id="group460-268">
				<title>Tabelle.85</title>
				<g id="shape461-269">
					<title>Tabelle.461</title>
					<path d="M6.87,155.71H0.78c-0.43,0-0.779-0.351-0.779-0.78v-4.63c0-0.44,0.35-0.79,0.779-0.79h6.09c0.44,0,0.79,0.35,0.79,0.79
						v4.63C7.66,155.36,7.31,155.71,6.87,155.71z M1.56,154.14h4.53v-3.06H1.56V154.14z"/>
				</g>
			</g>
			<g id="group462-271" transform="translate(1.56447,-7.70073)">
				<title>Tabelle.86</title>
				<g id="shape463-272">
					<title>Tabelle.463</title>
					<path d="M0.001,155.71c0-1.25,1.02-2.26,2.26-2.26c1.26,0,2.27,1.01,2.27,2.26H3.4c0-0.62-0.51-1.13-1.14-1.13
						c-0.62,0-1.13,0.51-1.13,1.13H0.001z"/>
				</g>
			</g>
		</g>
		<g id="group464-274" transform="translate(1.56442,-5.00901)">
			<title>Tabelle.90</title>
			<g id="shape465-275">
				<title>Tabelle.465</title>
				<path d="M0.001,153.11v2.601h1.13v-2.721h-1.13V153.11z"/>
			</g>
		</g>
		<g id="group466-277" transform="translate(4.96131,-5.00901)">
			<title>Tabelle.466</title>
			<g id="shape467-278">
				<title>Tabelle.467</title>
				<path d="M0,153.11v2.601h1.13v-2.721H0V153.11z"/>
			</g>
		</g>
		<g id="shape468-280" transform="translate(2.86806,-3.05898)">
			<title>Tabelle.468</title>
			<ellipse fill="#FFFFFF" cx="0.961" cy="154.748" rx="0.96" ry="0.96"/>
		</g>
		<g id="shape469-282" transform="translate(3.33348,-1.13819)">
			<title>Tabelle.469</title>
			<path fill="#FFFFFF" d="M0.991,155.21c0,0.28-0.22,0.5-0.5,0.5c-0.271,0-0.49-0.22-0.49-0.5v-1.89c0-0.27,0.22-0.49,0.49-0.49
				c0.28,0,0.5,0.221,0.5,0.49V155.21z"/>
		</g>
	</g>
	<g id="shape385-284" transform="translate(120.915,-78.0074)">
		<title>Tabelle.385</title>
		<path fill="none" d=""/>
		<path fill="#262626" d="M159.45,155.71"/>
	</g>
</g>
<g>
	<polygon fill="#FFFFFF" stroke="#636363" stroke-width="3" stroke-miterlimit="10" points="250.804,84.104 283.78,77.354 
		250.804,70.604 250.804,74.542 119.822,74.542 119.822,80.167 250.804,80.167 	"/>
</g>
</svg>
